<svg id="Layer_1" height="512" viewBox="0 0 512 512" width="512" xmlns="http://www.w3.org/2000/svg" data-name="Layer 1"><path d="m297.277 238.852.08-.1c-1.467.854-5.263-.782-6.618-1.35-6.548-2.742-14.117-6.628-19.615-11.02a66.179 66.179 0 0 1 -15.605-17.182c-2.01-3.232-6.867-.114-6.65 3.085-6.819 13.895-21.391 19.89-35.515 24.516a5.063 5.063 0 0 0 0 9.675c15.969 5.472 30.959 18.13 36.162 34.531.381 1.2 2.39 1.768 2.988.391 3.689-8.5 12.207-15.9 19.785-20.946a73.764 73.764 0 0 1 14.49-7.362c4.452-1.71 9.339-3.089 12.555-6.855a4.452 4.452 0 0 0 -2.057-7.383z" fill="#ffc533"/><path d="m404 358.656a13.24 13.24 0 0 0 -2.071-7.05 11.546 11.546 0 0 0 -10.586-6.732 11.825 11.825 0 0 0 -5.853 1.538c-2.748.736-5.568 1.6-8.391 2.562.031-.452 4.4-83.376 4.4-83.83a11.675 11.675 0 0 0 -18.9-9.092 65.916 65.916 0 0 0 -15.121 4.905 13.289 13.289 0 0 0 -9.988 13.19c.055.643-3.671 46.815-4.879 68.993a11.98 11.98 0 0 0 -2.427-.25 11.824 11.824 0 0 0 -5.853 1.538c-2.748.736-8.39 2.561-8.39 2.561s4.4-83.375 4.4-83.825a11.7 11.7 0 0 0 -11.651-11.6c-2.718 0-26.581 9.013-28.145 10.573a11.683 11.683 0 0 0 -4.216 10.03 12.014 12.014 0 0 0 .312 1.883q-.673 6.384-1.262 12.78a11.789 11.789 0 0 0 -8.012-3.129 11.574 11.574 0 0 0 -7.212 2.508c-6.787 1.354-34.332 10.77-34.747 10.949q1.545-10.531 2.915-21.058a13.063 13.063 0 0 0 -11.03-18.536c-4.213-.262-14.587-1.755-15.343-1.755a12.626 12.626 0 0 0 -12.6 10.135c-1.544 7.74-9.146 40.29-10.841 48.99a13.463 13.463 0 0 0 -2.347-.2 13.072 13.072 0 0 0 -2.465.234c-1.28.246-10.723 2.086-14.127 2.687a12.545 12.545 0 0 0 -9.349 7.721c-1.844-14.442-3.564-29.46-4.97-44.673a12.077 12.077 0 0 0 -15.826-10.518l-6.134 2.026-9.172 3.029a11.823 11.823 0 0 0 -4.972 19.255c.014 1.257.385 19.225.681 24.159.609 10.131 1.489 20.652 2.692 32.165 2.094 20.046 4.9 41.263 8.346 63.061a12.772 12.772 0 0 0 12.605 10.593c1.378 0 22.985-6.736 27.813-8.548a12.667 12.667 0 0 0 5.023-3.442 14.207 14.207 0 0 0 7.629 4.277 15.285 15.285 0 0 0 3.072.306c2.65 0 14.631-2.742 14.631-2.742a12.825 12.825 0 0 0 3.714.549 12.283 12.283 0 0 0 10.774-6.347c-.15 6.5-.307 13.114-.486 19.625a12.477 12.477 0 0 0 3.526 9.128 12.766 12.766 0 0 0 9.112 3.813c2.436 0 37.543-13.481 43.09-16.252 5.78-2.888 11.973-5.744 12.753-12.116.193-1.58.345-3.143.473-4.7a12.942 12.942 0 0 0 17.992-3.585c4.2-1.317 31.611-11.179 37.934-13.732q-.151 4.206-.293 8.378a12.563 12.563 0 0 0 3.518 9.248 12.931 12.931 0 0 0 20-1.908c4.2-1.317 33.9-11.965 41.311-15.108a12.69 12.69 0 0 0 7.666-9.923 13.394 13.394 0 0 0 -.38-5.591c.717-4.794 1.657-15.776 1.657-17.147zm-155.931 23.844q.015-.207.03-.414l.292-4.076q.158-.049.316-.1c2.33-.774 10.471-3.533 12.217-4.118 5.372-1.8 7.476-6.868 7.242-12.538-.052-1.249 1.048-12.956.835-16.147-.292-4.361-4.369-10.02-10.1-11.148 1.18-.376 11.253-1.257 13.083-2.274-.993 16.593-1.732 33.025-2.341 49.092a11.646 11.646 0 0 0 -6.74-2.135c-.396.003-11.188 2.403-14.834 3.858z" fill="#fa5d53"/><path d="m371.789 140.772c-5.444-9.189-17-14.445-27.375-11.152-8.738 2.774-5 16.582 3.8 13.787a9.939 9.939 0 0 1 11.856 5.738c2.216 5.126.468 12.214-1.5 17.162-4.877 12.272-16.39 19.842-28.978 22.411-8.43 1.72-17.249 1.386-23.5-5.377-2.661-2.878-3.963-6.626-4.6-10.537 2.536-3.076 4.982-6.225 7.31-9.459a129.9 129.9 0 0 0 18.345-35.951c3.355-10.552 5.328-25.046-3.237-33.813-9.217-9.434-21.407 1.653-25.04 10.77-2.391 6-3.772 12.553-5.5 18.775a207.123 207.123 0 0 0 -5.159 22.353 106.816 106.816 0 0 0 -1.617 22.8c-.614.687-1.229 1.372-1.854 2.05-5.741 6.225-12.468 14.256-20.062 18.255-9.463 4.984-10.782-9.471-10.031-15.386.224-1.761.5-3.521.789-5.281.709-.56 1.413-1.129 2.108-1.713a89.808 89.808 0 0 0 22.7-28.644c4.9-9.967 10.366-24.334 5.823-35.264-4.031-9.7-15.086-13.842-23.3-6.108-8.895 8.379-10.882 22.824-13.722 34.115-2.454 9.753-4.72 19.629-6.567 29.547a68.872 68.872 0 0 1 -13.781 7.391l2.505-58.917c.287-6.737-10.439-10.221-13.321-3.608l-24.438 56.084q-2.222 5.1-4.427 10.209c-6.337.306-9.307 8.584-5.365 12.3-.726 1.645-1.451 3.291-2.187 4.932-3.757 8.375-7.847 17.034-14.126 23.847-8.672 9.409-26.826 17.684-36.474 4.519-4.423-6.035-2.559-14.338 1.51-20.024 4.887-6.828 12.959-10.648 20.695-13.243 8.679-2.912 4.957-16.725-3.8-13.787-15.147 5.082-30.5 14.65-34.314 31.325-3.564 15.579 4.752 29.77 19.683 34.982 15.023 5.244 31.026-1.629 41.663-12.456 10.113-10.293 16.123-23.848 21.716-37.2a85.473 85.473 0 0 0 15.61-.576q-.619 14.563-1.238 29.125c-.391 9.2 13.907 9.181 14.3 0l1.373-32.3a84.438 84.438 0 0 0 12.171-4.894c0 9.421 2.784 18.669 11.673 23.843 11.653 6.782 22.393-1.387 30.9-9.048q3.929-3.536 7.642-7.3a33.607 33.607 0 0 0 24.844 18.594c23.113 3.526 48.027-10.9 56.61-32.379 3.762-9.422 5.273-21.408-.113-30.497zm-167.814 31.406 11.328-25.99q-.533 12.537-1.066 25.073a69.415 69.415 0 0 1 -10.262.917zm62.785-52.725c1.114-3.961 2.091-8.24 4.663-11.572a3.827 3.827 0 0 1 1.631.076c1.31 3.818-.446 9.158-1.51 12.866a61.567 61.567 0 0 1 -5.679 13.363 75.2 75.2 0 0 1 -4.837 7.442q2.613-11.152 5.732-22.176zm38.771 13.535c1.222-4.719 2.569-9.4 3.9-14.091 1.166-4.1 1.742-9.442 4.626-12.783.046-.053 1.22.513 1.289.772 1.234 4.623-.12 10.292-1.4 14.768a106.665 106.665 0 0 1 -11.527 25.446c.82-4.738 1.902-9.439 3.112-14.113z" fill="#009995"/><g fill="#2f2f51"><path d="m242.1 259.133c0 .068 0 .136-.006.2a2.151 2.151 0 0 1 -.97 1.835 1.453 1.453 0 0 1 -.811.515c-1.069.236-2.139.449-3.216.649a1.57 1.57 0 0 1 -1.891-1.074 1.552 1.552 0 0 1 .972-1.838 1.686 1.686 0 0 1 -.285-1.334c2.028-10.757 4.173-21.487 6.168-32.252a1.493 1.493 0 0 1 .229-2.722q1.392-.366 2.806-.636a1.6 1.6 0 0 1 2 1.523 268.965 268.965 0 0 1 -4.996 35.134zm26.7-26.392c1.364-2.559 2.7-5.18 3.877-7.828a1.716 1.716 0 0 0 -.581-2.146 1.366 1.366 0 0 0 -2.531-.634c-.194.337-.358.7-.538 1.047-3.126-4.694-11.142-1.334-13.33 3.84a13.255 13.255 0 0 0 .885 11.926c1.49 2.649 4.23 4.922 5.127 7.859.968 3.171-.52 6.529-3.934 7.2-1.784.35-6.885-.089-3.462-3.322 2.16-2.041-.582-5.234-3.062-3.968-3.849 1.965-5.732 6.822-3.18 10.626 3 4.473 9.464 4.313 13.9 2.34 5.25-2.336 8.4-7.443 6.881-13.234-.813-3.089-2.751-5.65-4.726-8.08-1.456-1.792-3.25-3.494-4.118-5.679a4.717 4.717 0 0 1 -.431-4.322q2.169-6.369 7.836-1.647c-.627 1.564-1.2 3.152-1.815 4.672-.741 1.848 2.284 3.082 3.202 1.35z"/><path d="m290.448 185.044 9.052-10.2a45.828 45.828 0 0 0 -2.812 19c-1.938-1.187-5.667-7.225-6.24-8.8z"/><path d="m240.229 177.554c3.771-1.876 8.938-4.876 11.6-7.376-3.667 5.167-9.069 10.531-10.9 15.031a38.2 38.2 0 0 1 -.7-7.655z"/><path d="m213.626 185.625a103.508 103.508 0 0 0 10.958-2.28 119.6 119.6 0 0 0 -11.242 8.955z"/><path d="m213.219 267.73a2.045 2.045 0 0 0 -1.1-3.689 132.691 132.691 0 0 1 -14.267-1.7 1.834 1.834 0 0 0 -2.218 1.259c-3.449 17.29-8.123 34.315-11.351 51.67q-3.182 17.112-5.351 34.4c-1.646-9.1-3.661-18.147-5.517-27.188a1.77 1.77 0 0 0 -2.135-1.212c-4.762.916-9.519 1.875-14.294 2.718a1.551 1.551 0 0 0 -1.094 1.094c-4.771 15.743-9.077 31.633-14.016 47.323-4.755-31.64-9.115-63.3-12.062-95.18a1.149 1.149 0 0 0 -1.436-1.094l-15.307 5.055a.836.836 0 0 0 .124 1.617.8.8 0 0 0 .231.134c3.226 1.189 1.945 10.745 2.079 14.111.218 5.487.47 10.975.8 16.457.635 10.577 1.552 21.143 2.652 31.682 2.182 20.884 4.994 41.748 8.271 62.488a1.793 1.793 0 0 0 2.2 1.247c7.8-2.682 15.787-4.88 23.506-7.777a1.616 1.616 0 0 0 .444-2.8c3.519-4.792 4.059-12.512 5.317-17.888q2.211-9.449 4.34-18.915l5.229 32.723c.427 2.674.158 6.569 3.4 7.235 1.848.38 4.447-.693 6.222-1.044l11.284-2.23c.482 1.367 2.738 1.714 3.023 0 7.209-43.365 15.532-86.736 21.042-130.354a.553.553 0 0 0 -.016-.142z"/><path d="m263.714 291.715c-.013-.269-.019-.54-.033-.809-.04-.76-1.261-1.028-1.407-.19-.057.33-.106.663-.161.993a152.625 152.625 0 0 0 -23.684 6.019c-3.8 1.282-7.57 2.671-11.269 4.213-.462.193-9.41 4.131-9.411 3.751 0-.738-1.224-.961-1.336-.181a2.359 2.359 0 0 0 .3 1.792c-3.28 38.72-3.511 77.821-4.579 116.652-.051 1.845 2.322 2.137 3.144.9 6.422-1.947 12.461-5.563 18.547-8.378 7.131-3.3 14.385-6.287 21.686-9.184.18 1.618 2.978 1.49 3.209-.4a98.867 98.867 0 0 0 .4-21.067.7.7 0 0 0 -1.148-.512 1.574 1.574 0 0 0 -.951-.052 76.717 76.717 0 0 0 -25.767 11.919.764.764 0 0 0 -.148.148c.726-8.682 1.316-17.368 1.944-26.058.164-2.268-.2-4.5 1.617-6.222 1.185-1.123 4.612-1.557 6.09-2.049 4.07-1.352 8.125-2.747 12.191-4.109a1.67 1.67 0 0 0 -.006-3.142 63.137 63.137 0 0 0 .608-14.387.791.791 0 0 0 -.77-.729 1.416 1.416 0 0 0 -1.37-.409c-6.13 1.576-12.237 3.7-18.272 5.679a120.657 120.657 0 0 0 .984-21.623.792.792 0 0 0 -.416-.632c8.753-1.655 17.659-4.738 26.186-7.5 0 .061-.005.122-.007.183-.05 2.024 2.912 1.95 3.1 0 .055-.576.093-1.158.143-1.735a1.587 1.587 0 0 0 .083-1.014 175.015 175.015 0 0 0 .6-19.222 1.445 1.445 0 0 0 -.097-2.645z"/><path d="m326.392 350.369c-.02-.153-.028-.311-.05-.463-.1-.718-1.225-.646-1.381 0-.008.031-.013.064-.021.1a1.982 1.982 0 0 0 -.2.028 126.088 126.088 0 0 0 -25.453 9.419c.654-6.346.831-12.8 1.3-19.112.664-8.93 1.336-17.862 1.919-26.8 1.125-17.242 2.332-34.558 2.35-51.848a1.652 1.652 0 0 0 0-.831c0-.7.01-1.4 0-2.107-.007-.947-1.324-.89-1.432 0-.045.37-.083.74-.127 1.11-6.231.325-12.916 2.639-18.6 5.418a.761.761 0 0 0 -1.091.54c-.132.067-.272.132-.4.2a.825.825 0 0 0 .216 1.513c-4.519 41.58-6.44 83.66-7.864 125.444-.08 2.344 3.551 2.338 3.641 0 .025-.649.055-1.3.08-1.947 7.954-2.01 15.69-5.183 23.416-7.9 7.515-2.648 15.083-5.3 22.419-8.408 1.6-.678 1.289-2.773.156-3.708a76.793 76.793 0 0 0 1.407-17.433 2.008 2.008 0 0 0 -.285-3.215z"/><path d="m387.553 352.355c-.02-.153-.028-.311-.05-.463-.1-.718-1.224-.646-1.381 0-.008.031-.013.064-.021.1a1.955 1.955 0 0 0 -.2.028 126.075 126.075 0 0 0 -25.453 9.419c.654-6.346.831-12.8 1.3-19.112.664-8.93 1.336-17.861 1.919-26.8 1.125-17.242 2.332-34.558 2.35-51.848a1.649 1.649 0 0 0 0-.831c0-.7.01-1.4 0-2.107-.007-.947-1.323-.89-1.432 0-.045.37-.082.74-.126 1.11-6.231.325-12.916 2.639-18.6 5.418a.761.761 0 0 0 -1.09.54c-.132.067-.272.132-.4.2a.826.826 0 0 0 .216 1.513c-4.519 41.58-6.44 83.66-7.864 125.444-.08 2.344 3.551 2.338 3.641 0 .025-.649.055-1.3.08-1.947 7.954-2.01 15.69-5.183 23.416-7.9 7.515-2.648 15.083-5.3 22.419-8.408 1.6-.678 1.289-2.773.156-3.708a76.779 76.779 0 0 0 1.407-17.433 2.008 2.008 0 0 0 -.287-3.215z"/></g><path d="m189.526 394.911a1.747 1.747 0 0 0 -.908-.058l-9.321 1.821c-1.292.252-6.2 1.921-6.967 1.252-.582-.507-.976-6.067-1.106-6.87l-1.29-8.016-4.976-30.917c-.27-1.677-2.933-1.571-3.284 0-1.8 8.058-3.6 16.114-5.322 24.188-1.541 7.212-2.269 15.264-5.158 22.1-6.97 1.911-13.811 4.328-20.723 6.452-4.667-40.644-9.49-81.227-13.477-121.947a.965.965 0 0 0 -.693-.91l-.095-.015 11.419-3.29c1.722 34.967 5.029 69.974 11.172 104.458.411 2.308 4.006 2.16 4.52 0 2.841-11.94 6.233-23.715 9.555-35.529 1.566-5.569 2.584-11.809 4.805-17.142 1.578-3.787 2.274-3.871 6.3-4.531l6.3-1.033c1.957 13.876 3.606 27.891 6.857 41.527.594 2.491 4.011 1.719 4.215-.57q2.33-26.106 6.713-51.947c2.708-15.908 5.6-32.2 10.5-47.627a48.407 48.407 0 0 0 13.219 1.726c-8.592 42.032-14.823 84.621-22.255 126.878z" fill="#efeae1"/><path d="m232.065 322.589c-.726.412-.208 1.406.538 1.276l.1-.019a.745.745 0 0 0 -.091.228c-1.491 7.617-1.762 15.873-1.8 23.618-.007 1.4 1.96 1.317 2.12 0l.009-.074a66.639 66.639 0 0 0 18.607-4.257 59.934 59.934 0 0 0 -1.548 13.186c-6.052 2.153-12.029 4.465-18.017 6.8a1.316 1.316 0 0 0 -.921 1.209c-.564 11.2-1.2 22.37-1.414 33.581-.017.908 1.314.882 1.395.005a.681.681 0 0 0 .918.243 202.938 202.938 0 0 1 25.549-10.062c-.449 5.2-.976 10.4-1.618 15.582a1.537 1.537 0 0 0 -.562.1c-7.1 2.72-14.093 5.723-20.993 8.912-6.278 2.9-13.173 5.771-18.738 9.986 1.3-38.223 3.4-76.656 2.539-114.9 3.18.348 9.651-3.139 10.839-3.574a297.106 297.106 0 0 1 32.64-9.518 177.573 177.573 0 0 0 -1.593 17.826c-9.366 2.217-19.633 5.127-27.959 9.852z" fill="#efeae1"/><path d="m322.449 371.016c-7.76 2.766-15.37 6.053-22.956 9.251-6.7 2.825-13.662 5.4-20.131 8.762 1.61-40.584 4.14-81.134 5.608-121.717 5.931-1.327 12.193-2.475 17.972-4.274-1.831 16.385-2.748 32.892-3.875 49.334-.585 8.543-1.123 17.089-1.7 25.633-.627 9.229-1.975 18.711-1.737 27.954.038 1.494 2.438 1.967 2.722.368.249-1.4.449-2.813.629-4.231a103.989 103.989 0 0 0 25.011-7.272c-.862 5.333-1.201 10.917-1.543 16.192z" fill="#efeae1"/><path d="m383.61 373c-7.76 2.766-15.37 6.053-22.956 9.251-6.7 2.825-13.662 5.4-20.131 8.762 1.61-40.584 4.14-81.134 5.608-121.717 5.931-1.327 12.193-2.475 17.972-4.274-1.831 16.385-2.748 32.892-3.875 49.334-.585 8.543-1.123 17.089-1.7 25.633-.627 9.229-1.975 18.711-1.737 27.954.038 1.494 2.438 1.967 2.722.368.249-1.4.449-2.813.629-4.231a103.989 103.989 0 0 0 25.011-7.272c-.862 5.334-1.201 10.919-1.543 16.192z" fill="#efeae1"/><path d="m165.323 151.025a67.956 67.956 0 0 0 -10.091-2.881c-3.767-.661-6.718-.1-10.377.686-5.655 1.208-12.592 3.746-18.279 2.653-3.3-.634-4.573-5.523-2.034-7.7 5.164-4.436 14.667-5.123 21.136-3.437 6.972 1.817 14.665 4.01 20.861 7.8 1.489.905.516 3.468-1.216 2.879z" fill="#ffc533"/><path d="m171.093 135.221c-3.666-5.261-7.323-10.637-12.168-14.9a27.548 27.548 0 0 0 -8.431-5.322c-2.4-.879-4.748-1.051-6.972-2.4-2.709-1.64-2.681-6.912.97-7.425 6.664-.937 13.031 4.1 17.378 8.8 5.256 5.691 8.642 12.737 11.866 19.7a1.532 1.532 0 0 1 -2.643 1.547z" fill="#ffc533"/><path d="m187.8 105.914c-1.2 5.2-2.009 9.674-1.57 15.038.133 1.627-2.458 2.36-3.145.852-3.817-8.389-8.973-23.975-.778-31.407 2.33-2.113 7.008-1.58 7.652 2.02.826 4.619-1.116 8.993-2.159 13.497z" fill="#ffc533"/><path d="m397.063 361.72c-.18-1.067-1.785-.948-2.042 0-.917 3.39-1.262 6.9-1.962 10.343-.613 3.015-1.641 6-1.836 9.066-7.453 2.558-14.685 5.761-22.167 8.264-7.823 2.617-15.776 4.819-23.726 7.008a1.02 1.02 0 0 0 .542 1.966c15.988-3.071 33.045-7.254 47.858-14.13a1.64 1.64 0 0 0 .569-.427 2.576 2.576 0 0 0 1.615-1.519c1.241-3.215 1.211-7 1.4-10.414a45.652 45.652 0 0 0 -.251-10.157z" fill="#2f2f51"/><path d="m333.719 372.335a1.044 1.044 0 0 0 -2.041-.276 63.6 63.6 0 0 0 -1.968 8.535c-6.066 1.672-11.969 4.528-17.9 6.635-6.228 2.215-12.478 4.322-18.814 6.207a1.06 1.06 0 0 0 .563 2.042c12.578-2.645 26.976-5.268 38.356-11.467a1.762 1.762 0 0 0 .947-1.84c.007-.024.019-.044.025-.069.79-3.077.68-6.602.832-9.767z" fill="#2f2f51"/><path d="m268.56 405.635a33.682 33.682 0 0 0 -.313-6.925c-.229-1.112-1.71-.893-2.042 0a34.413 34.413 0 0 0 -1.337 6.9 20.74 20.74 0 0 0 -.557 4.8c-6.165 1.711-12.167 4.692-18.023 7.236-6.524 2.834-12.964 5.825-19.373 8.91-1.075.517-.32 2.32.816 1.935 6.741-2.289 13.442-4.662 20.088-7.215 6.12-2.35 12.71-4.485 18.418-7.732a1.716 1.716 0 0 0 .627-.6 1.6 1.6 0 0 0 .9-.74c1.156-1.976.791-4.348.796-6.569z" fill="#2f2f51"/><path d="m163.456 392.343a1.044 1.044 0 0 0 -2.041-.276 52.162 52.162 0 0 0 -2.3 12.716c-7.053 1.225-14.8 4.471-21.244 7.509-1.154.544-.264 2.063.8 1.9 7.222-1.109 15.636-2.85 22.3-5.9a1.548 1.548 0 0 0 1.013-1.468 1.6 1.6 0 0 0 .686-1.016 50.834 50.834 0 0 0 .786-13.465z" fill="#2f2f51"/><path d="m203.68 376.062c-2.757 7.8-5.271 16.53-6.05 24.811a58.121 58.121 0 0 0 -6.752 2.271 67.719 67.719 0 0 1 -8.484 2.206c-1.142.224-.86 2.009.271 2 5.248-.03 12.5.062 17.069-2.825a2.071 2.071 0 0 0 .9-1.462 2 2 0 0 0 1.019-1.184c2.538-7.932 3.566-17.254 4.029-25.549.068-1.204-1.637-1.3-2.002-.268z" fill="#2f2f51"/></svg>