<svg id="Layer_1" height="512" viewBox="0 0 512 512" width="512" xmlns="http://www.w3.org/2000/svg" data-name="Layer 1"><path d="m206.319 396.869c.03-.87.07-1.75.08-2.61.04-2-3.09-2.61-3.68-.81-33.5-31.97-54.01-71.56-61.12-117.66 6.33-7.82 12.15-16.06 17.97-24.26 4.7-6.65 13.44-15.04 13.46-23.51a2.263 2.263 0 0 0 -2.27-2.42 2.5 2.5 0 0 0 -1.36-1.09c-6.31-2.2-12.87-4.12-19.42-5.83a2.7 2.7 0 0 0 -4.32-1.11c-1.6-.4-3.21-.8-4.8-1.17a1.933 1.933 0 0 0 -1.04 3.72c1.06.39 2.13.76 3.18 1.15q-6.915 9.915-14.07 19.65c-2.48 3.36-4.97 6.72-7.47 10.05-.93 1.24-3.98 6.33-6.67 9.66-.1-13.91.2-32.54.85-46.46a2.549 2.549 0 0 0 -.07-4.42 2.177 2.177 0 0 0 -2.45-.89c-7.72-2.7-15.35-5.41-22.9-8.61-1.1-.46-2.24.52-2.58 1.47a3.166 3.166 0 0 0 .38 3.4 1.832 1.832 0 0 0 .24.31 913.129 913.129 0 0 0 1.03 132.32 1.872 1.872 0 0 0 .21 2.58 2.779 2.779 0 0 0 4.11 2.07c6.34 3.05 12.85 5.84 19.34 8.52a2.79 2.79 0 0 0 3.74 1.46c2.31.41 3.84-3.53 1.45-4.59-.18-.07-.36-.15-.54-.22-1.14-13.52-1.92-27.01-2.7-40.52a39.3 39.3 0 0 0 6.45-5.76c6.42 26.04 13.41 52.25 26.39 75.87 11.24 20.46 28.33 42.66 50.48 51.95 2.75 1.17 4.38-2.09 3.43-4.31a2.573 2.573 0 0 0 3-2.27c.74-6.84 1.23-13.8 1.52-20.72a2.935 2.935 0 0 0 .37-4.74c-.08-.06-.139-.14-.22-.2z" fill="#fa5d53"/><path d="m213.2 239.839h-.01v-.11a1.959 1.959 0 0 0 -3.12-1.48 129.639 129.639 0 0 0 -25.1-8.84c-2.46-.61-3.24 2.78-1.02 3.71.44.17.87.36 1.31.55-1.46 19.27-1.7 38.67-2.35 57.98-.63 18.96-2.51 38.42-1.61 57.39a1.907 1.907 0 0 0 .48 2.85c7.8 5.26 16 10.74 24.41 14.99a2.532 2.532 0 0 0 3.69-2.75 2.905 2.905 0 0 0 .18-.69c2.38-20.42 2.81-41.28 3.41-61.81.57-19.09.92-38.32-.06-57.41 1.249-1.07 1.539-3.43-.21-4.38z" fill="#fa5d53"/><path d="m331.279 238.109c.12-2.53-3.66-2.46-3.9 0-.05.61-.1 1.23-.15 1.85-4.01 1.1-7.98 2.36-12.04 3.31-4.75 1.12-12.51 3.69-17.14 1.7a1.946 1.946 0 0 0 -1.96 3.36 10.172 10.172 0 0 0 3.4 1.54c-1.66 27.77-2.96 55.83-3.72 83.72-7.12-27.54-15.8-54.77-24.03-81.96l.72.04c3.32.09 3.25-4.89 0-5.12-12.07-.84-23.29-3.55-35.12-5.63a2.055 2.055 0 0 0 -1.41.31 1.942 1.942 0 0 0 -2.3 1.82c-3.29 60.44-6.02 121.39-4.56 181.94 0 .02.01.05.01.07a2.985 2.985 0 0 0 -.96 2.21v.24a2.026 2.026 0 0 0 .19 3.28 42.046 42.046 0 0 0 25.68 4.78 1.692 1.692 0 0 0 .34-.08 2.588 2.588 0 0 0 5.09-.54c2.56-34.55 2.07-69.69 1.68-104.49 11.5 33.41 22.57 67.04 34.9 100.12a2.586 2.586 0 0 0 4.02 1.14 58.339 58.339 0 0 0 22.86-2.96 67.569 67.569 0 0 1 1.48-5.43c1.41-30.86 1.27-61.8 2.52-92.68 1.15-28.88 2.6-57.75 4.1-86.62a2.713 2.713 0 0 0 .21-4.17c.02-.6.05-1.17.09-1.75z" fill="#fa5d53"/><path d="m418.659 225.789c-21.8-9.85-45.22-.77-64.96 10.56a1.974 1.974 0 0 0 -2.39 1.38c-2.45 1.45-4.84 2.92-7.14 4.38-2.9 1.82-.32 6.27 2.69 4.6 1.27-.71 2.57-1.43 3.87-2.15-1.71 24.24-2.16 48.6-2.23 72.89-.09 26.36-.21 53.06 2.03 79.33.03.15.05.29.09.43a2.5 2.5 0 0 0 -.21 1.19c.05.7.1 1.39.15 2.09a3.145 3.145 0 0 0 3.09 3.09 4.473 4.473 0 0 0 .51-.07 1.781 1.781 0 0 0 1.03-.08c47.4-16.49 78.69-66.07 88.02-113.73 4.64-23.64-.18-52.89-24.55-63.91zm-43.17 33.04c0-.07-.04-.12-.05-.19 13.71-6.53 29.93-9.89 35.81 8.56 3.38 10.62 2.73 23.13.54 33.93-4.54 22.39-16.85 38.89-33.9 52.67-.5-31.66-1.53-63.32-2.4-94.97z" fill="#fa5d53"/><path d="m196.75 387.3c.03-.87.07-1.75.08-2.61.04-2-3.09-2.61-3.68-.81-33.5-31.97-54.01-71.56-61.12-117.66 6.33-7.82 12.15-16.06 17.97-24.26 4.7-6.65 13.44-15.04 13.46-23.51a2.263 2.263 0 0 0 -2.27-2.42 2.5 2.5 0 0 0 -1.36-1.09c-6.31-2.2-12.87-4.12-19.42-5.83a2.7 2.7 0 0 0 -4.32-1.11c-1.6-.4-3.21-.8-4.8-1.17a1.933 1.933 0 0 0 -1.04 3.72c1.06.39 2.13.76 3.18 1.15q-6.915 9.915-14.07 19.65c-2.48 3.36-4.97 6.72-7.47 10.05-.93 1.24-3.98 6.33-6.67 9.66-.1-13.91.2-32.54.85-46.46a2.549 2.549 0 0 0 -.07-4.42 2.177 2.177 0 0 0 -2.45-.89c-7.72-2.7-15.35-5.41-22.9-8.61-1.1-.46-2.24.52-2.58 1.47a3.166 3.166 0 0 0 .38 3.4 1.832 1.832 0 0 0 .24.31 913.129 913.129 0 0 0 1.03 132.32 1.872 1.872 0 0 0 .21 2.58 2.779 2.779 0 0 0 4.11 2.07c6.34 3.05 12.85 5.84 19.34 8.52a2.79 2.79 0 0 0 3.74 1.46c2.31.41 3.84-3.53 1.45-4.59-.18-.07-.36-.15-.54-.22-1.14-13.52-1.92-27.01-2.7-40.52a39.3 39.3 0 0 0 6.45-5.76c6.42 26.04 13.41 52.25 26.39 75.87 11.24 20.46 28.33 42.66 50.48 51.95 2.75 1.17 4.38-2.09 3.43-4.31a2.573 2.573 0 0 0 3-2.27c.74-6.84 1.23-13.8 1.52-20.72a2.935 2.935 0 0 0 .37-4.74c-.08-.06-.14-.14-.22-.2z" fill="#2f2f51"/><path d="m203.63 230.27h-.01v-.11a1.959 1.959 0 0 0 -3.12-1.48 129.639 129.639 0 0 0 -25.1-8.84c-2.46-.61-3.24 2.78-1.02 3.71.44.17.87.36 1.31.55-1.46 19.27-1.7 38.67-2.35 57.98-.63 18.96-2.51 38.42-1.61 57.39a1.907 1.907 0 0 0 .48 2.85c7.8 5.26 16 10.74 24.41 14.99a2.532 2.532 0 0 0 3.69-2.75 2.905 2.905 0 0 0 .18-.69c2.38-20.42 2.81-41.28 3.41-61.81.57-19.09.92-38.32-.06-57.41 1.25-1.07 1.54-3.43-.21-4.38z" fill="#2f2f51"/><path d="m321.71 228.54c.12-2.53-3.66-2.46-3.9 0-.05.61-.1 1.23-.15 1.85-4.01 1.1-7.98 2.36-12.04 3.31-4.75 1.12-12.51 3.69-17.14 1.7a1.946 1.946 0 0 0 -1.96 3.36 10.172 10.172 0 0 0 3.4 1.54c-1.66 27.77-2.96 55.83-3.72 83.72-7.12-27.54-15.8-54.77-24.03-81.96l.72.04c3.32.09 3.25-4.89 0-5.12-12.07-.84-23.29-3.55-35.12-5.63a2.055 2.055 0 0 0 -1.41.31 1.942 1.942 0 0 0 -2.3 1.82c-3.29 60.44-6.02 121.39-4.56 181.94 0 .02.01.05.01.07a2.985 2.985 0 0 0 -.96 2.21v.24a2.026 2.026 0 0 0 .19 3.28 42.046 42.046 0 0 0 25.68 4.78 1.692 1.692 0 0 0 .34-.08 2.588 2.588 0 0 0 5.09-.54c2.56-34.55 2.07-69.69 1.68-104.49 11.5 33.41 22.57 67.04 34.9 100.12a2.586 2.586 0 0 0 4.02 1.14 58.339 58.339 0 0 0 22.86-2.96 67.569 67.569 0 0 1 1.48-5.43c1.41-30.86 1.27-61.8 2.52-92.68 1.15-28.88 2.6-57.75 4.1-86.62a2.713 2.713 0 0 0 .21-4.17c.02-.6.05-1.17.09-1.75z" fill="#2f2f51"/><path d="m409.09 216.22c-21.8-9.85-45.22-.77-64.96 10.56a1.974 1.974 0 0 0 -2.39 1.38c-2.45 1.45-4.84 2.92-7.14 4.38-2.9 1.82-.32 6.27 2.69 4.6 1.27-.71 2.57-1.43 3.87-2.15-1.71 24.24-2.16 48.6-2.23 72.89-.09 26.36-.21 53.06 2.03 79.33.03.15.05.29.09.43a2.5 2.5 0 0 0 -.21 1.19c.05.7.1 1.39.15 2.09a3.145 3.145 0 0 0 3.09 3.09 4.473 4.473 0 0 0 .51-.07 1.781 1.781 0 0 0 1.03-.08c47.4-16.49 78.69-66.07 88.02-113.73 4.64-23.64-.18-52.89-24.55-63.91zm-43.17 33.04c0-.07-.04-.12-.05-.19 13.71-6.53 29.93-9.89 35.81 8.56 3.38 10.62 2.73 23.13.54 33.93-4.54 22.39-16.85 38.89-33.9 52.67-.5-31.66-1.53-63.32-2.4-94.97z" fill="#2f2f51"/><path d="m235.781 86.211c-17.745-5.563-38.4.245-49.629 15.251-12.059 16.122-10.577 37.171 3.105 51.719 6.607 7.025 17.166-3.564 10.573-10.573-19.763-21.015 5.17-48.408 29.536-42.647 10.265 2.427 19.827 10.2 19.488 21.573-.2 6.565-3.414 12.789-7.441 17.816-3.4 4.245-11.264 13.452-16.9 14.1-.236.027-.44.095-.665.137a322.61 322.61 0 0 1 4.584-40.963c1.673-9.41-12.735-13.449-14.419-3.975a345.606 345.606 0 0 0 -4.493 87.228c.232 3.008 2.136 6.659 5.489 7.209 16.005 2.629 32.849-6.083 37.145-22.5 2.731-10.435-1.247-17.431-8-21.712 9.962-8.594 17.527-21.466 19.171-32.547 2.81-18.942-9.957-34.602-27.544-40.116zm1.142 92.841a17.254 17.254 0 0 1 -12.9 9.583q-.571-10.187-.53-20.366a9.38 9.38 0 0 0 1.017.132c6.867.29 16.522 1.321 12.413 10.651z" fill="#2f2f51"/><path d="m319.849 170.488c-5.845 10.92-20.921 25.062-33.809 14.44-4.408-3.633-6.736-9.149-7.534-15.079 19.787-1.2 48.575-18.543 44.339-40.3-5.555-28.537-39.133-10.156-49.64 4.235-12.673 17.358-14.638 46.872 2.708 62.151 20.176 17.772 46.7 1.091 57.176-18.485 4.548-8.501-8.699-15.45-13.24-6.962zm-26.656-35.918c3.843-2.835 15.863-9.672 15.156.01-.473 6.471-9.041 11.46-13.946 14.489a36.987 36.987 0 0 1 -14.916 5.67 34.988 34.988 0 0 1 2.093-5.969 37.158 37.158 0 0 1 11.613-14.2z" fill="#2f2f51"/><path d="m190.306 412.965c0 .176.013.339.025.49-9.816-6.661-19.242-12.845-27.449-21.63a143.658 143.658 0 0 1 -21.555-30.667c-12.317-23.05-19.506-48.363-26.381-73.461.138-.214.276-.415.427-.616-.352-.917-.716-1.835-1.119-2.74a7.769 7.769 0 0 1 -.377-1.156c-2.3 2.363-4.525 4.789-6.837 7.088-.666.729-1.32 1.445-2.011 2.137 0-.063-.013-.126-.013-.188a49.908 49.908 0 0 1 -4.485 3.778.1.1 0 0 1 -.05.025c.126 13.234.98 26.532 2.25 39.665-5.869-2.5-11.827-4.9-17.822-7.063a1060.129 1060.129 0 0 1 -2.309-132.389 152.173 152.173 0 0 0 19.368 7.755c-2.074 15.5-2.715 36.272-2.086 51.932v.025q.132 3.337.339 6.636a2.483 2.483 0 0 0 .088.44c1.7-2.023 3.406-4.047 4.99-6.158v-.2a11.525 11.525 0 0 0 1.119-1.194 2.2 2.2 0 0 1 .151-.176c.352-.427.7-.867 1.119-1.357 4.085-4.726 7.855-9.74 11.676-14.68 6.523-8.458 12.794-17.118 18.94-25.853 6.586 2.262 13.3 4.323 19.958 6.033-.855 3.884-4.286 7.616-6.4 10.746-2.677 3.946-5.342 7.905-8.056 11.827-5.115 7.39-10.469 14.629-15.472 22.108a1.842 1.842 0 0 0 -.013 2.049 1.692 1.692 0 0 0 -.063.44c3.356 47.194 27.575 94.74 63.809 125.28-.806 6.997-1.422 14.061-1.761 21.074z" fill="#009995"/><path d="m199.657 234.207c-.515 19.28-.44 38.572-1.056 57.852-.616 19.544-2.313 39.024-3.129 58.543-5.983-3.733-12.355-7.088-18.626-10.268 2.111-19.167 1.345-38.987 1.81-58.254.465-18.727 1.307-37.529 1.068-56.268 6.623 2.839 13.246 5.73 19.933 8.395z" fill="#009995"/><path d="m311.69 321.078c-1.244 30.792-2.84 61.861-1.935 92.678a2.838 2.838 0 0 0 .226 1.068 132.192 132.192 0 0 1 -19.255 3.406c-10.821-37.215-24.847-73.939-39.339-109.884v-.628a20.115 20.115 0 0 1 -4.135-3.921c-.025.39-.038.767-.05 1.156a1.576 1.576 0 0 0 -.528 1.935c.126.377.264.767.39 1.144-1.6 37.667-3.783 75.837-2.5 113.454a2.185 2.185 0 0 0 -.767-.138 61.01 61.01 0 0 1 -19.229-2.338 2.987 2.987 0 0 0 .163-.955v-.355a3.028 3.028 0 0 0 -.2-1.056 2.622 2.622 0 0 0 .3-1.232c1.257-59.963 1.106-119.914 3.041-179.877 9.263 3.946 20.034 5.719 30.227 6.334a1.265 1.265 0 0 0 .038.314c8.069 30.88 15.66 62.137 25.375 92.553a2.506 2.506 0 0 0 2.363 1.835c-.013.54-.038 1.081-.05 1.621-.063 3.305 4.726 3.167 5.052 0a711.457 711.457 0 0 0 3.054-97.53 54.6 54.6 0 0 0 6.033-.654 92.878 92.878 0 0 0 17.193-3.846q-3.77 42.404-5.467 84.916z" fill="#009995"/><path d="m409.622 223.046c-21.366-11.776-44.492-1.131-64.224 9.615-.465 25.074-1.232 50.135-1.181 75.221.063 26.23 1.47 52.41 1.722 78.627a3.586 3.586 0 0 1 1.093 2.325c0 .075.013.151.013.214 39.012-17.118 64.324-55.816 76.955-95.293 7.415-23.201 11.01-56.721-14.378-70.709zm-.013 57.349c-1.433 27.009-16.854 57.362-41.174 70.935.013 1.7.063 3.406.075 5.1.038 3.406-5.14 3.381-5.266 0-.05-1.458-.1-2.916-.151-4.386a2.7 2.7 0 0 1 -.113-3.532c-1.068-32.476-1.119-65.028-.93-97.517a.044.044 0 0 0 -.025.013 1.948 1.948 0 0 1 -1.973-3.356c11.387-7.2 27.512-14.743 39.314-4.072 9.703 8.763 10.897 24.636 10.243 36.815z" fill="#009995"/><path d="m161.711 140.559c-9.219-4.28-16.334 3.146-17.807 11.492a15.463 15.463 0 0 0 -11.39-.443c-6.235 2.27-9.4 8.564-8.348 14.965 2.678 16.306 25.2 19.315 38.335 17.287a1.741 1.741 0 0 0 .836-.352 2.237 2.237 0 0 0 1.975-1.524c4.314-11.949 12.588-33.91-3.601-41.425zm-.465 39.421c-8.507-.7-17.846-1.627-25.049-6.654-3.334-2.327-6.746-6.971-5.229-11.324 2.59-7.428 10.76-4.042 14.4-.048 3.06 3.356 7.625-.907 5.916-4.565a7.949 7.949 0 0 1 -.326-5.645c1.208-3.668 3.157-4.909 6.652-4.207 5.21 1.046 6.427 5.959 6.828 10.9.588 7.234-1.038 14.663-3.192 21.543z" fill="#fa5d53"/><path d="m386.7 155.47a12.792 12.792 0 0 0 -9.325.925 12.436 12.436 0 0 0 -3.072-5.673c-4.848-5.109-12.966-4.9-18.589-1.2-14.861 9.762-5.064 29.058 3.314 39.268a1.581 1.581 0 0 0 1.2.621 2.151 2.151 0 0 0 2.209 1.135c11.393-1.548 34.761-7.451 34.685-22.395-.028-6.039-4.778-11.164-10.422-12.681zm-4.48 22.993c-5.785 4.283-13.1 6.653-20.114 8.09-.017-.035-.027-.07-.047-.1-3.855-6.7-9.033-14.136-7.689-22.273.691-4.181 3.437-9.437 8.465-9.242 4.811.187 5.778 4.852 4.439 8.541-1.513 4.169 5.178 7.214 7.277 3.564a11.033 11.033 0 0 0 1.814-2.433c2.807-2.185 7.823-1.923 10.029.769 3.518 4.285-.639 10.469-4.171 13.084z" fill="#fa5d53"/><g fill="#ffc533"><path d="m113.486 256.213a1.621 1.621 0 0 0 -2.271 0c-1.151 1.3-2.238 2.659-3.344 4a1.567 1.567 0 0 0 0 2.154 1.539 1.539 0 0 0 2.154 0c1.161-1.287 2.343-2.557 3.46-3.883a1.649 1.649 0 0 0 .001-2.271z"/><path d="m138.667 224.793-.187.071a2.568 2.568 0 0 0 -1.683 1.99c-.966 1.52-3.757 3.371-4.892 4.563-2.034 2.137-3.986 4.362-5.864 6.636-3.594 4.354-6.456 9.182-10.081 13.53-1.236 1.482.8 3.613 2.154 2.154 4.477-4.824 9.619-8.869 14.007-13.771 1.975-2.207 3.861-4.48 5.687-6.813 1.192-1.522 3.286-3.522 3.756-5.463.389-1.6-1.131-3.565-2.897-2.897z"/><path d="m265.037 295.3a169.99 169.99 0 0 1 -6.394-22.138c-1.607-7.522-2.117-15.291-3.814-22.757-.564-2.479-4.413-1.91-4.4.6.05 7.4 2.126 15.24 4.038 22.356a204.379 204.379 0 0 0 7.633 22.749c.712 1.782 3.612 1.061 2.937-.81z"/><path d="m268.161 301.247a1.6 1.6 0 0 0 -3.131.424 19.693 19.693 0 0 0 .191 4.152 1.843 1.843 0 0 0 3.614-.489 19.8 19.8 0 0 0 -.674-4.087z"/><path d="m195.015 239.8a5.366 5.366 0 0 0 -4.065-2.227 1.546 1.546 0 0 0 -1.326 2.31 5.894 5.894 0 0 1 1.268 2.161.5.5 0 0 0 .028.1c0 .047-.007.11-.011.2-.01.237-.048.467-.043.7a15.242 15.242 0 0 0 .256 1.977c.339 2.2 3.829 2.541 4.776.624a5.1 5.1 0 0 0 -.883-5.845z"/><path d="m195.318 253.927c-.394-2.75-4.8-2.546-5.356 0-1.466 6.661-.451 14.3-.345 21.1.116 7.437.019 14.868-.072 22.305-.024 1.99 2.951 1.958 3.07 0 .453-7.442.9-14.878 1.559-22.305.607-6.835 2.119-14.296 1.144-21.1z"/><path d="m391.208 223.423a24.041 24.041 0 0 0 -7.518-.191 1.532 1.532 0 0 0 -.4 2.992 24.068 24.068 0 0 0 7.375 1.249c2.248-.014 2.889-3.589.543-4.05z"/><path d="m417.684 235.938c-4.153-5.11-12.546-7.879-18.628-9.675a1.554 1.554 0 0 0 -1.192 2.827c5.016 3.041 11.605 5.967 14.305 11.485 2.647 5.41 2.829 11.843 4.967 17.481.848 2.237 4.8 2.95 5.289 0 1.167-6.983-.125-16.439-4.741-22.118z"/><path d="m254.839 188.907c-3.767 3.8-5.932 8.87-10.331 12.147-4.721 3.516-12 7.1-17.844 7.739a1.571 1.571 0 0 0 0 3.141c6.819.538 15.342-3.408 21.007-6.977 5.277-3.324 10.421-7.863 11.25-14.36.272-2.139-2.746-3.039-4.082-1.69z"/><path d="m204.376 111.063c-5.8 5.773-8.846 15.781-3.058 22.541.967 1.13 3.125-.072 2.566-1.494-2.892-7.352.77-11.916 4.578-17.9 1.603-2.51-2.013-5.21-4.086-3.147z"/><path d="m312.4 161.745c-8.758 4.456-15.38 10.21-25.746 10.575-1.648.058-2.153 2.623-.4 2.992 10.308 2.179 21.643-2.594 29.176-9.647 2.139-2.01-.587-5.165-3.03-3.92z"/><path d="m327.943 191.271c-3.992 3.966-7.644 8.1-12.491 11.08s-10.18 4.544-15.507 6.405a1.543 1.543 0 0 0 .408 3.015c11.848 1.575 26.477-6.723 31.455-17.519 1.117-2.423-1.763-5.07-3.865-2.981z"/><path d="m269.617 110.321c-.774-1.533-3.4-.464-2.806 1.183 2.1 5.8 1.548 11.026.4 16.938a2.193 2.193 0 0 0 4.226 1.165c2.563-6.207 1.109-13.485-1.82-19.286z"/></g></svg>