<svg id="Layer_1" height="512" viewBox="0 0 512 512" width="512" xmlns="http://www.w3.org/2000/svg" data-name="Layer 1"><path d="m437.345 306.159c.341-7.1.306-15.178-4.05-21.187-9.077-12.523-21.709-21.638-36.883-25.151-10.979-2.542-26.407-2.456-32.941 8.525-.115-.1-.233-.19-.352-.283-5.673-4.443-9.948-9.894-17.279-12.1-8.759-2.634-18.12-2.928-27.2-2.8-7.947.113-12.416 3.413-14.767 6.165-7.086 8.3-2.412 17.24-2.039 26.528-4.76-3.5-8.639-8.68-13.265-12.519a67.989 67.989 0 0 0 -15.086-9.694c-11.258-5.136-23.712-7.141-36.024-7.141h-.2c-14.715.026-27.832 7.144-38.117 17.584.559-.612-11.24-11.654-12.131-12.516a93.626 93.626 0 0 0 -7.026-6.734c-8.482-6.621-25.516-1.959-35.43-1.362a16.494 16.494 0 0 0 -14.308 9.721c.787-1.775-8.684-4.663-9.761-4.834-8.489-1.343-17.67-1.657-26.27-1.887-4.577-.123-9.315-.118-13.177 2.641a15.836 15.836 0 0 0 -6.061 8.632c-1.333 4.64.71 36.888 1.13 41.026 1.016 10.014 2.4 23.568 13.548 33.686 6.161 5.591 11.845 11.723 17.716 17.614-6.36-1.277-11.51-3.2-17.518.75a17.2 17.2 0 0 0 -7.6 13.449c-.189 5.185 3.394 28.626 7.473 33.266 10.045 11.426 19.821 22.438 35.947 22.438a74.02 74.02 0 0 0 11.245-.944c17.965-2.779 35.636-13.491 47.271-28.654 5.939-7.741 9.008-16.375 10.7-25.13 8.488 8.479 16.612 18.357 27.085 24.454a64.626 64.626 0 0 0 32.5 8.34 77.076 77.076 0 0 0 45.675-15.158 72.76 72.76 0 0 0 19.15-21.325c-2.4 4.094 22.942 24.636 26.713 27.708 18.521 15.09 54.293 18.36 71.68-.314 5.105-5.483 9.267-12.772 12.723-22.284 4.542-12.483 6.684-65.321 6.929-70.51z" fill="#fa5d53"/><path d="m237.271 266.5c-23.763.042-43.56 23.9-49.552 47.531-5.788 22.828 2.9 49.4 23.78 61.527 20.766 12.066 48.426 7.8 67.168-6.185 20.572-15.356 30.736-41.92 19.578-66.732-6.505-14.46-21.473-36.208-60.974-36.141zm17.864 72.5c-7.593 4.739-18.679 3.827-25.238-2.346-8.115-7.637-6.829-21.5.91-28.871 8.755-8.344 27.092-6.269 33.082 5.31 4.403 8.518-.317 20.649-8.753 25.915z" fill="#efeae1"/><path d="m167.222 262.126-22.071 1.331a6.5 6.5 0 0 0 -6.345 6.345c-.494 12.045-1.8 46.117-1.976 51.119a18.2 18.2 0 0 1 -13-8.157c-2.934-4.849-2.7-11.155-2.512-16.627a79.992 79.992 0 0 1 3.392-19.87 6.414 6.414 0 0 0 -6.118-8.032c-7.845-.218-29.356-3.057-31.556-1.109a5.9 5.9 0 0 0 -2.451 3.386c-.368 1.28.353 26.263 1.468 37.254 1.1 10.862 2.5 20.986 11.454 28.274a56.263 56.263 0 0 0 27.132 11.722 83.439 83.439 0 0 0 9.349.924c-1.511 5.9-4.069 11.521-8.577 15.644-6.876 6.29-16.619 7.4-25.133 4.192-4.036-1.518-7.894 2.34-8.032 6.118a68.232 68.232 0 0 0 .859 13.577c.624 3.81 1.265 9.845 4.123 12.7 4.773 4.773 16.633 3.673 22.667 2.74 15.787-2.443 31.188-12.246 40.865-24.859 11.119-14.491 10.229-33.756 11.37-51.1l3.954-60.07c.35-5.349-4.994-7.174-8.862-5.502z" fill="#efeae1"/><path d="m411.124 290.252c.212-5.584 2.117-12.432-2.759-16.324-3.174-2.534-9.133-3.465-12.988-4.233-7.018-1.4-21.589-3.355-24.269 6-1.78 6.222-.318 15-.291 21.452l.1 23.717c.024 5.984 1.292 24.918-8.9 25.64-6.37.451-6.4-5.5-6.723-10.279l-1.255-18.3c-.724-10.56-1.88-21.191-2.064-31.774-.085-4.874 1.758-15.863-3.78-18.606-8.3-4.1-20.259-4.514-29.41-4.384-3.64.052-5.933 1.055-7.3 2.661-4.007 4.69-.16 14.524.916 20.833 5.007 29.348-1.395 68.306 24.445 89.362 9.587 7.812 26.753 10.369 34.942 9.832s17.275-2.947 23.1-9.207c4.888-5.25 8.214-12.2 10.643-18.885 4.094-11.265 4.963-23.734 5.539-35.625.512-10.632-.35-21.27.054-31.88z" fill="#efeae1"/><path d="m416.4 174.144c-4.338-10.959-13.8-18.421-25.928-18.421a34.069 34.069 0 0 0 -12.069 2.284c1.637-.627-3.008-9.72-3.712-10.962a13.948 13.948 0 0 0 -11.964-7.27c-6.384 0-11.772 5.475-16.325 9.332-.135-3.454.959-6.175.062-9.7a22.479 22.479 0 0 0 -4.3-8.632 14.764 14.764 0 0 0 -11.306-5.331c-5.766 0-8.4 3.2-11.784 7.139-2.435-2.852-3.245-6.807-5.858-9.714a21.505 21.505 0 0 0 -16.246-7.069 27.213 27.213 0 0 0 -9.212 1.659c-7.685 2.762-12.717 8.818-17.185 15.646-1.455-.563-3.317-4.74-2.179-5.769 3.618-3.268 3.2-8.255 3.48-12.686.542-8.615-1.911-20.285-11.755-22.527a14.32 14.32 0 0 0 -14.264 4.877c-.25-.5-3.005-6.239-4.718-8.331a17.62 17.62 0 0 0 -13.822-6.65c-6.854 0-13.745 3.8-17.986 9.915-4.854 7-10.253 29.518-10.357 51.963.007-1.435-2.894-4.136-3.846-5.1a22.53 22.53 0 0 0 -15.807-6.748c-14.046 0-22.544 13.8-25.263 26.027a29.319 29.319 0 0 0 -15.671-4.647 26.454 26.454 0 0 0 -16.445 5.845l-3.1-6.812a12.4 12.4 0 0 0 -11.582-7.959 14.778 14.778 0 0 0 -11.023 5.313 14.336 14.336 0 0 0 -3.362 11.561c2.127 13.123 6.776 25.46 12.394 36.873 6.386 13.781 14.38 26.284 21.4 37.252a13.53 13.53 0 0 0 11.552 6.427c6.822 0 13.4-5.385 14.122-12.287.246-.934 3.307-1.472 4.073-1.755a17.146 17.146 0 0 0 5.473-3.471c4.823-4.3 7.885-10.3 9.517-16.481a27.029 27.029 0 0 0 15.1 4.706c11.814 0 22.22-8.254 28.66-17.567a29.88 29.88 0 0 0 16.628 5.2c9.38 0 17.359-5.122 23-12.325-.069.684 4.444 2.506 4.892 2.678a20.946 20.946 0 0 0 7.5 1.387 23.628 23.628 0 0 0 12.115-3.489 31.44 31.44 0 0 0 19.77 6.836 36.43 36.43 0 0 0 16.348-4.067c-.29.155 3.783 7.994 4.278 8.807a14.1 14.1 0 0 0 11.972 6.721 13.662 13.662 0 0 0 6.94-1.891c3.725-2.2 6.535-5.524 9.1-8.943 2.31-3.08 6.3-6.827 7.328-10.607a39.132 39.132 0 0 0 .39 21.57c4.657 15.2 21.4 28.7 35.836 28.7 9.642 0 20.134-4.719 18.67-16.046-.308-2.384-3.485-9.138-4.3-10.321a28.656 28.656 0 0 0 10.34-11.037c3.964-7.559 3.502-16.335.429-24.103z" fill="#2f2f51"/><path d="m149.05 163.671c-5.784-4.085-13.819-5.3-20.27-2.016-6.211 3.163-10.095 9.626-11.763 16.259a111.443 111.443 0 0 1 -5-15.507 7.4 7.4 0 0 0 -.464-4.764l-1.577-3.717c-2.792-6.582-11.672-1.464-10.705 4.513 4.013 24.806 17.481 46.438 30.795 67.251 4.044 6.322 14.047.575 10.115-5.912-.825-1.362-1.657-2.73-2.48-4.107a14.555 14.555 0 0 0 6.355 1.178c6.538-.272 11.6-5.27 14.262-10.887 6.413-13.515 3.41-33.336-9.268-42.291zm.68 29.147c-.254 3.579-1.147 9.065-4.285 11.409-3.687 2.754-6.683-2.194-8.175-5.111-1.851-3.62-5.642-3.563-8.206-1.695-.349-1.2-.651-2.419-.895-3.657-1.326-6.743-.734-23.546 9.816-22.218 9.286 1.169 12.29 13.589 11.746 21.272z" fill="#ffc533"/><path d="m390.455 199.785c12.68-1.878 21.311-15.607 15.426-27.623-6.379-13.026-23.25-12.329-33.258-4.307a31.347 31.347 0 0 0 -2.927 2.7c-3.823-4.363-6.682-9.883-3.356-15.45 2.844-4.762-3.106-11.548-8.014-8.014a115.62 115.62 0 0 0 -18.742 16.595 120.475 120.475 0 0 0 -7.565 9.4c-.344.472-.687 1.017-1.033 1.6a107.919 107.919 0 0 1 .9-10.782c.826-8.327 2.121-16.581 3.754-24.787 1.465-7.362-9.823-10.513-11.3-3.114-.252 1.264-.472 2.534-.707 3.8a5.984 5.984 0 0 0 -1.42 2.388c-3.465 10.689-11.654 25.54-23.917 27.767-7.852 1.426-11.511-2.875-12.966-8.734 11.119-.65 22.144-6.8 24.664-18.4a19.323 19.323 0 0 0 -4.24-16.275c-4.358-4.85-10.9-5.357-16.8-3.236-11.861 4.262-15.512 15.791-15.987 27.2a45.555 45.555 0 0 1 -3.747 11.248c-1.877 3.669-5.631 7.521-7.81 2.058-2.323-5.823-2.667-12.961-2.309-19.786v-.02a6.641 6.641 0 0 0 .071-1.276c.2-3.075.528-6.067.869-8.818.924-7.463-10.8-7.4-11.714 0-.316 2.554-.519 5.1-.633 7.648a68.754 68.754 0 0 1 -10.855 27.413c-2.656 3.794-5.7 6.916-10.606 5.809-5.983-1.351-6.911-6.255-7.781-11.392-.456-2.692-.784-5.415-1.021-8.156 14.2-8.341 21.18-25.642 20.956-41.924-.094-6.813-.42-15.719-4.951-21.253-5.472-6.684-14.714-3.488-19.043 2.756-4 5.769-5.013 13.036-6.1 19.8a187.782 187.782 0 0 0 -2.835 34.434 6.079 6.079 0 0 0 -.468 1.52c-1.824 10.594-4.061 22.31-11.508 30.545-3.085 3.412-8.5 8.254-13.4 5.973-2.84-1.321-4.851-4.114-6.24-7.13 10.842-3.3 19.332-11.469 19.227-23.6-.056-6.561-2.784-13.138-8.788-16.32-6.126-3.246-12.919-1.58-17.211 3.712-8.532 10.521-9.72 26.592-4.744 38.867 5.54 13.667 18.963 21.68 32.461 12.73 7.255-4.81 12.024-11.607 15.323-19.213a19.69 19.69 0 0 0 3.045 4.148c5.809 6.022 15.622 8.462 23.284 4.675 6.568-3.246 11.027-9.953 14.277-16.489a15.961 15.961 0 0 0 6.329 8.1c6.326 3.94 14.246 1.464 18.89-3.847.26-.3.509-.605.756-.916a18.1 18.1 0 0 0 2.754 3.593 23.358 23.358 0 0 0 19.128 6.288c8.354-.971 15.407-5.542 21.072-11.73-.491 7.085-.293 14.179 3.54 20.473a5.953 5.953 0 0 0 8.014 2.1c6.473-3.821 9.778-12.466 14.533-18.118a104.811 104.811 0 0 1 8.259-8.74 34.386 34.386 0 0 0 9.029 14.88 31.565 31.565 0 0 0 -1.495 22.253c4.423 13.635 19.049 22.15 33.029 18.472 7.284-1.916 4.2-13.219-3.114-11.3-8.02 2.11-16.5-3.1-18.842-10.978a18.269 18.269 0 0 1 -.732-4.993 22.531 22.531 0 0 0 18.589 5.776zm-218.316-40.1c.727-2.68 3.73-12.62 7.719-8.524 2.748 2.822 1.731 9.054-.34 11.986-2.013 2.851-5.138 4.4-8.391 5.411a29.767 29.767 0 0 1 1.012-8.869zm50.414-55.385a21.717 21.717 0 0 1 2.36-3.42c.2.443.392.864.453 1.075a37.009 37.009 0 0 1 1.21 8.247c.561 9.971-1.735 23.111-9.509 31.02a180.272 180.272 0 0 1 3.833-30.922 34.93 34.93 0 0 1 1.653-6zm66.975 32.056c2.386-2.089 6.624-4.2 8.394-.606 1.746 3.541.047 7.137-2.382 9.9-2.043 2.322-6.81 3.662-10.842 3.947.153-1.843.394-3.6.67-5.155.592-3.342 1.366-5.642 4.16-8.086zm86.865 44.219a19.4 19.4 0 0 1 6.4-5.514c3.653-1.912 9.356-2.491 12.1 1.343 2.114 2.949 1.149 7.424-1.43 9.74-6.441 5.784-13.756.701-17.07-5.569z" fill="#ffc533"/><path d="m254.912 118.327c2.831-.127 6.284-2.6 5.857-5.857a24.8 24.8 0 0 1 -.224-3.993q.01-.462.044-.923.11-1 .023-.447t.072-.441q.109-.607.25-1.207c.66-2.984-.9-6.478-4.091-7.2-2.964-.675-6.5.891-7.2 4.091a29.126 29.126 0 0 0 -.583 10.124c.393 3.026 2.404 6.007 5.852 5.853z" fill="#ffc533"/><path d="m240.492 212.284a40.751 40.751 0 0 1 -7.124.274c-4.687-.178-4.68 7.106 0 7.283h.262a97.686 97.686 0 0 1 -.025 17.188c-.114-.022-.229-.04-.343-.064a3.729 3.729 0 0 0 -4.479 2.543 3.678 3.678 0 0 0 2.543 4.479 28.31 28.31 0 0 0 8.911.529 3.748 3.748 0 0 0 3.641-3.641 3.812 3.812 0 0 0 -3-3.628 97.074 97.074 0 0 0 0-17.754c.516-.06 1.033-.118 1.551-.19 1.95-.27 3.016-2.761 2.543-4.479-.577-2.097-2.524-2.812-4.48-2.54z" fill="#009995"/><path d="m279.972 220.48a3.648 3.648 0 0 0 -.278-7.285l-8.282-.583a3.641 3.641 0 1 0 0 7.283l1.3.092c-.173 3.326-.464 6.649-.774 9.961q-.181 1.935-.389 3.87c-.826-1.051-1.528-2.14-2.049-2.876a50.09 50.09 0 0 1 -5.034-8.837c-1.123-2.566-1.519-6.617-3.707-8.522-2.6-2.267-7.283-1.19-10.357-.715-4.618.713-2.656 7.732 1.936 7.023.037-.006.1-.01.166-.014a124.029 124.029 0 0 0 -1.289 17.047l-.457.049a3.748 3.748 0 0 0 -3.641 3.641c0 1.806 1.674 3.853 3.641 3.641l6.486-.7a3.748 3.748 0 0 0 3.641-3.641 3.928 3.928 0 0 0 -2.383-3.468c.022-3.052.152-6.1.41-9.135a52.175 52.175 0 0 0 4 6.872c3.692 5.328 8.38 11.332 15.632 9.731 3.9-.86 3.068-6.08-.091-6.985q.361-2.782.632-5.574c.358-3.613.689-7.243.887-10.875z" fill="#009995"/><path d="m187.671 367.383c-.386-.665-6.638-14.235-6.6-11.761a39.464 39.464 0 0 1 -4.125 18 74.587 74.587 0 0 1 -9.355 14.984c-7.1 8.769-16.845 15.546-26.505 21.194-.507.3-.175 1.165.409.971a68.3 68.3 0 0 0 30.586-20c1.21-1.378 2.4-2.8 3.555-4.267a67.9 67.9 0 0 1 -9.8 14.052c-9.692 11.116-22.443 16.979-36.215 21.365-.559.178-.5 1.125.145 1.074 14.492-1.158 28.213-8.9 38.774-18.575 5.506-5.043 9.431-11.094 13.322-17.393 2.958-4.779 9.066-14.034 5.809-19.644z" fill="#2f2f51"/><path d="m310.91 348.205c-.713-.621-.75 3.417-2.312 5.791a69.515 69.515 0 0 1 -8 9.94 105.5 105.5 0 0 1 -9.109 8.3 119.739 119.739 0 0 1 -22.358 14.228c-.546.274-.162 1.126.409.971a77.82 77.82 0 0 0 25.97-12.46c-1.617 1.8-3.283 3.561-4.963 5.3-3.822 3.962-7.5 7.884-12.171 10.884-4.932 3.166-10.326 5.26-15.735 7.438-.514.207-.525 1.151.145 1.074 11-1.257 23.105-6.95 31.877-13.6a51.034 51.034 0 0 0 11.729-13.12c3-4.659 6.9-10.525 7.4-16.142.126-1.454-1.492-8.382-2.882-8.604z" fill="#2f2f51"/><path d="m428.43 308.519c-.27-4.9-.707-9.773-1.373-14.57-.09-.65-1.082-.456-1.1.149-.442 11.51-3.315 46.59-4.042 53.8-1.167 11.56-5.056 18.823-8.313 25.234-3.643 7.171-8.622 11.258-15.07 15.823a.534.534 0 0 0 .409.971c6.729-1.492 13.528-6.354 18.421-11.507a57.832 57.832 0 0 1 -3.5 5.84c-5.783 8.449-14.746 12.084-23.356 16.953-.585.331-.168 1.135.433 1.028 10.61-1.895 19.638-6.184 26.032-15.155 6.283-8.814 11.464-19.838 11.758-30.8.018-.999.151-40.885-.299-47.766z" fill="#2f2f51"/><g fill="#ffc533"><path d="m115.094 275.662c-1.6-1.887-4.5-1.473-6.693-1.375-3.764.168-7.556.167-11.31.479a.55.55 0 0 0 -.145 1.074c2.537.7 5.131 1.2 7.7 1.785 1.283.293 2.559.627 3.843.913-.049-.011 2.347.682 2.622.325.157 1.365-1.2 5.978-1.321 7.011a23.26 23.26 0 0 0 .294 7.363c.421 2.188 4.183 2.286 4.52 0 .494-3.355.465-6.676.727-10.047.175-2.3 1.49-5.49-.237-7.528z"/><path d="m170 272.021c-1.818-6.843-12.33-1.235-16.787-.257a.518.518 0 0 0 .137 1.013c2.9-.007 6.847-.475 9.634.3 3.032.842 1.3 4.736 1 7.423-.733 6.7.67 13.584.376 20.385-.036.829 1.33 1.042 1.473.2.889-5.216 2.342-10.077 3.625-15.179 1.013-4.006 1.62-9.837.542-13.885z"/><path d="m240.312 271.673c-8.351-.338-17.083 5.286-23.2 10.4-7.059 5.9-12.62 13.014-17.641 20.669-.337.514.447 1.132.859.663 5.219-5.938 11.432-11.682 18.323-15.621 5.94-3.4 14.637-8.009 21.663-7.8 5.355.166 5.332-8.095-.004-8.311z"/><path d="m260.626 277.473c-.784-2.35-3.809-4.382-6.272-3.406a2.023 2.023 0 0 0 -.673.463 3.284 3.284 0 0 0 -2.481 2.27c-.977 2.893 1.484 5.743 4.219 6.369a4.412 4.412 0 0 0 5.207-5.696z"/><path d="m382.52 332.67c-.367-1.643-3.209-1.783-3.465 0-.653 4.54-1.435 8.553-4.24 12.33-2.937 3.954-7.536 7.948-12.373 9.232a.534.534 0 0 0 .141 1.044c10.858-.489 22.566-10.839 19.937-22.606z"/><path d="m346.021 276.473c-2.109-5.866-9.234-3.446-13.956-3.5a.581.581 0 0 0 -.154 1.136c1.977.469 5.132.851 6.811 2.047 2.936 2.091 2.172 4.144 2.149 7.028-.036 4.451-.518 9.006-.145 13.437.16 1.9 3.046 2.581 3.53.478.928-4.033 1.039-8.248 1.6-12.345.372-2.702 1.118-5.63.165-8.281z"/></g><path d="m216.976 225.153c-3.821-1.525-7.069 1.365-10.292 3.159-2.877 1.6-4.2 1.454-7.078.061a19.234 19.234 0 0 0 -5.43-2.015c-5.852-.972-12.449 1.278-15.486 6.558a.612.612 0 0 0 .957.738c3.781-3.59 8.917-5.1 13.29-1.616 2.837 2.262 4.554 5.084 8.354 5.9 3.238.7 6.3-.261 9.182-1.71 3.043-1.53 6.775-2.979 8.595-5.936 1.295-2.102-.068-4.334-2.092-5.139z" fill="#fa5d53"/><path d="m336.038 231.872a15.413 15.413 0 0 0 -15.995-7.67c-8.772 1.282-17.092 8.887-24.537.594-3.261-3.633-9.589 1.148-6.822 5.264a16.5 16.5 0 0 0 20.232 6.132c3.808-1.654 6.61-4.631 10.155-6.686 5.762-3.341 11.822-1.846 16.108 3.029.421.477 1.153-.135.859-.663z" fill="#fa5d53"/></svg>