<svg id="Layer_1" height="512" viewBox="0 0 512 512" width="512" xmlns="http://www.w3.org/2000/svg" data-name="Layer 1"><path d="m152.82 116.95c-.14-.11-.28-.2-.42-.29-.07-.06-.12-.12-.19-.18a45.083 45.083 0 0 0 -22.46-9.4c-4.41-.47-9.04-.12-13.48-.12a3.085 3.085 0 0 0 -2.9 2.2q-8.415 27.855-14.84 56.25c-1.1 4.88-4.48 12.76 2.7 14.05 6.97 1.25 15.04.49 22-.62a46.663 46.663 0 0 0 34.1-23.27c7.14-12.3 6.85-28.9-4.51-38.62zm-15.66 27.96a21.928 21.928 0 0 1 -15.09 13.21c2.8-9.52 5.78-19 8.79-28.46 7.27.04 7.96 9.88 6.3 15.25z" fill="#2f2f51"/><path d="m228.57 132.93c-2.64-12.1-11.44-20.63-23.99-21.58-13.46-1.02-26.18 6.12-33.26 17.43-7.04 11.25-10 30.57-.55 41.33 8.33 9.51 22.7 11.04 33.71 5.73 14.97-7.23 26.66-26.25 24.09-42.91zm-40.54 8.9c2.32-4.35 5.95-9.01 10.34-11.45 7.03-3.93 8.61 5.54 7.78 10.5-1.56 6.33-6.2 15.96-13.85 16.32-9.14.43-7.06-10.15-4.27-15.37z" fill="#2f2f51"/><path d="m425.822 350.926c9.517-21.4 7.63-42.421-5.047-56.24a13.966 13.966 0 0 0 -16.679-3.431c1.473-1.608 10.528-13.362 10.448-19.191-.115-8.39-6.389-14.717-14.6-14.718-.156 0-8.017.193-11.787.269 2.046-6.7 4.249-13.373 6.58-19.944a13.779 13.779 0 0 0 -1.54-12.887 15.84 15.84 0 0 0 -12.855-6.361 15.164 15.164 0 0 0 -11.466 4.966c-1.333 1.485-20.309 25.811-21.6 28.329-4.9-6.362-15.449-14.151-26.551-14.151-12.75 0-28.952 11.386-34.572 22.507-5.173-10.4-16.012-17.83-27.139-17.83a39.344 39.344 0 0 0 -29.14 13.822c3.634-20.469-2.7-40.409-17.942-53.8-12.78-11.229-30.949-17.666-49.842-17.666-14.474 0-28.618 3.844-39.826 10.823-7.732 4.815-29.888 31.325-32.037 34.107a72.425 72.425 0 0 0 -12.683 24.481 59.109 59.109 0 0 0 .693 34.861c5.434 15.65 18.865 29.944 29.5 29.944a14.712 14.712 0 0 0 10.872-4.965l-21.225 70.335c-2.349 7.784 2.273 16.195 10.3 18.748a48.251 48.251 0 0 0 14.642 2.234c18.082 0 34.337-9.613 44.73-23.1 2.159-2.8 16.9-23.22 18.762-26.361 0 20.125 20.334 49.46 42.909 49.46 9.22 0 20.437-4.551 26.486-10.614a34.437 34.437 0 0 0 24.345 9.693 41.979 41.979 0 0 0 30.091-13.113c2.225-2.376 15.639-19.827 16.832-21.507 5.275 18.038 23.558 33.182 40.4 33.182 14.552 0 27.646-9.816 37.042-21.981 2.144-2.778 19.707-24.971 21.899-29.901z" fill="#2f2f51"/><path d="m148.679 121.287c-6.36-4.76-13.96-8.34-22.04-8.4-2.7-.01-5.42.03-8.13.05q-5.925 19.815-10.87 39.91-1.275 5.175-2.47 10.38c-.6 2.63-2.87 7.82-2.32 10.41q-.69 1.92.73.03c.78.04 1.57.08 2.35.11 1.31.04 2.62.08 3.94.08a83.723 83.723 0 0 0 8.67-.42c13.19-1.35 24.38-6.93 31.86-18.12 7.06-10.57 8.72-24.99-1.72-34.03zm-5.74 25.21a2.961 2.961 0 0 1 -.28.65 28.263 28.263 0 0 1 -24.79 17.63 3.031 3.031 0 0 1 -2.89-3.8c3.35-11.7 7.04-23.3 10.72-34.9a2.979 2.979 0 0 1 2.09-2.09c13.25-2.06 18.52 11.69 15.15 22.513z" fill="#ffc533"/><path d="m222.788 134.527c-3.05-13.95-15.37-20-28.93-16.1-14.47 4.17-22.2 18.1-22.69 32.44-.25 7.56 1.32 14.28 7.97 18.57a22.836 22.836 0 0 0 18.88 2.53c14.16-4.35 27.07-22.51 24.77-37.44zm-10.85 7.95c-2.42 9.82-10.68 22.66-22.51 20.48-10.76-1.99-11.49-13.42-7.74-21.8 3.07-6.86 10.29-16.95 18.58-17.74 10.59-1.017 13 11.03 11.67 19.06z" fill="#ffc533"/><path d="m297.175 117.281c3.027-7.017-7.308-13.136-10.362-6.057l-16.764 38.864q-5.412-17.91-10.1-36.03c-1.926-7.473-13.5-4.305-11.571 3.19q6.465 25.08 14.356 49.752c-5.981 13.731-12 27.5-16.072 41.927-1.824 6.455 7.7 10.7 10.966 4.623l1.026-1.911a5.937 5.937 0 0 0 .736-3.418c4.585-14.859 11.082-29.043 17.234-43.306z" fill="#009995"/><path d="m325.723 111.663a7.021 7.021 0 0 0 -.706.018 6.379 6.379 0 0 0 -2.765-.134c-15.687 2.571-23.179 22.168-29.126 34.744-7.266 15.365-14.43 33.044-14.634 50.311-.087 7.366 3.234 15.473 10.847 17.814 7.85 2.414 14.719-3.032 19.314-8.856 5.04-6.388 8.5-13.94 12.127-21.18a211.444 211.444 0 0 0 10.839-24.834c3.624-10.38 13.994-47.403-5.896-47.883zm-.627 20.1a67.379 67.379 0 0 1 -1.579 12.511 118.574 118.574 0 0 1 -7.593 22.484c-2.069 4.685-16.492 39.642-23.5 35.989-5.092-2.655-.473-17.347.495-21.328a144.541 144.541 0 0 1 8.3-24.119c3.169-7.188 6.748-14.217 10.56-21.083 2.953-5.32 6.239-11.119 12.315-12.8.155.044.314.083.478.115.029.049.047.086.08.139a6.823 6.823 0 0 1 .379 2.721 46.159 46.159 0 0 1 .069 5.368z" fill="#009995"/><path d="m377.727 116.548c-3.325 15.584-6.655 31.18-10.886 46.549-2.112 7.671-4.452 15.282-7.122 22.778-1.921 5.394-4.188 14.6-10.565 16.422-13.013 3.714-1.845-32.018-.477-37.082a370.588 370.588 0 0 1 15.087-44.277c2.936-7.136-8.669-10.245-11.571-3.19a369.136 369.136 0 0 0 -17.85 55.165c-2.086 8.788-5.477 19.087-3.071 28.117 1.883 7.069 7.656 13.2 15.283 13.529 18.875.81 24.366-23.451 28.647-37.273 5.849-18.881 9.975-38.235 14.1-57.549 1.604-7.53-9.962-10.749-11.575-3.189z" fill="#009995"/><path d="m414 179.746c15.951-8.586 25.9-27 21.832-46.292-2.93-13.878-14.305-22.495-28.549-20.57-7.181.97-9.027 5.9-10.735 12.248q-3.272 12.159-6.366 24.365-6.9 27.229-12.914 54.67c-1.653 7.526 9.913 10.741 11.571 3.19q2.483-11.3 5.108-22.571a41.862 41.862 0 0 0 8.73-.9l16.056 61.589c1.947 7.467 13.524 4.3 11.571-3.19zm-14.6-17.663q2.792-11.282 5.737-22.527 1.472-5.622 2.982-11.234c0-.011 1.477-3.783.794-3.783 1.232-.421 4.15.093 5.12.239 13.267 2 12.07 21.558 7.886 30.559-4.717 10.147-14.382 16.212-25.081 17.256q1.262-5.259 2.562-10.51z" fill="#009995"/><path d="m415.826 299.226c-7.377-8.042-19.319 3.949-11.965 11.965 7.016 7.648 4.624 19.946 1.082 28.675-3.416 8.419-12.621 16.189-22.206 13.9-10.681-2.552-15.238-15.123-15.654-24.886-.624-14.638 3.376-29.659 6.7-43.806.279-1.19.575-2.376.863-3.564 8.341-.161 16.682-.294 25.021-.523 10.867-.3 10.911-17.22 0-16.921-6.844.188-13.69.31-20.536.437q4.176-14.68 9.284-29.077c3.648-10.282-12.7-14.707-16.317-4.5q-5.954 16.782-10.649 33.961c-9.192.317-10.566 12.571-4.049 16.019-.382 1.629-.766 3.257-1.129 4.89-3.938 17.694-9 37.35-4.4 55.374 3.786 14.851 15.43 28.035 31.21 29.712 15.369 1.634 30.5-8.943 36.609-22.686 7.038-15.832 8.58-35.406-3.864-48.97z" fill="#efeae1"/><path d="m207.506 207.314c-30.925-27.165-92.013-20-104.137 23.455-5.65 20.251.769 43.957 19.478 55.044 9.39 5.564 17.912-9.058 8.54-14.611-10.9-6.461-14.681-20.051-12.607-32.019 2.494-14.4 13.216-24.613 26.977-28.722 15-4.48 32.847-2.581 46.074 6.034 14.868 9.684 18.779 26.962 12.839 43.1-3.261 8.86-8.832 16.981-16.857 22.081-7.941 5.047-16.919 7.936-26.032 10.029l17.05-56.5c3.153-10.448-13.174-14.913-16.317-4.5l-39.345 130.38c-1.358 4.5 1.634 9.048 5.909 10.408 19.859 6.314 43.9-3.408 52.748-22.583 6.706-14.524 4.5-31.367-4.309-43.987a83.083 83.083 0 0 0 18.836-8.638 59.161 59.161 0 0 0 22.038-25.911c9.848-21.554 7.609-46.816-10.885-63.06zm-40.837 134.2c-4.471 9.362-14.388 14.787-24.424 14.919l14.682-48.65.007.006c10.555 6.911 15.236 22.211 9.735 33.729z" fill="#efeae1"/><path d="m323.833 280.2c-4.263 1.637-7.2 5.693-5.909 10.407 1.121 4.078 6.119 7.556 10.407 5.909 9.785-3.758 16.957-11.805 18.328-22.4 1.322-10.214-3.79-19.974-12.272-25.593-18.187-12.049-39.855 3.52-44.081 22.384-4.48 20 8.725 34.646 19.791 49.521 4.964 6.673 9.427 13.512 6.367 21.992-2.41 6.681-8.514 12.5-15.786 13.272-11.856 1.254-16.273-11.843-15.017-22.1.414-1.692.8-3.383 1.178-5.061 2.4-10.741-12.591-14.65-16.317-4.5a35.527 35.527 0 0 0 -1.86 7.751c-3.251 12.169-9.522 27.83-23.3 24.536-9.959-2.381-14.37-11.385-16.013-21.251a9.055 9.055 0 0 0 2.05-.475c20.633-7.338 37.946-22.653 46.662-42.895 4.118-9.564 6.089-21.136 1.093-30.792-5.191-10.034-16.909-14.135-27.477-10.818-22.379 7.023-34.35 34.18-38.232 55.4-4.055 22.16-2.538 52.324 20.109 64.252 12.108 6.377 25.7 4.2 35.9-4.664a38.232 38.232 0 0 0 5.4-5.812 33.373 33.373 0 0 0 3.673 4.7c12.491 13.188 33.837 10.071 45.576-2.462a38.455 38.455 0 0 0 10.419-24.389c.46-9.6-4.637-18.338-10.208-25.743-8.553-11.367-23.7-25.924-15.809-41.259 3.127-6.073 10.5-11.938 17.186-7.146 6.109 4.376 5.52 14.404-1.858 17.236zm-87.56 8.923c3.347-7.063 7.4-14.427 13.708-19.28 3.4-2.619 10.167-6.551 13.674-1.984 3.337 4.344 1.13 11.881-.679 16.377-6.059 15.066-19.149 27.367-34.184 33.31.095-1.2.208-2.36.337-3.45a81.4 81.4 0 0 1 7.144-24.972z" fill="#efeae1"/><g fill="#fa5d53"><path d="m105.741 275.186c-4.234 1.049-7.9 2.176-11.4 4.844-3.149 2.4-5.92 5.752-8.775 8.536-.941.918.475 2.316 1.436 1.436 3.378-3.092 7.477-3.732 11.353-5.855 3.31-1.813 5.687-4.565 8.528-7 .929-.801-.074-2.226-1.142-1.961z"/><path d="m98.72 270.845a115.554 115.554 0 0 0 -14.22 9.055c-1.041.772-.048 2.54 1.033 1.767a148.787 148.787 0 0 1 14.255-8.983c1.202-.67.137-2.484-1.068-1.839z"/><path d="m123.329 374.586c-4.064 1.783-7.151 5.1-10.114 8.313-3.177 3.442-6.705 6.518-9.938 9.905a1.016 1.016 0 0 0 1.436 1.436 80.078 80.078 0 0 1 11.345-8.847c3.518-2.148 7.2-4.272 9.761-7.581a2.065 2.065 0 0 0 -2.49-3.226z"/><path d="m129.764 378.76c-6.275 4.867-12.366 9.97-18.513 15-1.091.892.464 2.427 1.547 1.547 6.156-5.006 12.378-9.942 18.4-15.107 1.013-.87-.428-2.221-1.434-1.44z"/><path d="m227.8 371.325c-3.949 1.089-7.063 4.575-9.813 7.447-3.246 3.39-6.73 6.422-10.161 9.61a1.036 1.036 0 0 0 1.25 1.62c3.824-2.214 7.025-5.384 10.584-7.984 3.285-2.4 7.349-4.27 10.193-7.167a2.126 2.126 0 0 0 -2.053-3.526z"/><path d="m218.9 371.976a77.041 77.041 0 0 0 -14.052 11.377c-.94.941.467 2.313 1.447 1.448 4.4-3.887 9.067-7.318 13.812-10.761 1.221-.884.136-2.883-1.207-2.064z"/><path d="m295.785 377.476c-3.081 1.957-5.588 4.993-8 7.694a78.33 78.33 0 0 0 -6.825 8.636c-.65.972.808 2.07 1.607 1.24 2.468-2.563 4.865-5.2 7.4-7.692 2.511-2.471 5.523-4.655 7.751-7.375 1.069-1.306-.291-3.545-1.933-2.503z"/><path d="m285.276 382.032q-3.954 3.536-7.813 7.173c-.962.9.457 2.283 1.436 1.436q4.016-3.472 7.945-7.041c1.056-.963-.507-2.516-1.568-1.568z"/><path d="m385.275 377.144c-2.888 2.059-5.088 5-7.358 7.693-2.516 2.987-4.992 6-7.309 9.14-.728.988.783 1.953 1.607 1.24 3.03-2.621 5.9-5.406 8.752-8.223 2.344-2.318 5-4.624 6.637-7.52.786-1.389-.878-3.365-2.329-2.33z"/><path d="m377.987 376.736c-3.641 3.313-7.286 6.643-11.13 9.721-3.348 2.679-8.417 5.174-10.386 9.107-.807 1.612.589 4.307 2.656 3.454 4.256-1.755 6.767-6.082 9.731-9.464 3.411-3.892 7.02-7.614 10.566-11.382a1.016 1.016 0 0 0 -1.437-1.436z"/><path d="m395.5 299c-3.945 3.806-7.867 7.638-11.838 11.417-3.953 3.762-8.545 7.018-12.1 11.155a2.384 2.384 0 0 0 3.37 3.37c4.051-3.656 7.206-8.339 10.871-12.384 3.684-4.065 7.422-8.082 11.134-12.121a1.016 1.016 0 0 0 -1.437-1.437z"/></g></svg>