<svg id="Layer_1" height="512" viewBox="0 0 512 512" width="512" xmlns="http://www.w3.org/2000/svg" data-name="Layer 1"><path d="m429.916 149.318c-1.17-2.392-15.568-22.9-20.716-31.406a18.607 18.607 0 0 0 -25.57-6.668c-11.574 6.676-25.065 9.867-38.363 10.166-13.834.311-25.95-3.517-38.883-7.821-18.9-6.291-38.453-12.8-59.156-12.8a90.538 90.538 0 0 0 -16.6 1.5c-15.655 2.928-29.988 9.025-40.36 17.168a16.855 16.855 0 0 0 -6.217 10.873c-3.467-5.422-16.7-12.154-25.57-12.154-8.36 0-17.24 2.979-26.394 8.856a97.676 97.676 0 0 0 -19.079 16.408 113.271 113.271 0 0 0 -27.979 59.61c-.976 7.042-3.145 31.076 9.49 46.447.516.628 4.293 6.494 3.429 7.066-12.388 8.21-22.694 19.918-23.636 35.45-.457 7.983 2.588 15.091 7.062 21.374 7.471 10.492 13.4 22.748 22.3 32.168 6.4 6.774 15.865 10.659 25.973 10.659a38.017 38.017 0 0 0 8.949-1.062c21.97-5.328 29.933-26.7 35.6-42.871q1.919-.039 3.847-.039c15.891 0 32.729 1.894 54.6 6.14 5.085.987 10.279 2.036 15.3 3.05 21.468 4.334 43.667 8.815 66.151 10.385 3.358.234 6.733.353 10.031.353a127.285 127.285 0 0 0 33.861-4.454c19.855-5.481 32.642-14.068 39.09-26.253a18.527 18.527 0 0 0 1.012-15.7c6.8-.76 13.2-4 18.677-9.5a44.833 44.833 0 0 0 11.1-19.235c2.016-7.174-1.193-14.337-4.959-20.321-2.051-3.259-11.926-14.66-12.809-17.369-1.061-3.252 2.278-9.147 3.561-12.529q2.51-6.616 5.284-13.128 5.583-13.108 12.2-25.744c3.233-6.197 1.67-12.7-1.226-18.619z" fill="#2f2f51"/><path d="m372.691 287.711c-4.69 8.863-18.911 12.579-28.884 14.633-12.27 2.527-24.67 2.11-37.064.79-28.85-3.073-57.077-10.451-85.649-15.265a225.894 225.894 0 0 0 -37.806-3.617c-3.227 0-6.492.011-9.772.07l15.4-43.242c1.63-4.579-1.844-9.851-6.286-11.071-5.139-1.412-9.246 1.759-11.071 6.286-4.554 11.3-13.526 22.318-25.186 26.824-5.341 2.064-8.932 1.1-11.27-4.327-2.257-5.242-2.022-11.444-1.563-16.994 1.158-14 6.439-27.563 14.219-39.183a82.7 82.7 0 0 1 13.937-15.8c4.574-4.056 11.36-10.08 17.966-9.38 7.263.77 4.62 8.213 3.055 13.123-1.785 5.6-5.922 9.646-9.927 14-7.832 8.514 4.865 21.276 12.728 12.728 5.837-6.345 11.236-12.5 14.159-20.747 3.519-9.932 4.785-22.161-3.329-30.213-17.433-17.3-42.01.968-54.581 14.909a102.577 102.577 0 0 0 -25.5 54.287c-2.471 17.829.663 46 24.242 46.761a33.352 33.352 0 0 0 16.109-4.021l-2.643 7.423a79.648 79.648 0 0 0 -16.852 4.157c-14.341 5.394-30.535 17.083-31.494 33.842-.953 16.664 16.07 25.289 30.614 21.762 18.565-4.5 24.559-25.4 30.153-41.112l.632-1.775c22.946-1.28 44.931 1.633 67.521 6.02 26.557 5.157 53.189 11.386 80.242 13.276a120.528 120.528 0 0 0 40.535-3.764c12.329-3.4 26.6-9.362 32.912-21.291 5.411-10.237-10.12-19.343-15.547-9.089zm-237.46 38.722c-2.933 2.05-7.526 2.778-10.292.919-3.119-2.1 0-7.344 2.23-10.018 5.081-6.09 12.2-9.694 19.793-11.836q-1.063 2.929-2.165 5.842c-2.036 5.353-4.697 11.69-9.566 15.092z" fill="#ffc533"/><path d="m422.269 163.307c4.094-7.826-4.268-16.955-12.314-12.314-12.65 7.3-26.715 10.173-41.181 10.939-3.737.2-7.479.283-11.221.31-1.442.011-2.885.032-4.325-.047a9.688 9.688 0 0 1 -1.788-.2 111.454 111.454 0 0 1 -15.352-4.055c-26.5-8.4-53.972-20.026-82.294-14.729-12.453 2.329-25.958 7.3-36.023 15.2-3.826 3-3.147 9.581 0 12.728 3.778 3.778 8.892 3.012 12.728 0-2.538 1.992 1.2-.6 2.186-1.157 2.264-1.286 4.6-2.452 6.973-3.522a83.992 83.992 0 0 1 18.1-5.733c13.413-2.663 27.258.346 40.206 3.931 12.506 3.463 24.647 8.064 37.07 11.791 11.615 3.485 22.486 4.123 34.585 3.429a132.637 132.637 0 0 0 26.637-4.064q-4.216 9.4-7.955 19.01-1.468 3.781-2.924 7.628a19.281 19.281 0 0 0 -2.709-1.934c-9.56-5.552-21.145-3.65-30.45 1.781a8.621 8.621 0 0 0 -5.66-.277 40.674 40.674 0 0 1 -32.851-5.227 8.034 8.034 0 0 0 -9.561.466c-.225-.008-.448-.021-.682-.014a36.347 36.347 0 0 0 -17.681 5.309 8.493 8.493 0 0 0 -6.208-.533 40.674 40.674 0 0 1 -32.851-5.227 8.034 8.034 0 0 0 -9.561.466c-.225-.008-.448-.021-.682-.014-26.922.749-47.344 32.931-37.1 57.791 4.984 12.094 16.721 19.228 29.685 14.825 11.985-4.071 21.734-14.231 26.883-25.621a44.146 44.146 0 0 0 4.016-23.534 59.107 59.107 0 0 0 8.572.679c-5.26 10.448-6.665 22.753-2.173 33.652 4.984 12.094 16.721 19.228 29.685 14.825 11.985-4.071 21.734-14.231 26.883-25.621a44.144 44.144 0 0 0 4.016-23.534 59.1 59.1 0 0 0 7.953.666c-4.7 9.444-6.556 20.49-3.49 30.468 4.175 13.589 16.515 22.9 30.888 18.021a41.639 41.639 0 0 0 13.566-7.817 20.742 20.742 0 0 0 10.982 12.052c14.932 6.8 27.621-6.391 31.382-19.77 3.14-11.17-14.222-15.938-17.357-4.785-1.454 5.172-7.011 12.821-8.963 3.686-2.077-9.722 2.686-21.052 5.548-30.2a362.151 362.151 0 0 1 24.812-59.724zm-47.089 56.984v-.006l.035-.074c-.015.026-.023.054-.035.08zm-137.085 19.362a32.117 32.117 0 0 1 -9.836 10.737c-2.886 1.884-6.137 3.517-8.589 2.682-2.177-.741-3.75-4.466-4.436-7.072-.941-3.577-.4-8.371 1-12.878 2.737-8.789 10.535-17.6 20.243-17.869a9.713 9.713 0 0 0 2.565-.415c5.01 7.562 3.978 16.425-.947 24.815zm66.984 0a32.119 32.119 0 0 1 -9.836 10.737c-2.886 1.884-6.137 3.517-8.589 2.682-2.177-.741-3.75-4.466-4.436-7.072-.941-3.577-.4-8.371 1-12.878 2.737-8.789 10.535-17.6 20.243-17.869a9.713 9.713 0 0 0 2.565-.415c5.01 7.562 3.974 16.425-.947 24.815zm52.438 12.86c-3.022 1.11-4.782 1.357-6.825-1.442-2.747-3.764-3.089-7.644-2.6-11.957 1.144-10.026 8.366-21.743 19.018-23.634a11.238 11.238 0 0 1 6.315.4c.457.2.545.375.976 1.065.115.183.194.3.25.386-.046 0-.041.171.212.915.123.362.2.58.249.716-.088-.2-.217-.406-.111.369.013.1.054.408.1.72-.162.907-.975 2.476.043.31v.012a9.935 9.935 0 0 0 .178 9.054c-2.387 9.559-8.546 19.685-17.806 23.085z" fill="#ffc533"/><path d="m214.574 331.036c-6.628 8.613-11.244 19.02-16.994 28.255q-4.68 7.517-9.653 14.851c.234-13.869.33-27.761-.263-41.6-.24-5.593-8.965-5.623-8.724 0 .793 18.508.355 37.11 0 55.626-.09 4.707 5.724 5.423 8.128 2.2 6.423-8.6 12.37-17.562 18.045-26.676 5.751-9.237 10.364-19.641 16.994-28.255 3.421-4.444-4.153-8.793-7.533-4.401z" fill="#009995"/><path d="m235.863 350.791c1.442-3.705 3.564-7.248 2.9-11.285-.911-5.526-9.319-3.182-8.412 2.319q-.278-1.632-.818 1.3l-1.387 3.562-2.08 5.343-4.855 12.47-9.706 24.935c-1.9 4.881 5.337 7.154 7.972 3.361l1.248-1.8a3.73 3.73 0 0 0 .679-3.067l9.258-23.787z" fill="#009995"/><path d="m281.474 353.5c-.413-6.034-4.65-10.783-10.11-13-7.218-2.928-14.648-.783-21.485 2.107-4.095 1.731-2.131 6.826 1.414 7.765q-6.992 18.235-13.733 36.566c-4.237-1.2-7.531 5.341-3.195 8.076 11.656 7.353 31.862 8.784 40.987-3.647 6.181-8.419 1.772-16.042-5.478-20.768 6.907-3.029 12.207-8.238 11.6-17.099zm-15.748 24.483c4.611 3.616 4.389 8-.657 11.044-5.61 3.383-12.5 3.617-18.736 1.826a3.394 3.394 0 0 0 .318-3.424q2.409-6.548 4.852-13.083a4.523 4.523 0 0 0 1.164.069 18.294 18.294 0 0 1 13.059 3.564zm6.811-21.75c-1.993 7.448-10.938 8.736-17.726 9.292q3.329-8.814 6.714-17.607a12.862 12.862 0 0 1 5.76.342c3.564 1.118 6.294 4.076 5.252 7.969z" fill="#009995"/><path d="m324.245 355.584c5.6.449 5.567-8.277 0-8.724-5.862-.471-11.658-.826-17.463-.732a4.73 4.73 0 0 0 -7 .358c-1.319.116-2.64.256-3.964.437-4.963.679-3.575 7.482.724 8.349l-5.718 16.628a4.68 4.68 0 0 0 -.836 2.432l-8.236 23.95c-.929 2.7 1.514 5.536 4.206 5.521l28.088-.154c5.612-.031 5.624-8.755 0-8.724l-21.972.121 5.548-16.133q8.946-.011 17.87.655c5.6.426 5.572-8.3 0-8.724q-7.433-.566-14.874-.643l5.312-15.449a176.2 176.2 0 0 1 18.315.832z" fill="#009995"/><path d="m357.469 341.827a17.4 17.4 0 0 0 -12.856 22.366c1.581 4.776 5.285 8.3 8.69 11.816 3.9 4.028 7.681 9.578 2.125 14.1-4.276 3.479-14.066 5.416-18.509 1.534-4.692-4.1-2.215-11.012 3.263-12.677 5.357-1.628 3.074-10.051-2.319-8.412-10.038 3.05-15.494 14.414-9.855 23.78 6.155 10.224 20.986 9.638 30.314 4.3 10.275-5.885 10.811-17.441 3.671-26.029-3.742-4.5-10.615-8.783-9.42-15.5 1.287-7.238 14.368-10.072 11.726-.652-1.518 5.414 6.9 7.725 8.412 2.319 2.859-10.204-4.498-19.116-15.242-16.945z" fill="#009995"/><g fill="#fa5d53"><path d="m100.739 175.382a36.7 36.7 0 0 0 -.922 3.865 30.431 30.431 0 0 0 -.847 3.776c-.166 1.7 2.173 1.995 2.97.8.729-1.089 1.1-2.375 1.738-3.518a26.168 26.168 0 0 0 1.717-3.644c1.079-2.892-3.647-4.223-4.656-1.279z"/><path d="m167.084 132.567c-3.222-5.168-10.609-5.266-16.09-4.477-6.635.955-12.7 4.494-17.979 8.489-9.712 7.35-20.1 17.473-25.255 28.683-.817 1.777 1.715 3.344 2.671 1.561 4.862-9.062 13.808-17.313 22.014-23.4a35.052 35.052 0 0 1 15.671-6.78 33.382 33.382 0 0 1 7.988-.415c2.807.237 5.381 1.285 8.217 1.155a3.231 3.231 0 0 0 2.763-4.816z"/><path d="m239.458 108.846c-4.392.423-8.539 2.542-12.215 4.864a1.583 1.583 0 0 0 1.6 2.732c3.654-1.583 7.43-2.013 11.25-2.923 2.549-.609 2.075-4.934-.635-4.673z"/><path d="m315.021 124.845c-5.4-1.714-10.851-3.061-16.176-5.061-5.578-2.095-11.059-4.445-16.694-6.387-10.792-3.72-21.75-5.186-33.083-3.426-1.729.268-1.29 3.042.408 3.015 12.476-.194 23.771 2.727 34.989 8.05 9.315 4.42 19.084 10.267 29.575 11.061 4.295.324 4.801-6.04.981-7.252z"/><path d="m95.01 269.182c-4.14.215-7.677 4.365-9.987 7.51a27.719 27.719 0 0 0 -3.185 5.791c-.4.957-.791 3.57-1.3 4.814a1.321 1.321 0 0 0 -.615.568 1.966 1.966 0 0 0 0 2.092 1.735 1.735 0 0 0 1.934.787c1.484-.487 1.7-1.406 2.353-2.766a27.2 27.2 0 0 1 3.781-5.8 34.54 34.54 0 0 1 4.326-4.3c1.8-1.472 3.913-2.383 5.138-4.421a2.858 2.858 0 0 0 -2.445-4.275z"/><path d="m400.909 117.535c-4.437-6.007-14.791-.992-18.225 3.7-1.123 1.533 1.168 2.83 2.411 1.86a12.186 12.186 0 0 1 7.547-2.757c2.361.005 4.557 1.085 6.888.59a2.32 2.32 0 0 0 1.379-3.393z"/></g><path d="m380.676 367.243c1.413 6.321 4.923 11.971 6.813 18.138a2.793 2.793 0 0 0 2.7 1.925c7.236.063 14.732-2.534 21.5-5.481 2.463 4.635 4.86 9.372 8.645 13.031 1.5 1.445 4.759.354 4.4-1.978-1.034-6.649-4.747-12.292-8.051-18.059-1.112-1.941-3.5-2.156-5.327-1.261-6.513 3.183-13.4 5.005-20.061 7.625-2.682-5.024-4.533-10.537-7.86-15.183a1.531 1.531 0 0 0 -2.759 1.243z" fill="#ffc533"/><path d="m425.2 316.584-.323-.411c-.986-1.253-2.782-1.347-4.193-1.108-3.952.667-8.254 3.946-11.782 5.813-2.859 1.513-6.986 2.833-8.9 5.517-1.759 2.462-1.16 5.493-.819 8.331a77.449 77.449 0 0 0 1.735 9.125c-5.031 1.134-10.477 2.727-14.623 5.235a1.621 1.621 0 0 0 .81 2.992c6.01.795 13.41-.562 19.326-1.851a3.712 3.712 0 0 0 2.582-4.547 54.29 54.29 0 0 1 -2.457-8.418c-.234-1.117-1.146-4.446-1-5.749.029.253.674-.46 1.43-.8 5.358-2.4 10.863-5.743 16.459-7.486 2.922-1.221 3.731-4.127 1.755-6.643z" fill="#ffc533"/><path d="m153.137 381.579c-.956 2.145-1.76 4.328-2.508 6.555-.474 1.413-1.523 7.471-2.773 8.3s-5.864-.808-7.362-1.086l-8.923-1.653a2.819 2.819 0 0 0 -3.111 1.266 98.339 98.339 0 0 1 -10.481 18.059 2.7 2.7 0 0 0 -2.733 3.457 6.375 6.375 0 0 0 .988 2.333 3.471 3.471 0 0 0 5.909 0 110.368 110.368 0 0 0 10.4-19.4l10.133 1.653c2.224.363 5.542 1.476 7.721.164 2.429-1.462 2.716-4.95 3.327-7.366a100.78 100.78 0 0 0 2.409-11.466c.202-1.564-2.367-2.228-2.996-.816z" fill="#ffc533"/><path d="m141 372.518c-3.421-1.93-7.86-4.079-11.727-4.683-3.7-.577-6.157 2.434-8.676 4.674-1.824 1.622-3.768 4.017-5.882 5.222-1.445.823-.466.935-2.176.116a16.118 16.118 0 0 1 -3.086-2.423c-3.377-2.906-5.557-7.163-9.215-9.571-2.242-1.476-5.126.963-4.442 3.414 1.161 4.156 5.349 7.438 8.615 10.092 2.393 1.945 6.131 5.527 9.5 5.3 3.853-.265 7.852-6.012 10.394-8.437 3.135-2.99 4.3-3.521 8.489-2.414a51.306 51.306 0 0 0 7.436 1.553c1.551.169 2.007-2.145.77-2.843z" fill="#ffc533"/></svg>