<svg id="Layer_1" height="512" viewBox="0 0 512 512" width="512" xmlns="http://www.w3.org/2000/svg" data-name="Layer 1"><path d="m338.02 223.91a10.963 10.963 0 0 0 -2.64-6.55 18.321 18.321 0 0 0 -14.48-6.49c-11.62 0-15.26 3.55-15.26 3.55a30.292 30.292 0 0 0 -15.6-4.5 29.076 29.076 0 0 0 -15.51 4.18 11.336 11.336 0 0 0 -8.21-3.73 10.764 10.764 0 0 0 -10.27 7.32c.23-.7-4.89-5.32-8.55-5.32-.4 0-5.84.56-5.84.56a8.543 8.543 0 0 0 -6.48-2.91c-2.47 0-7.01 1.86-7.01 1.86a12.667 12.667 0 0 0 -5.59-1.35c-4.26 0-7.76 2.91-7.5 3.11-.55-.42-1.92-2.72-7.34-2.72-2.25 0-4.33 1.48-6.53 1.06-3.77-.73-19-.07-22.77.19a11.174 11.174 0 0 0 -10.14 11.81c.41 5.82 4.54 9.4 11.11 9.7.09 2.55.14 5.21.14 8.05a10.013 10.013 0 0 0 2.92 7.26 11.572 11.572 0 0 0 8.16 3.28 10.415 10.415 0 0 0 8.22-3.76 15.8 15.8 0 0 0 8.47 3.33 10.937 10.937 0 0 0 7.95-3.42c0 .13 2.38 2.65 7.23 2.65 4.91 0 7.05-1.42 7.05-1.42a10.813 10.813 0 0 0 5.14 1.65 10.937 10.937 0 0 0 5.79-1.62c.38-.22 2.52 2.11 6.51 2.11a10.563 10.563 0 0 0 9.08-4.87 17.028 17.028 0 0 0 8.61 2.73 10.65 10.65 0 0 0 8.33-3.67s5.56 4.21 15.93 4.21a22.673 22.673 0 0 0 12.59-3.59c0 .06 4.17 5.1 15.11 5.1 8.45 0 18.07-4.42 20.93-13.37 1.21-3.79-.75-8.09-.75-8.09a14.464 14.464 0 0 0 1.2-6.33z" fill="#2f2f51"/><path d="m308.644 233.005c-.071-.23-.35-.274 0 0z" fill="#2f2f51"/><path d="m325.948 283.4a1.579 1.579 0 0 0 -1.31-2.26q-6.825-.405-13.66-.8a1.263 1.263 0 0 0 -1.14.49 1.357 1.357 0 0 0 -1.23 1.44q.855 43.275 1.71 86.57a1.515 1.515 0 0 0 2.74.82 72.253 72.253 0 0 0 13.35-1.52 1.3 1.3 0 0 0 1.02-1.68 1.478 1.478 0 0 0 .11-.69 769.982 769.982 0 0 1 -1.59-82.37z" fill="#efeae1"/><path d="m291.438 281.064c0-.03-.01-.05-.01-.08a1.482 1.482 0 0 0 -1.45-1.49l-22.01-.78a1.319 1.319 0 0 0 -1.41 1.13 1.344 1.344 0 0 0 -1.1 1.04q-11.97 44.07-22.65 88.48a1.681 1.681 0 0 0 1.22 2.48 78.092 78.092 0 0 0 11.23.54 1.5 1.5 0 0 0 2.51-.64q2.79-10.68 5.51-21.37 9.315-.2 18.62.02 1 8.895 2.02 17.79a1.552 1.552 0 0 0 1.37 1.39 1.574 1.574 0 0 0 .77 2.86c4.77.32 9.54.78 14.28 1.4a1.672 1.672 0 0 0 1.86-1.57 1.532 1.532 0 0 0 .42-1.35q-7.47-44.67-11.18-89.85zm-11.4 52.95q-6.225-.12-12.44-.55 4.3-17.055 8.5-34.14z" fill="#efeae1"/><path d="m166.088 269.154a1.649 1.649 0 0 0 -2.13-1.35c-.04 0-.06-.01-.1-.01q-9.315-.465-18.65-.64a1.49 1.49 0 0 0 -1.05 2.52 639.208 639.208 0 0 0 -25.62 104.4 1.508 1.508 0 0 0 .28 1.18 1.481 1.481 0 0 0 1.45 1.71q7.26.165 14.51-.27a1.514 1.514 0 0 0 1.42-1.7 2.84 2.84 0 0 0 .38-1.33 1.246 1.246 0 0 0 .61-.9q2.415-11.985 4.93-23.95l13.79-.11c.72 8.82 1.34 17.65 1.81 26.49a1.557 1.557 0 0 0 .27.8 1.147 1.147 0 0 0 1 .6 1.681 1.681 0 0 0 .89-.08q8.43-1.035 16.86-2.08l.12-.03c.9.23 1.93-.22 1.79-1.38q-6.285-51.93-12.56-103.87zm-20.2 61.96q2.7-12.585 5.52-25.15 1.605 12.525 2.88 25.08z" fill="#efeae1"/><path d="m391.438 268.6c-.12.09-.25.18-.38.27q-2.835-6.96-6.18-13.72a1.446 1.446 0 0 0 -2.65.32 1.518 1.518 0 0 0 -1.37.32 108.148 108.148 0 0 1 -47.34 22.57 1.275 1.275 0 0 0 -.9.61 1.291 1.291 0 0 0 -1.58 1.43q.9 7.815 1.24 15.68a1.542 1.542 0 0 0 2.14 1.33 40.911 40.911 0 0 0 11.65-1.74q2.475 35.085 2.97 70.28a1.368 1.368 0 0 0 .58 1.14 1.485 1.485 0 0 0 1.44 1.37 91.773 91.773 0 0 0 14.64-.45 1.592 1.592 0 0 0 1.42-1.54 1.3 1.3 0 0 0 .32-1.03q-3.165-37.095-5.07-74.28a1.454 1.454 0 0 0 -1.26-1.4c.94-.43 1.86-.86 2.77-1.28a166.546 166.546 0 0 0 29.1-17.3c1.54-1.136.022-3.726-1.54-2.58z" fill="#efeae1"/><path d="m256.238 281.6a1.49 1.49 0 0 0 -.83-.74q-6.3-2.43-12.44-5.22a1.615 1.615 0 0 0 -2.19 1.92q-8.31 21.675-15.63 43.72-1.2-14.49-2.41-28.98a1.6 1.6 0 0 0 -2.51-1.14 19.6 19.6 0 0 1 -6.8-.82 1.387 1.387 0 0 0 -1.8 1.18 1.65 1.65 0 0 0 -.21.42l-12.48 36.6-2.07-57.34a1.548 1.548 0 0 0 -2.8-.8 79.434 79.434 0 0 1 -13.83 1.77 1.544 1.544 0 0 0 -1.15 2.45c0 .02-.01.03-.01.05l4.65 95.97a1.529 1.529 0 0 0 .25.77 1.559 1.559 0 0 0 1.44 1.49q6.315.48 12.64.97a1.224 1.224 0 0 0 1.22-.58 1.381 1.381 0 0 0 1.52-1.07q4.815-18.48 11.16-36.48 2.115 13.365 4.24 26.72a1.476 1.476 0 0 0 .72 2.4 87.623 87.623 0 0 1 10.14 3.31 1.21 1.21 0 0 0 1.69-.83c.25.06.49.13.73.2q14.46-41.955 28.27-84.12a1.394 1.394 0 0 0 -1.51-1.82z" fill="#efeae1"/><path d="m396.573 161.143c-2.968-7.906-15.774-4.481-12.77 3.52a33.992 33.992 0 0 1 -3.162 29.9c-3.789 6.056-17.6 15.833-21 3.941-1.854-6.482.892-14.163 2.443-20.454q2.869-11.641 6.205-23.16 2.677-9.237 5.666-18.375a65.269 65.269 0 0 0 10.735 2.211c7.656.894 7.592-11.113 0-12a49.753 49.753 0 0 1 -6.976-1.353q2.886-8.278 6.01-16.472c3.04-7.97-9.757-11.417-12.77-3.521q-2.921 7.656-5.629 15.388c-4.417-2.046-8.706-4.378-12.867-6.664-10.287-5.65-20.444-11.227-31.735-14.657-20.617-6.263-44.8-7.505-63.2 5.39-6.278 4.4-.288 14.807 6.057 10.362 17.71-12.407 41.081-9.243 60.247-2.046 13.255 4.978 25.056 12.885 37.747 18.671q-2.476 7.53-4.744 15.128a6.517 6.517 0 0 0 -.683 1.129 103.466 103.466 0 0 1 -17 24.952c-.993 1.085-2.277 2.058-3.184 3.2a1.324 1.324 0 0 1 -.35.271c.635-1.816.286-5.334.619-7.152.456-2.492 1.038-4.952 1.713-7.394 2.061-7.455-9.495-10.63-11.571-3.19-1.368 4.9-2.867 9.787-5.664 14.088-1.818 2.8-6.252 8.311-10.191 7.58-8.279-1.536-2.583-16.7-.631-20.954 3.473-7.581 9.088-15.823 16.9-19.448a12.273 12.273 0 0 1 4.158-1.271 8.452 8.452 0 0 1 1.48-.044c.625 1.948-1.011 4.935-1.971 6.512-4.025 6.615 6.348 12.652 10.362 6.057 6.27-10.3 3.979-26.007-10.983-24.406-13.663 1.462-24.183 13.929-29.925 25.768a6.87 6.87 0 0 0 -.425.688c-5.446 10.186-11.184 23.493-22.685 28.212-5.3 2.176-9.912-.137-11.878-5.411a16.688 16.688 0 0 1 -.575-8.688 22.577 22.577 0 0 0 13.146 1.6c6.448-1.153 12.753-5.036 15.613-11.077 5.118-10.808-.067-25.979-13.379-26.413-12.109-.394-19.768 11.728-23.927 22.611-4.309 6.765-9.056 13.231-13.689 19.775-2.291 3.235-4.561 6.486-6.711 9.818-.5.77-1.72 2.117-2.449 3.259 1-7.031 3.961-13.416 6.536-20.111l4.893-12.721c1.494-3.883 3.22-7.763 1.381-11.839-2.328-5.159-7.143-5.264-11.813-6 2.868-6.229 5.77-15.512-1.627-19.878-8.308-4.9-17.01 4.474-19.027 11.874-1.512 5.547.618 10.063 4.278 13.4-3 5.051-6.506 9.9-11.109 13.573-6.515 5.2-14.251 5.837-22.3 5.391-9.683-.536-19.039-1.958-28.7-.285-7.595 1.315-4.375 12.881 3.19 11.571 6.538-1.132 13.133-.422 19.732.208-6.153 11.863-15.968 23.542-27.356 29.337-5.871 2.988-13.233 4.8-19.766 3.258-7.858-1.85-11.074-8.629-10.927-16.274.166-8.661 3.434-17.653 6.837-25.526a113.961 113.961 0 0 1 13.38-23.022c5.083-6.784 11.21-13.746 18.137-18.7 6.4-4.58 16.4-8.918 24.485-7.386 11.388 2.157 11.57 20.988 6.032 28.293-4.665 6.154 5.75 12.139 10.362 6.057 9.077-11.973 6.3-33.49-5.83-42.455-7.618-5.629-17.933-4.444-26.531-1.882-11.39 3.393-20.421 10.881-28.347 19.485-15.012 16.3-27.362 38.1-30.13 60.359-1.331 10.7 1.2 21.988 10.39 28.556 7.671 5.479 17.683 5.878 26.605 3.829 20.759-4.767 36.943-24.272 45.576-43.341.434-.019.867-.034 1.3-.065a38.854 38.854 0 0 0 25.36-11.681 69.018 69.018 0 0 0 10.233-13.681 31.224 31.224 0 0 0 3.976.681c.34.039.872.153 1.4.238-1.036 2.2-2.646 7.609-2.858 8.161l-3.5 9.086c-3.27 8.5-8.84 18.437-5.432 27.762a10.9 10.9 0 0 0 10.026 7.4c5.887.077 9.69-4.375 12.667-8.858 2.939-4.427 6-8.774 9.069-13.119 2.382 8.661 8.507 15.724 19 15.747 9.695.021 17.253-5.471 23.343-12.737a15.414 15.414 0 0 0 10.455 9.979c8.1 2.562 14.713-.872 19.835-6.589 3.409 3.9 9.437 4.774 14.377 2.29a25.086 25.086 0 0 0 6.984-5.592 54.92 54.92 0 0 0 -1.617 13.018c.252 13.329 10.044 23.774 23.8 22.107 10.628-1.289 19.148-9.2 23.917-18.444 5.855-11.355 7.479-25.258 2.937-37.355zm-121.1-16.019c2.54-1.979 5.873-2.356 7.207.991a8.236 8.236 0 0 1 -1.711 8.5c-3.623 3.524-8.714 3.424-12.917 1.433 1.732-4.048 3.992-8.248 7.422-10.924zm59.66 31.623c-.16.075-.3.136-.354.172a1.622 1.622 0 0 1 .355-.172zm.3.215c-.053.378-.47.949 0 0z" fill="#009995"/><path d="m201.172 216.7c-2.948-.084-5.892-.093-8.836-.047a3.448 3.448 0 0 0 -1.734.034c-2.973.073-5.945.2-8.917.411-3.831.266-3.86 6.268 0 6 2.475-.172 4.95-.282 7.426-.362.4 5.138.569 10.3.553 15.449-.012 3.861 5.987 3.866 6 0 .017-5.188-.151-10.382-.562-15.555 2.023 0 4.046.012 6.071.069 3.862.112 3.858-5.888-.001-5.999z" fill="#ffc533"/><path d="m220.782 218.428c-.112 2.074-.183 4.151-.236 6.229l-8.79.155c.051-2.042.124-4.083.245-6.121.229-3.857-5.772-3.844-6 0a184.368 184.368 0 0 0 -.138 18.907c.167 3.846 6.167 3.867 6 0-.1-2.26-.141-4.522-.158-6.785l8.766-.155c0 2.064.018 4.128.071 6.191.1 3.854 6.1 3.869 6 0-.155-6.139-.092-12.289.24-18.421.209-3.859-5.791-3.847-6 0z" fill="#ffc533"/><path d="m232.058 217.933c.1 6.388.153 12.776.249 19.164.058 3.857 6.058 3.869 6 0-.1-6.388-.153-12.776-.249-19.164-.058-3.857-6.058-3.869-6 0z" fill="#ffc533"/><path d="m262.643 218.26c-.2 2.768-.348 5.539-.5 8.31-.062 1.134.079 3.064.042 4.73a42.086 42.086 0 0 1 -6.131-5.256c-2.737-2.58-5.288-5.35-7.936-8.019a3.032 3.032 0 0 0 -5.118 2.122c.16 5.82.374 11.658.986 17.451.4 3.8 6.406 3.842 6 0-.344-3.257-.556-6.528-.709-9.8 1.439 1.452 2.9 2.881 4.439 4.226 2.62 2.29 6.311 5.732 9.866 6.3a3.1 3.1 0 0 0 3.388-1.379c1.217-2.5.924-5.813 1.076-8.548.188-3.378.358-6.758.6-10.133.274-3.857-5.727-3.84-6.003-.004z" fill="#ffc533"/><path d="m294.621 224.882c-3.386-.012-3.62-.078-7.006-.034-3.858.05-3.869 6.051 0 6 2.633-.034 3.08-.416 6.112-.253a8.489 8.489 0 0 1 -4.447 2.206 13.258 13.258 0 0 1 -4.4-.386c-1.977-.444-6.474-1.509-7.013-3.686-.952-3.847 3.933-6.852 6.92-7.253 3.535-.473 8.021-.773 10.964 1.424 3.1 2.311 6.09-2.895 3.028-5.181-5.633-4.206-17.348-3.511-22.567 1.22-5.151 4.669-6.229 12.8.161 16.6 5.778 3.439 14.662 5.142 20.214.453 2.323-1.962 5.128-6.333 3.091-9.432-1.164-1.76-3.184-1.671-5.057-1.678z" fill="#ffc533"/><path d="m319.9 224.5c-2.353-.813-5.706-.779-8.087-1.963a13.3 13.3 0 0 1 3.99-.9 10.426 10.426 0 0 1 3.759.271 4.29 4.29 0 0 1 1.479.659 2.076 2.076 0 0 0 .494.422c.6 2.638 4.979 3.367 5.815.155 1.453-5.579-7.193-7.638-11-7.532-4.064.113-13.478 2.972-11.079 8.938 1.161 2.886 5.306 4 8.015 4.587 1.77.381 7.141.764 8.009 2.786.118.276-.48.68-1.3 1.13a11.843 11.843 0 0 1 -5.425 1.162 24.581 24.581 0 0 1 -5.072-.719 2.426 2.426 0 0 1 -.732-.405l-.016-.012c1.971-2.886-2.027-6.744-4.469-3.923-2.917 3.371-1.562 7.556 2.188 9.521 4.753 2.491 11.907 2.084 16.553-.444 3.744-2.037 5.865-5.9 3.053-9.738a12.467 12.467 0 0 0 -6.175-3.995zm-11.258 8.5c-.35-.274-.071-.23 0 0z" fill="#ffc533"/><path d="m267.6 333.464q6.21.435 12.44.55l-3.94-34.69q-4.187 17.085-8.5 34.14z" fill="#fa5d53"/><path d="m145.888 331.114 8.4-.07q-1.275-12.555-2.88-25.08-2.82 12.57-5.52 25.15z" fill="#fa5d53"/><path d="m403.027 266.264c-.859-2.61-7.695-12.55-9.189-15.557a11.233 11.233 0 0 0 -10.093-6.307 20.027 20.027 0 0 0 -9.259 3.681c-12.479 10.308-45.007 21.052-45.939 21.532a11.363 11.363 0 0 0 -2.979 1.569c-.115-.01-14.463-.843-14.687-.843a13.5 13.5 0 0 0 -10.525 5.81 11.466 11.466 0 0 0 -10.03-6.647l-22.008-.777q-.212-.007-.417-.008a11.29 11.29 0 0 0 -7.96 3.222q-.456-.223-.931-.407c-3.977-1.536-7.988-3.217-11.92-5a11.649 11.649 0 0 0 -16.3 9.159q-1.4 3.66-2.786 7.4a11.8 11.8 0 0 0 -9.463-1.92 9.425 9.425 0 0 1 -2.206-.393 11.574 11.574 0 0 0 -3.357-.5 11.162 11.162 0 0 0 -5.11 1.267 10.869 10.869 0 0 0 -.659-1.1l-.348-9.606a11.472 11.472 0 0 0 -11.528-11.07c-1.842 0-12.062 2.272-15.494 2.41a11.518 11.518 0 0 0 -5.221 1.488 11.693 11.693 0 0 0 -10.185-5.932c-.278 0-12.988-.463-19.025-.585h-.222a11.246 11.246 0 0 0 -10.384 6.659 11.643 11.643 0 0 0 -1.022 5.372 652.057 652.057 0 0 0 -25.122 103.329 14.515 14.515 0 0 0 3.062 10.625c.879.99 18.115 28.518 20.052 30.7a9.763 9.763 0 0 0 7.168 3.295c1.186.026 10-.245 13.195-.245 7.929 0 10.217-11.3 10.32-11.812.068.044.131.094.2.136.042.75.74 5.592 1.644 7.021a9.51 9.51 0 0 0 7.255 4.539c.387.045 20.4-2.326 21.963-3.3.347.065 12.459 1.011 12.716 1.011a9.771 9.771 0 0 0 4.655-1.171c2.919-1.131 6.185-7.7 6.317-8.2a9.938 9.938 0 0 0 3 1.33c2.612.677 22.288 5.955 24.464 6.219 2.965.36 10.777.9 11.683.9a9.72 9.72 0 0 0 9.513-7.357c1.112-4.254 2.2-8.478 3.117-12.047h1.63s1.578 10.87 1.641 11.166a9.863 9.863 0 0 0 9.067 7.884c4.006.268 12.632 1.243 13.07 1.243a9.926 9.926 0 0 0 7.419-3.329 10.1 10.1 0 0 0 2.287.261c1.2 0 10.761-1.288 14.314-2.034a9.678 9.678 0 0 0 6.266-4.325c.917-1.455 2.362-9.013 2.771-9.487.021 1.205.639 7.3 1.639 8.846a9.9 9.9 0 0 0 8.362 5.418c1.425.069 10.76-.075 13.97-.429a10.3 10.3 0 0 0 8.328-6.652c.606-1.527 15.861-30 16.726-32.493a11.415 11.415 0 0 0 .937-5.635c-1.049-12.277-1.992-24.654-2.837-37.039 1.513-1.038 23.381-47.616 24.345-48.328a11.578 11.578 0 0 0 4.11-12.957zm-226.169 108.136-.12.03q-8.43 1.035-16.86 2.08a1.681 1.681 0 0 1 -.89.08 1.147 1.147 0 0 1 -1-.6 1.557 1.557 0 0 1 -.27-.8c-.47-8.84-1.09-17.67-1.81-26.49l-13.79.11q-2.5 11.97-4.93 23.95a1.246 1.246 0 0 1 -.61.9 2.84 2.84 0 0 1 -.38 1.33 1.514 1.514 0 0 1 -1.42 1.7q-7.245.435-14.51.27a1.481 1.481 0 0 1 -1.45-1.71 1.508 1.508 0 0 1 -.28-1.18 639.208 639.208 0 0 1 25.62-104.4 1.49 1.49 0 0 1 1.05-2.52q9.33.18 18.65.64c.04 0 .06.01.1.01a1.649 1.649 0 0 1 2.13 1.35q6.285 51.93 12.56 103.87c.14 1.164-.89 1.614-1.79 1.38zm51.89-7.06a1.21 1.21 0 0 1 -1.69.83 87.623 87.623 0 0 0 -10.14-3.31 1.476 1.476 0 0 1 -.72-2.4q-2.115-13.365-4.24-26.72-6.345 18.015-11.16 36.48a1.381 1.381 0 0 1 -1.52 1.07 1.224 1.224 0 0 1 -1.22.58q-6.315-.48-12.64-.97a1.559 1.559 0 0 1 -1.44-1.49 1.529 1.529 0 0 1 -.25-.77l-4.65-95.97c0-.02.01-.03.01-.05a1.544 1.544 0 0 1 1.15-2.45 79.434 79.434 0 0 0 13.83-1.77 1.548 1.548 0 0 1 2.8.8l2.07 57.34 12.48-36.6a1.65 1.65 0 0 1 .21-.42 1.387 1.387 0 0 1 1.8-1.18 19.6 19.6 0 0 0 6.8.82 1.6 1.6 0 0 1 2.51 1.14q1.2 14.49 2.41 28.98 7.335-22.035 15.63-43.72a1.615 1.615 0 0 1 2.19-1.92q6.15 2.79 12.44 5.22a1.49 1.49 0 0 1 .83.74 1.394 1.394 0 0 1 1.51 1.82q-13.815 42.165-28.27 84.12c-.24-.066-.478-.14-.73-.196zm73.45 4.92a1.672 1.672 0 0 1 -1.86 1.57c-4.74-.62-9.51-1.08-14.28-1.4a1.574 1.574 0 0 1 -.77-2.86 1.552 1.552 0 0 1 -1.37-1.39q-1.02-8.9-2.02-17.79-9.315-.21-18.62-.02-2.73 10.7-5.51 21.37a1.5 1.5 0 0 1 -2.51.64 78.092 78.092 0 0 1 -11.23-.54 1.681 1.681 0 0 1 -1.22-2.48q10.68-44.4 22.65-88.48a1.344 1.344 0 0 1 1.1-1.04 1.319 1.319 0 0 1 1.41-1.13l22.01.78a1.482 1.482 0 0 1 1.45 1.49c0 .03.01.05.01.08q3.705 45.15 11.18 89.85a1.532 1.532 0 0 1 -.418 1.354zm24.21-4.12a72.253 72.253 0 0 1 -13.35 1.52 1.515 1.515 0 0 1 -2.74-.82q-.855-43.29-1.71-86.57a1.357 1.357 0 0 1 1.23-1.44 1.263 1.263 0 0 1 1.14-.49q6.84.39 13.66.8a1.579 1.579 0 0 1 1.31 2.26 769.982 769.982 0 0 0 1.59 82.37 1.478 1.478 0 0 1 -.11.69 1.3 1.3 0 0 1 -1.02 1.684zm66.57-96.96a166.546 166.546 0 0 1 -29.1 17.3c-.91.42-1.83.85-2.77 1.28a1.454 1.454 0 0 1 1.26 1.4q1.905 37.185 5.07 74.28a1.3 1.3 0 0 1 -.32 1.03 1.592 1.592 0 0 1 -1.42 1.54 91.773 91.773 0 0 1 -14.64.45 1.485 1.485 0 0 1 -1.44-1.37 1.368 1.368 0 0 1 -.58-1.14q-.48-35.175-2.97-70.28a40.911 40.911 0 0 1 -11.65 1.74 1.542 1.542 0 0 1 -2.14-1.33q-.345-7.86-1.24-15.68a1.291 1.291 0 0 1 1.58-1.43 1.275 1.275 0 0 1 .9-.61 108.148 108.148 0 0 0 47.34-22.57 1.518 1.518 0 0 1 1.37-.32 1.446 1.446 0 0 1 2.65-.32q3.36 6.75 6.18 13.72c.13-.09.26-.18.38-.27 1.562-1.146 3.08 1.444 1.54 2.584z" fill="#fa5d53"/><g fill="#ffc533"><path d="m124.676 381.824a1.024 1.024 0 0 0 -1.767 1.033c5.077 10.278 10.924 20.337 16.929 30.1 1.46 2.374 5.29.049 3.7-2.161-6.782-9.396-12.87-19.056-18.862-28.972z"/><path d="m163.06 382.4c-.5-1.094-2.357-.319-1.956.825 3.032 8.653 5.615 17.436 7.93 26.3.559 2.141 3.843 1.236 3.315-.914a145.111 145.111 0 0 0 -9.289-26.211z"/><path d="m196.353 379.5c-.722 9.418-1.42 20.114-.248 29.493a1.736 1.736 0 0 0 3.469 0c.886-9.416-.148-20.1-1.158-29.493a1.032 1.032 0 0 0 -2.063 0z"/><path d="m224.418 374.514a217.594 217.594 0 0 1 -4.687 26.366c-.606 2.708 3.516 3.868 4.174 1.151a108.667 108.667 0 0 0 2.576-27.517 1.032 1.032 0 0 0 -2.063 0z"/><path d="m244.774 377.835c1.967 9.794 2.2 19.93 4.268 29.65.474 2.228 3.84 1.653 3.883-.526.193-9.894-3.181-20.337-6.161-29.672a1.032 1.032 0 0 0 -1.99.548z"/><path d="m298.126 380.747a122.736 122.736 0 0 0 -3.926 15.753c-.8 4.408-2.079 9.061-1.349 13.517.364 2.219 3.243 1.595 3.9 0 1.732-4.191 1.568-9.365 2.061-13.857.553-5.039 1.062-10.072 1.378-15.132.085-1.228-1.711-1.372-2.064-.281z"/><path d="m321.57 377.74c-1.918 9.167-6.312 18-7.4 27.317-.228 1.96 3.02 2.856 3.8 1.029 3.7-8.667 3.747-18.659 5.554-27.807.257-1.273-1.685-1.823-1.954-.539z"/><path d="m362.046 373.488c-2.3 5.811-4.265 11.167-8.193 16.063-2.768 3.451-5.535 7.057-7.247 11.15-1 2.39 2.32 3.494 3.865 2.25 3.98-3.2 6.211-7.98 7.767-12.729 1.793-5.47 4.432-10.563 5.8-16.185a1.032 1.032 0 0 0 -1.992-.549z"/><path d="m135.067 397.045a1.079 1.079 0 0 0 1.862-1.088c-2.919-5.248-5.891-10.467-8.847-15.694a1.016 1.016 0 0 0 -1.754 1.025c2.906 5.256 5.796 10.522 8.739 15.757z"/><path d="m171.209 395.225c-.746-4.6-1.606-9.172-2.424-13.755-.23-1.291-2.166-.735-1.959.54.747 4.6 1.453 9.209 2.273 13.8.25 1.39 2.333.79 2.11-.585z"/><path d="m191.834 380.26q-1.121 9.608-1.986 19.24c-.134 1.476 2.149 1.454 2.3 0q.978-9.611 1.72-19.24c.097-1.321-1.886-1.272-2.034 0z"/><path d="m220.756 374.978c-1.505 8.447-3.136 16.872-5 25.248-.292 1.312 1.719 1.873 2.019.557 1.91-8.374 3.59-16.781 4.938-25.265.204-1.272-1.727-1.836-1.957-.54z"/><path d="m252.393 378.5c-.311-1.283-2.259-.739-1.974.544 1.707 7.678 3.422 15.352 5.283 23 .331 1.362 2.4.784 2.094-.577-1.702-7.683-3.549-15.325-5.403-22.967z"/><path d="m293.574 379.5a157.225 157.225 0 0 0 -6.394 31c-.144 1.379 2.012 1.368 2.156 0a164.242 164.242 0 0 1 6.2-30.464c.377-1.255-1.57-1.783-1.962-.536z"/><path d="m317.509 376.726q-5.639 14.654-10.109 29.722a1.2 1.2 0 0 0 2.305.635q4.693-14.974 9.761-29.818c.434-1.252-1.496-1.739-1.957-.539z"/><path d="m358.223 372.793c-6.545 10.485-12.19 21.59-18.143 32.418a1.1 1.1 0 0 0 1.9 1.112c6.067-10.766 12.53-21.417 17.995-32.505a1.016 1.016 0 0 0 -1.752-1.025z"/></g><path d="m161.984 270.545c-4.833-.3-9.664-.644-14.5-.847-1.349-.057-1.267 1.886 0 2.047 4.386.558 8.785 1 13.182 1.469.333 5.721 1.075 11.423 1.976 17.078.194 1.221 2.331.948 2.179-.295-.734-6.006-1.1-12.009-1.431-18.048a1.441 1.441 0 0 0 -1.406-1.404z" fill="#2f2f51"/><path d="m194.7 274.975a1.346 1.346 0 0 0 -1.28-1.68 56.075 56.075 0 0 0 -10.451.935c-1.113.2-.871 2.127.27 1.995a58.742 58.742 0 0 1 8.6-.333c-.63 4.649.636 9.772 1.053 14.331.123 1.34 2.2 1.383 2.125 0-.125-2.44-.151-4.882-.261-7.322-.113-2.625-.565-5.32-.056-7.926z" fill="#2f2f51"/><path d="m251.379 281.911a65.944 65.944 0 0 0 -6.553-2.962c-1.128-.426-1.69 1.251-.783 1.856 1.491.994 3.373 1.673 4.761 2.78 1.745 1.392 1.729 1.59 1.034 3.8-1.036 3.3-2.151 6.581-3.268 9.856-.444 1.3 1.592 1.842 2.049.565q1.4-3.919 2.86-7.817c.6-1.614 2.461-4.374 2.1-6.077-.262-1.244-1.079-1.43-2.2-2.001z" fill="#2f2f51"/><path d="m285.728 282.687a118.405 118.405 0 0 0 -15.983-.86c-1.108 0-1.428 1.784-.27 1.995a126.658 126.658 0 0 0 14.941 1.942c.919 4.386 1.455 8.862 2.416 13.25.314 1.433 2.455.818 2.185-.6-.877-4.6-1.813-9.444-1.7-14.141a1.629 1.629 0 0 0 -1.589-1.586z" fill="#2f2f51"/><path d="m322.255 283.623a70.073 70.073 0 0 0 -8.5 0c-1.066.1-1.506 1.8-.274 2.026a57.07 57.07 0 0 0 7.134.71 37.8 37.8 0 0 0 -.371 7.142 1.243 1.243 0 0 0 2.484 0 46.576 46.576 0 0 1 .893-8.087 1.436 1.436 0 0 0 -1.366-1.791z" fill="#2f2f51"/><path d="m381.615 261.421c-13.647 10.226-28.734 15.7-45.4 18.74-1.132.206-.863 2.029.27 1.995 17.014-.509 33.664-8 46.612-18.808 1.061-.882-.364-2.765-1.482-1.927z" fill="#2f2f51"/><path d="m153.565 334.347a11.349 11.349 0 0 0 -7.1-.222 1.028 1.028 0 0 0 .272 2.01 27.831 27.831 0 0 1 6.168.607 1.243 1.243 0 0 0 .66-2.395z" fill="#2f2f51"/><path d="m217.5 293.509c-1.087-.1-2.173-.147-3.263-.2a1.036 1.036 0 0 0 -.274 2.026c1.069.209 2.134.42 3.211.582a1.221 1.221 0 1 0 .326-2.408z" fill="#2f2f51"/><path d="m279.749 335.706a104.885 104.885 0 0 0 -11.243-.109c-1.1.04-1.475 1.846-.274 2.026a108.525 108.525 0 0 0 11.517 1.193c2.014.084 1.979-2.968 0-3.11z" fill="#2f2f51"/><path d="m155.008 232.821c-17.205.9-34.2 3.492-51.355 4.667a1.016 1.016 0 0 0 0 2.031c17.23.2 34.144.976 51.355-.838 3.671-.388 3.829-6.06 0-5.86z" fill="#ffc533"/><path d="m406.349 230.98c-10.1-.348-20.209-.322-30.311-.631-4.888-.15-9.785-.1-14.675-.116-4.679-.018-9.815-.726-14.345.532a2.458 2.458 0 0 0 0 4.7c4.49 1.365 9.682.724 14.345.69 4.89-.036 9.794-.079 14.675-.4 10.06-.663 20.32-1.364 30.311-2.7a1.04 1.04 0 0 0 0-2.075z" fill="#ffc533"/><path d="m200.271 90.148c-6.735-3.089-13.935-4.04-21.292-4.3-1.142-.041-1.43 1.8-.274 2.026 6.9 1.326 13.265 4.185 19.431 7.509a65.133 65.133 0 0 1 8.434 5.38c2.6 1.969 4.806 4.69 7.708 6.171a2.49 2.49 0 0 0 3.378-3.378c-2.848-5.969-11.587-10.749-17.385-13.408z" fill="#ffc533"/><path d="m223.063 62.616c.1 13.531.234 27.411 2.948 40.753.634 3.116 5.616 2.4 5.525-.748-.396-13.571-3.456-27.121-6.436-40.281a1.044 1.044 0 0 0 -2.037.276z" fill="#ffc533"/><path d="m275.98 79.674c-6.949-1.245-13.118.925-18.73 5.091-5.792 4.3-11.936 10.859-15.03 17.406-1.255 2.655 1.907 5.449 4.2 3.238 4.6-4.441 7.717-10.213 12.474-14.624a38.066 38.066 0 0 1 17.09-9.016 1.094 1.094 0 0 0 -.004-2.095z" fill="#ffc533"/></svg>