<svg id="Layer_1" height="512" viewBox="0 0 512 512" width="512" xmlns="http://www.w3.org/2000/svg" data-name="Layer 1"><path d="m431.978 196.023a430.825 430.825 0 0 1 -16.25-49.686c-2.785-10.452-9.268-20.274-18.956-28.26a74.455 74.455 0 0 0 -23.752-13.091c-7.077-2.363-17.6-5.311-27.232-3.622a11.707 11.707 0 0 0 -8.3 6.556c-3.782-4.3-5.962-11.176-10.434-14.632a10.541 10.541 0 0 0 -4.975-2.084q-.236-.1-.478-.181c-15.55-5.557-36.05-5.671-52.489-6.152a10.378 10.378 0 0 0 -10.051 6.818 10.831 10.831 0 0 0 -.4 6.156c.225.98-.686 2.885-1.065 3.762.373-.863-14.679-15.115-16.759-16.252-7.371-4.028-20.923-1.393-28.811-.3-10.144 1.406-20.118 3.787-30.115 5.966-10.253 2.235-5.6 10.938-7.514 17.524-2.474-1.178-4.384-3.622-7.324-4.509a67.3 67.3 0 0 0 -24.134-3.036 10.317 10.317 0 0 0 -10.867 6.42c-.993 2.4-1.91 4.831-2.784 7.269a11.54 11.54 0 0 0 -7.616-3.458 11.534 11.534 0 0 0 -11.766-4c-8.789 2.219-31.021 8.154-30.009 20.213 1.633 19.439 19.44 89.871 26.837 106.144 2.1 4.624 6.8 7 11.338 8.1 10.769 2.591 76.191 17.855 85.55 17.855 6.269 0 13.484-2.3 19.26-4.565 4.023-1.574 6.479-5.756 7.076-9.459.409-.44 6.541 2.144 7.219 2.369 3.413 1.135 6.7 3.311 10.382 3.122a10.925 10.925 0 0 0 8.518-4.833l2.453-3.613c.127.088.247.184.379.268a12.654 12.654 0 0 0 6.744 1.923c7.293 0 14.4-1.971 21.667-2.263 4.307-.172 8.6.094 12.9.153 3.574.05 6.3 2.006 9.941 2.1a121.546 121.546 0 0 1 33.053 5.859 10.963 10.963 0 0 0 2.542.46c.04.054.071.113.112.167a39.428 39.428 0 0 0 11.726 9.778c3.883 2.275 8.943 5.8 13.59 5.8 10.2 0 12.9-13.707 15.693-21.052a36.685 36.685 0 0 0 23.125-.228c12.341-4.229 21.6-15.25 24.162-28.757a36.744 36.744 0 0 0 -2.186-20.749z" fill="#2f2f51"/><path d="m155 335.958c7.723.057 7.731-11.943 0-12q-9.161-.067-18.322-.144c3.342-14.966 5.833-30.116 9.013-45.122 15.938 3.159 31.672 7.558 48.241 3.71 7.844-1.822 4.524-13.9-3.328-12.071-14.272 3.315-28.389-.76-42.341-3.6q-2.316-.472-4.657-.906a6.779 6.779 0 0 0 -3.543-.617c-13.884-2.277-28.136-2.767-41.108 3.653-13.385 6.624-22.608 21.266-21.047 36.384 1.526 14.784 14.558 27.075 29.8 24.014 7.892-1.586 4.552-13.654-3.328-12.071-12.445 2.5-15.763-14.4-12.729-22.906 4.307-12.082 16.882-17.682 28.963-18.182a81.3 81.3 0 0 1 13.246.628c-3.953 18.885-6.871 37.979-11.855 56.645-4.3 16.094-10.257 39.327-26.959 47-7.01 3.219-.92 13.565 6.057 10.362 18.564-8.523 26.328-32.353 31.446-50.426q.638-2.253 1.231-4.515 10.61.08 21.22.164z" fill="#009995"/><path d="m404.362 333.038c1.609-2.1 3.972-3.929 6.691-4.107 1.631-.106 4.167.191 4.181 1.65.076 7.717 12.077 7.737 12 0-.117-11.851-13.766-16.2-23.36-12.01-11.91 5.2-15.417 19.166-16.735 30.926-.021.192-.037.385-.055.577a48.449 48.449 0 0 1 -7.72 19.926c-1.564 2.3-4.16 6.308-6.844 7.529-3.845 1.75-2.3-3.8-1.834-6.264 1.529-8.139 3.332-16.236 5-24.348 1.436-7 4.47-15.448 2.3-22.575-1.94-6.363-7.948-10.995-14.735-9.7-5.229 1-9 4.768-12.1 8.918-1.979-4.727-9.976-5.775-11.271.427l-1.832 8.775a98.926 98.926 0 0 1 -7.093 16.967c-1.079 2.035-6.647 14.586-9.44 14.193-5.209-.732 2.05-30.827 3.046-34.652 1.947-7.479-9.625-10.67-11.571-3.19q-1.365 5.243-2.356 10.548c-.051.16-.1.319-.144.49a61.161 61.161 0 0 1 -6.11 15.681c-1.506 2.692-3.176 5.29-4.937 7.821-1.241 1.783-3.154 5.476-5.356 6.18-4.273 1.366-2.536-8.5-2.231-10.982.483-3.941 1.147-7.862 1.819-11.774.087-.507.181-1.012.27-1.519a5.658 5.658 0 0 0 .246-1.384q.87-4.917 1.8-9.823l4.829-.056c7.717-.09 7.737-12.09 0-12l-2.5.029c1.978-10.107 3.964-20.213 5.622-30.376 1.233-7.555-10.329-10.8-11.572-3.19-1.842 11.287-4.149 22.5-6.366 33.734-6.235.5-6.98 9.118-2.2 11.41q-.833 4.476-1.594 8.962c-.013.031-.029.059-.042.091-2.375 5.882-5.263 11.481-8.2 17.1-.925 1.77-1.676 3.656-2.633 5.4-.5.917-1.333 2.721-2.485 3.219.152-.164-.161-.541-.225-1.666-.418-7.323 2.032-15.631 4.043-22.6 1.567-5.434 3.7-11.125 1.85-16.784a11.358 11.358 0 0 0 -13.618-7.431c-5.186 1.255-9.014 5.492-12.25 9.718.027-.142.054-.285.081-.427q2.113-10.948 4.386-21.865c13.558-2.447 26.773-11.012 30.606-24.681 1.874-6.682 1.708-15.195-3.727-20.234-5.54-5.136-14.689-3.7-20.583.037-7.154 4.536-11.043 12.517-13.12 20.466-1.1 4.217-2.078 8.473-3 12.742a116.545 116.545 0 0 1 -18.993-2.696c-15.542-3.176-42.157-6.305-47.6 13.835-2.019 7.464 9.554 10.649 11.571 3.19 2.3-8.517 15.36-7.851 22.245-7.209 10.193.95 20.037 4.282 30.24 5.1q-.271 1.338-.542 2.675c-4.052 19.984-7.612 40.064-11.554 60.07-.1.405-.206.809-.3 1.215a6.722 6.722 0 0 0 -.168 1.194c-.112.566-.218 1.133-.331 1.7-1.509 7.541 10.055 10.768 11.571 3.19.277-1.385.541-2.772.813-4.158a94.281 94.281 0 0 1 18.555-37.638 23.2 23.2 0 0 1 3.093-3.357 6.012 6.012 0 0 1 1.375-.944c.23 2.416-1 5.194-1.646 7.348a132 132 0 0 0 -4.55 22.069c-.722 5.943-.789 12.566 4.235 16.735 5.065 4.2 12.1 2.676 16.582-1.634a19.192 19.192 0 0 0 2.808-3.512 15.4 15.4 0 0 0 1.945 3.572 13 13 0 0 0 16.818 3.934c4.133-2.18 7.358-6.166 10.089-10.271 1.5 4.014 4.32 7.273 9.209 8.357 4.646 1.031 8.42-.682 11.527-3.5 1.018 5.662 10.026 7.406 11.62.735 3.546-14.839 9.526-30.2 18.924-42.385 1.421-1.842 3.7-5.462 5.582-3 1.728 2.255-1.039 10.061-1.529 12.449l-5 24.348c-1.38 6.723-3.309 13.94.643 20.195 3.663 5.8 10.85 7.064 16.756 4.091 7.355-3.7 12.913-11.3 16.6-19.529a14.187 14.187 0 0 0 9.249 2.649 18.423 18.423 0 0 0 6.3-1.332 67.5 67.5 0 0 1 -8.222 20.534c-8.762 13.941-22.9 19.448-39 18.258-16.914-1.251-32.591-8.836-48.96-12.65-14.308-3.333-29.655-3.88-43.272 2.382-6.693 3.077-13.454 8.208-16.721 14.969-3.417 7.073-1.829 16.651 5.922 20.089 7 3.1 13.11-7.234 6.057-10.362-6.378-2.828 4.947-11.19 7.579-12.692a40.221 40.221 0 0 1 18.078-4.826c15.816-.729 30.792 5.392 45.667 9.89 14.432 4.364 29.98 7.422 44.923 3.755 13.571-3.33 24.37-12.758 31.253-24.706 8.791-15.261 10.707-33.025 12.491-50.216.583-5.616-5.689-7.087-9.406-4.487a5.311 5.311 0 0 0 -2.853 3.747c-1.217 5.112-2.471 12.9-8.031 15.163-5.975 2.433-6.31-4.293-5.938-8.4.525-5.75 1.777-13.129 5.365-17.812zm-144.612-55.457a17.861 17.861 0 0 1 5.4-7.289c1.322-.97 5.181-2.995 6.827-1.736 3.047 2.329-.335 10.248-1.85 12.607a24.126 24.126 0 0 1 -14.427 10.507 67.986 67.986 0 0 1 4.05-14.089z" fill="#009995"/><path d="m319.49 311.087c3.056.7 6.631-.919 7.381-4.191l1.915-8.353c.7-3.053-.937-6.64-4.191-7.381-3.056-.7-6.631.919-7.381 4.191l-1.915 8.353c-.699 3.053.938 6.64 4.191 7.381z" fill="#009995"/><path d="m217.594 390.937c4.938-12.776 7.394-26.682 10.8-39.99.359-1.231.682-2.46.97-3.67 1.044-3.807-1.461-6.494-4.435-7.228-2.895-.8-6.24.273-7.136 4.038q-1.1 4.014-2.157 8.04c-1.163 3.117-2.9 5.912-5.874 7.123-5.975 2.433-6.31-4.293-5.937-8.4a57.349 57.349 0 0 1 1.577-9.472 6.439 6.439 0 0 0 .45-1.536 22.158 22.158 0 0 1 3.334-6.8c1.609-2.1 3.972-3.929 6.691-4.107 1.631-.106 4.167.191 4.182 1.65.076 7.717 12.077 7.737 12 0-.117-11.851-13.766-16.2-23.36-12.01-7.552 3.3-11.719 10.123-14.1 17.672a124.529 124.529 0 0 1 -8.258 14.38 83.551 83.551 0 0 1 -5.2 7.111c-2.3 2.748-2.432 3-2.45-1-.048-10.735 2.427-21.738 5.736-31.879 2.4-7.359-9.182-10.512-11.571-3.19a122.225 122.225 0 0 0 -5.3 24.784c-.846 7.708-2.684 17.5 4.01 23.2 6.932 5.9 14.45 1.113 19.135-4.781.883-1.111 1.738-2.24 2.579-3.378 2.213 6.005 6.948 10.549 14.67 10.245a19.783 19.783 0 0 0 2.732-.3q-.486 1.921-.973 3.842c-.827 3.261-1.6 6.473-2.57 9.615a61.97 61.97 0 0 0 -16.456-4.688c-17.363-2.413-39.558-.978-51.206 14.264-11.132 14.567.326 31.529 15.964 35.457 19.611 4.927 38.6-3.554 50.912-18.894a66.379 66.379 0 0 0 6.13-9.133 24.218 24.218 0 0 1 9.126 19.993c-.2 7.725 11.8 7.72 12 0 .353-13.295-6.334-23.764-16.015-30.958zm-42.771 27.594c-8.261 1.96-29.79.663-27.778-12.643.862-5.7 7.545-9.4 12.29-11.43 6.354-2.715 12.645-3.3 19.479-3.183a66.364 66.364 0 0 1 23.506 4.62c-6.13 10.462-15.446 19.778-27.497 22.637z" fill="#009995"/><path d="m187.938 189.938c-13.58-8.95-27.28-17.91-41.32-26.15 1.92-4.96 3.82-9.94 5.86-14.84q6.81-16.44 14.11-32.68a2.911 2.911 0 0 0 -1.97-4.09 58.357 58.357 0 0 0 -22.15-2.61 1.917 1.917 0 0 0 -2.54 1.1c-3.88 9.39-6.71 19.31-9.69 29.01-1.57 5.08-3.14 10.17-4.65 15.27-.04.11-.08.23-.11.34-3.24-12.06-5.735-23.425-8.985-35.925-.487-1.872-2-4.515-4.5-3.885-5.86 1.48-16.13 6.59-21.71 8.92a1.945 1.945 0 0 0 -.48.3 1.8 1.8 0 0 0 -1.43 2.04c1.52 18.1 18.934 87.562 26.105 103.338.625 1.375 3.328 2.224 5.336 1.695 7.272-1.918 13.451-3.528 20.1-6.768 1.22-.59 2.148-3.115 2.068-4.435-.54-8.61-8.01-32.87-8.91-36.34 4.69 3.82 39.19 30.85 39.35 30.91a3.461 3.461 0 0 0 5.53-.59l11.49-20.1c.966-1.71-.055-3.56-1.504-4.51z" fill="#efeae1"/><path d="m246 174.128c-.6-2.483-18.352 2.745-19.55 2.93-3.56.56-7.15.92-10.71 1.47-.25-6.06-.88-12.12-1.55-18.18 5.56 1.72 23.55.11 23.52-2.29a96.852 96.852 0 0 0 -2.62-18.91c.09-1.64-.97-3.45-2.88-3.31a144.185 144.185 0 0 0 -20.21 2.862c-.44-4.72-.94-9.45-1.71-14.11 8.33.53 26.39-3.52 26.71-3.97a2.849 2.849 0 0 0 3.14-2.55c.56-7.61-.72-16.47-2.37-23.91a1.945 1.945 0 0 0 -3.04-1.17 3.506 3.506 0 0 0 -1.26-.38c-7.78-.74-16.69 1.67-24.44 2.72-8.44 1.15-16.97 2.18-25.31 4-1.97.43-1.85 3.17-.28 3.88-.17 16.95 2.07 34.2 3.98 51 .92 7.99 1.98 15.96 3.13 23.92 1.28 8.82 1.623 16.63 4.073 25.22.72 2.51 3.809 3.158 5.887 2.49 3.422-1.1 12.8-2.98 19.26-4.07 6.86-1.17 25.58-2.08 27.2-2.12 2.13-.06 3.16-1.86 2.89-3.8-1.043-7.272-2.133-14.582-3.86-21.722z" fill="#efeae1"/><path d="m319.867 99.7a3.322 3.322 0 0 0 -1.13-.67c-7.36-2.63-16.59-2.47-24.36-3.35-8.47-.95-16.99-2.04-25.52-2.31-2.02-.06-2.57 2.62-1.23 3.69-4.31 16.4-6.35 33.67-8.61 50.43-1.07 7.97-1.99 15.95-2.82 23.95-.91 8.87-2.46 18.16-2.19 27.08.08 2.61 2.179 3.083 4.36 2.97a162.417 162.417 0 0 1 20.38.02c6.94.55 25.31 4.25 26.89 4.6 2.09.47 3.53-1.03 3.73-2.97a195.774 195.774 0 0 0 1.549-20.224c.02-2.31-1.407-2.942-6.047-3.372-3.58-.33-20.752-1.214-24.342-1.554 1.24-5.93 2.12-11.97 2.94-18 4.087.813 13.885 2.842 19.654 3.412 3.657.361 3.809-.36 4.026-1.267 1.43-6 1.6-11.415 1.78-17.584.48-1.57-.1-3.58-1.99-3.92a143.327 143.327 0 0 0 -20.3-2.17c.74-4.69 1.41-9.39 1.8-14.1 7.95 2.56 17.39 4.02 25.33 3.33a2.743 2.743 0 0 0 1.54-.64 2.85 2.85 0 0 0 3.67-1.7c2.4-7.25 3.33-16.15 3.55-23.77a1.943 1.943 0 0 0 -2.66-1.881z" fill="#efeae1"/><path d="m391.367 124.638a66.252 66.252 0 0 0 -21.04-11.59c-6.95-2.32-15.72-4.6-23.03-3.32a2.83 2.83 0 0 0 -2.22 2.63 1.678 1.678 0 0 0 -.65 1.01c-3.81 16.36-7.38 32.77-11.55 49.05-4.17 16.32-9.52 32.31-13.72 48.6a3.266 3.266 0 0 0 3.66 4.14 102.066 102.066 0 0 0 16.84 9.03 2.647 2.647 0 0 0 3.53-1.67 3.372 3.372 0 0 0 .98-1.55q4.485-14.82 8.77-29.7a37.127 37.127 0 0 0 33.4 1.98c12.61-5.44 20.74-17.88 22.23-31.33 1.641-14.73-6.099-28.13-17.2-37.28zm-10.71 40.43c-3.7 8.13-13.92 5.13-20.96 2.28q2.865-10.38 5.62-20.8c7.441 2.89 19.93 8.42 15.341 18.52z" fill="#efeae1"/><g fill="#fa5d53"><path d="m204.466 246.14c-4.529-1.988-9.616-2.414-14.513-2.96-5.97-.666-11.927-1.326-17.876-2.171-11.14-1.584-22.167-3.885-33.212-6.013-2.272-.438-3.251 3.033-.962 3.49 11.007 2.195 22.062 4.224 32.952 6.957 5.117 1.284 10.21 2.641 15.273 4.122 5.225 1.528 10.979 3.611 16.474 3.458 3.356-.093 5.426-5.323 1.864-6.883z"/><path d="m250.349 239.053c-17.114-8.924-34.434-17.443-51.611-26.244-2.083-1.068-3.914 2-1.845 3.157 16.833 9.382 33.509 19.04 50.408 28.3 3.418 1.872 6.489-3.419 3.048-5.213z"/><path d="m291.042 232.9c-2.237-5.348-7.444-9.077-11.865-12.647-5.072-4.1-10.331-7.957-15.414-12.043-1.8-1.445-4.383 1.014-2.585 2.585a132.6 132.6 0 0 1 12.922 13.222c3.606 4.161 7.235 9.985 12.2 12.523 2.208 1.126 5.921-.823 4.742-3.64z"/><path d="m371.78 256.572c-15.015-11.464-30.465-22.4-45.583-33.736-1.628-1.221-3.816 1.583-2.193 2.842 15.106 11.718 29.914 23.86 45.117 35.443 2.697 2.056 5.32-2.521 2.659-4.549z"/><path d="m382.01 240.4c-2.492-6.632-6.5-12.7-10.125-18.757-3.869-6.46-7.464-13.064-11.1-19.656-1.138-2.062-4.191-.242-3.141 1.836 3.256 6.44 6.569 12.846 9.6 19.4 2.994 6.476 5.717 13.4 9.834 19.26 1.622 2.31 6.086.99 4.932-2.083z"/><path d="m331.727 148.99c-2.345-6.208-6.784-11.639-11.017-16.682-1.311-1.563-4.1.544-2.856 2.2 3.842 5.139 6.288 10.825 9.5 16.32 1.326 2.264 5.357.772 4.373-1.838z"/><path d="m255.555 137.557c-3.57-4.762-7.348-9.355-11.1-13.973-1.3-1.6-4.087.529-2.871 2.215 3.481 4.828 6.933 9.67 10.6 14.359 1.485 1.9 4.836-.648 3.371-2.601z"/><path d="m175.481 236.208c-4.694-.982-9.4-2.023-13.983-3.434-4.562-1.4-8.934-4.1-13.631-4.777-2.424-.348-4.456 3-1.83 4.341 4.143 2.115 9.154 2.333 13.694 3.234 5.035 1 10.049 2.081 15.106 2.974 1.515.268 2.186-2.016.644-2.338z"/><path d="m231.438 222.464q-5.383-3.864-10.859-7.608c-3.309-2.272-6.716-4.936-10.592-6.1-1.963-.59-3.889 2.262-2.122 3.646 3.2 2.506 7.183 3.908 10.817 5.7 3.965 1.957 7.77 4.136 11.527 6.466 1.355.842 2.48-1.206 1.229-2.104z"/><path d="m285.458 219.909a91.525 91.525 0 0 1 -5.011-7.871c-1.276-2.389-2.651-5.408-5.188-6.645a2.124 2.124 0 0 0 -3.03 2.434c.691 2.569 3.085 4.45 5.01 6.161a52.651 52.651 0 0 1 6.335 7.067c.853 1.087 2.696.06 1.884-1.146z"/><path d="m338.05 242.5a24.917 24.917 0 0 0 -5.029-4.923c-1.866-1.553-3.774-3.074-5.678-4.58-1.193-.944-2.9.65-1.715 1.715a50.809 50.809 0 0 1 4.835 4.91c1.443 1.7 2.789 3.848 4.465 5.287 1.612 1.381 4.436-.409 3.122-2.409z"/></g><path d="m107.384 126.384a1.256 1.256 0 0 0 -1.515-1.963 43.281 43.281 0 0 1 -5.967 2.625c-1.819.675-4.35 1.237-5.6 2.762a2.9 2.9 0 0 0 -.6 1.521 2.509 2.509 0 0 0 -.494 1.958c.853 4.726 2.973 9.2 4.832 13.6 2.262 5.365 4.021 10.89 5.854 16.412.488 1.47 2.785.864 2.338-.645-1.6-5.4-3.3-10.769-4.465-16.28a87.349 87.349 0 0 0 -3.288-12.9 15 15 0 0 0 3.648-2.039 31.718 31.718 0 0 0 5.257-5.051z" fill="#ffc533"/><path d="m212.48 99.164c-4.246.558-8.47 1.28-12.72 1.8-3.575.44-7.189.149-10.441 1.774a4.286 4.286 0 0 0 -1.907 2.249c-.47 5.6 1.008 11.614 2.131 17.075 1.246 6.058 2.145 12.181 3.3 18.256.254 1.338 2.59 1.049 2.406-.326-.821-6.128-1.709-12.251-1.981-18.435-.213-4.825-.11-9.937-1.006-14.743 2.977-.278 5.961-1.636 8.831-2.381 3.891-1.01 7.822-1.857 11.716-2.855 1.302-.329 1.076-2.598-.329-2.414z" fill="#ffc533"/><path d="m298.812 101.958c-4.534-.817-9.042-1.574-13.535-2.6-3.618-.829-7.72-1.9-11.319-.75a2.065 2.065 0 0 0 -1.247 1.115 2.041 2.041 0 0 0 -1.454 1.656c-.745 3.328-.7 6.756-1.12 10.138-.521 4.229-1.266 8.432-1.944 12.637-.244 1.509 2.009 2.195 2.338.645.791-3.717 1.531-7.449 2.417-11.144.83-3.461 2.181-6.887 2.8-10.386 2.815.88 5.939.791 8.895.761 4.629-.046 9.216.178 13.84.349 1.362.048 1.717-2.171.329-2.421z" fill="#ffc533"/><path d="m399.184 147.324a59.189 59.189 0 0 0 -11.423-16.41c-4.017-4.2-10.182-9.385-16-10.471a2.173 2.173 0 0 0 -1.666 3.953c2.508 1.712 5.491 2.525 8.109 4.106a66.748 66.748 0 0 1 7.235 5.077 45.362 45.362 0 0 1 11.641 14.976c.72 1.413 2.744.173 2.104-1.231z" fill="#ffc533"/><path d="m364.112 119.453a6.975 6.975 0 0 1 -.8-.606 7.937 7.937 0 0 1 -.888-.6 14.789 14.789 0 0 0 -1.8-1.381 2.592 2.592 0 1 0 -1.308 4.83c.714.045 1.378-.018 2.089-.039.325-.01.641.026.964.048a4.829 4.829 0 0 0 .8-.039c1.27.259 2.26-1.589.943-2.213z" fill="#ffc533"/><path d="m440.4 269.987a2.924 2.924 0 0 0 -1.678-2.711c-3.273-1.484-19.375-.356-23.71-.23-6.99.2-14.02.836-21.011.836-2.558 0-3.2 3.746-3.684 5.605-1.026 3.907-1.926 7.863-3.015 11.751-.025.09-29.81 1.668-35.768 2.283l-.039-.015c-1.859-.713-2.708 2.321-.827 3 14.229 5.121 28.383 10.6 42.743 15.341a1.469 1.469 0 0 0 2.249-.266c2.268-3.468 2.4-10.4 6.207-12.595 2.968-1.711 21.392 1.98 26.067 2.914 1.268.253 1.452.977 3 .444 2.544-.876 3.208-2.957 3.855-5.258.867-3.08 5.874-17.046 5.611-21.099z" fill="#ffc533"/><path d="m107.152 254.643c-3.723-7.623-8.5-15.138-10.99-23.278a2.014 2.014 0 0 0 -3.083-.758 69.09 69.09 0 0 0 -7.431 7.136c-4.227-5.534-7.864-11.659-11.7-17.429a2.078 2.078 0 0 0 -3.266.056 58.466 58.466 0 0 1 -10.118 10.814 2.054 2.054 0 0 0 -.32 2.865c3.463 3.528 16.854 17.1 19.474 19.567 1.856 1.75 3.2 1.878 5.285-.292 1.687-1.757 4.961-6.361 6.655-8.07 4.465 4.324 9.085 8.474 13.538 12.81 1.385 1.346 3.538-.181 1.956-3.421z" fill="#ffc533"/></svg>