<svg id="Layer_1" height="512" viewBox="0 0 512 512" width="512" xmlns="http://www.w3.org/2000/svg" data-name="Layer 1"><path d="m448.067 224.977a10.514 10.514 0 0 0 -8.731-4.334 11.241 11.241 0 0 0 -3.132.45l.041-.1a8.828 8.828 0 0 0 -.654-8.491 10.514 10.514 0 0 0 -8.731-4.334 10.62 10.62 0 0 0 -8.151 3.643 22.154 22.154 0 0 0 -18.208-9.7 22.027 22.027 0 0 0 -2.523.146c-9.106 1.054-16.855 7.008-23.872 13.284a80.825 80.825 0 0 0 -8.646 9.072c-2.141-5.679-6.245-8.871-11.584-9.049a17.374 17.374 0 0 0 -.885-3.406c-2.2-5.858-6.485-9.084-12.062-9.084-5.213 0-11.664 2.849-19.175 8.467-1.186.887-2.338 1.8-3.439 2.7a10.4 10.4 0 0 0 -1.719-5.835 11.116 11.116 0 0 0 -9-5.1 8.835 8.835 0 0 0 -8.148 5.574l-5.54 12.522a9.958 9.958 0 0 0 -7.954-4.2 9.524 9.524 0 0 0 -2.75.416 10.441 10.441 0 0 0 -9.727-12.889 9.549 9.549 0 0 0 -2.95.472 74.058 74.058 0 0 1 -21.468 3.536c-.763.014-1.555.025-2.368.025a43.254 43.254 0 0 1 -10.846-1.124 24.057 24.057 0 0 0 -9.431-4.774 9.32 9.32 0 0 0 -2.393-.312 9.976 9.976 0 0 0 -4.16.934 41.084 41.084 0 0 0 -17.437 4.6 38.108 38.108 0 0 0 -4.731-17.255 33.547 33.547 0 0 0 -12.9-13.193c-6.118-10.466-16.272-16.462-28-16.463-.241 0-.481 0-.723.008-25.226.53-44.68 23.281-57.119 40.348-15.317 21.017-24.711 44.822-27.165 68.843-1.739 17.019 1.664 29.6 10.4 38.467a36.868 36.868 0 0 0 7.318 5.779 34.867 34.867 0 0 0 5.153 6.695 34.4 34.4 0 0 0 17.155 9.707c-6.851 14.295-12.662 26.848-18.065 39.008a10.368 10.368 0 0 0 .774 10.025 11.112 11.112 0 0 0 9 5.1 8.681 8.681 0 0 0 1.944-.24 10.314 10.314 0 0 0 1.523 7.615 11.112 11.112 0 0 0 9 5.1 8.848 8.848 0 0 0 8.153-5.565c10.961-24.663 22.916-49.274 34.882-73.411a10.073 10.073 0 0 0 4.469 1h2.788a10.785 10.785 0 0 0 -.262 2.3c0 4.93 3.487 10.169 9.95 10.169h79.289a50.983 50.983 0 0 0 -.243 17.423 40.408 40.408 0 0 0 18.27 27.738c5.9 9.291 15.537 15.994 27.414 18.565a69.249 69.249 0 0 0 14.625 1.57c16.8 0 33.392-6.088 47.967-17.607 19.16-15.142 31.153-36.7 42.75-57.55l1.341-2.41a795.015 795.015 0 0 0 41.331-86.392 8.827 8.827 0 0 0 -.645-8.483zm-157.379 81.866a10 10 0 0 0 -9.688-7.533h-1.2c1.066-.645 2.15-1.352 3.271-2.168a10.024 10.024 0 0 0 .91 1.313 10.066 10.066 0 0 0 16.3-.858c2.707-3.789 5.357-7.681 7.943-11.508-1.483 5.427-3.231 13.888 1.308 20.693a13.74 13.74 0 0 0 9.947 6.157 16.984 16.984 0 0 0 2.529 6.316 13.871 13.871 0 0 0 11.9 6.283 21.125 21.125 0 0 0 13.113-5.028c6.5-5.468 11.154-13.173 15.658-20.624.638-1.056 1.259-2.083 1.873-3.083q.571.813 1.208 1.579a21.42 21.42 0 0 0 7.895 6.108c-6.909 12.563-14.407 24.783-23.428 35.319-15.41 18-30.482 23.256-40.413 24.5a54.33 54.33 0 0 1 -6.718.42 42.267 42.267 0 0 1 -14.722-2.506c-3.4-10.4.015-25.479 10.248-31.482a10.224 10.224 0 0 0 -5.139-18.954h-2.642a10.443 10.443 0 0 0 -.153-4.944zm95.7-45.81a63.411 63.411 0 0 1 9.709-13.857c1.265-1.363 3.089-3.323 5.209-5.284.093.188.175.379.28.563a126.381 126.381 0 0 1 -8.023 11.408 88.929 88.929 0 0 1 -7.536 8.012c.136-.275.257-.56.364-.843zm-163.552-21.733a95.784 95.784 0 0 1 -6.549 16.05c-3.316 6.455-8.46 12.936-13.705 15.488a54.256 54.256 0 0 1 5.907-15.611c4.768-8.558 9.849-13.32 14.347-15.927zm-50.936 4.36a9.342 9.342 0 0 0 -8.081-4.506c-.158 0-38.841 1.764-38.841 1.764-6.5.3-9.883 5.75-9.769 10.73.127 5.575 4.152 9.621 9.57 9.621.174 0 3.253-.137 3.253-.137a11.073 11.073 0 0 0 -.352 2.989c.127 5.569 4.144 9.612 9.553 9.621a101.664 101.664 0 0 1 -16.851 19.279c-4.5 3.885-9.794 6.205-14.154 6.205-.395 0-.782-.022-1.163-.06a32.416 32.416 0 0 1 -.938-7.836c-.1-21.024 8.6-40.583 15.906-53.289 11.18-19.435 23.26-32.775 35.905-39.649 5.306-2.885 9.455-4.228 13.058-4.228.255 0 .5.013.753.027a16.606 16.606 0 0 1 -2.443 11.014 9.377 9.377 0 0 0 -.392 9.737 10.919 10.919 0 0 0 9.44 5.494 9.834 9.834 0 0 0 2.285-.277 9.136 9.136 0 0 0 .746 7.258 10.177 10.177 0 0 0 1.129 1.6 71.619 71.619 0 0 0 -7.876 16.1 10.658 10.658 0 0 0 -.738-1.457zm-1.331 51.831c2.09-4.188 4.211-8.44 6.34-12.713a26.913 26.913 0 0 0 8.207 6.1 26.5 26.5 0 0 0 8.949 10.433h-25.4zm72.46-11.718a15.644 15.644 0 0 0 2.368 2.762 14.869 14.869 0 0 0 7.654 3.881 16.3 16.3 0 0 0 4.822 8.592c.116.107.238.2.355.3h-30.239c6.322-3.863 11.211-9.508 15.04-15.535z" fill="#2f2f51"/><path d="m174 269.335c2.528 12.013 12.949 18.895 24.234 18.895a28.349 28.349 0 0 0 8.153-1.206c15.19-4.562 23.436-19.7 28.98-33.416 3.139-7.769 6.033-18.685 5.151-28.176a65.039 65.039 0 0 0 7.357.4 81.871 81.871 0 0 0 12.51-1.005 229.816 229.816 0 0 0 -12.7 29.386c-2.93 8.357-7.608 22.5.151 29.674a11.109 11.109 0 0 0 7.761 3.149c6.048 0 12.407-4.556 17.367-8.9a6.585 6.585 0 0 0 6.372 7.993 6.758 6.758 0 0 0 5.531-3.1c10.848-15.181 20.4-31.461 33.038-45.275 5.259-5.748 11.72-13.267 19.155-16.483a35.719 35.719 0 0 1 -2.795 7.57c-8.254 18.466-16.515 36.978-22.091 56.467-1.765 6.169-3.505 13.7.345 19.475a10.269 10.269 0 0 0 8.9 4.68 17.437 17.437 0 0 0 10.794-4.182c7.889-6.641 13.256-17.479 18.8-26.041.457-.707.9-1.42 1.358-2.128a21.028 21.028 0 0 0 3.674 6.493c3.823 4.6 8.3 6.4 12.976 6.4 7.183 0 14.818-4.27 21.221-9.241-.21.4-.415.809-.626 1.212-10.714 20.431-21.577 42.553-36.661 60.171-10.9 12.736-25.662 23.6-42.7 25.729a57.988 57.988 0 0 1 -7.164.448c-12.048 0-25.084-3.868-29.958-15.644-5.085-12.287-.927-30.418 11.185-37.524 5.615-3.294 3.214-12.247-3.317-12.247h-117.501c-8.458 0-8.472 13.144 0 13.144h101.749a48.314 48.314 0 0 0 -6.674 32.911c2.641 16.006 14.72 27.5 30.417 30.9a65.426 65.426 0 0 0 13.863 1.488c16.592 0 32.436-6.322 45.735-16.831 19.329-15.274 31.39-37.725 43.178-58.887a787.963 787.963 0 0 0 41.142-86c1.934-4.744-1.971-7.864-6.051-7.864a6.93 6.93 0 0 0 -6.624 4.37c-.184.451-.375.9-.56 1.349a6.99 6.99 0 0 0 -.978 1.431l-.215.415a21.5 21.5 0 0 0 -.918-2.329 19.008 19.008 0 0 0 -17.064-11.292 18.32 18.32 0 0 0 -2.109.122c-8.33.964-15.825 6.97-21.886 12.391a79.645 79.645 0 0 0 -15.4 18.91c-1.05 1.787-2.12 3.749-3.155 5.831-5.08 8.571-10.258 17.084-15.617 25.485-5.276 8.271-10.323 17.434-16.7 24.9a16.781 16.781 0 0 1 -1.9 1.491c.87-3.2 1.307-6.757 2.279-9.951a298.543 298.543 0 0 1 10.388-28.414c3.854-9.2 8.589-18.149 12.073-27.487 1.766-4.732 2.976-10.709 1.151-15.565-1.832-4.876-4.963-6.75-8.691-6.75-10.291 0-25.141 14.282-29.843 19.153-.582.6-1.148 1.219-1.718 1.832l4.724-10.679c2.327-5.26-2.274-10.064-6.5-10.064a5.191 5.191 0 0 0 -4.855 3.43l-9.266 20.951q-.207.3-.395.645a133.355 133.355 0 0 1 -19.058 26.795 125.08 125.08 0 0 1 -11.907 11.405 26.608 26.608 0 0 1 -4.88 3.164c-.039-1.139-.219-2.68-.177-3.1a35.438 35.438 0 0 1 .95-4.983 118.611 118.611 0 0 1 4.748-13.994 214.018 214.018 0 0 1 16.306-32.932c2.54-4.229-.926-9.951-5.584-9.951a5.935 5.935 0 0 0 -1.838.3 77.652 77.652 0 0 1 -22.511 3.711c-.785.015-1.6.026-2.436.026a43.8 43.8 0 0 1 -12.618-1.489 20.1 20.1 0 0 0 -8.585-4.53 5.7 5.7 0 0 0 -1.468-.192 6.533 6.533 0 0 0 -3.293.937c-.142-.006-.283-.013-.428-.013h-.117c-14.661.418-26.4 9.469-34.688 20.995-8.178 11.365-14.472 27.082-11.496 41.241zm195.306-19.588c.139-.3.289-.589.432-.884.079-.134.16-.267.239-.4a7.3 7.3 0 0 0 .628-1.35 67.077 67.077 0 0 1 10.376-14.859c4.5-4.845 10.794-11.242 17.36-13.06a8.949 8.949 0 0 1 2.376-.356c6.935 0 6.115 10.772 3.822 15.575a6.664 6.664 0 0 0 1.408 7.841 135.458 135.458 0 0 1 -9.565 13.85c-3.216 4.043-18.608 20.5-26.906 20.5-2.659 0-4.588-1.687-5.156-6.014-.888-6.782 2.166-14.78 4.989-20.843zm-176.44-8.747c5.636-10.116 14.931-20.411 27.318-20.764a6.863 6.863 0 0 0 2.43-.5 36.941 36.941 0 0 0 3.466 1.825c6.483 7.826-3.323 29.075-6.591 35.436-3.76 7.318-12 18.589-21.341 18.589a12.423 12.423 0 0 1 -6.8-2.109c-10.375-6.655-2.948-24.456 1.518-32.477z" fill="#009995"/><path d="m163.818 242.755c-.1 0-.207 0-.313.007l-38.363 1.753c-8.3.379-8.467 13.153-.363 13.153.119 0 .24 0 .363-.008l26.833-1.226c-7.787 14.335-17.219 28.94-29.241 39.313-4.322 3.729-10.5 7.08-16.506 7.08a14.242 14.242 0 0 1 -5.483-1.055c-9.526-3.938-12.646-13.37-12.69-22.9-.088-19.2 6.915-38.638 16.385-55.1 8.915-15.5 21.306-32.318 37.307-41.017 4.633-2.519 9.747-4.665 14.778-4.665a15.4 15.4 0 0 1 9.176 2.93c8.57 6.119 10.069 17.394 4.663 26.086-3.115 5.008 1.431 9.728 5.99 9.728a6.161 6.161 0 0 0 5.36-3.094c12.192-19.6-.448-48.951-24.924-48.952-.216 0-.43 0-.647.007-23.141.486-41.8 21.732-54.285 38.869-14.322 19.651-24.013 42.821-26.493 67.088-1.3 12.716.022 26.075 9.385 35.573a30.215 30.215 0 0 0 21.819 9.423 32.93 32.93 0 0 0 8.181-1.058 37.463 37.463 0 0 0 11.583-5.3c-10.107 20.547-20 41.195-29.3 62.11-2.337 5.258 2.263 10.061 6.488 10.061a5.2 5.2 0 0 0 4.862-3.427c18.876-42.464 40.217-83.834 60.797-125.482 2.039-4.127-.28-9.897-5.362-9.897z" fill="#009995"/><g fill="#fa5d53"><path d="m219.732 140.463a241.828 241.828 0 0 1 -12.148 34.4c-1.7 3.833 3.966 7.181 5.675 3.317a252.91 252.91 0 0 0 12.811-35.971c1.11-4.085-5.229-5.829-6.338-1.746z"/><path d="m246.218 139.923q-11.928 10.929-24.716 20.832c-1.812 1.4-.86 4.1.665 5.161a138.7 138.7 0 0 1 15.848 12.931c3.074 2.9 7.73-1.736 4.647-4.647a148.915 148.915 0 0 0 -13.427-11.238q11.142-8.809 21.63-18.391c3.126-2.864-1.532-7.502-4.647-4.648z"/><path d="m294.563 138.217c-3.418-1.14-8.149-.388-11.723-.335-4.707.069-9.407.28-14.1.587-4.2.274-4.23 6.848 0 6.572h.034a218.569 218.569 0 0 1 -8.417 29.372c-.787 2.163 1.218 4 3.169 4.16a155.146 155.146 0 0 0 21.553.257c4.2-.242 4.232-6.816 0-6.572a155.1 155.1 0 0 1 -17.018.034q2.2-6.411 3.991-12.933c.285.018.568.026.841.018q5.663-.162 11.318-.5c4.2-.246 4.232-6.82 0-6.572q-3.2.187-6.4.327c-1.2.051-2.72.29-4.115.342q1-4.125 1.845-8.294c1.806-.079 3.612-.147 5.419-.186 2.94-.064 7.549-.788 10.741-.209.032.018.055.041.089.058l.137.071a3.348 3.348 0 0 0 4.5-1.179l.106-.186a3.331 3.331 0 0 0 -1.97-4.832z"/><path d="m339.046 138.217c-3.418-1.14-8.149-.388-11.723-.335-4.707.069-9.407.28-14.1.587-4.2.274-4.23 6.848 0 6.572h.034a218.558 218.558 0 0 1 -8.417 29.372c-.787 2.163 1.218 4 3.169 4.16a155.146 155.146 0 0 0 21.553.257c4.2-.242 4.232-6.816 0-6.572a155.1 155.1 0 0 1 -17.018.034q2.2-6.411 3.991-12.933c.285.018.568.026.841.018q5.663-.162 11.318-.5c4.2-.246 4.232-6.82 0-6.572q-3.2.187-6.4.327c-1.2.051-2.72.29-4.115.342q1-4.125 1.845-8.294c1.806-.079 3.611-.147 5.419-.186 2.94-.064 7.549-.788 10.741-.209.032.018.055.041.089.058l.137.071a3.348 3.348 0 0 0 4.5-1.179l.106-.186a3.331 3.331 0 0 0 -1.97-4.832z"/><path d="m385.074 138.88a95.913 95.913 0 0 0 -28.437.441c-4.164.679-2.4 7.013 1.747 6.337.3-.049.607-.086.911-.13q-6.153 13.988-10.956 28.5c-1.326 4.027 5.019 5.753 6.337 1.747q2-6.07 4.243-12.04c12.493 1.491 34.966 4.978 37.515-12 1.116-7.425-4.664-11.895-11.36-12.855zm2.189 16.293c-6.279 5.669-17.312 3.675-25.938 2.36q2.3-5.728 4.832-11.367a3.514 3.514 0 0 0 .309-1.294c3.387-.142 6.783-.09 10.187.041 2.63.1 5.732-.124 8.292.548 1.686.443 4.26 1.805 4.993 3.464.848 1.922-1.405 5.101-2.675 6.247z"/></g><path d="m224.508 342.056c-2.435-4.526-8.153-4.125-12.669-4.171a77.226 77.226 0 0 0 -16.69 1.656c-5.993 1.264-11.506 3.833-17.755 3.391-5.7-.4-10.933-1.806-16.611-.366-1.73.438-.994 3.022.733 2.658 5.494-1.156 10.8.472 16.224 1.257a91.463 91.463 0 0 0 13.316 1.021c4.471-.017 8.924-.5 13.4-.5 4.108 0 10.152-.647 13.972 1.138 3.943 1.841 8.296-1.964 6.08-6.084z" fill="#009995"/><path d="m316.657 191.426c-4.6-3.344-11.272-2.033-16.5-1.162a67.4 67.4 0 0 1 -18.086.5c-13.223-1.208-25.963 3.011-39.134 2.368-1.828-.089-1.777 2.65 0 2.813 12.581 1.154 26.14-3.533 38.344.656 5.389 1.85 9.776 3.5 15.6 3.15 2.994-.182 5.957-.724 8.956-.836 2.942-.109 5.649.695 8.554.873 4.863.298 5.532-5.988 2.266-8.362z" fill="#2f2f51"/><path d="m339.969 333.455c-5.9-2.185-13.027-.993-19.054.114-5.942 1.092-13.558 4-19.32 1.109-1.142-.574-2.585.982-1.459 1.89 4.621 3.725 10.177 4.125 15.913 3.943 3.845-.122 7.684-.418 11.533-.426a94.591 94.591 0 0 1 11.337 1.131c4.712.551 4.922-6.328 1.05-7.761z" fill="#fa5d53"/><path d="m415.416 193.08c-3.009-3.6-10.281-4.369-14.729-3.582-4.887.865-9.2 3.854-12.555 7.375a1.379 1.379 0 0 0 1.949 1.949c3.995-3.922 8.451-5.232 13.414-2.241 3.383 2.039 6.183 3.815 10.177 3.1 3.192-.563 3.46-4.551 1.744-6.601z" fill="#ffc533"/><path d="m207.135 153.242c-1.965-7.274-10.819-6.727-16.814-5.832-3.772.563-7.262 2.11-10.991 2.843a26.434 26.434 0 0 1 -13.071-.9c-1.548-.487-2.371 1.718-1.073 2.545a27.516 27.516 0 0 0 16.685 4.417 77.9 77.9 0 0 1 10.095-.259c1.869.139 7.751.314 8.469 1.091 2.771 2.991 7.716-.147 6.7-3.905z" fill="#ffc533"/><path d="m170.183 229.656c-1.66-6.145-9.14-5.683-14.205-4.927-3.187.476-6.135 1.783-9.286 2.4a22.332 22.332 0 0 1 -11.043-.764c-1.308-.412-2 1.452-.907 2.15a23.247 23.247 0 0 0 14.1 3.732 65.813 65.813 0 0 1 8.529-.219c1.579.117 6.548.265 7.155.922 2.338 2.532 6.516-.116 5.657-3.294z" fill="#fa5d53"/><path d="m98.557 332.858c-4.734-1.352-10.542.447-15.083 1.941-1.42.467-1.287 2.929.374 2.763a36.757 36.757 0 0 1 6.956-.108c2.4.226 4.569.981 7.009.9 3.125-.099 3.839-4.612.744-5.496z" fill="#2f2f51"/><path d="m249.991 368.164c-8.929-4.608-17.2-1.223-26.443.263-9.955 1.6-20.122-.1-30.113 1.332-1.526.219-1.179 2.833.366 2.708 8.883-.719 17.489 1.246 26.314 1.793 8.2.509 17.514-2.2 24.977 2.284 5.388 3.238 10.434-5.525 4.899-8.38z" fill="#ffc533"/></svg>