<svg id="Layer_1" height="512" viewBox="0 0 512 512" width="512" xmlns="http://www.w3.org/2000/svg" data-name="Layer 1"><path d="m448.267 325.435c-.243-.853-.487-1.708-.725-2.567-.7-2.508-1.613-5.011-2.5-7.431a68.362 68.362 0 0 1 -2.861-9.027l.051-.077c.647-.979 1.325-1.974 2.014-2.985 5.635-8.271 12.649-18.565 9.738-30.409-1.005-4.09-44.924-45.211-46.611-46.174a11.246 11.246 0 0 0 -5.533-1.52 9.964 9.964 0 0 0 -9.062 5.909l-8.18 17.005-2.225 4.626a20.463 20.463 0 0 0 -11.448-3.339 23.753 23.753 0 0 0 -11.675 3.082 30.782 30.782 0 0 0 -9.618 8.879c-1.026-1.168-9.583-10.036-12.336-12.016a20.4 20.4 0 0 0 -11.995-3.822 24.18 24.18 0 0 0 -9.843 2.159 32.766 32.766 0 0 0 -10.779 8c-1.584-1.7-6.2-5.228-6.57-5.837a17.353 17.353 0 0 0 -15.452-8.457c-.692 0-1.407.032-2.124.1a23.689 23.689 0 0 0 -8.745 2.532c-.6-.9-22.491-22.959-24.285-24.7a16.063 16.063 0 0 0 -11.464-4.332c-7.8 0-15.938 4.2-20.54 8.356a19.358 19.358 0 0 0 -6.625 15.336c.013.319-4.4-1.618-6.835-2.128.28-1.067.514-2.139.691-3.217a26.034 26.034 0 0 0 -8.7-24.728c-1.132-1.006-20.012-20.244-22.1-22.1-6.832-6.074-16.376-9.026-29.175-9.027-1.534 0-3.148.044-4.8.13a95.3 95.3 0 0 0 -36.055 9.244c-12 5.7-22.745 13.94-29.484 22.6-9.257 11.9-11.487 24.75-6.449 37.155 2.868 7.063 8.123 13.142 13.909 18.967 2.12 2.135 26.344 25.067 35.844 29.051.826.346 1.662.662 2.5.964-1.694 1.338-5.773 3.927-5.856 3.976-1.01-1.438-14.022-14.538-15.759-15.869a11.774 11.774 0 0 0 -7.126-2.456 11.1 11.1 0 0 0 -7.114 2.6 21 21 0 0 0 -7.548 15.542 24.126 24.126 0 0 0 6.956 18.035c1.527 1.5 20.619 20.642 22.1 22.1 5.087 5.01 11.9 7.658 19.7 7.658.883 0 1.776-.046 2.672-.113.111.192 4.686 5 7.555 5.658a11.475 11.475 0 0 0 1.593 3.737c1.071 1.634 19.112 18.648 22.837 18.648a9.888 9.888 0 0 0 9.016-6c2.217-4.73 4.432-9.595 6.574-14.3q1.257-2.761 2.526-5.536c1.6 2.06 11.834 12.868 17.3 12.868l159.39-.049c.287 0 23.744 24.509 26.721 27.029 6.03 5.105 15.616 7.93 22.739 7.93 18 0 38.054-17.755 44-31.226 2.564-5.806 5.512-14.765 4.992-24.478-.298-5.696-1.788-10.912-3.221-15.956zm-307.55-97.049a9.65 9.65 0 0 0 -5.34 5.94 11.793 11.793 0 0 0 .8 9.344c1.653 2.9 17.261 17.735 20.173 18.369q-3.279 7.929-6.473 15.843c-1.7-1.873-11.081-11.5-14.824-13.911-6.428-4.144-25.366-9.011-27.72-9.738.558-6.3 6.508-13.232 17.757-20.627a73.621 73.621 0 0 1 23.857-10.242 36.382 36.382 0 0 1 -8.23 5.022z" fill="#2f2f51"/><path d="m141.653 293.4c3.7-9.9-.753-19.706-9.31-25.223-8.717-5.62-19.389-6.617-28.989-9.986-10.691-3.753-22.244-11.545-23.141-23.951-.839-11.6 11.367-21.211 20.03-26.907a77.614 77.614 0 0 1 33.143-12.285c8.492-1.024 27.855-2.416 30.133 9.279 2.433 12.488-10.756 24.375-20.846 28.666-3.005 1.278-3.609 5.65-2.153 8.209 1.767 3.105 5.244 3.413 8.209 2.152 17.568-7.471 38.84-36.212 19.88-53.067-8.076-7.18-20.09-8.179-30.391-7.64a90.576 90.576 0 0 0 -34.174 8.774c-19.484 9.258-43.188 29.374-33.446 53.361 4.534 11.164 14.089 18.632 24.955 23.19 9.672 4.056 21.249 4.623 30.2 10.225 13.295 8.319-2.473 20.8-10.594 25.585-5.269 3.1-11.842 5.978-17.969 3.686-4.789-1.792-7.727-7.47-3.164-11.223 5.968-4.909-2.564-13.356-8.485-8.485-7.939 6.53-7.3 19.22-.259 26.154 8.471 8.343 21.445 7.316 31.415 2.635 9.895-4.649 20.994-12.549 24.956-23.149z" fill="#ffc533"/><path d="m420.625 302.1c-1.692-6.1-4.925-12.492-5.811-18.9.383-.577.77-1.154 1.149-1.729 5.709-8.634 13.757-18.5 11.067-29.443-.883-3.591-5.632-5.728-8.814-3.586-10.12 6.813-15.794 19.268-15.655 31.475-2.372 3.445-4.84 6.825-7.532 10.017-2.032 2.409-7.008 9.32-10.484 9.227-2.663-.071-2.23-7.219-1.014-9.654q12.083-25.055 24.115-50.135c3.332-6.927-7.012-13.021-10.362-6.057l-13.494 28.059a13.185 13.185 0 0 0 -1.569-2.155c-5.178-5.767-14.034-6-20.509-2.339-7.294 4.127-11.569 12.381-14.5 19.911-.293.751-.561 1.519-.813 2.294-2.477 5.358-4.978 11.964-9.78 15.5-1.219.9-2.845 2.357-4.293 1.288-.851-.628-1.052-2.2-1.044-3.429a124.927 124.927 0 0 0 6.37-12.253 5.933 5.933 0 0 0 -1.177-7.245 5.876 5.876 0 0 0 3.458-3.675c2.069-5.924-.578-12.242-5.552-15.82-5.046-3.629-11.335-3.616-16.89-1.152-6.231 2.764-10.816 8.151-14.428 13.777a86.926 86.926 0 0 0 -7.376 13.8c-4.021 6.088-9.76 12.669-15.583 16.916-4.174 3.044-9.809 3.721-12.715-1.289a13.453 13.453 0 0 1 -1.679-6.491c10.673 2.881 22.267-2.978 27.8-13.53 5.721-10.9 3.83-30.43-12.535-28.982-12.944 1.145-21.264 15.867-24.891 28.154a6.729 6.729 0 0 0 -.8 1.016c-4.274 6.639-8.715 15.057-14.825 20.188-2.072 1.74-4.2 2.54-5.363-.356-1.378-3.42.832-7.24 2.518-10.1 4.262-7.242 8.693-14.21 12.141-21.908 2.6-5.812 5.422-13.288-1.566-17.349a15.208 15.208 0 0 0 -5.03-1.68c3.354-6.866 6.877-15.69.866-21.518-6.587-6.387-19.413-1.06-25.17 4.143-7.335 6.631-6.342 17.181 1.346 23.045a20.7 20.7 0 0 0 4.97 2.773 147.861 147.861 0 0 1 -12.622 18.783q-.58.722-1.179 1.439c2.726-10.115 3.255-21.954-4.045-28.359-9.971-8.75-21.513.343-29.106 8.665 1.654-6.55-7.807-11.734-10.71-5.011-12.926 29.939-24.222 60.557-37.25 90.452-3.029 6.951 7.051 13.119 10.362 6.057 12.193-26.013 23.258-53.775 40.86-76.747 3.646-4.758 7.8-10.608 13.157-13.521 7.771-4.222 6.472 6.582 5.757 11.346-2.137 14.24-11.405 29.032-27.431 28.513-7.744-.251-7.684 11.615 0 12 20.517 1.027 37.531-12.84 49.506-28.161a170.334 170.334 0 0 0 14.933-22.7c.848.155 1.7.31 2.442.443-1.026 1.318-1.7 4.052-2.382 5.45a161.749 161.749 0 0 1 -8.428 14.923c-2.909 4.647-5.779 9.525-6.26 15.111-.893 10.363 7.59 20.636 18.57 17.383 5.149-1.526 8.982-5.7 12.139-9.815.535-.7 1.052-1.408 1.578-2.112a21.479 21.479 0 0 0 2.759 5.758 18.707 18.707 0 0 0 18.033 8.256c7.478-.942 13-5.6 18.063-10.8.253-.26.507-.525.76-.787 2.606 6.268 8.3 10.7 16.565 9.48a22.052 22.052 0 0 0 11.588-5.862 13.108 13.108 0 0 0 8.2 5.058c6.965 1.2 12.375-2.41 16.63-7.55 3.617 5.888 10.372 10.051 17.38 9.169a15.271 15.271 0 0 0 8.794-4.265 15 15 0 0 0 2.355 2.516c7.31 6.19 15.8 1.855 21.791-3.69a77.673 77.673 0 0 0 7.873-8.6c3.731 11.067 8.468 22.055 5.489 33.875-3.353 13.308-15.247 27.646-30.016 28.376-6.254.309-13.415-2.242-16.045-8.384-2.232-5.213-1.082-12.222 3.87-15.4 4.908-3.146 3.1-11.183-3.028-11.181l-65.813.02-104.814.032-23.944.007c-7.721 0-7.734 12 0 12l65.813-.02 104.814-.032h11.849a25.634 25.634 0 0 0 1.275 21.391c6.53 12.093 22.569 16.138 35.034 12.01a50.5 50.5 0 0 0 29.5-26.681c3.031-6.861 4.977-14.646 4.573-22.191-.331-6.037-2.181-11.664-3.785-17.452zm-192.383-67.124a17.093 17.093 0 0 1 3.527-1.7c.511-.189 2.092-.5 3.129-.859a15.827 15.827 0 0 1 -.386 1.921c-.565 1.589-1.352 3.126-2.065 4.652q-.833 1.783-1.711 3.545a10.035 10.035 0 0 1 -3.823-2.337c-2.158-2.181-.877-3.764 1.329-5.222zm56.522 26.289c1.692 8.3-8.56 19.9-16.925 16.131a42.65 42.65 0 0 1 7.736-14.552c2.183-2.555 7.998-7.419 9.189-1.579zm29.909 32.9c-5.335 5.007-11.038 2.74-9.543-4.705a29.078 29.078 0 0 1 1.023-3.707c.12-.182.247-.359.365-.542a5.772 5.772 0 0 0 .96-2.793 70.189 70.189 0 0 1 7.362-12.407c2.091-2.858 5.122-6.362 8.736-7.255 2.327-.575 5.826.332 4.783 3.319a5 5 0 0 0 1.555 5.892 7.041 7.041 0 0 0 -2.627 2.16c-3.211 4.2-6.212 8.725-7.406 13.783a36.946 36.946 0 0 1 -5.209 6.26zm43.154.075c-2.566-4.336-.773-10.156 1.03-14.437 1.779-4.225 4.249-9.648 8.269-12.166 1.372-.859 4.373-2.074 5.844-.781a1.58 1.58 0 0 1 .212 2.487c-3.646 3.4-1.419 8.112 2.136 9.64l-1.346 2.8c-.208.432-.411.884-.614 1.336-.055.1-.114.185-.166.287a23.857 23.857 0 0 0 -1.351 3.189c-1.442 3.339-3 6.756-5.244 9.323-2.884 3.303-6.697 1.827-8.771-1.673z" fill="#ffc533"/><g fill="#009995"><path d="m235.146 167.385c0-.006 0-.013-.005-.019s-.014-.017-.018-.026c-.029-.048-.065-.093-.1-.139a3.929 3.929 0 0 0 -3.019-1.6 1.8 1.8 0 0 0 -1.8.135q-10.5 7-20.847 14.236c1.651-4.254 3.245-8.53 4.721-12.825a1.621 1.621 0 0 0 -.03-1.221c-.118-1.383-1.988-2.33-3.266-1.951a1.365 1.365 0 0 0 -1.468.752 168.37 168.37 0 0 0 -10.846 25.726 2.042 2.042 0 0 0 1.593 2.689 1.863 1.863 0 0 0 .482.113 4.1 4.1 0 0 0 1.431-.188 6.746 6.746 0 0 0 1.493-.268.929.929 0 0 0 .313-.169 1.853 1.853 0 0 0 .921-1.005q1.808-4.431 3.574-8.907a2.393 2.393 0 0 0 2.882 1.2 114.784 114.784 0 0 0 10.8 8.306 1.786 1.786 0 0 0 1.258.324 4.122 4.122 0 0 0 1.533-.038 4.341 4.341 0 0 0 1.937-.67 2.037 2.037 0 0 0 .388-3.563c-3.371-2.21-6.843-4.3-10.387-6.224-.166-.09-.341-.194-.51-.29 6.242-3.921 12.326-8.113 18.457-12.2a1.532 1.532 0 0 0 .513-2.178z"/><path d="m248.251 165.109c-3.034-2.63-6 4.614-7.388 8.86a137.568 137.568 0 0 0 -7.051 16.5 2.01 2.01 0 0 0 2.3 2.633 4.663 4.663 0 0 0 .99-.034 2.042 2.042 0 0 0 2.132-1.1 162.368 162.368 0 0 0 10.066-24.732 1.651 1.651 0 0 0 -1.049-2.127z"/><path d="m288.831 165.4c-.03-.01-.05-.029-.082-.037a4.911 4.911 0 0 0 -1.916-.083 1.269 1.269 0 0 0 -1.642.659c-3.014 5.917-5.872 11.968-8.618 18.059-4.125-5.042-8.407-9.945-12.708-14.8.106-.307.215-.614.322-.921a1.557 1.557 0 0 0 -1.088-2.141 1.1 1.1 0 0 0 -.167-.079 9.469 9.469 0 0 0 -3.27-.391c-.963.1-1.27.9-1.493 1.711-.01.021-.023.037-.033.059-3.195 7.3-5.907 14.886-8.631 22.406a1.844 1.844 0 0 0 1.407 2.553c.126.08.253.156.375.221a5.2 5.2 0 0 0 1.9.681 1.754 1.754 0 0 0 2.148-1.128c2.333-5.7 4.478-11.5 6.545-17.325 4.292 5.365 8.357 10.924 12.371 16.559a1.918 1.918 0 0 0 .449.459 1.965 1.965 0 0 0 .58.714 3.347 3.347 0 0 0 1.942.538 1.881 1.881 0 0 0 2.442-1.065c3.643-8.008 6.9-16.311 10.093-24.547a1.475 1.475 0 0 0 -.926-2.102z"/><path d="m312.165 200.452a1.046 1.046 0 0 0 -.633-.675 1.592 1.592 0 0 0 -.869-.182 3.623 3.623 0 0 0 -1.616-.124 1.252 1.252 0 0 0 -1.457.711c-3.014 5.917-5.872 11.968-8.618 18.059-4.125-5.042-8.407-9.945-12.708-14.8.106-.307.215-.614.322-.921a1.557 1.557 0 0 0 -1.294-2.173 6.452 6.452 0 0 0 -2.553-.173 2.312 2.312 0 0 0 -1.4.626 1.712 1.712 0 0 0 -.8.879c-3.195 7.3-5.907 14.886-8.631 22.406a1.829 1.829 0 0 0 .877 2.372 1.644 1.644 0 0 0 .171.166 4.527 4.527 0 0 0 2.37.816 1.753 1.753 0 0 0 2.416-1.028c2.333-5.7 4.478-11.5 6.545-17.325 4.292 5.365 8.357 10.924 12.371 16.559a1.812 1.812 0 0 0 .55.517 2.437 2.437 0 0 0 .685.73 2.828 2.828 0 0 0 1.673.427 1.871 1.871 0 0 0 2.505-1.029c3.643-8.008 6.9-16.311 10.093-24.547a1.633 1.633 0 0 0 .001-1.291z"/><path d="m314.614 168.647c-3.846-3.337-10.593-2.516-15.266-2.008a1.294 1.294 0 0 0 -1.045.732 4.478 4.478 0 0 0 -.916 1.4c-.015.028-.037.045-.05.075-3.371 7.513-7.432 15.1-9.961 22.935a2.093 2.093 0 0 0 2.3 2.567 1.741 1.741 0 0 0 .77.363c9.114 1.824 20.366-2.038 24.574-10.9a12.117 12.117 0 0 0 .556-1.417 1.732 1.732 0 0 0 .91-.976c1.704-4.263 1.897-9.501-1.872-12.771zm-7.906 15.171c-3.415 3.447-7.686 4.883-12.293 5.358a1.959 1.959 0 0 0 .2-.265c2.724-5.368 5.12-10.929 7.449-16.493a43.464 43.464 0 0 1 5.6-.009c.173.055.348.1.516.17a5.85 5.85 0 0 1 1.833 3.194c.673 3.067-1.244 5.965-3.305 8.045z"/><path d="m342.383 201.438a1.936 1.936 0 0 0 -1.718-1.519 47.647 47.647 0 0 0 -16.876.418h-.008a1.822 1.822 0 0 0 -1.72-.505 1.615 1.615 0 0 0 -2.41.838c-.818 2.082-1.571 4.195-2.276 6.325a1.594 1.594 0 0 0 -.521.8c-1.616 5.417-3.763 10.607-5.58 15.949a1.568 1.568 0 0 0 .173 1.485 1.858 1.858 0 0 0 1.284 1.7 8.838 8.838 0 0 0 3.257.391c.3.009.6.025.895.04a13.635 13.635 0 0 0 3.861.551c4.882.187 9.811.28 14.7.149a2.182 2.182 0 0 0 1.834-2.861 3.644 3.644 0 0 0 -.353-1.782c-.032-.066-.07-.128-.106-.191a1.776 1.776 0 0 0 -1.773-1.529c-5.3.077-10.6.447-15.9.733a2.009 2.009 0 0 1 -.784-1.326c-.235-1.844.655-4.3 1.587-6.508a112.585 112.585 0 0 1 13.211.285c2.5.21 3.107-3.588.574-3.89a57.7 57.7 0 0 0 -12.17-.149c.652-1.548 1.367-3.063 2.126-4.558a105.258 105.258 0 0 1 16.666-.05 1.981 1.981 0 0 0 2.159-1.757 3.29 3.29 0 0 0 -.132-3.039z"/><path d="m368.438 201.818a2.13 2.13 0 0 0 -2.928.536c-.243.371-.509.713-.779 1.051a6.593 6.593 0 0 0 -8.261-4.445c-.043.007-.082 0-.126.014-4.836 1.043-9.649 4.515-8.673 10.052a21.931 21.931 0 0 0 1.086 2.969 10.912 10.912 0 0 0 3.611 3.265c1.351.808 2.968 1.32 3.969 2.6 2.124 2.715-.211 5.542-2.618 6.966-1.638.969-4.315 1.763-5.9.527a5.012 5.012 0 0 1 -.351-3.5c.309-1.269 1.021-2.661-.035-3.791-1.533-1.642-5.053-1.059-5.279 1.29-1.578 3.128-1.545 6.574 1.558 8.922 3.442 2.606 8.27 1.985 12.136.8 4.5-1.385 7.3-5.115 7.4-8.768.067-2.631-1.844-5.213-5.231-8.205-1.319-1.166-3.688-2.074-4.321-3.873-.669-1.9 1.508-3.561 1.843-3.819 2.615-2.014 5.567-2.1 6.082 1.689a2.1 2.1 0 0 1 -.49.948 1.791 1.791 0 0 0 1.944 2.955 11.453 11.453 0 0 0 2.866-1.83 1.957 1.957 0 0 0 1.511-.873c.524-.84 1.028-1.687 1.522-2.544a2.162 2.162 0 0 0 -.536-2.936z"/><path d="m393.1 201.818a2.13 2.13 0 0 0 -2.928.536c-.243.371-.509.713-.779 1.051a6.593 6.593 0 0 0 -8.261-4.445c-.043.007-.082 0-.126.014-4.836 1.043-9.649 4.515-8.673 10.052a21.931 21.931 0 0 0 1.086 2.969 10.912 10.912 0 0 0 3.611 3.265c1.351.808 2.968 1.32 3.969 2.6 2.124 2.715-.211 5.542-2.618 6.966-1.638.969-4.315 1.763-5.9.527a5.012 5.012 0 0 1 -.351-3.5c.309-1.269 1.021-2.661-.035-3.791-1.533-1.642-5.053-1.059-5.279 1.29-1.578 3.128-1.545 6.574 1.558 8.922 3.442 2.606 8.27 1.985 12.136.8 4.5-1.385 7.3-5.115 7.4-8.768.067-2.631-1.844-5.213-5.231-8.205-1.319-1.166-3.688-2.074-4.321-3.873-.669-1.9 1.508-3.561 1.843-3.819 2.615-2.014 5.567-2.1 6.082 1.689a2.1 2.1 0 0 1 -.49.948 1.791 1.791 0 0 0 1.944 2.955 11.453 11.453 0 0 0 2.866-1.83 1.957 1.957 0 0 0 1.511-.873c.524-.84 1.028-1.687 1.522-2.544a2.162 2.162 0 0 0 -.536-2.936z"/><path d="m337.906 179.991a5.93 5.93 0 0 0 -2.352-.263c-1.777-.079-9.936-.013-10.878.246-1.412-.1-3.485 3.656-3.145 4.326.294.579 1.579.555 1.608.558v.007c.033 0 8.253.4 12.356.169a1.32 1.32 0 0 0 .977-.48 10.362 10.362 0 0 0 1.771-3.039 1.268 1.268 0 0 0 -.337-1.524z"/></g><path d="m393.014 390.747a34.068 34.068 0 0 1 -18.867-15.12c-.4-.676.579-1.465 1.1-.852a57.584 57.584 0 0 0 18.48 14.271c.958.466.273 2.028-.713 1.701zm.841-8.3a38.536 38.536 0 0 0 -5.264-3.377c-1.874-1.185-3.62-2.584-5.525-3.713-.689-.408-1.253.484-.8 1.041a29.713 29.713 0 0 0 5.039 4.586 18.97 18.97 0 0 0 5.44 3.376 1.153 1.153 0 0 0 1.11-1.917zm43.782-83c-.45-1.235-1.1-1.524-2.215-2.3-1.884-1.31-3.755-2.643-5.544-4.081-3.187-2.562-6.041-5.453-9.028-8.233-.519-.484-1.48.16-1.031.8 4.069 5.747 9.529 10.531 15.2 14.672a1.2 1.2 0 0 0 .44.578l.186.131a1.157 1.157 0 0 0 1.194 0l.219-.142a1.281 1.281 0 0 0 .579-1.434zm-3.464-7.823c-.954-1.735-2.892-3.126-4.354-4.435a43.987 43.987 0 0 0 -4.748-3.829c-.663-.444-1.234.493-.8 1.031 1.306 1.6 2.766 3.1 4.149 4.631 1.28 1.421 2.452 3.241 4.044 4.306 1.085.715 2.278-.677 1.709-1.712zm-90.149 50.325a8.288 8.288 0 0 0 -2.573-1.981.709.709 0 0 0 -.962.962c.467.889.926 1.781 1.394 2.671a6.526 6.526 0 0 0 1.694 2.609c.9.646 1.974-.243 2.035-1.168.077-1.168-.873-2.265-1.588-3.101zm4.9 13.294c-3.261-6.779-10.377-11.565-16.078-16.088-.679-.539-1.609.32-.975.975 5.184 5.355 9.316 12.362 15.257 16.908 1.152.871 2.3-.763 1.799-1.803zm-153.339-2.9c-4.068-3.069-8.047-5.9-11.85-9.34-1.241-1.122-4.339-5.016-6.186-3.489-.609.5.167 1.333.8 1.031.375-.18 7.342 7.753 8.068 8.438 2.375 2.24 5.081 4.6 8.28 5.478 1.351.368 1.885-1.372.892-2.122zm1.338-4.323c-3.585-2.874-7.342-5.574-11.061-8.273-1.182-.858-2.393 1.159-1.156 1.977 3.763 2.49 7.543 5.02 11.421 7.326.626.366 1.395-.557.8-1.034zm-38 17.361c-2.45-2.583-5.127-4.99-7.775-7.369-2.409-2.164-4.849-4.656-7.662-6.268a1.312 1.312 0 0 0 -1.582 2.051c2.093 2.453 5.031 4.4 7.591 6.36 2.813 2.156 5.657 4.333 8.633 6.256.647.411 1.303-.505.801-1.034zm2.534-5.157c-2.1-3.254-5.628-5.593-8.632-7.957-1.819-1.431-5.179-5.422-7.656-4.392-1.1.457-1.081 2.23.3 2.223 1.173-.006 2.649 1.621 3.545 2.276q1.907 1.393 3.836 2.752c2.594 1.817 5.569 3.4 7.565 5.9.476.586 1.452-.178 1.048-.805zm-48.028-21.661c-3.088-2.87-6.96-4.621-9.9-7.678-2.443-2.538-4.653-5.273-8.012-6.591-.733-.288-1.1.817-.511 1.212 3.254 2.174 5.38 5.223 8.168 7.892 2.688 2.572 6.111 4.094 8.931 6.491.912.768 2.224-.499 1.33-1.33zm4.291-1.906a56.135 56.135 0 0 1 -8.1-5.869c-2.05-1.849-3.677-4.84-6.107-6.1a1.358 1.358 0 0 0 -1.842 1.842c1.113 2.566 4.471 4.32 6.67 5.918a59.367 59.367 0 0 0 8.712 5.356.663.663 0 0 0 .673-1.15zm-14.084-88.5c-6.061-3.306-10.617-7.53-15.513-12.286-.9-.876-2.55.277-1.8 1.388 3.852 5.694 10.406 9.87 16.8 12.11.72.245 1.177-.859.52-1.216zm1.341-4.242c-3.1-2.119-6.383-3.534-9.267-6.079-2.648-2.336-5.009-4.949-7.554-7.389-.543-.521-1.548.171-1.083.836 3.8 5.434 10.005 13.553 17.006 14.762a1.171 1.171 0 0 0 .905-2.133z" fill="#fa5d53"/><path d="m379.81 174c-4.206-1.4-9.015-.921-13.477-1.14a55.182 55.182 0 0 0 .041-12.225 2.545 2.545 0 0 0 -5.086 0c-.338 3.878-.233 7.8-.388 11.7a79.162 79.162 0 0 0 -10.973-.937c-1.46.023-2.3 2.265-.8 2.948a50.926 50.926 0 0 0 11.413 3.3c-.286 3.154-.621 6.3-.69 9.468-.041 1.849 2.414 1.926 3.016.408a52.793 52.793 0 0 0 2.579-8.927c4.7.963 9.645 2.312 14.364 1.457 3.262-.586 2.699-5.152.001-6.052z" fill="#fa5d53"/><path d="m195.309 161.866a35.627 35.627 0 0 0 -7.884-.877 38.934 38.934 0 0 0 -2.378-9.295 3.844 3.844 0 0 0 -3.45-1.979l-.771.082c-2.607.279-4.436 2.782-3.036 5.29a37.476 37.476 0 0 1 2.682 6.28c-.406.043-.814.083-1.218.132-4.8.572-10.667.669-14.257 4.185a3.525 3.525 0 0 0 1.541 5.837c4.693 1.3 10.075-1.2 14.679-2.387l1.575-.4a36.3 36.3 0 0 0 3.846 8.616 1.537 1.537 0 0 0 2.839-.769 40.854 40.854 0 0 0 -.919-9.389 55.155 55.155 0 0 0 7.114-2.54 1.538 1.538 0 0 0 -.363-2.786z" fill="#fa5d53"/><path d="m200.346 379.635a39.741 39.741 0 0 0 -15.039 0 26.9 26.9 0 0 0 -2.4-7.858c-1.432-2.709-5.129-1.188-5.35 1.449a22.771 22.771 0 0 0 .987 7.737c-6.1 1.291-12.41 2.759-17.813 5.785-3.093 1.733-1.932 7.462 1.91 7.054 6.315-.671 12.387-2.818 18.517-4.472a57.833 57.833 0 0 0 4.591 11.3 1.57 1.57 0 0 0 2.9-.787 88.523 88.523 0 0 0 -1.915-11.985 55.378 55.378 0 0 0 13.975-5.4 1.564 1.564 0 0 0 -.363-2.823z" fill="#fa5d53"/><path d="m355.062 387.682a37.329 37.329 0 0 0 -8.679-4.575c1.5-3.043 3.172-6.224 3.658-9.51.307-2.077-2.4-4.588-4.113-2.394-2.231 2.853-3.446 6.377-4.749 9.761-4.35-1.821-8.79-3.456-13.234-5.023-1.755-.619-2.538 1.88-1.192 2.827 3.99 2.808 8.034 5.546 12.181 8.117a62.581 62.581 0 0 0 -2.294 7.847 1.566 1.566 0 0 0 2.849 1.2 60.725 60.725 0 0 0 3.731-6.352c2.788 1.917 6.6 4.736 9.32 4.507l-.021-.05a3.248 3.248 0 0 0 1.783-.452c1.859-1.113 2.736-4.371.76-5.903z" fill="#fa5d53"/></svg>