<svg id="Layer_1" height="512" viewBox="0 0 512 512" width="512" xmlns="http://www.w3.org/2000/svg" data-name="Layer 1"><path d="m436.558 340.008c-4.6-12.227-14.991-20.711-27.127-22.139a37.79 37.79 0 0 0 -4.4-.262 33.765 33.765 0 0 0 -24.7 10.542c-8.438 8.684-13.242 21.964-12.852 35.524a17.346 17.346 0 0 0 7.269 13.68 82.888 82.888 0 0 1 -19.8-2.7c-7.353-1.88-14.5-4.877-21.94-8.161 8.913-.306 21.348-4.333 29.964-21.78 4.035-8.17 7.324-16.584 10.5-24.721q1.012-2.59 2.028-5.168 1.112-2.811 2.213-5.628a18.08 18.08 0 0 0 16.823-16.676 16.568 16.568 0 0 0 -4.839-13.277c2.188-5.082 4.218-9.308 6.293-13.106a17.891 17.891 0 0 0 4.786.659 16.59 16.59 0 0 0 16.546-14.078 22.735 22.735 0 0 0 -14.857-25.636 23.708 23.708 0 0 0 -7.987-1.39c-7.357 0-14.413 3.358-19.867 9.455a66.287 66.287 0 0 0 -5.629 7.31c-.132-.221-.263-.442-.405-.658a18.167 18.167 0 0 0 -14.933-8.2 16.368 16.368 0 0 0 -6.422 1.3 17.82 17.82 0 0 0 -2.131-1.379c2.036-5.926 3.143-13.041-.261-19.911a20.052 20.052 0 0 0 -8.409-8.785q-.044-1.092-.192-2.23a23.184 23.184 0 0 0 -22.994-20.633c-13.37 0-21.992 11.392-24.336 23.436a17.877 17.877 0 0 0 -2.514-.179 16.869 16.869 0 0 0 -9.806 3.08 18.322 18.322 0 0 0 -12.576-5.054 17.591 17.591 0 0 0 -11.507 4.277 4.01 4.01 0 0 1 -2.709.928 5.874 5.874 0 0 1 -1.345-.161 31.8 31.8 0 0 0 -8.211-5.863 17.89 17.89 0 0 0 -8.063-1.935 17.308 17.308 0 0 0 -9.53 2.9 16.756 16.756 0 0 0 -9.886-15.5 18.384 18.384 0 0 0 -7.645-1.672 17.5 17.5 0 0 0 -16.607 11.583 259.688 259.688 0 0 1 -16.349 35.482c-.76 1.366-1.507 2.777-2.3 4.27-2.1 3.964-5.946 11.23-9.472 14.656a59.01 59.01 0 0 1 2.568-7.691c.241-.63.48-1.253.712-1.87 1.342-3.565 2.758-7.1 4.257-10.847 3.8-9.5 7.739-19.332 10.4-29.67 4.306-16.758 1.926-32.1-6.7-43.213-7.485-9.636-19.391-15.163-32.664-15.163a48.381 48.381 0 0 0 -10.259 1.106c-15.118 3.286-29.093 13.21-36.472 25.9-12.8 22-8.754 38.805-6.421 45.008 5.091 13.536 17.4 22.282 31.365 22.282a34.18 34.18 0 0 0 11.468-2c-.748 2.375-1.431 4.785-2.02 7.234-3.452 14.352-.476 27.579 7.957 36.292q-3.3 1.5-6.511 3.159c-15.279 7.93-25.186 18.96-28.65 31.9a32.659 32.659 0 0 0 2.529 23.716 31.577 31.577 0 0 0 18.62 15.472 41.127 41.127 0 0 0 12.359 1.947c12.539 0 24.566-6.121 34.78-17.7 8.566-9.712 14.262-21.249 17.532-29.216.81-1.975 1.623-4.005 2.463-6.158 1.247 0 2.482.037 3.673.1 8.189.448 15.57 2.614 18.66 4.357a16.455 16.455 0 0 0 2.206 13.958 17.658 17.658 0 0 0 14.655 7.534 18.126 18.126 0 0 0 4.445-.56 24.268 24.268 0 0 0 5.043 13.894 26.971 26.971 0 0 0 16.873 10.066 38.217 38.217 0 0 0 -16.756 8.884c-8.834 8.179-12.4 20.14-9.3 31.216 4.2 15.01 17.353 24.334 34.32 24.334a47.016 47.016 0 0 0 19.374-4.2c8.985-4.1 16.954-10.636 24.171-19.864 3.808 1.547 7.557 3.218 11.522 4.986 8.817 3.93 17.934 7.994 27.944 10.709a115.346 115.346 0 0 0 29.719 4.1c13.031 0 24.566-2.525 34.283-7.5a53.108 53.108 0 0 0 25.61-28.057c5.658-13.953 6.45-25.934 2.424-36.645z" fill="#ffc533"/><path d="m201.754 280.952a88.665 88.665 0 0 0 -19.82-1.086c2.868-8.016 5.65-16.065 8.544-24.049l18.9-52.136a3.725 3.725 0 0 0 -2.058-4.978 4.759 4.759 0 0 0 -6.62 2.585 271.508 271.508 0 0 1 -17.19 37.312c-5.267 9.466-12 25.349-24.074 27.29-6.627 1.065-11.23-3.165-12.175-9.555-.972-6.577 1.974-13.266 4.233-19.27 4.848-12.882 10.8-25.824 14.228-39.174 2.757-10.728 2.7-22.888-4.379-32-7.01-9.025-19.1-11.675-29.9-9.329-11.112 2.416-22.243 9.838-28 19.73-5.66 9.731-9.611 22.939-5.491 33.9 4.274 11.365 16.043 16.856 27.382 12.2 12.35-5.069 16.889-18.477 16.531-30.918-.167-5.779-9.167-5.8-9 0 .286 9.945-3.544 23.263-15.634 23.69-14.05.5-12.618-17.9-9.522-26.568 4.057-11.359 12.638-19.777 24.464-22.945 10.955-2.935 22.594 1.39 25.534 13.079 2.8 11.116-2.3 22.51-6.149 32.726-4.178 11.085-9.547 22.334-12.321 33.869-2.178 9.056-1.289 19.807 6.583 25.937 7.855 6.117 18.865 4.172 26.342-1.552a40.72 40.72 0 0 0 5.666-5.347l-3.8 10.481q-1.092 3.014-2.155 6.055a122.824 122.824 0 0 0 -37.841 12.376c-9.669 5.018-19.14 12.739-22.081 23.722-2.7 10.071 2.475 20.268 12.5 23.426 24.256 7.641 41.115-18.932 48.739-37.508 1.871-4.559 3.641-9.164 5.361-13.791a91.926 91.926 0 0 1 13.511-.31c10.305.563 36.638 4.909 30.617 20.411-2.1 5.4 6.6 7.742 8.678 2.393 7.337-18.872-14.947-28.118-29.603-30.666zm-39.963 25.664c-4.3 8.9-10.231 18.422-19.285 23.138-6.3 3.284-17.555 4.953-21.349-2.853-4.414-9.081 5.771-18.929 12.683-23.189a104.729 104.729 0 0 1 34.6-13.149c-2.001 5.452-4.132 10.849-6.649 16.054z" fill="#009995"/><path d="m334.09 244.962a82.848 82.848 0 0 1 -8.476 9.313 20.271 20.271 0 0 1 -4.3 3.21c-.023.012-.06.025-.089.037.771-1.9 1.42-4.937 1.9-6.123l5.214-12.865c2.163-5.337 7.8-14.2 4.848-20.151-2.177-4.394-7.971-4.959-12.35-5.2 1.662-3.074 2.982-6.279 2.507-9.9a10.523 10.523 0 0 0 -7.369-8.936c-9.158-2.532-14.2 7.878-14.675 15.342-.35 5.452 1.6 8.905 5.113 10.733-6.047 10.739-12.137 21.466-18.985 31.711-.854 1.277-4.566 7.206-6.672 6.217-1.77-.831.978-7.993 1.344-9.233 1.58-5.343 3.055-10.657 4.855-15.876 1.448-3.424 2.807-6.887 4.138-10.35 1.814-4.72-6.088-8.1-8.225-3.467-1.827 3.957-3.471 8.036-4.958 12.182-1.307 2.988-2.7 5.937-4.242 8.816-2.891 5.394-6.525 12.791-11.781 16.193-7.955 5.149-4.261-10.991-3.408-14.193a67.291 67.291 0 0 1 9.591-20.616c3.026-4.453-3.408-8.618-7.068-5.453-5.756 4.978-13.912 5.218-20.253 1.8a18.5 18.5 0 0 0 -6.331-5.1 4.47 4.47 0 0 0 -6.418 5.295 4.733 4.733 0 0 0 -5.068-.795 33.2 33.2 0 0 0 -19.509 25.881c-1.41 10.5 3.166 23.151 15.354 23.713 13.149.606 20.586-12.1 24.352-22.883a34.888 34.888 0 0 0 1.871-15.234 28.281 28.281 0 0 0 8.74-.037 70.957 70.957 0 0 0 -5.363 17.753c-1.234 7.66-.608 18.051 8.773 19.892 5.971 1.172 10.907-2.549 14.824-7.178 1.048 5.1 4.428 9.133 11.09 7.636 8.292-1.863 13.024-11.594 17.114-18.17 5.491-8.827 10.568-17.9 15.679-26.95 3.044-.152 6.97-.454 9.08.8l.055.032c-.108-.005-.193.033-.206.161a13.217 13.217 0 0 1 -1.006 2.989c-1.281 3.428-2.749 6.8-4.123 10.188-2.426 5.986-5.506 12.068-7.3 18.276-1.03 3.556-1.561 8.105 1.388 10.943 8.717 8.384 22.177-8.471 26.708-14.034 3.629-4.459-2.702-10.863-6.363-6.369zm-99.641-3.091c-2.278 6.5-7.1 17.272-15.674 16.275-8.021-.933-7.322-12.456-5.436-17.963a24.9 24.9 0 0 1 14.134-14.859 3.512 3.512 0 0 0 2.2-4.4 25.1 25.1 0 0 0 4.84 4.121c2.849 4.761 1.829 11.428-.064 16.827zm75.827-31.635c.07-1.541.745-6.107 2.458-6.814 3.693-1.524-.059 5.924-.8 7.233q-.61 1.072-1.215 2.148c-.514-.255-.519-.888-.443-2.567z" fill="#009995"/><g fill="#fa5d53"><path d="m231.92 158.851a93.712 93.712 0 0 1 -17.822.506c3.33-8.168 7.153-16.128 10.041-24.474a1.81 1.81 0 0 0 -.663-2.2 2 2 0 0 0 -1.418-.537h-13.011a2.246 2.246 0 0 0 -2.081 1.584c-5.365 12.736-11.194 25.277-16.007 38.24a2.174 2.174 0 0 0 2.081 2.732c11.911-.086 23.823-.143 35.734 0a2.2 2.2 0 0 0 2.081-1.584l3.145-11.535c.333-1.22-.653-2.902-2.08-2.732zm-35.747 11.519c4.392-11.452 9.488-22.615 14.281-33.9h8.531c-3.047 8.188-6.856 16.065-10.04 24.2-.564 1.44.841 2.6 2.081 2.732a89.153 89.153 0 0 0 17.985.071l-1.882 6.9c-10.319-.104-20.637-.073-30.956-.002z"/><path d="m401.612 131.736c-1.9.69-4.43.222-6.412.236l-8.312.059-16.943.12a2.25 2.25 0 0 0 -2.081 1.584c-5.365 12.736-11.194 25.277-16.007 38.24a2.174 2.174 0 0 0 2.081 2.732c11.911-.086 23.823-.143 35.734 0a2.146 2.146 0 0 0 1.864-1.069 63.571 63.571 0 0 0 5.01-12.421 1.926 1.926 0 0 0 -.692-2.174 2.067 2.067 0 0 0 -1.389-.558c-5.379-.18-10.763-.37-16.146-.448l.034-.08c2.037.031 4.073.1 6.111.118a2.206 2.206 0 0 0 2.081-1.584 72.742 72.742 0 0 1 2.695-7.444 2.537 2.537 0 0 0 .074-1.9c2.249-.006 4.494-.058 6.709-.186 5.793-.336 6.626-8.046 8.243-12.574a2.171 2.171 0 0 0 -2.654-2.651zm-5.233 10.973c-.807.44-3.58.012-4.494.021-3.923.038-7.87.084-11.787-.183a2.144 2.144 0 0 0 -1.864 1.069 13.879 13.879 0 0 0 -1.563 2.972c-.6 1.335.066 3.408 1.864 3.247a35.571 35.571 0 0 1 5.75.063q-.736 1.9-1.38 3.829c-1.981-.041-3.962-.111-5.945-.11a2.119 2.119 0 0 0 -1.864 1.069c-.721 1.615-1.375 3.233-1.976 4.9a2.175 2.175 0 0 0 2.081 2.732c5.452.028 10.906.2 16.356.389a56.927 56.927 0 0 1 -3.209 7.676c-10.425-.112-20.851-.078-31.277-.009 4.394-11.455 9.491-22.622 14.285-33.913l17.415-.124c3.049-.022 6.973.52 10.417.258-.663 2.521-1.536 5.419-2.809 6.113z"/><path d="m294.8 131.776c-8.036-3.325-16.957-.48-23.436 4.863-3.513-10.241-18.989-11.856-27.528-3.558-15.688 15.245-2.768 37.265 6.6 52.029a2.839 2.839 0 0 0 2.766 1.376 3.18 3.18 0 0 0 1.349-.3c14.921-6.828 35.379-13.654 44.291-28.371 4.742-7.828 6.251-21.781-4.042-26.039z"/><path d="m359.384 132.483c-4.875-.18-10.069-.907-14.931-.552-2.188.16-3.352.56-4.676 2.368-4.145 5.659-7.369 11.866-11.325 17.656-.181-5.845-.228-11.7-.289-17.54a2.191 2.191 0 0 0 -.2-.928 1.707 1.707 0 0 0 -1.963-1.231 64.81 64.81 0 0 1 -14.663.056 2.181 2.181 0 0 0 -2.158 2.158c-.24 10.587-.056 21.174.637 31.742.162 2.467-.375 6.744 2.037 8.4 3.032 2.087 9.934.946 13.314.864 3.1-.076 6.462.319 8.809-1.973 3.312-3.235 5.951-7.656 8.708-11.355q9.653-12.947 18.559-26.423a2.178 2.178 0 0 0 -1.859-3.242zm-21.56 29.017q-1.711 2.279-3.444 4.54c-2.4 3.133-3.092 4.6-7.25 5.067-2.89.325-9.708 1.022-11.782-1.008-2.177-2.131-1.5-8.548-1.629-11.569-.314-7.229-.376-14.461-.254-21.694a64.284 64.284 0 0 0 10.407-.056c.073 7.118.151 14.244.511 21.351.086 1.689 2.415 3.077 3.684 1.526a146.281 146.281 0 0 0 11.871-17.136c.824-1.364 1.58-2.988 2.525-4.27 1.448-1.965 1.62-1.747 3.857-1.93a60.084 60.084 0 0 1 9.167.243c-3.56 5.3-7.179 10.568-10.912 15.753q-3.33 4.621-6.751 9.183z"/></g><path d="m269.92 333.371c5.748-6.114 8.376-14.209 5.278-22.21-1.867-4.821-5.067-8.912-6.209-13.988-.178-.792-.46-1.734-.728-2.735 2.178-2.127 4.315-4.291 6.353-6.554 1.7-1.886 3.889-3.865 4.361-6.476.9-4.969-3.794-7.262-7.922-5.882-4.519 1.511-9.168 4.161-11.265 8.626-2.42 5.154-.53 11.59.8 16.8 1.217 4.754 4.34 8.63 6.12 13.146 1.58 4.007.889 6.931-1.33 10.454-2.288 3.631-6.436 6.992-10.721 3.768-2.413-1.815-1.329-4.645 1.023-5.95 5.066-2.81.532-10.586-4.542-7.771-6.413 3.558-9.2 12.344-4.5 18.4 5.807 7.483 17.138 6.906 23.282.372z" fill="#2f2f51"/><path d="m352.915 286.934c-4.659-3.449-9.152 4.359-4.542 7.771 2.569 1.9 6.75 2.179 10.221 2.162-2.812 7.17-5.626 14.34-8.535 21.472-2.166 5.311-4.28 10.709-6.89 15.822-2.286 4.478-5.091 9.149-10.606 9.338-5.776.2-5.8 9.2 0 9 9.239-.316 14.877-6.687 18.758-14.545 4.614-9.341 8.271-19.236 12.1-28.914 1.77-4.475 3.515-8.962 5.266-13.447a22.04 22.04 0 0 1 7.26-.435c5.666.883 8.107-7.787 2.393-8.679a23.414 23.414 0 0 0 -6.023-.09c1.467-3.684 2.949-7.361 4.484-11.017a174.106 174.106 0 0 1 8.25-17.3 62.134 62.134 0 0 1 5.1-8.209 8.959 8.959 0 0 1 2.775-2.721c.4-.176 3.1-1.08 2.911.007-.962 5.665 7.709 8.1 8.678 2.393a9.662 9.662 0 0 0 -6.408-11.215c-5.191-1.852-10.291.57-13.8 4.489-9.037 10.1-14.012 24.635-18.986 37.024q-1.613 4.017-3.2 8.047c-3.291.404-7.17.554-9.206-.953z" fill="#2f2f51"/><path d="m424.389 343.583c-2.7-7.185-8.68-12.885-16.479-13.8-18.51-2.183-27.888 16.737-27.434 32.517.166 5.779 9.167 5.8 9 0-.223-7.748 1.389-16.819 8.449-21.332 7.228-4.62 15.543-1.815 18.263 6.344 2.682 8.046-.761 17.837-4.682 24.937a30.889 30.889 0 0 1 -15.36 13.394c-13.561 5.527-30.546 4.151-44.413.605-13.166-3.366-25.2-9.665-37.681-14.86q-4.6-1.917-9.337-3.476c9.8-18.2 18.294-37.225 26.965-55.983q4.079-8.823 8.073-17.686 1.42-2.861 2.618-5.828 8.025-17.894 15.762-35.916c2.257-5.266-5.494-9.856-7.771-4.542q-9.391 21.908-19.225 43.625a64.4 64.4 0 0 1 -20.1 23.213c-3.757 2.619-17.3 11.775-19.73 3.844a19.65 19.65 0 0 1 -.647-7.742c13.361.3 28.017-10.033 25.555-24.858-.957-5.762-5.379-9.689-11.373-8.278-5.945 1.4-10.755 6.427-14.281 11.115-6.849 9.109-12.743 25.206-6.32 36.116 6.043 10.265 19.816 4.592 27.615-.026a66.613 66.613 0 0 0 5.587-3.714q-7.7 16.361-15.653 32.6c-1.857 3.781-3.784 7.684-5.886 11.515a104.223 104.223 0 0 0 -29.057-3.147c-7.692.289-15.7 1.844-21.528 7.242-4.988 4.618-7.472 11.515-5.609 18.172 4.407 15.741 22.987 17.644 35.78 11.809 10.655-4.86 18.458-13.831 24.631-23.628q4.9 1.541 9.668 3.483c12.705 5.149 24.841 11.652 38.136 15.258 26.823 7.275 62.189 5.694 74.164-23.807 3.457-8.518 5.648-18.261 2.3-27.166zm-121.575-54.746c.717-.566 2.96-2.484 4.311-2.487-.252.139.39 1.055.317 1.667a18.246 18.246 0 0 1 -.435 2.941 15.154 15.154 0 0 1 -13.967 11.1 34.716 34.716 0 0 1 9.774-13.221zm-28.428 101.082c-7.085 4.067-17.873 6.437-23.869-.766-6.377-7.662 1.185-15.168 8.867-17.043 9.145-2.233 19.946-.99 29.067.738q1.319.25 2.626.538c-4.431 6.63-9.747 12.548-16.691 16.533z" fill="#2f2f51"/><path d="m292.177 139.176a9.554 9.554 0 0 0 -11.184-1.765c-1.431.748-.443 3.209 1.116 2.646 2.232-.8 5.32-.5 6.53 1.848 1.055 2.045.429 4.158-.584 6.058-1.471 2.76 2.231 5.979 4.5 3.47a9.061 9.061 0 0 0 -.378-12.257z" fill="#efeae1"/><path d="m254.528 176.706c-2.215-5.085-3.988-10.69-6.877-15.429-1.23-2.018-4.945-.7-3.99 1.682 2.126 5.3 5.588 10.226 8.413 15.181.926 1.629 3.165.199 2.454-1.434z" fill="#efeae1"/><path d="m287.812 155.457a3.4 3.4 0 0 0 -4.424.443 4.323 4.323 0 0 0 -.645 4.918c.489.869 2.327 1.3 3.292.975a5.375 5.375 0 0 0 2.854-2.559 3.229 3.229 0 0 0 -1.077-3.777z" fill="#efeae1"/><path d="m378.889 204.024c-2.573-1.813-5.363-1.9-8.184-1.469-.022-3.052-.874-6.029-3.38-8.1a9.227 9.227 0 0 0 -10.515-.473c-10.325 6.125-2.966 18.845 2.828 25.08a1.328 1.328 0 0 0 1.084.435q-.749.134-1.506.253c-1.878.293-1.459 3.541.453 3.345 6.577-.674 21.24-2.671 22.933-10.823.662-3.186-1.154-6.445-3.713-8.248zm-2.571 9.4c-.942 1.3-3.544 2.235-4.927 2.868a43.608 43.608 0 0 1 -10.275 3.131 1.479 1.479 0 0 0 .916-2.207c-2.629-3.917-5.937-8.219-5.755-13.2.111-3.035 2.549-7.568 6.368-6.257 3.248 1.115 2.309 5.463 1.8 7.765-.55 2.472 2.067 4.78 4.4 3.38 2.692-1.619 11.883-1.59 7.473 4.521z" fill="#fa5d53"/><path d="m218.749 339.391c-2-2.93-5.433-5-9.061-4.419a7.645 7.645 0 0 0 -4.727 2.561c-4.833-5.157-15.025-3.421-18.014 4.419-4.726 12.4 8.839 20.878 19.576 20.669a1.973 1.973 0 0 0 3.118.912c6.545-5.528 15.208-15.189 9.108-24.142zm-2.759 11.622c-1.711 3.716-4.757 6.362-7.808 8.957a1.347 1.347 0 0 0 -.738-.366c-6.214-1.1-13.505-3.041-15.9-9.66-1.168-3.234-.767-6.989 2.1-9.241 3.617-2.838 7.664-.559 8.548 3.547.742 3.445 6.472 1.751 5.194-1.428v-.007q-.064-4.436 5.012-3.863a6.636 6.636 0 0 1 3.979 3.427c1.474 2.851.864 5.921-.386 8.634z" fill="#fa5d53"/><path d="m424.541 291.584a6.484 6.484 0 0 0 -7.675-5.2 6.638 6.638 0 0 0 -2.417-4.541 6.348 6.348 0 0 0 -7.416.085c-6.331 4.344-1.508 12.627 2.619 16.465a1.5 1.5 0 0 0 .206.156 1.763 1.763 0 0 0 1.175 3.028c3.676.275 7.292.153 10.3-2.259a8.466 8.466 0 0 0 3.208-7.734zm-4.264 3.261c-1.321 3.149-5.16 3.786-8.24 3.334a1.288 1.288 0 0 0 .081-1.693c-1.722-2.415-4.478-5.3-3.925-8.527.3-1.767 1.78-3.774 3.511-2.313 1.291 1.089.932 3 .8 4.551-.19 2.263 3.047 2.877 4.1 1.111a2.086 2.086 0 0 1 2.955-.5c1.441.902 1.281 2.692.718 4.037z" fill="#fa5d53"/><path d="m116.625 257.726c-.278-2.852-1.289-5.833-4.346-6.671-2.662-.729-5.537.722-7.111 2.871a8.314 8.314 0 0 0 -1.4 6.067 6.412 6.412 0 0 0 -6.194 3.83c-4.357 9.486 7.792 13.7 14.788 14.124a1.508 1.508 0 0 0 1.522-1.633 1.776 1.776 0 0 0 3.244-.973 162.325 162.325 0 0 0 -.503-17.615zm-3.846 17.168c-2.53-.483-5.165-.817-7.489-1.983a7.484 7.484 0 0 1 -3.679-3.232 2.439 2.439 0 0 1 -.739-2.518c-.331-2.311 1.181-2.77 4.512-1.4.08.2.161.408.241.608.79 1.964 4.153 1.962 4.018-.544a6.16 6.16 0 0 0 -1.339-3.608c-.955-2.656-1.617-6.043 1.107-7.04 4.1-1.5 3.519 5.517 3.569 7.01.145 4.372.206 8.762.556 13.123a1.307 1.307 0 0 0 -.756-.416z" fill="#fa5d53"/></svg>