<svg id="Layer_1" height="512" viewBox="0 0 512 512" width="512" xmlns="http://www.w3.org/2000/svg" data-name="Layer 1"><path d="m437.653 324.194c-2.086-2.775-5.07-5.119-7.4-7.232-2.953-2.683-5.483-5.878-9.88-5.887l-18.258-.036c-.143 0-.282.015-.423.021.738-3.195 1.684-7.338 4.013-9.749 3.024 3.1 5.876 6.84 10.624 6.84a9.227 9.227 0 0 0 3.24-.587l10.395-3.883a9.33 9.33 0 0 0 5.1-12.842c-3.97-8.131-11.282-14.6-17.772-20.727-6.117-5.776-14.023-9.488-22.534-9.506h-.041a27.886 27.886 0 0 0 -13.2 3.42 31.129 31.129 0 0 0 -8.275 6.605c-2.89 3.214-4.453 8.267-7.387 11.023.878-.825-7.9-5.5-8.967-5.5l-14.117-.028c-4.117-.008-5.712 2.846-7.826 5.6-2.99-2.256-4.835-5.621-9.014-5.629l-15.961-.031c-2.79 0-4.932 1.6-6.676 3.49-7.8-9.55-16.912-19.529-30.766-19.529h-.04c-14.672 0-22.74 11.187-29.051 22.836-4.764-5.291-10.075-11.088-16.251-14.743-7.264-4.3-16.224-6.4-27.39-6.421l-5.523-.011a9.4 9.4 0 0 0 -7.075 3.234c-.016-.017-.035-.03-.051-.047s-.034-.039-.053-.057-.035-.031-.052-.047-.034-.039-.052-.057-.035-.03-.051-.046-.035-.039-.053-.058-.035-.03-.051-.047-.034-.039-.053-.057-.035-.03-.051-.047-.034-.039-.053-.057a9.251 9.251 0 0 0 -6.579-2.74l-36.3-.071a9.286 9.286 0 0 0 -6.71 2.864 9.277 9.277 0 0 0 -6.427-2.562q-.391 0-.788.033c-15.724 1.323-26.7 10.3-30.906 25.289-2.179 7.765-1.745 18.761-.855 36.059.316 6.142 1.04 20.232.43 24.017-1.33 2.173-4.683 4.034-8.328 4.584a9.255 9.255 0 0 0 -7.92 9.181l-.023 11.47c-.013 7.244 12.615 19.85 19.826 19.85.306 0 .616-.015.921-.046 11.779-1.166 26.786-7.7 33.582-22.536 3.365-7.349 3-17.929 1.987-37.547-.384-7.461-1.182-22.986-.221-26.412.633-2.258 1.11-3.08 3.967-3.442a9.324 9.324 0 0 0 4.731-2.036l-.139 70.64c-.014 7.135 12.739 19.829 19.807 19.843l11.008.022a9.33 9.33 0 0 0 9.33-9.294c0-1.444.019-2.891-.02-4.333 4.514 4.473 10.5 13.665 17.52 13.679l11.009.022a9.332 9.332 0 0 0 8.448-5.384 76.722 76.722 0 0 0 4.934 6.7c7.337 8.781 16.542 18.474 27.213 23.036 7.963 3.4 16.477 4.129 25.035 4.231h.1a9.322 9.322 0 0 0 9.3-9.3l.022-11.014a9.259 9.259 0 0 0 -2.268-6.085 28.51 28.51 0 0 0 9.485-3.65 34.776 34.776 0 0 0 9.139-8.527c3.258 3.593 7.936 10.188 13.308 10.188l14.117.028c3.971.008 6.278-2.771 7.809-6.027 3.368 1.875 4.605 5.5 9.032 5.509l15.945.031a7.773 7.773 0 0 0 7.773-7.744c.008-3.9-.243-8.048.109-11.821 8.705 8.79 16.647 17.776 29.965 17.8h.077c12.762 0 22.995-6.355 28.813-17.9 4.165-8.258 6.2-19.575 6.234-34.6l.011-5.505a11.115 11.115 0 0 0 -2.528-6.708z" fill="#2f2f51"/><path d="m187.936 233.126c2.442 9.579-6.136 16.35-13.94 19.66-7.889 3.346-18.027 3.607-23.884-3.589-4.747-5.832-5.375-15.127.784-20.2 4.891-4.031 11.943 2.951 7.013 7.013-4.544 3.745.868 8.966 5.152 9.193 4.344.23 13.705-2.9 15.188-7.695 1.75-5.661-8.279-9.791-11.991-11.547-5.864-2.775-11.851-5.276-17.771-7.926-15.068-6.745-40.033-17.332-37.642-37.69 2.226-18.963 19.155-35.545 35.878-42.945 16.79-7.427 40.554-8.822 49.352 10.794 8.25 18.395-2.346 37.02-16.767 48.6-4.933 3.961-11.99-3.017-7.013-7.013 8.572-6.882 16.9-16.368 16.826-28.02-.077-12.789-9.452-20.535-21.943-19.655-19.587 1.379-40.342 16.564-45.777 35.8-3.028 10.719 4.974 16.82 13.217 21.9 9.888 6.089 20.7 10.381 31.265 15.118 8.436 3.785 19.502 8.196 22.053 18.202zm209.817-31.792c-1.956 13.358-10.814 23.9-21.246 31.857a119.062 119.062 0 0 1 -21.4 13.069c-.022 3.582.083 7.086-1.511 10.423-5.554 11.626-19.752 15.91-31.675 14.258-7.846-1.087-22.145-7.881-17.7-18.308 1.729-4.052 6.363-5.529 10.317-6.417 6.211-1.4 12.6-1.893 18.844-3.15a74.822 74.822 0 0 0 11.906-3.5q.079-4.64.165-9.279a32.86 32.86 0 0 1 -15.859 7.571c-7.691 1.371-15.767-.117-20.377-7.008a19.577 19.577 0 0 1 -1.784-3.352 44.164 44.164 0 0 1 -13.328 11.445c-5.349 2.942-11.349 3.808-16.363-.289a15.009 15.009 0 0 1 -3.964-5.007c-4.106 4.969-9.231 9.085-15.352 10.757a13.863 13.863 0 0 1 -17.581-10.067 79.867 79.867 0 0 1 -8.222 5.871c-6.492 4.035-15.95 8.776-23.122 3.755-8.6-6.017-7.892-18.831-7.393-28.059q.123-2.273.279-4.546l-19.587 2.042c-6.352.662-6.285-9.263 0-9.918l20.375-2.123c.7-7.988 1.538-15.972 2.208-23.946.531-6.325 10.452-6.36 9.918 0q-.962 11.445-1.956 22.886l18.479-1.925c6.352-.662 6.285 9.263 0 9.918l-19.424 2.022c-.825 7.193-2.025 16.188.61 22.381 3.017 7.092 11.493 1.009 15.876-1.864a61.29 61.29 0 0 0 16.014-14.724 38.5 38.5 0 0 1 11.044-11.868c7.874-5.249 19.274-5.121 23.074 4.639 2.321 5.961-7.273 8.52-9.564 2.637-.866-2.224-5.807-.3-7.135.42a22.118 22.118 0 0 0 -6.247 5.858c-2.759 3.463-6.869 9.324-5.676 14.076 1.679 6.691 9.7 1.347 12.619-1.319a42.3 42.3 0 0 0 8.9-12.216c2.353-4.615 9.047-2.125 9.241 2.5.172 4.119.23 11.481 6.019 10.505 3.117-.525 6.605-3.946 8.854-6.055a38.761 38.761 0 0 0 10.971-18.866c1.619-6.27 10.7-3.547 9.564 2.637-.887 4.827-2.241 10.846.365 15.406 2.8 4.905 8.478 4.46 13.244 3.115 9.238-2.608 16.871-10.846 14.426-20.922-1.005-4.145 2.918-6.688 6.089-6.083 2.579-.135 5.231 1.442 5.164 4.764q-.242 12.141-.465 24.282c-.033 1.805-.061 3.61-.093 5.415a112.093 112.093 0 0 0 15-9.5c11.114-8.313 18.8-19.329 17.9-33.641-1.029-16.358-11.053-30.424-24.854-38.83-11.667-7.106-33.9-13.983-42.124 1.421-7.826 14.661 3.067 29.626 14.246 38.6 4.979 4-2.082 10.972-7.013 7.013-12.878-10.34-22.929-26.04-18.706-43.129 4.351-17.606 20.971-23.653 37.525-20.619 29.532 5.422 55.014 34.053 50.485 64.987zm-52.507 48.875c-1.795.594-3.593 1.125-5.391 1.571-6.7 1.662-13.563 2.307-20.338 3.54-1.765.321-3.7 1.174-5.481 1.571a1.436 1.436 0 0 0 .347.476c4.9 4.248 12.565 5.008 18.728 3.444 4.582-1.163 11.023-4.685 12.02-9.829.049-.252.081-.513.115-.774z" fill="#fa5d53"/><path d="m130.253 268.148a3.327 3.327 0 0 1 3.625 3.3v11.5a3.269 3.269 0 0 1 -2.9 3.219c-6.128.789-7.966 4.172-8.974 7.791-1.218 4.374-.479 18.226.061 28.341.967 18.127 1.381 28.679-1.382 34.743-5.459 11.98-17.746 18.016-28.679 19.12a3.318 3.318 0 0 1 -3.65-3.3v-11.468a3.3 3.3 0 0 1 2.81-3.265c5.053-.774 10.585-3.554 12.92-8.1a3.029 3.029 0 0 0 .261-.693c.926-3.951.219-17.2-.255-26.079-.894-16.746-1.3-27.4.573-34.13 3.485-12.502 12.506-19.852 25.59-20.979zm13.429 17.292h6.018a3.312 3.312 0 0 1 3.312 3.312v82.456a3.312 3.312 0 0 0 3.312 3.312h11.008a3.312 3.312 0 0 0 3.312-3.312v-82.456a3.312 3.312 0 0 1 3.312-3.312h6.013a3.312 3.312 0 0 0 3.312-3.312v-11.008a3.312 3.312 0 0 0 -3.312-3.312h-36.286a3.312 3.312 0 0 0 -3.312 3.312v11.008a3.312 3.312 0 0 0 3.312 3.312zm127.261 99.9a3.318 3.318 0 0 1 3.288 3.311v11.014a3.308 3.308 0 0 1 -3.33 3.314c-11.987-.1-26.077-1.243-37.22-14.528-9.017-10.751-17.542-29.751-22.761-43.422l-2.443.452v25.728a3.312 3.312 0 0 1 -3.312 3.312h-11.007a3.312 3.312 0 0 1 -3.312-3.312v-100.089a3.312 3.312 0 0 1 3.312-3.312h5.5c10.067 0 18.034 1.811 24.357 5.536 6.652 3.919 14.581 11.939 14.581 27.891a44.9 44.9 0 0 1 -7.21 24.642 33.24 33.24 0 0 1 -4.642 5.491 3.27 3.27 0 0 0 -.827 3.493c4.8 13.258 13.629 33.147 21.27 42.258 5.982 7.128 13.126 8.103 23.756 8.222zm-62.465-68.684a3.306 3.306 0 0 0 5.338 2.623c7.046-5.709 7.152-17.884 7.152-18.044 0-5.595-1.2-10.9-7.9-13.716a3.317 3.317 0 0 0 -4.588 3.062zm93.1 5.667c0 14.867-1.757 26.9-5.225 35.772-6.464 16.54-17.787 19.01-23.961 19.01s-17.5-2.47-23.962-19.01c-3.467-8.87-5.225-20.905-5.225-35.772 0-52.269 22.34-56.331 29.187-56.331s29.191 4.062 29.191 56.331zm-17.966 0c0-17.52-2.822-27.033-5.188-31.928-1.869-3.864-4.124-6.171-6.032-6.171s-4.164 2.307-6.033 6.171c-2.367 4.9-5.188 14.408-5.188 31.928 0 21.862 4.509 36.551 11.221 36.551s11.225-14.689 11.225-36.551zm115.146-2.256v11.008a3.312 3.312 0 0 0 3.312 3.312 3.318 3.318 0 0 1 3.291 3.707c-1.968 16.4-7.922 16.405-10.742 16.405-1.355 0-4.527 0-7.459-7.122-2.57-6.24-3.928-15.718-3.928-27.408 0-24.831 6.658-36 11.387-36 2.558 0 5.839 1.533 8.177 5.641a3.342 3.342 0 0 0 4.075 1.526l10.387-3.9a3.33 3.33 0 0 0 1.8-4.593c-5.86-11.945-16.226-16.3-24.438-16.3-6.808 0-29.019 3.868-29.019 53.632 0 45.385 18.181 52.161 29.019 52.161 10.562 0 18.686-5.063 23.492-14.643 3.72-7.413 5.528-17.853 5.528-31.917v-5.5a3.312 3.312 0 0 0 -3.312-3.312h-18.253a3.312 3.312 0 0 0 -3.312 3.303zm-60.732-14.667-10.513-22.176a1.758 1.758 0 0 0 -1.688-1.269h-15.946a1.758 1.758 0 0 0 -1.758 1.758v89.046a1.758 1.758 0 0 0 1.758 1.758h14.121a1.758 1.758 0 0 0 1.758-1.758v-33.942a1.758 1.758 0 0 1 3.446-.489l9.948 34.371a1.758 1.758 0 0 0 1.688 1.269h15.945a1.758 1.758 0 0 0 1.758-1.758v-88.5a1.758 1.758 0 0 0 -1.758-1.758h-14.121a1.758 1.758 0 0 0 -1.758 1.758v21.214c0 2.04-2.314 2.433-2.88.476z" fill="#009995"/><g fill="#ffc533"><path d="m198.491 278.337c.371 14.077-.8 27.944-.962 42.008-.164 14.038.621 27.944.594 42a1.094 1.094 0 0 0 2.188 0c1.145-14.012 2.653-27.945 2.7-42s-1.409-27.971-1.779-42.008c-.042-1.763-2.788-1.77-2.741 0z"/><path d="m239.478 184.482c1.065 1.509 3.406.341 2.819-1.26a.547.547 0 0 0 -.022-.162 80.344 80.344 0 0 0 -4.029-8.959c-2.389-7.949-5.451-15.723-8.4-23.471a.673.673 0 0 0 -.813-.42c-4.19-9.851-8.664-19.587-13.265-29.245a.523.523 0 0 0 -.426-.3c-.043-.08-.082-.163-.125-.243-.366-.684-1.37-.2-1.211.51.033.148.076.3.109.445a1.389 1.389 0 0 0 -1.947-.513c-1.56 1.153-3.07 2.439-4.594 3.7a4.527 4.527 0 0 0 -2.138 1.7c-.379.29-.76.575-1.145.85a.6.6 0 0 0 -.672.477l-.06.249a.726.726 0 0 0 .69.906 3.347 3.347 0 0 0 .6-.041 4.117 4.117 0 0 0 .105.57.676.676 0 0 0 -.7.968c5.277 9.37 11.59 18.177 17.393 27.227 5.838 9.083 11.604 18.189 17.831 27.012z"/><path d="m262.189 394.545c-25.446-9.517-36.083-38.772-46.108-61.7 7.583-9.14 15.935-19.74 16.029-32.151.08-10.507-7.834-20.489-17.917-23.2a1.1 1.1 0 0 0 -.582 2.109c10.892 3.294 13.814 14.131 12.995 24.415-.854 10.718-6.263 19.47-13.273 27.338a1.627 1.627 0 0 0 .6 2.552c3.887 13.636 8.991 28.743 17.328 40.209a64.653 64.653 0 0 0 30.326 22.606c1.379.485 1.946-1.675.602-2.178z"/><path d="m252.508 140.76c.216 10.468 2.381 20.542 2.173 31.067-.015.743 1.229.953 1.334.181 1.379-10.17 4.531-19.977 5.472-30.175.028-.309.044-.619.07-.928q.3-2.007.558-4.047c0-.006 0-.009.006-.015 1.1-7.985 2.323-16.225 2.58-24.279a.645.645 0 0 0 -1.137-.4v-.04a1.786 1.786 0 0 0 .63-.537l.156-.2c.755-.986-.281-2.345-1.352-2.356a29.676 29.676 0 0 0 -10.238 1.736 1.109 1.109 0 0 0 -.477.364.675.675 0 0 0 -.923.6c.146 5.367.48 10.88 1.107 16.3-.017 4.241-.046 8.487.041 12.729z"/><path d="m176.333 275.143c-4.75-.034-9.417-.887-14.167-.742-4.734.145-9.434.781-14.167 1.009a1.106 1.106 0 0 0 0 2.21c4.173.151 8.324.6 12.49.773-.3 14.141-1.316 28.1-.707 42.271.616 14.33.82 28.65 1.095 43a1.083 1.083 0 0 0 2.165 0c.023-14.36.109-28.661.762-43 .644-14.124-.182-28.107-.169-42.211 4.249-.087 8.438-.819 12.7-.9a1.206 1.206 0 0 0 -.002-2.41z"/><path d="m125.317 278.077c-6.578 1.978-10.454 6.91-12.641 13.049s-2.852 14.455-3.009 22.373c-.179 9.024 1.035 17.587 1.79 26.508.4 4.753.422 9.583-2.19 13.783-2.527 4.064-6.661 6.856-10.518 9.523-1.136.785-.07 2.654 1.093 1.87 5.012-3.38 10.333-7.06 12.817-12.8 2.936-6.788 1.169-14.394 1.784-21.535.218-2.531.541-18.667.541-24.2 0-15.814 5.821-24.5 10.962-26.288 1.423-.495.844-2.726-.629-2.283z"/><path d="m264.47 276.786c-4.965 5.573-8.333 11.955-11.108 18.845-3.025 7.511-5.611 15.163-5.03 23.369 1.034 14.6 2.865 31.731 11.866 43.783.827 1.107 2.713.056 1.889-1.1-8.293-11.664-9.521-26.984-7.835-40.817.921-7.554.236-15.333 1.753-22.8a41.454 41.454 0 0 1 10.3-19.449c1.118-1.232-.726-3.076-1.835-1.831z"/><path d="m394.682 362.622c-17.767-3.821-13.834-24.245-15.76-37.457-1.132-7.766-2.574-15.082-1.851-22.981a47.39 47.39 0 0 1 7.453-21.814c.811-1.26-1.11-2.292-1.966-1.149-5.06 6.752-7.9 15.014-9.2 23.3-1.313 8.406-2.309 17.956-1.039 26.4 1.98 13.16 6.164 33.132 21.665 36.221 1.641.324 2.349-2.165.698-2.52z"/><path d="m416.07 326.864c-1.418-3.417-3.869-2.747-7.047-3.366a1.117 1.117 0 0 0 -.594 2.152c3.338 1.021 4.485 3.083 4.487 6.379a67.967 67.967 0 0 1 -.94 11.265c-1.037 6.257-2.28 12.021-7.308 16.341-1.073.922.36 2.82 1.528 1.981a25.906 25.906 0 0 0 10.871-21.306c.017-4.115.609-9.579-.997-13.446z"/><path d="m347.647 293.358c-.352 11.038-2.053 21.974-1.547 33.007.414 9.028.729 18.018.746 27.042-2.823-6.615-5.5-13.332-6.983-20.367-1.794-8.536-7.515-14.133-11.392-21.666-.571-1.109-2.468-.341-2.04.86 3 8.419 3.332 16.339 8.57 23.906 5.057 7.307 8.451 15.756 12 23.858.517 1.181 2.3.515 2.313-.626.088-11.044.723-22 1.478-33.007s-.7-21.979-.8-33.007a1.173 1.173 0 0 0 -2.345 0z"/><path d="m306.559 127.406c-3.161-1.478-6.34-2.931-9.461-4.492a.942.942 0 0 0 -1.367.556l-.091.384a.585.585 0 0 0 -.193.228c-.428.888-.813 1.8-1.2 2.708-2.37 3.4-3.912 7.375-5.535 11.168-1.06 2.477-2.01 4.989-2.91 7.518-.317.54-.646 1.072-.958 1.613-2.161 3.746-4.366 7.56-6.171 11.49-2 4.358-3.052 9.041-5.046 13.406-.308.675.556 1.533 1.119.864 2.974-3.533 6.607-6.385 9.6-9.889 2.787-3.259 5.272-6.869 7.724-10.387 2.488-3.57 4.875-7.214 7.23-10.872 1.848-2.869 3.78-5.4 4.81-8.422.417-.616.809-1.245 1.209-1.869l1.687-2.286a1.26 1.26 0 0 0 -.447-1.718z"/><path d="m281.463 278.979c-.829-1.073-2.689-.065-1.87 1.093 9.033 12.76 12.115 28.061 10.794 43.494q-.864 10.1-2.028 20.156c-1.007 8.683-3.783 15.083-9.844 21.474a1.24 1.24 0 0 0 1.752 1.752c5.614-4.883 9.942-12.087 13.025-18.8a46.745 46.745 0 0 0 3.82-22.965c-1.155-16.224-5.575-33.165-15.649-46.204z"/><path d="m319.059 293.8a1.21 1.21 0 1 0 -2.411 0c-.062 5.884-.667 11.751-.684 17.618-.014 5.14.33 10.277.368 15.417.082 11.014.291 22.016.072 33.029a1.1 1.1 0 1 0 2.188 0c.447-11.012 1.076-22.007 1.276-33.029.093-5.128.461-10.287.349-15.417-.128-5.87-.867-11.749-1.158-17.618z"/><path d="m123.256 226.657a19.024 19.024 0 0 1 -12.492-9.82c-1.4-2.585-5.967-.809-4.861 2.049 1.98 5.116.422 10.289-3.576 13.9a2.517 2.517 0 0 0 1.1 4.179 15.368 15.368 0 0 1 10.4 7.841c.026.137.043.274.072.411a2.413 2.413 0 0 0 .811 1.4c.111.261.221.522.323.791a1.547 1.547 0 0 0 2.984-.811 2.676 2.676 0 0 0 1.183-2.097c.255-5.16 1.447-9.276 5.377-12.839a3.016 3.016 0 0 0 -1.321-5.004zm-14.863 6.957a16.839 16.839 0 0 0 3.059-6.717 23.266 23.266 0 0 0 5.807 3.913 19.044 19.044 0 0 0 -3.308 7.092 19.125 19.125 0 0 0 -5.558-4.288z"/><path d="m416.51 236.458a22.469 22.469 0 0 1 -6.973-12.283c-.472-2.232-3.594-2.4-4.684-.612a22.526 22.526 0 0 1 -10.865 9.141c-1.231.529-1.35 2.2-.847 3.232a20.242 20.242 0 0 1 2.029 8.307 15.132 15.132 0 0 0 -2.949 4.934c-.751 2.135 2.119 4.532 4.028 3.1 2.647-1.99 4.625-4.634 7.395-6.5a23.634 23.634 0 0 1 10.6-3.857c2.556-.288 4.484-3.394 2.266-5.462zm-17.374 4.326a22.38 22.38 0 0 0 -.965-4.708 24.37 24.37 0 0 0 7.455-5.248 23.01 23.01 0 0 0 2.748 5.823 31.617 31.617 0 0 0 -9.238 4.133z"/></g></svg>