<svg id="Layer_1" height="512" viewBox="0 0 512 512" width="512" xmlns="http://www.w3.org/2000/svg" data-name="Layer 1"><path d="m369.472 189.709h-.19c.844 0 3.259-5.92 3.641-6.888a30.476 30.476 0 0 0 2.051-8.954 29.109 29.109 0 0 0 -4.174-17.367 25.854 25.854 0 0 0 -26.182-11.617c-9.659 1.585-18.151 7.726-24.56 17.758-.107.167-.213.335-.318.5a21.593 21.593 0 0 0 -12.08-11.341c-.761-.308-1.55-.555-2.255-.916 2.2-1.411 4.575-2.53 6.777-3.947 15.455-9.95 26.543-24.659 29.659-39.347a35.287 35.287 0 0 0 -6.7-28.918 25.458 25.458 0 0 0 -20.03-9.781c-20.652 0-29.624 19.7-35.7 36.259-3.12 8.5-6.586 16.879-9.742 25.37-15-1.14-28.57-8.985-41.481-16.07-18.182-9.978-38.789-21.286-60.859-21.286a62.164 62.164 0 0 0 -21.786 3.916c-18.137 6.76-30.649 22.526-32.656 41.145a47.9 47.9 0 0 0 6.733 29.539c4.645 7.738 14.193 19.042 24.111 19.042a14.12 14.12 0 0 0 13.338-10.541 13.559 13.559 0 0 0 -6.166-15.568c-9.374-5.693-12.885-17.178-8.169-26.715 2.969-6 8.52-9.568 14.883-11.154 1.516-.378 19.578-2.14 19.349-.692-5.784 36.553-16.727 72.1-21.614 108.82-1.055 7.926 6.136 14.976 13.847 15.056h.154c7.146 0 12.845-5.323 13.859-12.945q.874-6.561 2.006-13.14c1.17 5.629 3.282 11.268 7 15.415a18.5 18.5 0 0 0 14.1 6.369 23.371 23.371 0 0 0 12.772-3.955c.608-.4 7.275-4.841 6.772-5.433a20.964 20.964 0 0 0 15.962 7.589 20.049 20.049 0 0 0 7.836-1.616 42.644 42.644 0 0 0 3.679 3.8 14.542 14.542 0 0 0 19.386-2.892c2.9-3.772 3.3-9.419 2.995-14.006 2.626 4.688 7.677 9.5 12.1 12.478 14.1 9.486 27.423 0 35.958-11.574-.885 1.2 11.934 7.923 13.186 8.4a35.332 35.332 0 0 0 37.235-7.962 32.108 32.108 0 0 0 9.335-23.092 13.943 13.943 0 0 0 -14.062-13.739z" fill="#2f2f51"/><path d="m428.5 392.932c-3.519-3.777-7.176-7.468-10.528-11.394-.061-.072 2.319-4.942 2.515-5.445.864-2.217.439-4.239.389-6.617-.1-4.952-.576-19.869-1.44-21.519a7.382 7.382 0 0 0 -6.348-3.974c-1.53-.056-3.8.3-5.244-.172-2.325-.764-1.55-1.056-.674-3.6 1.458-4.233 2.877-8.542 4.383-12.719 1.449-4.019 1.207-7.324 1.207-11.544a36.516 36.516 0 0 1 1.653-13.414c1.145-3.321 6.154-15.757 6.26-18.537a125.2 125.2 0 0 0 -1.353-23.539 7.084 7.084 0 0 0 -7.144-6.184c-18.176.726-46.56-.774-59.264-.774a7.243 7.243 0 0 0 -6.224 3.447c-1.545 2.512-5.076 15.916-6.689 18.944-3.055-3.007-4.63-8.023-7.946-11.285a33.577 33.577 0 0 0 -10.343-6.87c-7.359-3.157-15.5-3.881-23.43-3.881-9.344 0-18.651.879-28 .775-3.951-.044-8.245-.842-10.842 2.9-4.715 6.8-6 16.5-8.936 24.171-1.047 2.734-2.726 5.593-2.626 8.608q.352 10.291.546 20.635c-3.695-14.408-7.9-28.677-12.245-42.847-2.843-9.271-4.676-12.521-8.51-12.521 0 0-10.222.051-14.457.135-3.168.063-7.5-.6-10.356 1.109-5.039 2.873-5.793 8.929-7.59 14.123-9.162 26.483-16.725 53.443-24.632 80.325-.155-.314-3.52-7.143-5.05-10.243-2.217-4.493-8.732-5.5-12.569-2.234-3.774 3.206-8.829 3.88-12.405 3.88a32.914 32.914 0 0 1 -11.285-2.077c-5.539-2.081-9.119-8.28-9.8-13.939-.728-6.08 4.747-7.563 10.024-7.563a13.666 13.666 0 0 1 10.943 5.171 7.266 7.266 0 0 0 5.7 2.8c3.616 0 15.4-9.651 18.63-12.409 3.87-3.3 5.01-8.021 6.576-12.65 1.585-4.685 3.093-9.4 4.758-14.062 1.312-3.671 3.548-7.713 1.2-11.453a42.94 42.94 0 0 0 -11.471-12.17 45.774 45.774 0 0 0 -17.158-7.393 50.687 50.687 0 0 0 -10.388-1.075 54.037 54.037 0 0 0 -24.554 5.981c-13.7 7.031-24.345 20.324-29.265 36.5-2.842 9.344-6.78 18.327-9.574 27.684-8.6 28.793 1.788 67.712 33.556 80.38a52.976 52.976 0 0 0 19.439 3.742c10.292 0 18.68-3.471 27.486-8.341-.264.146 1.843 3.8 2.093 4.084a7.492 7.492 0 0 0 5.446 2.491l23.988.48h.156a7.3 7.3 0 0 0 5.42-2.34c2.781-3 3.432-7.4 4.252-11.249.8-3.749 2.452-7 3.788-10.572.829-2.215.426-2.172 2.723-2.532a18.024 18.024 0 0 1 5.418.041c1.076.127 1.4 1.864 1.7 3.033 1.323 5.121 3.857 14.391 4.59 18.383a7.6 7.6 0 0 0 7.342 6.216l23.314.33h.111a7.4 7.4 0 0 0 4.428-1.465 7.424 7.424 0 0 0 4.856 1.934c7.659.162 16.765 1.835 24.286.33 5.848-1.156 8.121-6.733 8.986-12.02a143.214 143.214 0 0 0 7.837 12.322c9.924 13.618 22.128 23.969 36.273 30.767a82.861 82.861 0 0 0 35.709 8.205 72.8 72.8 0 0 0 48.825-18.163c6.593-3.484 5.594-13.065 8.055-18.979 2.358-5.657 8.879-14.368 3.479-20.161zm-101.434-44.451a57.582 57.582 0 0 0 3.9-8.522c.356-.982.671-1.97.967-2.959.21-.531.417-1.064.611-1.6.356-.982.67-1.969.966-2.958.21-.531.417-1.064.612-1.6.355-.982.67-1.969.966-2.958.21-.531.417-1.064.612-1.6.355-.982.67-1.969.966-2.958.062-.156.119-.314.18-.471q.343 20.748.689 41.5a91.472 91.472 0 0 1 -10.469-15.874z" fill="#fa5d53"/><path d="m363.538 203.53c.137 12.968-15.136 16.466-24.227 9.726a20.775 20.775 0 0 1 -7.687-11.441c13.367-1.085 27.076-8.119 33.113-20.268 6.867-13.82-2.157-31.509-18.821-28.774-16.2 2.66-25.72 22.671-27.141 37.374-.112 1.161-.165 2.325-.173 3.488a6.277 6.277 0 0 0 -1.335 2.262 70.35 70.35 0 0 1 -7.305 15.1c-1.764 2.748-6.115 10.728-9.987 10.654-3.8-.072-7.34-7.636-9.028-10.24l-6.356-9.8c8.661-3.157 16.926-8.18 22.911-15.007 7.366-8.4 9.585-22.343-2.847-27.381-10.084-4.087-19.762 2.408-26.774 9.507 1.875-6.423 3.933-12.8 6.123-19.13a65.9 65.9 0 0 0 23.847-9.382c11.9-7.663 23.149-20.071 26.164-34.281 2.985-14.063-6.142-31.829-22.685-28.674-16.469 3.14-21.367 23.327-26.643 36.588-3.258 8.19-6.451 16.44-9.457 24.757-14.863.649-29.09-5.459-42.016-12.323-25.757-13.677-54.5-33.028-84.873-21.7-15 5.593-25.762 18.414-27.5 34.506-1.69 15.688 6.528 30.722 19.852 38.815 6.618 4.019 12.655-6.354 6.057-10.362-12.642-7.678-17.84-23.647-11.187-37.1 6.667-13.478 22.128-17.96 36.178-17.031a60.967 60.967 0 0 1 14.194 2.773c-5.365 39.021-17.453 76.768-22.654 115.835-.431 3.24 3.067 5.969 6 6 3.6.038 5.574-2.8 6-6 5-37.571 16.379-73.934 22.014-111.4 7.3 3.365 14.34 7.441 21.169 11.257 14.991 8.377 30.568 16.561 47.905 18.413 1.558.167 3.121.259 4.686.3-2.532 7.579-4.865 15.217-6.912 22.92a220.615 220.615 0 0 1 -16.1 37.7c-1.338 2.457-2.622 5.5-4.656 7.471-3.106 3.014-3.361-1.714-3.571-4.315a72.99 72.99 0 0 1 .95-17.928c.295-.62.594-1.237.878-1.864a6.144 6.144 0 0 0 -.682-6.387c-2.35-4.221-9.743-4.929-11 1.006-.25 1.175-.492 2.375-.723 3.592a101.418 101.418 0 0 1 -15.172 22.5 43.624 43.624 0 0 1 -4.973 5.074c-1.936 1.541-2.1 1.481-3.228-.422-2.264-3.833-2.141-9.791-2.114-14.074a58.015 58.015 0 0 1 8.58-29.773c2.628-4.291 6.161-8.808 11.254-10.161 3.217-.854 11.06.817 8.74 5.95-3.156 6.982 7.182 13.09 10.362 6.057 3.233-7.153 1.734-15.154-4.436-20.289-6.238-5.193-15.327-5.05-22.337-1.562-14.882 7.407-22.048 27.625-23.751 43.059-1.226 11.1.141 39.333 18.586 33.868 7.214-2.137 12.793-10.065 17.156-15.679.029-.037.056-.074.084-.111.166 1.086.364 2.16.617 3.214 2.23 9.3 12.053 14.947 20.477 9.08a27.192 27.192 0 0 0 6.824-7.3c-.171 2.839-.29 5.687-.339 8.546-.133 7.725 11.867 7.726 12 0a196.219 196.219 0 0 1 1.676-22.009 5.55 5.55 0 0 0 1.7-3.011c.173-.764.368-1.518.567-2.271 4.315 6.775 8.486 13.74 13.207 20.213 3.934 5.393 9.2 10.268 16.318 9.872 7.4-.412 12.409-6.911 16.448-12.391a74.887 74.887 0 0 0 5.673-9.022 31.549 31.549 0 0 0 17.707 15.238c16.448 5.526 34.871-5.915 34.681-23.862-.089-7.707-12.089-7.727-12.008.01zm-63.82-95.13c2.554-6.344 5.1-15.72 11.982-18.766 7.291-3.229 11.655 5.318 11 11.468-.726 6.861-4.929 13.571-9.371 18.678a55.825 55.825 0 0 1 -24.445 16.293q.8-2.137 1.606-4.27c2.989-7.832 6.096-15.62 9.228-23.403zm-19.468 76.041c3.656-5.194 9.6-12.7 16.124-14.271 2.893-.7 6.038.117 5.23 3.608-.752 3.251-4.055 6.046-6.484 8.105a49.859 49.859 0 0 1 -19.241 9.889 56.859 56.859 0 0 1 4.371-7.331zm54.3-6.344c2.551-5.151 6.43-11.752 12.417-13.316 5.257-1.374 8.923 2.459 8.275 7.706-.78 6.311-7.016 11.179-12.222 13.923a31.048 31.048 0 0 1 -12.053 3.42 38.236 38.236 0 0 1 3.587-11.73z" fill="#ffc533"/><path d="m225.56 264.32-18.71.36c-9.043 30.764-26.949 90.727-31.031 104.4a2.234 2.234 0 0 0 2.1 2.872q7.867.16 15.724.309a2.016 2.016 0 0 0 1.994-1.5c2.106-8.07 5.516-19.127 6.8-23.249a2.245 2.245 0 0 1 2.227-1.574l20.645.753a2.336 2.336 0 0 1 2.187 1.773c1.042 4.209 3.749 15.306 5.285 23.138a2.168 2.168 0 0 0 2.1 1.75q7.859.115 15.723.219a2.05 2.05 0 0 0 2.03-2.493c-2.968-13.421-17.153-76.247-27.074-106.758zm-2.93 65.29c-4.72 0-9.44-.1-14.16-.15-1.36-.02-1.613-1.942-1.553-2.252a198.9 198.9 0 0 1 7.4-26.888c.38-1.09 2.16-1.64 2.74-.36a81.437 81.437 0 0 1 7.15 28.18c.063.87-.582 1.47-1.577 1.47zm-112.57-12.58c-.31 12.11 2.53 26 14.67 31.33 9.505 4.179 22.071 4.717 31.183-.736a2.411 2.411 0 0 1 3.382 1.031q2.885 5.855 5.768 11.717a2.094 2.094 0 0 1 -.655 2.638c-11.362 8-36.963 12.528-50.619 3.45-14.15-9.4-21.99-26.24-23.17-42.85-1.21-17.01 4.57-35.19 17.31-46.9 12.96-11.91 32.57-15.63 48.5-7.73a1.809 1.809 0 0 0 .32.22 33.648 33.648 0 0 1 10.962 9.208 1.808 1.808 0 0 1 -.4 2.586q-5.163 3.631-10.067 7.6a1.95 1.95 0 0 1 -2.565-.1c-7.138-6.69-18.112-7.848-26.914-3.357-11.795 6.023-17.365 19.193-17.705 31.893zm246.467 50.909q-.849-50.495-1.682-101.005a4.17 4.17 0 0 1 4.412-4.228q24.685 1.366 49.4.618a1.548 1.548 0 0 1 1.583 1.312c.434 2.819 1.052 12.348 1.245 16.043a1.482 1.482 0 0 1 -1.4 1.559c-11.193.562-22.334-.477-33.545-.477-1.228 0-2 .58-1.92 1.51a123.171 123.171 0 0 1 .22 17.84 2.212 2.212 0 0 0 2.46 2.49c8.041-.075 16.045-.216 24.068.218a2.181 2.181 0 0 1 2.056 2.142c.072 4.2.187 10.928.179 14.4a2.3 2.3 0 0 1 -2.253 2.293q-12.575.248-25.15-.148a1.963 1.963 0 0 0 -1.77 2.09l-.19 25.71a1.467 1.467 0 0 0 1.3 2.16q16.863-.341 33.708.208a2.009 2.009 0 0 1 1.939 1.913q.315 6.661.635 13.312a2.563 2.563 0 0 1 -2.552 2.685c-8.117.028-32.542.364-47.815 1.775a4.514 4.514 0 0 1 -4.928-4.42zm53.666 18.349a3.414 3.414 0 0 0 -4.494-.426c-15.93 11.379-37.136 10.864-54.169 1.548-19.79-10.82-30.912-30.144-39.408-50.412-.867-2.069.132-3.158 1.357-3.958 17.492-11.416 27.56-36.54 16.9-55.9-11.77-21.378-39.73-13.237-60.195-13.59a3.64 3.64 0 0 0 -3.689 3.762c.94 30.59-.065 91.208-.3 104.291a2.53 2.53 0 0 0 2.475 2.578c4.288.089 11.694.18 15.652.194a2.568 2.568 0 0 0 2.573-2.671q-.625-15.972-1.267-31.935a1.477 1.477 0 0 1 1.571-2.036c.915 0 6.709-.844 7.029.356 7.19 27.62 23.17 53.32 48.92 66.97 23.69 12.561 53.483 11.9 74.6-4.947a3.642 3.642 0 0 0 .359-5.318q-3.958-4.253-7.915-8.506zm-122.443-68.548a1.474 1.474 0 0 1 -.92-2.06 1.427 1.427 0 0 1 -.04-.42q.6-14.67.25-29.34a1.385 1.385 0 0 1 1.53-1.44c6.5-1.39 13.86-2.75 19.84 1.1 5.1 3.29 6.54 9.35 5.69 15.09a20.673 20.673 0 0 1 -26.35 17.07z" fill="#efeae1"/><path d="m147.834 392.367a2.143 2.143 0 0 0 -1.767-1.055c-5.991-.145-11.993 2.067-17.988 2.475-6.2.421-12.167-.847-17.158-4.652-1.1-.836-2.511 1.006-1.477 1.914 4.241 3.725 10.528 6.076 17.094 6.965a56.306 56.306 0 0 1 -7.24.21c-9.675-.324-18.3-5.947-24.343-13.212-1-1.2-2.654.51-1.706 1.706 6.468 8.164 15.452 13.208 25.478 15.728 9.017 2.266 21.868.8 28.618-6.105.955-.976 1.295-3.053.489-3.974z" fill="#2f2f51"/><path d="m189.973 388.148a15.578 15.578 0 0 1 -1.848 4.56c-2.494 3.537-6.3 4.466-10.785 4.03-1.354-.131-1.682 2.174-.324 2.394a18.271 18.271 0 0 0 8.637-.592 3.167 3.167 0 0 1 -.629.346c-3.834 1.518-8.972 1.037-13.024 1.138a1.213 1.213 0 0 0 0 2.425c3.008.163 6.026.2 9.032.392 2.038.127 4.861 1.064 6.835-.03 1.512-.839 2.158-2.59 2.555-4.15.821-3.229 1.3-6.571 2.07-9.818a1.307 1.307 0 0 0 -2.519-.695z" fill="#2f2f51"/><path d="m414.006 419.185c-3.083-.383-5.56 2.492-7.863 4.057-8.081 5.494-16.371 9.574-26.14 10.819-1.5.191-1.6 2.515 0 2.425a81.487 81.487 0 0 0 18.542-3.406c.562-.167 1.111-.36 1.66-.554a56.081 56.081 0 0 1 -8.563 4.486 56.784 56.784 0 0 1 -24.162 3.951c-1.346-.068-1.7 2.2-.324 2.394a57.51 57.51 0 0 0 26.425-2.257c7.468-2.472 17.7-6.954 21.718-14.147a2.425 2.425 0 0 0 .233-.606l.186-.076a2.824 2.824 0 0 0 1.99-2.614c-.024-2.404-1.121-4.151-3.702-4.472z" fill="#2f2f51"/><path d="m283.67 384.075a54.02 54.02 0 0 0 -2.554 6.7c-3.15 3.967-7.071 7-12.407 5.859-1.509-.322-2.156 1.941-.641 2.326a15.484 15.484 0 0 0 9.783-.731c-3.891 5.731-10.819 3.452-16.857 4.173-1.519.181-1.57 2.572 0 2.425 6.043-.566 13.63 2 19-1.983 5.558-4.126 3.566-11.819 5.942-17.445.64-1.511-1.504-2.871-2.266-1.324z" fill="#2f2f51"/><g fill="#009995"><path d="m136.821 225.234c-2.821-3.94-5.9-7.729-8.6-11.751-2.823-4.2-4.918-8.776-7.977-12.851-2.9-3.867-6.022-7.571-9.273-11.149-3.385-3.726-6.61-8.022-11.575-9.478-4.25-1.247-9.046 3.072-7.5 7.5 1.656 4.73 5.4 7.434 8.968 10.793 3.544 3.342 7.041 6.741 10.635 10.029s7.726 6.009 11.188 9.427a119.29 119.29 0 0 1 9.367 11.157c2.12 2.672 6.771-.877 4.767-3.677z"/><path d="m119.89 232c-3.25-2.081-6.117-4.824-9.444-6.739a44.748 44.748 0 0 0 -10.709-4.085c-6.7-1.79-16.3-4.312-23-1.823-4.339 1.612-6.555 8.6-1.437 10.995 6.295 2.948 14.033 2.576 20.842 3.857 3.543.666 7.069 1.542 10.653 1.965 3.674.433 7.114.39 10.732 1.428 3.415.977 5.241-3.756 2.363-5.598z"/><path d="m98.228 248.852c-7.026 3.57-16.685 4.7-21.316 11.746-2.9 4.408 1.871 8.971 6.282 8.171 4.046-.734 7.265-3.971 10.225-6.649 2.993-2.709 5.408-5.893 8.5-8.483 2.776-2.323-.758-6.275-3.691-4.785z"/><path d="m430.943 198.83c-7.593.727-15.153 6.188-21.2 10.621-6.593 4.831-11.458 10.445-16.623 16.7-2.085 2.525.583 6.909 3.749 4.859 6.105-3.952 12.863-7.16 19.242-10.665 6.114-3.359 14.272-5.879 19.341-10.633 3.797-3.561 1.072-11.412-4.509-10.882z"/><path d="m427.022 234c-3.559.117-6.947 1.074-10.505.264-3.29-.749-5.8 4.17-2.42 5.74 4.259 1.977 9.361 3.7 14.018 2.067 4.163-1.465 3.791-8.234-1.093-8.071z"/><path d="m414.482 168.338c-1.105-5.629-8.368-5.325-11.138-1.456-3.266 4.563-3.784 11.445-5.1 16.829-1.411 5.754-1.978 11.664-3.428 17.387-.892 3.521 3.593 5.041 5.569 2.348 3.943-5.376 7.636-10.1 10.217-16.328 2.416-5.842 5.129-12.418 3.88-18.78z"/></g><path d="m381.4 132.12c-.907-8.93 5.92-15.579 12.774-20.091a1 1 0 0 0 -.629-1.879c-8.6.782-17.777 1.394-25.016-4.169a1.062 1.062 0 0 0 -1.624 1.067c2.247 9.065-3.272 15.32-11.383 21.007-.917.643-1.021 3.283 1.221 2.771.42-.1 5.767-1.945 7.163-2.086a21.846 21.846 0 0 1 15.954 4.391c.74.588 1.62-.231 1.54-1.011z" fill="#ffc533"/><path d="m264.99 94.132a14 14 0 0 1 -13.89-7.594 1.857 1.857 0 0 0 -3.435.93 17.081 17.081 0 0 1 -6.933 14.274c-1.855 1.406-.076 4.593 1.861 3.184a18.169 18.169 0 0 1 16.752 10.532c.973 1.977 4.145.591 3.533-1.489a17.452 17.452 0 0 1 3.422-16.664c.946-1.113.435-3.305-1.31-3.173z" fill="#ffc533"/></svg>