<svg id="Layer_1" height="512" viewBox="0 0 512 512" width="512" xmlns="http://www.w3.org/2000/svg" data-name="Layer 1"><path d="m260.755 187.485c1.589-1.024 3.153-2.108 4.685-3.268 9.845-7.453 19.584-16.3 26.054-26.923 13.524-22.211 11.1-50.728-9.987-67.223-22.1-17.288-52.448-14.79-76.846-3.946-23.58 10.48-41.462 31.375-43.8 57.583-2.17 24.36 15.528 52.127 41.212 54.7 5.651.566 10.5-5.231 10.5-10.5 0-6.149-4.833-9.932-10.5-10.5 3.135.314-.707-.346-1.49-.6-.124-.041-.209-.066-.276-.083l-.393-.2c-.647-.326-1.288-.658-1.92-1.015a30.833 30.833 0 0 1 -7.675-5.947 30.2 30.2 0 0 1 -8.646-21.18c-.173-18.1 11.977-32.69 27.223-41 15.9-8.667 38.209-13.329 54.815-4.08 14.7 8.185 19.234 24.345 11.872 39.367-4.358 8.893-11.778 15.822-19.251 22.14a63.255 63.255 0 0 1 -9.443 6.671q8.822-21.37 17.675-42.727c2.176-5.24-2.351-11.547-7.334-12.916-6.041-1.66-10.732 2.074-12.916 7.334q-11.727 28.245-23.379 56.522-5.637 13.682-11.256 27.372-2.809 6.845-5.614 13.692c-1.929 4.708-4.414 9.366-2.967 14.58 2.471 8.907 13.543 12.414 21.691 13.625a43.619 43.619 0 0 0 26.534-4.178c14.9-7.611 23.2-25.692 19.556-41.949a33.612 33.612 0 0 0 -8.124-15.351zm-12.581 27.723a17.951 17.951 0 0 1 -10.122 11.78 21.473 21.473 0 0 1 -9.427 1.568 20.851 20.851 0 0 1 -4.8-1.029l1.611-3.933q2.993-7.3 5.991-14.6 2.375-5.782 4.756-11.562c8.658.568 14.584 8.437 11.991 17.776z" fill="#009995"/><path d="m344.48 206.412c-9.511 4.936-21.363 9.259-32.246 7.919-4.741-.584-7.95-2.613-11.256-6.053a26.1 26.1 0 0 1 -2.445-3.677 2.653 2.653 0 0 0 -.107-.4 47.937 47.937 0 0 0 18.157 2.806c9.859-.394 20.434-2.506 27.17-10.288 7.7-8.9 9.415-21.758.662-30.677-7.9-8.053-20.739-8.616-31.225-7.142-16.926 2.378-32.047 14.707-35.6 31.762-3.276 15.706 3 30.171 16.468 38.948 17.966 11.706 43.044 4.289 60.515-4.779 12.027-6.241 1.894-24.641-10.093-18.419zm-25.014-27.13a33.019 33.019 0 0 1 8.451.764c1.648.357 1.384.419 1.357.968-.206 4.072-8.71 4.83-12.444 4.993a28.462 28.462 0 0 1 -11.7-1.816 25.168 25.168 0 0 1 14.335-4.909z" fill="#009995"/><path d="m128.02 287.849c-4.427 16.045-5.823 32.851-5.264 49.444.251 7.451.839 14.9 1.775 22.3.5 3.943.8 8.2 2.425 11.874 2.667 6.053 8.586 9.87 15.263 8.3 7.136-1.68 11.292-7.687 14.555-13.786q8.071 5.883 16.681 10.932c-4.047 9.217-8.6 18.571-16.212 25.359-8.828 7.877-20.552 10.507-31.4 5.088-21.024-10.5-26.444-39.276-27.766-60.405-1.394-22.279.116-46.065 5.36-67.8 4.863-20.153 15.422-42.3 35.436-51.189 11.342-5.036 25.59-4.183 34.76 4.751 7.851 7.649 10.854 18.867 13.369 29.275q-11.363 5.4-22.875 10.468c-.891-5.217-1.266-10.062-6.207-13.683-4.6-3.368-10.2-2.745-14.688.52-8.588 6.25-12.532 18.83-15.212 28.552zm134.8 47.026c.095 20.792-4.33 45.638-25.627 54.981-22.187 9.734-39.254-10.618-43.618-30.421-4.6-20.866-4.028-45.21 5.083-64.747 3.415-7.322 7.826-14.907 14.749-19.423 7.922-5.167 17.8-4.612 25.621.424 19.11 12.311 23.472 38.362 23.788 59.186zm-21.971-27.655c-2.188-7.913-11.37-17.2-19.8-11.178-8.1 5.782-9.552 18.515-10.491 27.546a131.549 131.549 0 0 0 -.559 25.77c.565 6.061 1.677 12.68 5.958 17.333 4.05 4.4 10.7 6.634 16.2 3.6 5.467-3.016 7.6-9.505 8.789-15.241 2.817-15.191 4.076-32.742-.097-47.83zm109.943-1.657c.125 12.277-.509 24.752-3.084 36.781-3.91 18.262-12.3 48.461-35.247 49.85-12.992.786-22.917-8.1-27.251-19.762-4.382-11.786-3.458-24.889-2.88-37.218 1.163-24.787 5.673-51.161 23.455-69.878 4.466-4.7 10.405-9.823 17.242-10a21.859 21.859 0 0 1 14 4.826c5.45 4.348 9.006 10.917 10.959 17.519 2.454 8.967 2.714 18.64 2.806 27.882zm-14.367-3.239c-.794-8.042-2.374-20.664-12.7-21.275-11.141-.659-16.628 13.055-19.677 21.612-5.048 14.165-8.472 31.157-5.953 46.089 1.245 7.381 4.925 16.936 13.32 18.465 8.3 1.511 13.742-6.252 16.643-12.853a1.8 1.8 0 0 1 .238-.563c6.557-16.034 9.837-34.188 8.129-51.475zm62.954 71.193a2.4 2.4 0 0 1 -2.357-2.357q-.717-71.984-1.435-143.968a101.8 101.8 0 0 1 -23.4 1.5q.075 6.692.168 13.384c.759 54.452 1.292 109.1 5.006 163.446a274.037 274.037 0 0 1 47.8-3.165q1.011-14.644 1.1-29.322-13.43.847-26.882.482z" fill="#efeae1"/><path d="m454.034 392.633c-.852-1.751-21.951-22.258-22.909-23.092-.874-.76-1.531-1.424-2.481-1.357-.84.06-3.024.149-3.291.159-.016-.665-.078-11.149-.133-15.786-.132-11.307-.334-22.614-.536-33.92-.242-13.6-.338-27.212-.474-40.818-.054-5.382-.27-10.792-.146-16.172.088-3.845.851-7.772.225-11.6-.917-5.614-6.745-9.239-10.567-13.092-2.561-2.582-11.388-12.067-13.623-13.439a2.43 2.43 0 0 0 -2.81-1.432c-.747.156-1.494.29-2.241.428a43.7 43.7 0 0 0 -4.824.778 98.2 98.2 0 0 1 -20.421.559 2.428 2.428 0 0 0 -2.357 2.357q.3 29.465.879 58.933c-2-2.451-18.111-18.8-24.032-24.525-.92-.89-1.881-1.75-2.878-2.568-6.344-5.208-13.339-9.089-21.857-7.072-7.948 1.882-14.972 8.03-20.012 14.2a88.45 88.45 0 0 0 -12.663 21.4c-1.679 4-7.52 23.938-6.986 24.793-7.84-12.552-33.548-36.048-35.34-37.472-7.363-5.851-16.827-8.624-26.072-6.065a26.491 26.491 0 0 0 -6.684 2.919 61.611 61.611 0 0 0 -3.55-6.952c-3.542-6.878-9.027-11.97-14.26-17.542-5.627-5.992-11.237-12.4-17.61-17.368-6.561-5.115-14.265-8.572-22.68-8.713a43.227 43.227 0 0 0 -21.549 5.537c-10.2 5.7-17.677 15.185-23.055 25.381a95.644 95.644 0 0 0 -6.4 14.046c-3.791 10.468-5.67 21.477-7.283 32.475-.793 5.409-3.177 34.622-1.913 51.46 1.493 19.893 6.376 42.055 21.641 56.683.783.75 14.019 14.838 20.294 20.557 5.475 4.989 11.686 9.667 18.99 11.511 16.659 4.2 31.219-7.119 39.521-20.6 2.643-4.29 9.842-13.566 7.723-19-1.4-3.578-23.5-24.018-24.043-24.33-1.029-.589-14.073-8.911-19.763-12.955-1.591-1.131-3.424-.443-4.464 1.322-.627 1.064-1.265 2.318-2.05 3.579a178.518 178.518 0 0 1 1.841-39.354c2-11.82 5.026-24.669 11.877-34.728.944-1.387 2.243-3.58 3.758-4.388 1.283-.684 3.138.794 3.712 1.286a98.918 98.918 0 0 1 8.824 9.147c2.193 2.431 3.56 3.7 7.023 3.107a25.241 25.241 0 0 0 3.014-.721c-6.124 17.85-6.284 37.66-3.2 56.2.006.035.013.07.019.105.076.453.162.907.249 1.362q.057.3.116.608c1.675 8.662 4.667 16.982 10.2 24.029 4.451 5.668 9.933 10.437 14.834 15.7 4.669 5.013 9.246 10.157 14.654 14.4 10.092 7.918 22.236 10.416 34.246 5.263 13.325-5.717 21.4-17.779 25.375-31.179 1.08 1.064 2.244 2.055 3.211 3.05 2.943 3.027 5.788 6.15 8.724 9.185 6.956 7.19 14.421 16.176 24.041 19.776 13.435 5.028 27.275-.5 35.858-11.391 5.308-6.737 8.948-15 11.694-23.431.414 3.88.8 18.219 1.242 21.708a17.452 17.452 0 0 0 1.916 5.024 171.678 171.678 0 0 0 20.735 21.01c3.991 3.5 8.468 1.778 13.165 1.191 3.892-.486 32.29-2.331 42.527-2.049a2.406 2.406 0 0 0 2.357-2.357q1.268-17.085 1.28-34.215a2.424 2.424 0 0 0 -.608-1.545z" fill="#2f2f51"/><path d="m100.54 224.588c-.214 2.674 3.978 3.164 4.63.627 4.9-19.087 20.889-34.99 38.574-42.866 1.755-.782 1.3-3.174 0-4.07-8.109-5.607-16.749-12.239-18.639-22.506-1.615-8.772-.776-18.064.247-26.873a2.385 2.385 0 0 0 .055-.62 1.9 1.9 0 0 0 -1.989-2.066 2.222 2.222 0 0 0 -2.644 1.611c-5.171 18.017-15.916 39.011-37.626 37.794-2.454-.138-3.044 3.2-1.19 4.392 17.717 11.378 20.119 35.367 18.582 54.577z" fill="#2f2f51"/><path d="m377.028 184.242c9.307.61 18.5 4.235 24.906 11.185 6.668 7.23 10.129 17.17 13.556 26.2a2.359 2.359 0 0 0 4.546-1.253c-2.815-18.267 1.268-40.932 20.821-48.076 2.34-.855 2.2-4.781-.627-4.63-10.446.559-21.01-3.031-26.817-12-5.109-7.893-8.25-16.832-11.9-25.441a2.1 2.1 0 0 0 -.309-.7 1.868 1.868 0 0 0 -2.649-.884 2.153 2.153 0 0 0 -1.683 2.182c-.005 9.373.42 19.274-1.292 28.526-1.749 9.455-11.806 16.327-19.737 20.507-2.204 1.151-1.005 4.242 1.185 4.384z" fill="#2f2f51"/><path d="m171.314 237.649c-3.234-6.179-12.073-6.839-18.314-6.649a34.52 34.52 0 0 0 -20.084 6.943c-5.714 4.3-10.014 10.438-14.158 16.2-4.387 6.1-8.257 12.491-10.509 19.7-.762 2.437 2.975 3.421 3.8 1.047 4.115-11.888 12.891-21.272 23.019-28.41 4.455-3.14 9.392-6.231 14.993-6.584 6.575-.415 8.947 4.439 14.432 6.637 5.255 2.108 9.025-4.672 6.821-8.884z" fill="#009995"/><path d="m109.968 281.878a2.207 2.207 0 0 0 -3.671.969c-.041.241-.083.484-.125.725.011-.09-.064.262-.1.377-.022.071-.047.141-.072.211-.025.044-.047.09-.074.132a2.589 2.589 0 0 0 .1 3.5c.927.851 2.748 1.128 3.637 0a5.281 5.281 0 0 0 1.308-3.015 4.022 4.022 0 0 0 -1.003-2.899z" fill="#009995"/><path d="m195.855 318.075a51.494 51.494 0 0 0 -1.435 10.925c-.052 2.6 3.637 2.442 3.938 0a81 81 0 0 1 1.8-9.743c.695-2.784-3.643-3.974-4.303-1.182z" fill="#009995"/><path d="m239.129 282.7c-6.958-7.255-17.346-6.6-25.081-1.179-8.7 6.1-12.53 15.261-14.909 25.327a1.97 1.97 0 0 0 3.8 1.047c2.337-7.149 5.364-14.325 11.436-19.109a14.366 14.366 0 0 1 18.222.449c4.43 3.916 10.685-2.203 6.532-6.535z" fill="#009995"/><path d="m296.342 289.043a2.455 2.455 0 0 0 -2.941 1.67 11.964 11.964 0 0 0 -1.029 4.29 1.991 1.991 0 0 0 3.361 1.392 13.308 13.308 0 0 0 2.278-4.411 2.4 2.4 0 0 0 -1.669-2.941z" fill="#009995"/><path d="m318.181 262.542c-9.04 4.686-14.6 11.345-19.613 20.089-1.264 2.2 1.957 4.01 3.365 1.967 3.563-5.169 7.863-11.266 14.1-13.414 2.862-.986 5.352-.328 8.009.881 1.96.891 5.595 2.127 7.109 3.6 2.823 2.738 8.353.881 8.128-3.367-.615-11.516-11.887-14.53-21.098-9.756z" fill="#009995"/><path d="m378.459 276.333a58.836 58.836 0 0 1 -.145 6.659 1.972 1.972 0 0 0 1.724 1.953 2.029 2.029 0 0 0 2.182-1.425 19.363 19.363 0 0 0 1.341-7.188c.004-3.289-5.229-3.279-5.102.001z" fill="#009995"/><path d="m380.651 233.654c-3.166 4.707-2.909 11.076-2.709 16.55a112.765 112.765 0 0 0 1.75 16.33c.354 1.908 3.466 1.888 3.836 0 .935-4.775 1.316-9.647 1.885-14.474.643-5.454 2.676-10.916 2.725-16.377.037-4.177-5.345-5.214-7.487-2.029z" fill="#009995"/><path d="m155.857 427.394c-3.91-3.084-7.79-6.219-11.7-9.294-1.295-1.017-3.059.6-1.856 1.856a81.036 81.036 0 0 0 11.662 9.9c1.437 1.011 3.294-1.356 1.894-2.462z" fill="#fa5d53"/><path d="m165.357 427.143a131.341 131.341 0 0 0 -16.97-11.733 1.314 1.314 0 0 0 -1.325 2.267 107.13 107.13 0 0 1 15.587 12.175c1.823 1.704 4.591-1.169 2.708-2.709z" fill="#fa5d53"/><path d="m243.038 408.636c-3.811-2.815-7.6-5.661-11.4-8.493-1.184-.883-2.745 1.119-1.591 2.061 3.67 3 7.351 5.983 11.007 9a1.627 1.627 0 1 0 1.984-2.568z" fill="#fa5d53"/><path d="m255.284 410.484c-5.277-4.9-11.5-8.956-17.283-13.223-1.21-.892-2.65 1.047-1.591 2.061 5.225 5 10.319 10.4 16.082 14.779 2.089 1.59 4.686-1.858 2.792-3.617z" fill="#fa5d53"/><path d="m325.243 408.256a97.672 97.672 0 0 0 -11.485-9.5c-1.184-.876-2.668 1.064-1.574 2.04 3.611 3.225 7.008 6.683 10.616 9.907 1.649 1.469 4.021-.854 2.443-2.447z" fill="#fa5d53"/><path d="m338.816 409.685c-2.307-2.3-5.322-4-7.962-5.9-2.83-2.039-5.675-4.057-8.495-6.111-1.237-.9-2.714 1.073-1.623 2.1 2.544 2.4 5.1 4.8 7.726 7.107 2.442 2.148 4.843 4.656 7.66 6.293a2.233 2.233 0 0 0 2.694-3.489z" fill="#fa5d53"/><path d="m401.683 421.067c-3.519-3.586-7.784-6.621-11.609-9.884-1.271-1.084-3.054.631-1.856 1.856 3.585 3.665 7.249 7.673 11.437 10.657 1.581 1.126 3.325-1.308 2.028-2.629z" fill="#fa5d53"/><path d="m448.11 413.4q-1.6-1.34-3.239-2.635c1.571.326 3.428-1.32 2.248-2.9-3.389-4.539-8.27-8.07-12.822-11.36-1.222-.883-2.709 1.075-1.607 2.082 3.6 3.295 6.654 7.134 10.1 10.564-2.495-1.915-5.03-3.783-7.558-5.625-1.251-.912-2.736 1.081-1.639 2.124 3.795 3.61 7.644 7.25 11.681 10.59 1.968 1.637 4.826-1.167 2.836-2.84z" fill="#fa5d53"/><path d="m189.079 288.254c-4.531-4.388-9.9-8.146-15.028-11.8-1.216-.865-2.768 1.121-1.607 2.082 4.809 3.982 9.145 8.409 13.793 12.556 1.919 1.714 4.715-1.024 2.842-2.838z" fill="#fa5d53"/><path d="m416.716 251.965a47.675 47.675 0 0 0 -11.776-11.035c-1.329-.826-2.571.991-1.607 2.082 3.48 3.94 7.274 7.627 10.788 11.547 1.611 1.798 4.016-.785 2.595-2.594z" fill="#fa5d53"/><g fill="#ffc533"><path d="m184.972 104.972a40.875 40.875 0 0 0 -6.4 8.984 1.106 1.106 0 0 0 1.908 1.115 67.857 67.857 0 0 1 6.531-8.063c1.255-1.355-.756-3.383-2.039-2.036z"/><path d="m248.857 84.442c-18.97-3.23-40.051 3.3-55.513 14.211-1.145.808-.093 2.692 1.115 1.908a71.208 71.208 0 0 1 25.841-10.534c9.543-1.771 18.258-1.023 27.78.181 3.251.412 4.035-5.208.777-5.766z"/><path d="m259.173 121.057c-4.542-3.961-11.068 1.058-12.021 5.951a1.106 1.106 0 0 0 2.131.587 4.715 4.715 0 0 1 3.55-3.181c1.607-.288 3.088.588 4.682.644 1.957.068 3.193-2.663 1.658-4.001z"/><path d="m297.859 171.586a1.275 1.275 0 0 0 -1.768 0l-3.62 3.138a1.127 1.127 0 0 0 0 1.578 1.144 1.144 0 0 0 1.578 0l3.81-2.948a1.256 1.256 0 0 0 0-1.768z"/><path d="m341.423 171.328c-7.206-12.737-25.794-10.2-36.714-4.168-1.131.624-.331 2.236.843 2 6.479-1.306 12.431-2.6 18.925-.572a71.832 71.832 0 0 1 13.523 6.161 2.52 2.52 0 0 0 3.423-3.421z"/><path d="m353.154 210.6a4.774 4.774 0 0 0 -4.582-1.52 5.022 5.022 0 0 0 -3.676 2.456c-.608.889.633 2.2 1.527 1.527 1.447-1.089 3.139-.382 4.432.517a1.884 1.884 0 0 0 2.448-.489 1.939 1.939 0 0 0 -.149-2.491z"/><path d="m259.033 193.717a1.117 1.117 0 0 0 -1.578 1.578c3.334 3.708 3.994 9.413 2.834 14.159-.608 2.488 2.928 3.393 3.788 1.044 2.323-6.339-.077-12.467-5.044-16.781z"/><path d="m205.532 182.416c-4.909-2.184-10.151-2.71-14.554-6.133-1.078-.838-2.58.527-1.547 1.547a32.075 32.075 0 0 0 7.742 5.373c1.325.7 2.757 1.285 4.007 2.114.57.378 2.763 2.511 2.243 3.457-1.366 2.483 1.678 4.446 3.7 2.854 3.611-2.848 2.259-7.499-1.591-9.212z"/><path d="m376.475 134.991c-4.992-3.248-6.7-7.433-7.83-13.052-.687-3.408-5.248-2.737-6.255 0-2.393 6.5-5.192 13.688-12.753 15.18-2.734.54-2.724 4.2-.723 5.535a26.9 26.9 0 0 1 10.027 12.1 15.355 15.355 0 0 0 .154 3.343 2.546 2.546 0 0 0 1.986 2.285c.245.74.487 1.491.727 2.262a1.543 1.543 0 0 0 3.016-.408 19.42 19.42 0 0 0 .039-3.174 3.351 3.351 0 0 0 .629-.965c1.3-3.145 1.638-6.342 3.475-9.343a20.751 20.751 0 0 1 7.51-7.232 3.825 3.825 0 0 0 -.002-6.531zm-15.5 12.486a36.316 36.316 0 0 0 -4.762-6.214 21.491 21.491 0 0 0 8.216-8.439 22.64 22.64 0 0 0 3.949 5.325 30.535 30.535 0 0 0 -7.403 9.327z"/><path d="m156.379 107.369a21.069 21.069 0 0 1 -11.009-7.611c-1.463-1.868-4.54-.667-5.092 1.344-1.087 3.96-2.2 8.429-6.8 9.4-2.085.439-3.14 3.694-1.344 5.093 5.026 3.915 9.643 7.732 10.581 14.421a1.216 1.216 0 0 0 .75.969c1.07 2.522 4.926 1.253 5.258-1.376.9-7.141 4.288-11.866 9.005-17.133a3.09 3.09 0 0 0 -1.349-5.107zm-11.873 13.285a25.876 25.876 0 0 0 -4.812-6.349 15.727 15.727 0 0 0 4.792-6.637 26.066 26.066 0 0 0 5.932 3.912 37.7 37.7 0 0 0 -5.912 9.074z"/><path d="m282.715 257.723a11.4 11.4 0 0 1 -8.149-9.649c-.453-2.857-4.92-2.088-4.939.668-.042 5.984-3.3 10.542-8.577 13.163-2.233 1.11-1.054 4.463 1.221 4.507a9.763 9.763 0 0 1 9.414 7.481 14.343 14.343 0 0 0 .781 5.179c.846 2.408 4.665 2.16 4.627-.626-.087-6.386.709-11.932 6.237-16.028a2.608 2.608 0 0 0 -.615-4.695zm-9.738 10.159a12.7 12.7 0 0 0 -4.9-4.637 18.418 18.418 0 0 0 4.784-6.387 16.383 16.383 0 0 0 4.584 4.059 22.825 22.825 0 0 0 -4.468 6.966z"/></g><path d="m128.02 287.849c-4.427 16.045-5.823 32.851-5.264 49.444.251 7.451.839 14.9 1.775 22.3.5 3.943.8 8.2 2.425 11.874 2.667 6.053 8.586 9.87 15.263 8.3 7.136-1.68 11.292-7.687 14.555-13.786q8.071 5.883 16.681 10.932c-4.047 9.217-8.6 18.571-16.212 25.359-8.828 7.877-20.552 10.507-31.4 5.088-21.024-10.5-26.444-39.276-27.766-60.405-1.394-22.279.116-46.065 5.36-67.8 4.863-20.153 15.422-42.3 35.436-51.189 11.342-5.036 25.59-4.183 34.76 4.751 7.851 7.649 10.854 18.867 13.369 29.275q-11.363 5.4-22.875 10.468c-.891-5.217-1.266-10.062-6.207-13.683-4.6-3.368-10.2-2.745-14.688.52-8.588 6.25-12.532 18.83-15.212 28.552zm134.8 47.026c.095 20.792-4.33 45.638-25.627 54.981-22.187 9.734-39.254-10.618-43.618-30.421-4.6-20.866-4.028-45.21 5.083-64.747 3.415-7.322 7.826-14.907 14.749-19.423 7.922-5.167 17.8-4.612 25.621.424 19.11 12.311 23.472 38.362 23.788 59.186zm-21.971-27.655c-2.188-7.913-11.37-17.2-19.8-11.178-8.1 5.782-9.552 18.515-10.491 27.546a131.549 131.549 0 0 0 -.559 25.77c.565 6.061 1.677 12.68 5.958 17.333 4.05 4.4 10.7 6.634 16.2 3.6 5.467-3.016 7.6-9.505 8.789-15.241 2.817-15.191 4.076-32.742-.097-47.83zm109.943-1.657c.125 12.277-.509 24.752-3.084 36.781-3.91 18.262-12.3 48.461-35.247 49.85-12.992.786-22.917-8.1-27.251-19.762-4.382-11.786-3.458-24.889-2.88-37.218 1.163-24.787 5.673-51.161 23.455-69.878 4.466-4.7 10.405-9.823 17.242-10a21.859 21.859 0 0 1 14 4.826c5.45 4.348 9.006 10.917 10.959 17.519 2.454 8.967 2.714 18.64 2.806 27.882zm-14.367-3.239c-.794-8.042-2.374-20.664-12.7-21.275-11.141-.659-16.628 13.055-19.677 21.612-5.048 14.165-8.472 31.157-5.953 46.089 1.245 7.381 4.925 16.936 13.32 18.465 8.3 1.511 13.742-6.252 16.643-12.853a1.8 1.8 0 0 1 .238-.563c6.557-16.034 9.837-34.188 8.129-51.475zm62.954 71.193a2.4 2.4 0 0 1 -2.357-2.357q-.717-71.984-1.435-143.968a101.8 101.8 0 0 1 -23.4 1.5q.075 6.692.168 13.384c.759 54.452 1.292 109.1 5.006 163.446a274.037 274.037 0 0 1 47.8-3.165q1.011-14.644 1.1-29.322-13.43.847-26.882.482z" fill="#efeae1"/><path d="m119.939 143.105c-.585 4.889-1.4 13.752.053 20.448s7.855 11.731 13.508 15.6c-12.185 5.239-24.494 17.876-27.568 30.778.633-7.249.4-14.66-1.679-21.633s-4.33-12.968-12.05-17.721c14.638 1.116 23.377-11.901 27.736-27.472z" fill="#ffc533"/><path d="m402.182 145c2.156 4.962 6.126 16.319 11.174 21.541 3.9 4.039 12.553 5.671 16.934 5.332-6.572 2.209-11.6 7.931-14.029 14.424s-2.5 13.676-1.371 20.517c-2.2-5.812-4.448-11.7-8.1-16.73s-10.8-9.675-19.819-10.079c5.545-2.826 13.462-9 14.315-15.162a161.008 161.008 0 0 0 .896-19.843z" fill="#ffc533"/></svg>