<svg id="Layer_1" height="512" viewBox="0 0 512 512" width="512" xmlns="http://www.w3.org/2000/svg" data-name="Layer 1"><path d="m216.777 260.7c-1.181-2.334-3.245-4.506-4.116-7.091-.968-2.871.3-5.208 1.034-8a59.439 59.439 0 0 0 2.018-18.112c-.647-12.357-6.456-23.69-17.765-29.422-8.273-4.2-17.974-4.08-26.958-3s-18.158 3.56-25.575 8.933c-9.433 3.446-50.435 44.336-48.861 47.286a2.743 2.743 0 0 0 -.455 1.682c-1.71-1.53-4.95-.8-4.79 2.14 1.29 25 7.559 137.226 9.2 149.92a9.107 9.107 0 0 0 4.1 6.87c10.27 6.34 23.1 6.56 34.84 7.02 11.43.45 23.25-.15 34.11-4.08 16.68-6.042 28.375-20.2 32.962-36.755a2.144 2.144 0 0 0 .43-.853c5.7-22.614 8.088-46.027 12.056-68.983 1.315-7.61 3.478-15.128 3.86-22.873.433-8.682-2.207-17.008-6.09-24.682z" fill="#2f2f51"/><path d="m279.13 245.393c-1.081-9.772-5.829-38.863-6.533-43.716-.439-3.025-.513-6.914-3.644-8.495-2.912-1.47-26.155.675-33.923 2.695-2.765.722-10.437 32.2-11.255 44.106-.008.118-.134 3.2-.134 3.63-.27 22.88-1.769 143.828-1.922 149.189-.182 6.352-.867 12.777 4.692 17.181 6.69 5.3 48.149.55 51.55-2.16 3.645-2.9 3.426-8.348 3.708-12.538a927.412 927.412 0 0 0 -.127-122.264c-.604-9.221-1.381-18.441-2.412-27.628z" fill="#2f2f51"/><path d="m415.838 300.206c-2.337-2.714-17.384-15.16-18.191-14.758 7.606-3.8 16.733-9.025 18.2-12 2.12-4.3.379-8.281-1.37-12.52-1.98-4.8-7.9-13.8-9.692-15.944-6.642-7.957-37.832-38.305-45.8-46.261-8.8-8.793-22.544-12.029-34.44-8.624-20.458 5.853-32.4 25.291-36.87 45-3.487 15.4-3.693 32.751-1.1 48.827 3.446 21.394 7.856 42.573 10.018 64.05a100.266 100.266 0 0 0 8.085 31.439c11.94 26.33 41.56 41.69 69.94 34.72 15.21-3.73 27.52-13.31 35.85-26.44 12.366-19.469 11-45.347 11.022-67.352.01-8.968-1.74-15.593-5.652-20.137z" fill="#2f2f51"/><path d="m147.4 121.295c-11.389-9.588-27.527-12.573-41.362-6.753-13.358 5.62-22.828 18.451-22.932 33.143-.117 16.5 11.466 31.1 27.991 32.74 7.679.762 7.626-11.244 0-12-12.765-1.266-18.384-16.805-14.84-27.783 3.906-12.1 17.408-18.951 29.6-16.727a27.772 27.772 0 0 1 10.02 51.038l-10.513-39.473c-1.985-7.455-13.564-4.293-11.571 3.19l11.158 41.9c-2.214 3.058-.8 8.045 2.734 9.368 2.807 4.779 10.893 2.636 11.126-2.866 10.324-5.241 18.467-14.693 21.171-26.143 3.343-14.152-1.346-30.174-12.582-39.634z" fill="#009995"/><path d="m427.306 139.974a42.576 42.576 0 0 0 -32.12-30.735c-7.538-1.541-10.763 10.023-3.19 11.571 12.062 2.466 22.118 12.055 24.178 24.4 1.971 11.816-4.677 24.169-14.914 30.021-9.612 5.5-25.382 4.069-23.448-10.18 1.508-11.112 8.826-28.29-4.4-35.563-5.172-2.844-11.029-1.5-15.53 1.762-.714-7.558-7.664-12.04-14.861-9.02a18.536 18.536 0 0 0 -4.456 2.722c.279-6.084-9.668-8.2-11.891-1.485q-1.983 5.99-3.607 12.058a5.783 5.783 0 0 0 -1.165 2.495 41.18 41.18 0 0 1 -7.111 16.211c-1.776 2.373-3.728 4.494-6.547 5.569-1.078.411-4.615 1.411-5.362.869-.963-.7-1.261-5.054-1.364-6.491a25.71 25.71 0 0 1 .409-7.943c1.715-6.394-7.824-10.844-10.966-4.623-3.154 6.244-6.338 14.392-10.677 19.454a9.239 9.239 0 0 1 -1.068 1.062h-.005c-.034.02-.055.03-.107.063-1.624 1.007-3.78 1.7-5.656 1-3.947-1.471-4.687-7.913-4.7-11.467a31.21 31.21 0 0 1 9.24-21.771c1.628-1.622 3.8-3.648 5.994-4.126 2.539-.555 6.731 2.328 6.444 6.226-.568 7.7 11.434 7.668 12 0 1.02-13.825-15.289-22.327-26.606-15.62-10 5.924-16.58 17.4-18.487 28.8a6.783 6.783 0 0 0 -.371.918c-2.784 8.848-7.841 18.506-17.83 20.453-6.248 1.218-11.282-2.373-13.91-7.463 13.217-3.671 26.554-15.345 20.921-29.729-2.908-7.424-10.739-11.556-18.389-8.775-7.968 2.9-12.6 11.894-14.9 19.517a34.8 34.8 0 0 0 -1.374 12.025 6.687 6.687 0 0 0 -.294 1.307 6.414 6.414 0 0 0 -.655 1.578c-1.165 4.345-2.28 10.146-6.186 12.944-3.654 2.617-6.674 1.143-7.174-3.23-.612-5.344 1.91-10.832 2.292-16.151a19.929 19.929 0 0 0 -3.293-12.91 14.132 14.132 0 0 0 -10.058-6.268 11.912 11.912 0 0 0 -2.4.235c1.236-6.2 2.95-15.576-4.777-18.059-10.7-3.437-16.123 16.237-9.53 25.656a92.011 92.011 0 0 1 -5.6 13.733c-3.473 6.877 6.876 12.959 10.362 6.057a112.221 112.221 0 0 0 6.3-15.049c3.419-.325 5.8-1.568 6.9 2.905.965 3.941-.858 8.381-1.538 12.242-1.245 7.072-.883 15.068 4.668 20.336 5.326 5.055 13.416 4.753 19.445 1.2a21.367 21.367 0 0 0 7.98-8.828 23.511 23.511 0 0 0 14.112 8.559c12.09 2.359 21.68-3.854 28.3-12.772 4.133 7.663 11.715 12.464 21.918 8.306 4.048-1.65 7.164-4.733 9.746-8.4a12.547 12.547 0 0 0 7.3 6.547c5.526 1.771 12.249 0 17.368-3.227-.062.517-.136 1.031-.2 1.548-.876 7.659 11.131 7.6 12 0q.344-3 .781-5.992c3.312-10.092 8.2-20.283 15.1-28.357.384-.449.782-.929 1.213-1.36-.053 1.8-.02 3.86-.059 4.346l-1.56 19.616c-.508 6.385 8.132 7.538 11.181 3.028a37.9 37.9 0 0 0 4.53-10.191c1.091-3.507 1.8-7.588 4.692-10.139 6.948-6.126 4.206 10.065 3.588 12.723-1.68 7.234-3.634 14.794-.931 22.038 2.316 6.207 7.329 10.5 13.505 12.68 28.194 9.946 53.235-23.058 46.8-48.856zm-192.75-7.074c2.9 3.69-1.993 9.261-4.724 11.349a19.465 19.465 0 0 1 -6.342 3.2 29.572 29.572 0 0 1 3.285-9.709c1.268-2.356 4.944-8.453 7.781-4.84z" fill="#009995"/><path d="m270.1 375.085c-.173 11.618-.295 22.87-.123 22.852-1.46.156-3.13.068-4.11.175-9.342 1-18.766 2.28-28.15 2.791a25.366 25.366 0 0 1 -3.2-.36 4.71 4.71 0 0 0 -1.44-1.916c.288-2.8-.242-5.624-.362-8.42q-.2-4.539-.461-9.075c-.348-6.047-.754-12.091-1.076-18.139-.68-12.76-.68-25.578-.88-38.358-.4-25.16-1.21-50.456-.93-75.626 10.8-.429 21.547-1.543 32.36-1.8a45.767 45.767 0 0 1 5.54-.088c2.9.3 2.27-.029 2.87 2.54 1.839 7.9 1 16.062.85 24.076-.152 8.272.2 16.563.215 24.838.027 17.2-.3 34.395-.676 51.589-.038 1.905-.255 13.587-.427 24.921z" fill="#ffc533"/><path d="m411.306 350.539c-.445 8.844-4.022 17.156-8.563 25.161a50.994 50.994 0 0 1 -24.261 21.55c-21.305 9.258-46.613.264-58.328-19.495-11.617-19.6-10.912-44.891-8.074-66.734 3.151-24.134 12.214-48.727 33.3-62.683 10.158-6.733 22.127-9.777 34.194-7.311 12 2.447 23.018 10.707 26.981 22.529a3.011 3.011 0 0 0 .548.988 3.786 3.786 0 0 0 .333 1.1c.47.949 1.8 2.907 1.174 3.993-.352.607-2.515 1.145-3.161 1.478-2.877 1.527-5.666 3.269-8.465 4.942-2.545 1.517-5.089 3.053-7.585 4.658-1.116.724-3.425 2.642-5.02 3.641-.568-6.068-6.939-7.712-12.263-7.1a29.152 29.152 0 0 0 -16.784 8.475c-11.5 11.333-14.132 29.712-14.1 45.116.02 13.319 1.722 32.1 16.422 37.463 5.451 1.987 11.969 1.624 16.578-2.153 5.617-4.6 6.126-11.979 5.843-18.722a4.582 4.582 0 0 0 -4.472-4.472c-2.848-.225-5.7-.391-8.544-.548.215-5.128.01-23.693 1.37-25.083.92-.939 21.158 2.3 27.794 2.926 4.776.44 9.816 1.184 14.719 1.067 1.891 8.946.746 21.618.364 29.214z" fill="#ffc533"/><path d="m195.834 350.895a61.135 61.135 0 0 0 -5.5-15.9c-2.1-4.117-5.086-7.619-7.312-11.63-2.6-4.683-1.276-8.559.509-13.242a67.928 67.928 0 0 0 3.7-14.077c2.812-18.683-5.268-40.792-24.738-46.742-9.538-2.917-20-2.533-29.8-1.439-10.9 1.219-21.111 4.251-30.352 10.258a2.485 2.485 0 0 1 -3.186-.2c3.666 23.664 9.155 95.46 9.941 107.455.748 11.534 2.092 23.193 2.053 34.776 10.239 3.723 21.85 4.184 32.626 4.289 10.93.106 22.55-.768 32.338-6.1 16.736-9.143 23.214-29.437 19.721-47.448zm-60.5-66.106a3.013 3.013 0 0 1 .5-1.459c-.844-1.794-.432-4.04 2.082-4.664 8.694-2.14 18.242 3.6 18.683 13.031.441 9.356-8.684 16.016-17.426 14.643a3.7 3.7 0 0 1 -2.869-3.359c-.504-5.958-1.356-12.215-.973-18.193zm34.766 73.011c-.844 16-20.334 19.6-30.352 15.373a4.445 4.445 0 0 1 -2.936-4.107c.3-7.581.71-15.094 1.478-22.627a2.482 2.482 0 0 1 3.368-2.351c8.576-4.603 29.226-1.053 28.442 13.712z" fill="#ffc533"/><g fill="#fa5d53"><path d="m154.466 207.368c-4.174 2.521-8.709 3.96-12.636 6.918-3.342 2.518-6.663 5.13-9.776 7.927-6.861 6.164-13.646 12.811-20.091 19.422-1.421 1.458.691 3.484 2.2 2.2 7.294-6.171 14.651-11.7 22.384-17.265 3.407-2.45 6.844-4.915 10.185-7.456 3.574-2.718 6.221-6.359 9.76-9.119 1.519-1.177-.427-3.595-2.026-2.627z"/><path d="m175.294 202.08c-4.358-1.16-9.493.34-13.11 2.844a1.547 1.547 0 0 0 1.186 2.813 32.524 32.524 0 0 1 5.7-1.042c1.867-.132 3.724.13 5.59.058 2.625-.102 3.302-3.963.634-4.673z"/><path d="m238.856 202.8c-4.677 9.655-6.245 20.583-7.7 31.121-.262 1.9 2.508 2.8 2.968.818 2.375-10.25 6.116-20.238 7.9-30.6.309-1.788-2.244-3.249-3.168-1.339z"/><path d="m332.644 198.235c-17.217-.145-32.051 15.568-35.681 31.387a1.54 1.54 0 0 0 2.968.818 39.672 39.672 0 0 1 13.741-18.507c6.058-4.5 12.554-6.283 19.733-8.066 3.169-.787 2.452-5.605-.761-5.632z"/><path d="m350.436 200.609c-.84-1.757-3.2-2.419-5-2.491a6.117 6.117 0 0 0 -4.544 1.923 1.569 1.569 0 0 0 .315 2.448c2.513 1.258 5.556 2.667 8.351 1.454 1.278-.552 1.388-2.266.878-3.334z"/></g><path d="m144.024 259.685a89.407 89.407 0 0 0 -16.36 4.18c-4.717 1.712-9.908 4.356-14.861 5.436.944 5.236 1.014 10.782 1.45 16.015.561 6.73 1.263 13.444 1.945 20.163.231 2.279-3.661 2.783-3.99.54-.978-6.678-1.936-13.356-3.035-20.016-1.016-6.157-2.679-12.655-2.627-18.909a4.343 4.343 0 0 1 1.654-5.594c4.482-3.118 11.338-4.386 16.694-5.049a122.977 122.977 0 0 1 18.6-.756c2.193.062 2.861 3.615.53 3.99zm115.518-3.692a36.011 36.011 0 0 0 -7.3-.735c-2.478-.112-6.426.261-8.576-1.078a5.437 5.437 0 0 0 -6.458.833l-.816.754a3.78 3.78 0 0 0 -1.16 3.784c.028 10.427 1.385 21.043 2.053 31.455.166 2.585 4.073 2.64 4.063 0-.036-8.89.414-17.965.125-26.892a4.335 4.335 0 0 0 2.194-.73c4.09-3.064 11.178-1.791 15.88-3.443 1.809-.641 2.068-3.422-.004-3.948zm106.44-7.549c-9.7-3.563-21.052 7.529-26.731 14.1-7.7 8.908-12.1 20.07-16.2 30.954-.924 2.457 2.921 3.419 3.887 1.072 4.024-9.77 8.283-19.831 15.576-27.668a31.971 31.971 0 0 1 11.842-8.177c4.059-1.575 8.705-1.663 12.465-3.857 2.779-1.62 1.905-5.416-.839-6.424zm8.72 6.331a4.1 4.1 0 0 0 3.746 2 3.37 3.37 0 0 0 1.812-.642 3.331 3.331 0 0 0 1.072-1.553 4.591 4.591 0 0 0 -1.119-4.557 5.116 5.116 0 0 0 -2.008-1.292 4.9 4.9 0 0 0 -2.5-.116l-.733.309a2.318 2.318 0 0 0 -.861.79 3 3 0 0 0 -.659 1.859 3.9 3.9 0 0 0 .93 2.526 3.628 3.628 0 0 0 .318.676zm-201.09 110.819c-2.528 2.764-4.461 5.769-7.506 8.065a37.03 37.03 0 0 1 -10.3 5.147c-2.073.726-1.865 4.036.54 3.99 8.751-.167 18.869-5.982 22.225-14.314 1.129-2.793-3.052-4.973-4.959-2.888zm209.029-4.253c-2.456 2.392-3.591 5.991-5.952 8.586a23.853 23.853 0 0 1 -9.218 6.157 2.049 2.049 0 0 0 1.088 3.948 29.492 29.492 0 0 0 12.168-5.675c3.336-2.574 7.075-6.357 7.462-10.718.26-2.921-3.665-4.131-5.548-2.298z" fill="#efeae1"/><path d="m119.35 193.783c-3.331-1.716-7.321-1.793-10.915-2.875a55.739 55.739 0 0 1 -11.192-4.79 57.776 57.776 0 0 1 -18.854-16.935c-1.116-1.571-3.69-.151-2.631 1.538a63.2 63.2 0 0 0 18.422 19.134c6.331 4.235 16.662 10.161 24.523 8.883 2.303-.374 2.616-3.938.647-4.955z" fill="#fa5d53"/><path d="m434.748 167.019a38.8 38.8 0 0 1 -31.766 34.956c-5.826 1.1-11.171.145-16.975-.229-2.679-.173-2.78 3.536-.592 4.374 11.4 4.364 26.557-.3 35.8-7.458a43.724 43.724 0 0 0 16.6-31.643c.137-1.985-2.867-1.929-3.067 0z" fill="#fa5d53"/><path d="m246.75 106.391c-6.13-7.137-14.232-11.528-23.331-13.763-8.342-2.049-18.8-2.927-26.853.54-2.92 1.257-1.353 5.934 1.581 5.838 8.412-.274 15.809-1.66 24.24.26 7.942 1.808 15.5 5.425 22.46 9.592 1.597.955 3.027-1.158 1.903-2.467z" fill="#fa5d53"/><path d="m257.515 86.337c-1.067-6.1-2.271-13.72-5.8-18.894-1.5-2.193-5.9-1.7-5.561 1.506.646 6.126 3.479 12.209 5.021 18.2a189.9 189.9 0 0 1 4.351 19.262c.262 1.764 3.017 1.278 3.039-.411.081-6.657.101-13.083-1.05-19.663z" fill="#fa5d53"/><path d="m307.287 89.4c-6.171-2.43-15.53-.236-21.679 1.665-6.887 2.129-13.666 5.363-18.243 11.051-.881 1.094-.107 3.312 1.558 2.677 6.189-2.362 12.038-5.515 18.47-7.254a55.838 55.838 0 0 1 10.693-1.864c3.1-.215 6.181.191 9.2-.565 3.078-.772 2.53-4.716.001-5.71z" fill="#fa5d53"/></svg>