<svg id="Layer_1" height="512" viewBox="0 0 512 512" width="512" xmlns="http://www.w3.org/2000/svg" data-name="Layer 1"><path d="m408.714 324.363c-3.465-4.679-10.211-10.148-17.813-10.148a14.856 14.856 0 0 0 -6.156 1.313 13 13 0 0 0 -4.684 3.519c.547-3.355 3.458-16.705 3.48-17 3.02.314 9.792 1.315 10.254 1.315a9.362 9.362 0 0 0 8.977-7.958 116.605 116.605 0 0 1 1.607-17.237 7.9 7.9 0 0 0 -1.749-6.425 8.206 8.206 0 0 0 -5.114-2.789h-.023c-3.024-.674-6.119-1.228-9.257-1.659a22.6 22.6 0 0 0 .706-2.163c1.157-4.373 2.2-10.1-.1-15.346-2.838-6.477-8.679-7.466-12.544-8.12l-.136-.023c-5.552-.945-21.7-2.063-23.046-2.063-2.989 0-7.388.337-11.057 3.25-4.567 3.637-5.245 9.062-5.695 12.652 0 0-.93 7.474-1.339 10.867-1.767.222-5.482.75-5.612.75a7.8 7.8 0 0 0 -7.434 5.236c-3.708-2.815-9.991-5.468-20.505-5.468a45.761 45.761 0 0 0 -8.376.721c-4 .778-9.3 3.315-11.81 10.986a33.716 33.716 0 0 0 -1.4 7.242 38.165 38.165 0 0 0 -1.651-8.5 7.74 7.74 0 0 0 -4.8-4.983 28.535 28.535 0 0 0 -18.5-6.39c-10.063 0-18.742 4.778-22.65 12.471a32.939 32.939 0 0 0 -3.032 9.629 28.3 28.3 0 0 0 -2.724-7.937c-9.253-17.967-26.263-28.271-46.669-28.271a65.93 65.93 0 0 0 -11.627 1.062 70.91 70.91 0 0 0 -30.425 13.272 58.516 58.516 0 0 0 -19.995 26.976c-4.942 14.116-5.81 29.794-6.008 43.27-.238 15.64 1.291 28.077 4.812 39.138 7.993 25.053 28.62 43.256 52.551 46.38a51.331 51.331 0 0 0 36.409-9.046 59.934 59.934 0 0 0 20.021-24.027c5.19-11.148 7.452-24.439 6.589-38.438-.534-8.668-1.561-25.83-12.052-32.579a21.834 21.834 0 0 0 -7.991-3.069 39.226 39.226 0 0 0 6.538-3.374 23.437 23.437 0 0 0 9.864-12.249c.017 1.807 1.283 29.071 2.483 38.246.946 7.17 2.608 17.854 6.109 27.893 3.944 11.312 9.559 19.821 16.689 25.289 4.576 3.511 9.341 5.292 14.162 5.292 7.989 0 14.5-4.64 20-10.9a14.933 14.933 0 0 0 9.345 8.625 33.92 33.92 0 0 0 10.1 1.5c8.339 0 15.521-2.931 19.706-8.042 6.611-8.072 4.637-18.614 3.855-26.4-.8-7.984-3.172-30.081-2.958-43.994.05-3.336.547-13.47.618-15.189a16.35 16.35 0 0 0 3.008 0c-.093.794-1.238 14.567-1.489 20.216-.364 8.5-.553 19.679 1.23 30.778 3.322 20.715 15.175 34.7 32.521 38.378a42.993 42.993 0 0 0 8.868.931 41.933 41.933 0 0 0 34.7-18.4c8.93-13.126 12.215-34.18 1.219-49.01zm-222.075-5.274c-10.459 4.186-19.9 13.822-17.389 25.907a17.551 17.551 0 0 0 10.014 12.638c.723.311 1.37.548 1.936.743a45.085 45.085 0 0 1 -1.923 10.788 40.335 40.335 0 0 1 -3.523 8.4l-.1-.012c-.418-.881-.852-2.037-1.056-2.581l-.162-.429c-2.733-7.159-4.264-15.059-5.4-21.843a148.551 148.551 0 0 1 -.418-47.518c2.1-13.468 4.932-15.458 5.324-15.673a2.721 2.721 0 0 1 .815.285c3.65 1.784 4.126 6.759 4.436 14.145.056 1.33.113 2.7.213 4.011a7.861 7.861 0 0 0 7.227 7.267 23.645 23.645 0 0 0 5.486 1.873q-2.64.858-5.48 1.999z" fill="#2f2f51"/><path d="m314.328 217.628c-11.172 14.329-34.3 18.529-51.846 16.229-20.686-2.712-38.144-13.465-56.445-22.5a143.524 143.524 0 0 0 -16.749-7.488c.672-1.484 1.337-2.96 2.013-4.406a323.977 323.977 0 0 0 13.016-32.835 6.335 6.335 0 0 0 .389-1.126q1.974-5.845 3.8-11.723c2.3-7.36-8.977-11.481-11.281-4.1q-2.046 6.556-4.281 13.063c-1.322 2.734-13.917 27.082-17.527 24.281-2.978-2.311 2.037-11.948 3.011-14.26 2.114-5.019 4.6-10.252 4.639-15.8.067-9.608-7.316-16.038-16.8-13.04-9.5 3-14.434 14.779-11.161 23.729 2.65 7.244 13.448 2 10.811-5.213-.662-1.809 1.016-4.389 2.185-5.638a6.722 6.722 0 0 1 1.874-1.458 1.164 1.164 0 0 1 .991-.08c1.684 3.1-2.342 9.916-3.467 12.569-3.337 7.873-7.509 18.194-1.831 26.058a12.1 12.1 0 0 0 12.771 4.8q-.637 1.318-1.283 2.631c-8.979-.771-19.834.134-26.925 5.609-5.884 4.544-7.747 12.84-3.024 18.991 6.1 7.945 17.914 5.332 25.325.928 4.9-2.912 8.383-7.166 11.22-11.931 12.175 3.215 23.621 10.452 34.54 16.144 16.657 8.683 35.051 15.567 54.1 15.3 18.913-.268 39.694-6.369 51.777-21.866 4.767-6.114-5.108-12.939-9.842-6.868zm-152.667.957a9.452 9.452 0 0 1 -4.334.38c-.572-.124-1.123-1.263-.872-.928-.107-.143.372-.881-.043-.314.728-1 .447-.9 1.608-1.664 3.015-1.993 7.323-2.483 10.841-2.723.6-.041 1.193-.065 1.786-.079-.018.021-.034.046-.053.067a18.658 18.658 0 0 1 -8.933 5.261z" fill="#009995"/><path d="m365.608 176.344c-9.686-11.624-23.94-2-31.2 6.863-4.9 5.988 4.981 12.8 9.847 6.862 2.119-2.586 9.772-10.922 12.679-5.106 2.48 4.961-2.38 9.447-6.419 11.243-6.283 2.793-15.255 3.735-21.882 2-9.424-2.464-5.681-9.766-1.865-15.738 3.306-5.174 7.908-11.543 4.2-17.589-2.523-4.115-6.686-4.527-11-4.663 2.431-5.342 4.1-11.408.271-16.593-3.992-5.41-10.762-5.21-15.856-1.478-8.764 6.422-10.984 19.028-2.042 25.725q-2.871 4.647-6.134 9.03c-1.649 2.219-13 17.606-14.928 9.8-1.128-4.557.329-10.186 2.331-15.364.387-.853.787-1.706 1.216-2.558a6.088 6.088 0 0 0 .575-1.708c.765-1.707 1.527-3.308 2.194-4.72 3.3-6.991-8.01-11.029-11.281-4.1-1.077 2.282-2.232 4.852-3.3 7.582-2.391 5.213-3.646 10.988-6.88 15.768-1.219 1.8-5.8 7.222-8.114 8.051a6 6 0 0 1 -.475-1.443 23.356 23.356 0 0 1 .3-7.067c1.193-6.714 4.586-13.047 7.75-19 2.9-5.457-3.512-13.238-8.815-8a17.125 17.125 0 0 1 -16.732 4.6 19.477 19.477 0 0 0 -14.2-10.862c-2.965-.568-5.563 1.846-6.3 4.618a5.412 5.412 0 0 0 -5.961 2.364c-6.088 8.853-12.45 19.474-9.289 30.64 2.875 10.159 13.4 15.98 23.185 10.973 8.558-4.38 13.808-15.9 14.64-25.282a27.688 27.688 0 0 0 6.114-.013 44.781 44.781 0 0 0 -2.77 12.573c-.394 6.5 1.174 14.668 8.074 17.268 6.579 2.479 13.292-2.526 17.718-7 6.15 11.371 19.99 6.643 27.221-1.045a113.815 113.815 0 0 0 15.408-21.039 34.883 34.883 0 0 0 4.844.508c-.332.65-.64 1.333-.953 1.831a72.9 72.9 0 0 0 -5.113 8.739c-5.187 11.545-.441 22.844 11.87 26.477 10.919 3.222 26.138 1.561 35.641-4.994 8.788-6.067 12.823-19.276 5.431-28.153zm-143.345 9.318c-5.191 2.821-7.146-3.843-6.7-7.811.673-6.008 4.538-11.291 7.866-16.13.051-.074.09-.148.137-.222a29.385 29.385 0 0 0 6.845 5.719c.365 6.845-4.017 16.198-8.148 18.444z" fill="#009995"/><path d="m205.43 303.94c-8-5.14-20-1.45-28.02 1.76-7.57 3.04-15.64 10.02-13.75 19.13a11.68 11.68 0 0 0 6.52 8.35c3.83 1.65 5.81.86 5.56 6.3a50.979 50.979 0 0 1 -2.19 12.49 47.561 47.561 0 0 1 -4.7 10.69c-1.908 3.139-7.6 5.34-11.49-4.94a122.724 122.724 0 0 1 -5.71-22.99 155.469 155.469 0 0 1 -.43-49.42c1.06-6.8 4.21-24.98 14.7-19.86 8.43 4.12 7.4 15.25 8 23.09a1.952 1.952 0 0 0 2.62 1.65c8.09 4.87 19.9 2.08 27.43-2.78 8.6-5.54 10.31-14.7 5.77-23.52-10.29-19.98-30.09-27.97-51.9-24.05-20.07 3.6-38.91 16.65-45.82 36.33-4.53 12.94-5.47 27.77-5.67 41.37-.19 12.5.72 25.26 4.53 37.23 6.85 21.46 24.7 39.26 47.61 42.25 21.69 2.84 41.19-10.26 50.21-29.64 5.14-11.04 6.8-23.44 6.04-35.53-.55-8.82-1.01-22.57-9.31-27.91z" fill="#fa5d53"/><path d="m310.58 297.63c.1-6.72.65-13.41.77-20.13.09-4.86.67-11.71-1.67-16.21-3.97-7.65-19.68-8.17-26.91-6.77-9.41 1.83-8.3 14.36-8.86 21.75-1.01 13.55-1.13 27.24-3.51 40.65-.58 3.29-2.46 15.11-5.9 15.11-2.95 0-2.87-6.82-2.87-7.98q-.03-11.085.16-22.15.21-11.67.65-23.31c.24-6.27 1.01-15.2-3.29-19.66-8.43-8.76-27.21-8.1-32.97 3.24-3.8 7.46-3.14 16.98-2.91 25.03a304.313 304.313 0 0 0 2.25 30.47c2.15 16.29 6.55 38.5 20.5 49.2 14.83 11.38 26.24-3.57 33.93-15.76.23 7.15.87 15.64 7.74 17.82 7.27 2.3 18.2 1.67 23.35-4.62 5.43-6.63 3.33-16.2 2.24-23.9a274.517 274.517 0 0 1 -2.7-42.78z" fill="#fa5d53"/><path d="m392.43 308.98c-3.45-4.65-10.59-9.68-16.68-6.93-6.35 2.87-5.01 12.91-5.9 18.35-.68 4.15-1.49 12.01-4.35 15.26-3.333 4.007-5.333-1.493-5.87-5.02a32.7 32.7 0 0 1 .13-7.41 300.9 300.9 0 0 1 4.79-34.59c.2-1.05 2.46-11.81 2.45-12 5.03.34 10.01.91 14.98 1.74a1.873 1.873 0 0 0 1.44-.32 1.782 1.782 0 0 0 1.89-1.77 123.153 123.153 0 0 1 1.69-18.08 1.986 1.986 0 0 0 -2.02-2.28.952.952 0 0 0 -.18-.06 109.869 109.869 0 0 0 -15.73-2.32c.14-.79.55-2.35.55-2.35.02-.14 1.76-5.41 2.05-6.53.95-3.59 1.76-7.9.21-11.44-1.56-3.56-4.65-4.03-8.19-4.63a138.045 138.045 0 0 0 -17.09-1.76c-3.85-.17-8.98-.89-12.28 1.73-2.8 2.23-3.12 5.95-3.54 9.24-.64 5.01-1.23 10.02-1.84 15.03-3.5.32-6.99.77-10.46 1.37a1.83 1.83 0 0 0 -2.4 1.69 174.886 174.886 0 0 0 .64 19.02 1.961 1.961 0 0 0 3.26 1.25 46.925 46.925 0 0 1 7.47-.74c-.06.43-2.48 21.72-2.74 27.58-.42 9.81-.4 19.85 1.16 29.56 2.54 15.84 11.27 29.95 27.84 33.46a35.911 35.911 0 0 0 37.36-14.97c8.09-11.9 10.31-30 1.36-42.08z" fill="#fa5d53"/><path d="m200.322 305.647c-9.39-2.56-27.3 2.88-31.94 11.7-2.5 4.74-1.2 10.87 4.2 12.8 1.43.5 3.14.33 4.47 1.21 2.5 1.67 2.45 4.37 2.39 7.11-.19 9.23-2.8 20.16-8.49 27.62-4.8 6.3-11.03 3.69-14.75-2.29-5.49-8.84-7.12-21.34-8.6-31.43a162.673 162.673 0 0 1 -1.35-35.28c.76-10.27 1.42-23.47 8.02-31.92 4.19-5.37 10.98-5.27 16.07-1.16 6.74 5.44 6.65 14.47 7.1 22.48a1.876 1.876 0 0 1 .2.1c6.5 4.43 16.34 2.22 22.89-1.39 9.41-5.19 9.51-13.74 4.52-22.2-7.05-11.93-17.38-18.99-31.29-20.28-24.72-2.29-51.3 12.26-58.9 36.55-3.81 12.14-4.68 25.61-4.86 38.27-.18 12.54.73 25.28 4.72 37.24 7.79 23.35 31.18 42.76 56.85 38.51 24.15-4 38.14-28 39.54-50.79a91.4 91.4 0 0 0 -1.22-20.76c-1.08-6.32-2.4-14.15-9.57-16.09z" fill="#ffc533"/><path d="m307.942 325.747a275.4 275.4 0 0 1 -.86-33.99c.22-6.33.8-12.67.61-19.02-.07-2.49.15-6.07-.81-8.37-1.88-4.5-7.32-5.38-11.43-6.03-2.75-.43-8.28-1.5-10.93-.38-5.38 2.28-5.87 6.69-6.37 11.63-.53 5.19-.86 10.41-1.16 15.62-.6 10.19-1.09 20.4-2.7 30.5-.95 5.96-1.56 17.88-8.2 20.71-5.9 2.51-8.02-3.01-8.1-7.71-.19-11.26.03-22.55.29-33.81.24-10.08 2.31-21.77-.18-31.75a1.752 1.752 0 0 1 -.52-.5c-4.22-5.91-13.96-6.87-20.56-5.06-8.23 2.25-9.77 11.09-10.09 18.43a234.039 234.039 0 0 0 2.6 44.09c2.02 13.67 5.73 29.35 14.88 40.14 6.35 7.49 15.54 9.14 23.07 2.06 5.29-4.96 8.71-12.01 12.45-18.14a1.841 1.841 0 0 1 3.4.93c.33 3.41.65 6.82.98 10.23.51 5.31 1.49 10.05 7.86 10.71 5.9.6 13.51.44 16.92-5.3 2.95-4.95 1.78-11.66 1.01-17.04-.86-5.97-1.63-11.94-2.16-17.95z" fill="#ffc533"/><path d="m394.332 324.487a27.794 27.794 0 0 0 -3.95-12.06c-2.49-3.97-11.79-12.58-15.58-3.39-1.06 2.58-.62 6.36-.96 9.08a75.217 75.217 0 0 1 -2.11 10.74c-1.04 3.74-2.62 12.18-7.49 13.18-3.55.73-5.81-2.82-6.99-5.67-2.8-6.74-1.04-15.29-.25-22.24.78-6.97 1.77-13.93 2.99-20.84.84-4.77 1.72-9.55 2.83-14.26.02.02.513-2.563.611-2.814.209-.534 1.067-3.266 3.049-3.266a96.6 96.6 0 0 1 15.24 1.72 128.37 128.37 0 0 1 1.45-15.41 105.612 105.612 0 0 0 -16.23-2.23c-2.768-.15-1.313-5.847-1.383-5.881.483-3.514 2.6-6.583 3.153-10.089 1.5-9.43-8.26-9.45-14.97-10.08-3.69-.34-8.28-1.25-11.9-.61-7.47 1.29-7.36 7.1-8.07 12.93-.44 3.58-.8 12.86-2.16 12.97-3.53.28-8.39.83-11.89 1.42q-.075 7.4.47 14.75a51.629 51.629 0 0 1 8.96-.68c1.1-.31 2.39.23 2.21 1.65-.37 2.91-2.31 19.06-2.66 23.75-1.24 16.9-2.62 38.8 7.57 53.44 8.7 12.5 26.66 16.04 39.97 9.12 12.54-6.53 19.44-21.41 18.09-35.23z" fill="#ffc533"/><g fill="#2f2f51"><path d="m172.239 110.93c-.4 0-13.052.534-13.052.534a3.781 3.781 0 0 0 -3.7 3.945 3.659 3.659 0 0 0 3.695 3.709h.128l8.813-.268a16.27 16.27 0 0 1 -.912 5.266 8.68 8.68 0 0 1 -8.092 5.294 10.139 10.139 0 0 1 -5.194-1.489 14.018 14.018 0 0 1 -6.387-12.921c.415-6.656 5.619-13.394 14.762-13.394a16.449 16.449 0 0 1 5.965 1.123 3.8 3.8 0 0 0 1.377.266 3.587 3.587 0 0 0 3.474-3.062 3.928 3.928 0 0 0 -2.435-4.457 23.12 23.12 0 0 0 -8.379-1.584 22.65 22.65 0 0 0 -17.031 7.694 21.739 21.739 0 0 0 -5.2 17.415c1.284 9.791 10.5 18.063 20.117 18.063a14.18 14.18 0 0 0 8.034-2.39 4.888 4.888 0 0 0 3.005 1.42 3.832 3.832 0 0 0 3.91-3.666l.835-17.649a3.626 3.626 0 0 0 -.97-2.709 3.817 3.817 0 0 0 -2.763-1.14z"/><path d="m195.472 94.675a17.836 17.836 0 0 0 -2.585.194 3.546 3.546 0 0 0 -1.308-.247 3.911 3.911 0 0 0 -1.138.174c-4.539 1.383-8.171 4.947-10.225 10.037a23.85 23.85 0 0 0 -1.125 14.178c1.727 7.178 8.188 14.926 15.616 14.926a11.144 11.144 0 0 0 3.706-.642c10.248-3.606 14.026-14.767 12.461-23.929-1.525-8.924-7.574-14.691-15.402-14.691zm3.17 29.509a5.348 5.348 0 0 1 -3.625 1.561c-3.611 0-7.225-4.073-8.335-7.877-1.43-4.9.014-12.039 4.028-14.8a7.435 7.435 0 0 0 1.258-.169 10.056 10.056 0 0 1 2.9-.445c4.339 0 7.9 3.192 8.853 7.943.949 4.703-1.046 10.113-5.079 13.788z"/><path d="m275.06 93.646a3.415 3.415 0 0 0 -3.176 2.159 161.841 161.841 0 0 0 -8.162 23.577l-7.431-17.153a3.538 3.538 0 0 0 -3.325-2.1 3.9 3.9 0 0 0 -3.421 1.937c-3.056 5.6-6.047 11.424-8.924 17.37-1.476-6.726-2.81-13.418-3.979-19.958a3.485 3.485 0 0 0 -3.5-2.968 4.131 4.131 0 0 0 -3.133 1.463 3.823 3.823 0 0 0 -.829 3.18c1.843 10.316 4.023 20.712 6.478 30.9a3.9 3.9 0 0 0 3.82 2.858 3.541 3.541 0 0 0 3.286-2.068c3-6.64 6.278-13.38 9.772-20.088l8.947 20.651a3.541 3.541 0 0 0 3.333 2.093 3.773 3.773 0 0 0 3.808-2.965 152.157 152.157 0 0 1 10.081-33.29 3.882 3.882 0 0 0 -.315-3.736 4.06 4.06 0 0 0 -3.33-1.862z"/><path d="m287.745 96.05a3.979 3.979 0 0 0 -4.03 3.5 204.338 204.338 0 0 0 -1.417 29.806 3.779 3.779 0 0 0 3.874 3.712 3.864 3.864 0 0 0 2.763-1.128 3.67 3.67 0 0 0 1.015-2.687 200.322 200.322 0 0 1 1.39-29.221 3.5 3.5 0 0 0 -.816-2.788 3.691 3.691 0 0 0 -2.779-1.194z"/><path d="m328.34 96.493c-7.583-.888-23.027-1.618-30.154-1.2a3.825 3.825 0 0 0 -3.688 3.969 3.648 3.648 0 0 0 3.68 3.684c.051 0 9.446-.118 10.643-.1-.246 1.693-2.988 19.025-2.675 25.946a3.918 3.918 0 0 0 6.674 2.53 3.635 3.635 0 0 0 .976-2.711c-.295-6.517 2.418-23.669 2.678-25.479 3.856.22 10.34 1.015 11.876 1.015a3.468 3.468 0 0 0 3.492-3.391 3.977 3.977 0 0 0 -3.502-4.263z"/><path d="m371.285 95.728a3.688 3.688 0 0 0 -2.779-1.193 3.983 3.983 0 0 0 -4.032 3.495c-.633 5.149-1.227 10.389-1.77 15.606-7.26-.984-22.056-1.482-22.265-1.481.293-3.52.694-6.991 1.2-10.349a3.875 3.875 0 0 0 -.9-3.149 4.177 4.177 0 0 0 -3.121-1.441 3.417 3.417 0 0 0 -3.458 3.027 174.406 174.406 0 0 0 -1.89 30.358 3.78 3.78 0 0 0 3.876 3.71 3.862 3.862 0 0 0 2.763-1.128 3.668 3.668 0 0 0 1.014-2.688c-.094-3.518-.073-7.1.06-10.683.394 0 15.142.475 21.98 1.422-.413 4.322-.759 8.223-1.054 11.875a3.571 3.571 0 0 0 .9 2.749 3.762 3.762 0 0 0 2.773 1.166 3.873 3.873 0 0 0 3.966-3.593c.937-11.606 2.132-23.353 3.553-34.913a3.5 3.5 0 0 0 -.816-2.79z"/></g><path d="m119.945 170.317c-.515-6.092-1.208-12.165-2.142-18.209-1.02-6.6-1.923-13.556-4.07-19.9-.841-2.483-4.607-1.182-4.3 1.262.854 6.742 2.7 13.405 3.717 20.142 1.024 6.757 1.765 13.546 2.277 20.361.126 1.675 2 2.319 3.363 1.837 3.2-1.137 7.245-2.632 10.739-2.568 2.574.047 2.568.742 2.93 3.207.271 1.848.567 3.693.762 5.551.778 7.449.9 14.956 1.741 22.4.116 1.034 1.87 1.046 1.869-.031 0-4.92-.256-9.84-.463-14.755-.244-5.8.383-11.751-.055-17.5-.49-6.433-10.487-3.776-16.368-1.797z" fill="#fa5d53"/><path d="m401.982 164.55a2.487 2.487 0 0 0 2.766-2.717 106.837 106.837 0 0 1 .452-19.533c.725-6.166 2.9-12.179 3.519-18.29a2.16 2.16 0 0 0 -4.1-1.169c-2.893 5.672-3.637 13.278-4.33 19.536a112.185 112.185 0 0 0 -.526 17.28c-4.449-.137-8.974-.39-13.37-.106-4.106.265-5.032 2.752-5.63 6.411-1.905 11.657-3.265 23.417-4.892 35.116a.843.843 0 0 0 1.667.241c1.976-8.672 4.015-17.329 5.977-26 .475-2.1.957-4.2 1.415-6.309a12.71 12.71 0 0 1 .664-3.161c.717-1.227 1.552-1.331 3.1-1.473 4.323-.398 8.944.124 13.288.174z" fill="#fa5d53"/><path d="m124.779 201.53c-1.88-2.808-3.787-5.608-5.81-8.317-.9-1.205-1.772-2.638-3.4-2.887-4.279-.657-6.791 5.287-9.807 7.012-2.2 1.257-6.039-.623-8.152-1.581-2.814-1.277-5.036-3.375-7.791-4.673-2.042-.963-3.4 1.654-2.366 3.216 2.472 3.733 7.9 6.074 12.06 7.325 1.8.543 4.071 1.307 5.965 1.1 2.268-.251 3.42-1.753 4.935-3.327a22.453 22.453 0 0 1 3.421-3.143.82.82 0 0 0 .485-1.281l1.393 1.877q2.8 3.738 5.758 7.357c4.091 5.038 8.4 9.888 12.559 14.873.718.861 1.919-.169 1.329-1.075-3.558-5.474-6.947-11.052-10.579-16.476z" fill="#fa5d53"/><path d="m132.294 227.509c-6.01-.914-12.377.018-18.446-.033-1.441-.012-2.988 1.068-2.636 2.725.441 2.077.867 4.155 1.22 6.249.313 1.852 1.174 4.193.052 5.439-1.272 1.413-4.595 2.377-6.257 3.237a28.932 28.932 0 0 0 -5.869 3.487c-1.43 1.23-.491 4.162 1.6 3.634 3.213-.811 6.081-2.633 9.013-4.157 1.935-1.006 4.723-1.863 6.094-3.631 1.228-1.583.884-3.38.65-5.235-.3-2.4-.733-4.789-1.231-7.16 5.424-.275 11.119-.6 16.1-2.647a1.009 1.009 0 0 0 -.29-1.908z" fill="#fa5d53"/><path d="m421.356 182.111c-2.609 1.714-4.64 4.245-7.164 6.129q-.81.612-1.653 1.177-.812.955-1.428-.452c-1.785-.9-3.59-3.095-4.917-4.509a2.457 2.457 0 0 0 -3.818-.058c-3.928 4.587-7.863 9.164-11.654 13.867-1.812 2.248-3.573 4.535-5.335 6.822-.961 1.247-1.948 2.476-2.888 3.739l-.932 1.27c-.611.476-.927.831-.967 1.072l-.2.065a.941.941 0 0 0 -.575.982l.047.3a1.031 1.031 0 0 0 1.127.874c1.447-.112 2.718-1.9 3.661-2.844 2.427-2.419 4.814-4.888 7.183-7.363 4.261-4.452 8.355-9.052 12.434-13.669 2.567 2.8 6.059 6.056 9.393 4.869 3.848-1.37 8.953-6.2 10.872-9.744 1.079-1.986-1.581-3.582-3.186-2.527z" fill="#fa5d53"/><path d="m410.53 237.987c-3.4-1.032-6.923-1.687-10.413-2.395-.6-3.937-1.264-7.865-2.042-11.771a2.432 2.432 0 0 0 -2.665-2.068c-3.838.523-7.8.128-11.588.793a1.056 1.056 0 0 0 -.288 2c3.037 1.7 6.671 1.977 10.167 1.974.655 3.8 1.29 7.6 1.846 11.419a2.517 2.517 0 0 0 2.07 2.107c3.86.82 7.743 1.86 11.659 2.345 2.467.309 3.837-3.62 1.254-4.404z" fill="#fa5d53"/></svg>