<svg id="Layer_1" height="512" viewBox="0 0 512 512" width="512" xmlns="http://www.w3.org/2000/svg" data-name="Layer 1"><path d="m421.439 214.419c-3.669-21.244-14.136-37.259-30.268-46.315-9.444-5.3-20.9-7.989-34.039-7.989a104.217 104.217 0 0 0 -28.892 4.19l-.027.008-.027.008a20.26 20.26 0 0 0 -14.234 15.595 47.56 47.56 0 0 0 -14.908-2.426c-17.71 0-32.561 11.026-38.35 19.056a37.371 37.371 0 0 0 -26.854-11.523c-8.506 0-21.552 2.69-28.013 6.876-7.39-12.1-27.826-27.337-48.378-27.337-21.527 0-43.345 12.689-55.584 32.327-7.113 11.432-12.406 24.7-12.406 39.577 0 38.387 13.368 63.506 20.962 73.2 11.313 14.446 27.831 23.924 41.439 23.924 10.183 0 29.1-3.922 41.382-30.19a96.1 96.1 0 0 0 4.121-10.45c7.711 9.755 18.472 16.374 31.138 16.374 21.5 0 32.505-17.4 32.97-18.027a48.223 48.223 0 0 0 10.094 11.236 37.946 37.946 0 0 0 23.8 8.738c11.975 0 26.91-10.858 27.217-11.129.458 3.371.948 6.741 1.513 10.111v.029.029a19.93 19.93 0 0 0 11.724 15.114 20.31 20.31 0 0 0 9.581 2.412 20.759 20.759 0 0 0 5.125-.646 96.973 96.973 0 0 0 41.7-22.651 91.891 91.891 0 0 0 25.765-40.5 110.728 110.728 0 0 0 3.449-49.621z" fill="#fa5d53"/><path d="m199.136 168.5c5.542 1.257 10.435-2.9 13.852-7.1a23.053 23.053 0 0 0 1.557 3.607c3.9 7.211 12.223 9.943 19.418 5.7 7.625-4.495 13.445-14.261 14.841-22.838.922-5.666-7.749-8.1-8.679-2.393-.975 5.993-4.917 14.564-10.7 17.459-7.722 3.864-9-7.876-8.835-12.8.06-1.775.2-3.563.42-5.356.452-1.757.831-3.533 1.154-5.314a4.848 4.848 0 0 0 .022-1.646 112.622 112.622 0 0 1 3.112-11.443 62.272 62.272 0 0 0 7.426-3.93c6-3.665 11.749-7.677 17.383-11.876 5.175-3.857 10.442-7.984 16.505-10.359 5.761-2.256 13.326-3.141 18.609.807 3.823 2.858 6.013 9.363 2.716 13.377-3.648 4.442 2.684 10.845 6.364 6.364 5.787-7.046 5.3-16.836-.49-23.819-6.848-8.255-19.043-9.07-28.619-5.786-11.276 3.867-20.2 12.484-29.953 19-1.711 1.143-3.469 2.364-5.273 3.551q1.04-2.581 2.089-5.076c2.234-5.335-6.471-7.664-8.679-2.393q-2.758 6.587-5.017 13.354c-.1.03-.2.065-.307.094a12.257 12.257 0 0 1 -7.49.083 9.572 9.572 0 0 1 -2.519-1.329 10.918 10.918 0 0 0 3.7-8.356 4.592 4.592 0 0 0 -3.3-4.339 8.782 8.782 0 0 0 -11.34 6.924c-.9 4.558 1.278 9.218 4.646 12.213a17.244 17.244 0 0 0 13.715 4.254q-.957 3.507-1.772 7.055c-.03.13-.058.263-.087.393-.044.155-.082.316-.113.485-.009.05-.019.1-.029.152-.281 1.27-.551 2.564-.8 3.876-1.482 6.4-3.943 12.856-9.066 17.135-4.818 4.024-5.286-5.275-5.037-8.445.394-5.011 2.495-9.816 4.46-14.375 2.269-5.263-5.483-9.852-7.771-4.542-3.023 7.014-6.157 14.292-5.7 22.108.337 6.052 2.91 14.01 9.587 15.524z" fill="#2f2f51"/><path d="m282.541 167.687c7.6-7.481 6.351-18.355-.011-26.166-2.337-2.87-11.963-8.922-10.29-13.03 1.695-4.162 8.39-1.387 6.078.817-4.2 4 2.17 10.362 6.364 6.364 5.071-4.833 3.151-13.863-2.758-17.112-8-4.4-19.26 2.348-19.019 11.469.293 11.115 16.1 14.059 16.049 25.16-.027 6.008-6.578 9.87-12.058 9.625-2.323-.1-5.65-.842-5.424-3.787s4.378-5.124 6.513-6.469c4.889-3.078.378-10.869-4.542-7.771-7.5 4.719-16.109 14.6-7.583 22.9 7.181 6.99 20.088 4.493 26.681-2z" fill="#2f2f51"/><path d="m339.313 134.46c-.624 2.551-2.67 7.251-5.949 6.929-3.628-.357-3.216-6.349-3.134-8.807.2-5.86-8.5-5.685-9 0a28.2 28.2 0 0 1 -4.165 12.913c-.878 1.34-2.068 3.381-4.064 3.131-2.674-.335-3.017-4.53-3.088-6.454-.156-4.277 1.02-8.847 2.408-12.873.757-2.194 5.185-12.226 7.606-5.163 1.868 5.447 10.564 3.107 8.679-2.393-2.618-7.635-12.026-12.2-18.776-6.206-6.733 5.975-9.519 19.684-8.848 28.268.632 8.093 7.747 16.794 16.624 13.06 3.925-1.651 6.718-5.046 8.679-9.042a10.784 10.784 0 0 0 5.88 2.622c7.891 1.03 14.139-6.7 15.826-13.594 1.377-5.623-7.3-8.023-8.678-2.391z" fill="#2f2f51"/><path d="m256.14 138.968a20.523 20.523 0 0 0 3.314-12.709c-.329-4.107-2.123-9.1-6.915-9.524-4.439-.39-8.118 3.538-8.14 7.877a7.932 7.932 0 0 0 5.251 7.467 16.406 16.406 0 0 1 -1.281 2.346c-3.157 4.875 4.631 9.393 7.771 4.543z" fill="#2f2f51"/><path d="m313.782 329.074c-.393 1.469-.76 2.947-1.111 4.431-.022.065-.048.126-.068.193-2.789 9.389-6.2 20.28-12.5 27.964a10.164 10.164 0 0 1 -1.8 1.912 3.692 3.692 0 0 1 -.386.24c-1.827-1.6-1.692-6.211-1.7-8.035a48.787 48.787 0 0 1 5.851-23.237c2.712-5.114-5.054-9.667-7.771-4.542a63.835 63.835 0 0 0 -4.99 12.355c-.044.11-.09.218-.128.335a91.135 91.135 0 0 1 -9.429 19.11c-.719 1.163-3.369 6.548-5.011 6.715 1.47-.15.041-5.255.115-6.559a29.379 29.379 0 0 1 2.239-8.9c1.835-4.716-6.072-8.084-8.225-3.468-2.279 4.887-4.223 10.243-7.084 14.824-1.151 1.843-3.9 5.453-6.492 3.552-1.506-1.1-1.708-4.239-1.793-5.84a27.3 27.3 0 0 1 1.029-8.879 4.764 4.764 0 0 0 .284-.957 27.573 27.573 0 0 1 2.156-4.984c2.973-5.32 10.284-10.415 13.737-2.495 2.309 5.3 10.066.719 7.771-4.542-4.153-9.523-15.477-11.1-23.273-4.873-4.774 3.811-7.94 9.689-9.529 15.872-2.332 5.52-5.157 11.3-9.239 15.742-.836.91-2.469 3.01-3.8 3.155a1.807 1.807 0 0 0 -.448.093 1.491 1.491 0 0 0 -.262-.314 5.833 5.833 0 0 1 -.857-2.489c-1.226-6.539 1.332-14.872 2.669-21.252 1.59-7.586 3.271-15.155 4.909-22.731 1.221-5.647-7.453-8.06-8.678-2.393-.7 3.228-1.434 6.458-2.168 9.692q-1.165 4.16-2.437 8.287a10.594 10.594 0 0 0 -11.658-3.529c-10.656 3.12-15.486 19.027-15.491 28.742-.006 11.815 12.734 19.847 21.962 10.636a19.852 19.852 0 0 0 2.654-3.35 12.366 12.366 0 0 0 3.247 5.4c4.59 4.389 10.747 1.87 14.846-1.741a34.751 34.751 0 0 0 5.138-5.742c2.068 5.065 6.2 8.873 12.583 7.8a14.776 14.776 0 0 0 9.091-5.653 12.06 12.06 0 0 0 1.725 2.28c3.83 3.952 8.595 4.048 12.347.28a49.085 49.085 0 0 0 6.452-8.231c1.753 5.385 5.925 10.581 11.989 8.668a12.114 12.114 0 0 0 3.839-2.1 63.911 63.911 0 0 1 -12.4 22.355 28.812 28.812 0 0 1 -10.529 8.04c-3.3 1.34-9.278 3.139-11.267-.932-3.115-6.378 3.1-11.191 9.159-14.411q3.5-1.613 6.9-3.235a3.6 3.6 0 0 0 2.041-4.89 4.791 4.791 0 0 0 -6.583-2.882c-1.612.71-3.271 1.481-4.919 2.326-21.577 10.128-46.342 20.311-69.858 11.487-9.731-3.641-18.771-11.074-22.506-20.974-3.777-10.016-1.875-21.747 5.852-29.319 4.144-4.06-2.222-10.423-6.364-6.364-9.129 8.945-12.247 22.345-9.219 34.646 3 12.171 12.326 22.194 23.3 27.835 20.44 10.508 42.4 6.724 63-.9a17.092 17.092 0 0 0 -.14 6.293c2.143 13.7 16.988 13.544 26.954 8.257 10.57-5.607 18.3-17.492 22.956-28.182 6.68-15.325 7.707-32.189 11.992-48.2 1.504-5.6-7.176-7.99-8.674-2.392zm-105.5 37.045c-3.109-5.146.315-13.987 3.068-18.717.961-1.651 2.688-4.8 4.743-5.2 3.841-.742 4.234 4.3 2.731 6.691a3.984 3.984 0 0 0 .768 5.368c-2.144 5.967-7.207 18.639-11.306 11.858z" fill="#009995"/><path d="m168.2 184.12c-19.72-5.87-40.64 5.57-51.06 22.29-11.71 18.82-12.15 43.5-6.29 64.35a80.088 80.088 0 0 0 13.74 27.81c6.03 7.7 14.52 15.91 24.77 16.9 25.87 2.51 34.12-34.01 36.3-54.02 2.53-.85 2.35-5.13-.63-4.86-5.21.47-10.43.75-15.67.75-4.73 0-10.24.4-14.79-1.03-2.73-.85-4.07 2.85-2.18 4.37a2.433 2.433 0 0 0 -.92 1.82c-.22 4.04-.61 8.06-1.23 12.05a2.723 2.723 0 0 0 2.3 3.09 3.555 3.555 0 0 0 .81.2 28.821 28.821 0 0 0 6.69.1c-.33 1.89-.68 3.78-1.1 5.65-.34 1.49-.84 6.79-1.97 7.57-1.62 1.12-4.65.16-5.67-1.07a13.775 13.775 0 0 1 -1.39-2.83c-1.28-2.75-2.4-5.57-3.4-8.43a110.793 110.793 0 0 1 -5.9-32.37c-.35-9.74-.02-20.53 5.46-28.97 1.72-2.64 4.11-5.73 7.54-5.27s4.8 3.42 5.47 6.54c1.05 4.93.47 10.5.35 15.59-1.39 1.47-.87 4.46 1.63 4.22q16.875-1.56 33.6-4.27c2.2-.35 2.22-2.79.96-4.07 3.91-20.02-7.5-40.18-27.42-46.11z" fill="#2f2f51"/><path d="m228.69 203.67a2.555 2.555 0 0 0 -.95-.18c-15.94-.03-24.24 15.09-26.09 29.1-2.12 16.07-.77 34.92 9.18 48.37 3.92 5.28 9.6 9.84 16.39 10.32 7.48.54 14.27-3.73 18.8-9.38 10.55-13.13 14.19-32.56 12.35-48.96-1.7-15.06-11.91-33.63-29.68-29.27zm2.92 62.45c-6.05 4.88-8.4-6.15-9.09-10.06-.8-4.49-1.35-12.73 3.91-14.08a2.3 2.3 0 0 0 1.92.26c12.99-3.54 9.3 19.02 3.26 23.88z" fill="#2f2f51"/><path d="m291.31 196.54a2.079 2.079 0 0 0 -1.97-.19c-16.99 6.05-22.3 25.05-23.12 41.39a82.963 82.963 0 0 0 3.79 29.19c2.52 7.93 6.16 16.23 12.81 21.56 15.06 12.05 30.76-.79 37.72-15.04 4.29-8.78 6.13-18.38 7.37-28 1.16-8.97 2.24-18.29.1-27.2a29.842 29.842 0 0 0 -36.7-21.71zm9.18 70.22c-1.52 1.99-1.35 1.99-4.25 1.93-2.94-.07-3.03-.4-4.29-2.78a24.434 24.434 0 0 1 -2.42-7c-.84-4.51-1.12-12 3.07-14.82a2.506 2.506 0 0 0 2.61-.42c2.15-1.77 6.23-.97 8.37.51 3.03 2.09 3.11 5.58 2.57 8.93a30.807 30.807 0 0 1 -5.66 13.65z" fill="#2f2f51"/><path d="m382.36 183.8c-13.95-7.83-34.21-6.57-49.06-2.22-2.43.72-2.12 3.87-.35 4.72q1.605 30.195 3.21 60.38c1.08 20.28 2.32 40.55 5.68 60.6a2 2 0 0 0 1.86 1.8 2.318 2.318 0 0 0 2.38.67c25.32-6.42 46.98-25.78 54.7-50.98 7.41-24.14 6.52-60.97-18.42-74.97zm-9.18 65.3a64.147 64.147 0 0 1 -9.96 21.12q-1.47-21.84-2.95-43.67a10.048 10.048 0 0 1 13.28 4.28c2.85 5.39 1.08 12.72-.37 18.27z" fill="#2f2f51"/><g fill="#ffc533"><path d="m169.481 123.656c1.427-8.441-2.924-17.791-9.508-22.96a27.462 27.462 0 0 0 -29.878-2.429c-9.175 4.906-15.972 14.956-15.531 25.57a18.45 18.45 0 0 0 10.289 16.094 10.165 10.165 0 0 0 -2.52 9.038 120.541 120.541 0 0 1 -17.984-.56c-1.754-.145-1.983 2.5-.4 2.977 6.849 2.088 14.245 2.308 21.342 1.827 1.338-.091 2.709-1.383 2.17-2.849a7.189 7.189 0 0 1 2.955-8.941c.205.019.4.054.613.066a1.268 1.268 0 0 0 1.329-.749 6.592 6.592 0 0 1 6.024 2.47c1.392 1.555 3.7.565 4.314-1.139a23.256 23.256 0 0 1 11.69-12.974 18.821 18.821 0 0 1 7.813-1.971v.043c-.277 3 4.344 4.148 5.663 1.534.01-.02.017-.041.027-.062 1.9 1.31 3.18 3.515 3.313 6.889.091 2.312 3.547 3.657 4.688 1.27 2.998-6.291-1.023-10.91-6.409-13.144zm-9.757-1.326c-8.885 1.437-16.33 7.385-20.507 15.186a12.022 12.022 0 0 0 -11.438.137c-6.9-2.63-10.268-10.651-8.56-17.946a24.272 24.272 0 0 1 16.03-17.034 22.059 22.059 0 0 1 20.837 3.786c5.167 4.324 6.427 9.758 6.382 15.7a15.115 15.115 0 0 0 -2.744.17z"/><path d="m110.333 133.786a153.3 153.3 0 0 0 -18-.469 2.017 2.017 0 0 0 0 4.031 153.278 153.278 0 0 0 18-.469 1.548 1.548 0 0 0 0-3.093z"/><path d="m108.08 108.5a35.484 35.484 0 0 1 -10.138-5.446c-1.7-1.236-3.886 1.57-2.263 2.932a27.029 27.029 0 0 0 11.574 5.512 1.556 1.556 0 0 0 .827-2.998z"/><path d="m136.1 78c-.248-2.2-3.656-2.312-3.531 0 .145 2.675.574 5.343.9 8 .233 1.9 3.151 2.018 3.063 0-.117-2.662-.132-5.351-.432-8z"/><path d="m182.12 90.453c-2.663 2.74-4.537 6.133-6.875 9.125-1.184 1.516.8 3.675 2.177 2.177 2.672-2.917 5.775-5.441 8.134-8.651 1.487-2.025-1.737-4.404-3.436-2.651z"/><path d="m390.28 124.064a41.374 41.374 0 0 1 -20.333-10.038c-1.585-1.415-4.7-.078-3.863 2.249 2.748 7.634 1.972 15.344-1.286 22.6-.156-.009-.306-.025-.464-.032-2.281-.1-2.253 3.384 0 3.531 6.065.4 13.174 3.256 16.5 8.634a2.5 2.5 0 0 0 4.555-1.92c-1.859-7.865-.417-15.026 6.182-20.147 1.698-1.316.729-4.493-1.291-4.877zm-22.073 15.211a32.25 32.25 0 0 0 3.425-17.5 42.514 42.514 0 0 0 12.241 6.538 22.14 22.14 0 0 0 -5.207 15.146 28.359 28.359 0 0 0 -10.459-4.184z"/><path d="m150.929 348.788a30.825 30.825 0 0 1 -11.88 1.566 27.153 27.153 0 0 1 -12.362-7.771c-1.474-1.589-4.5.056-3.743 2.179a38.176 38.176 0 0 1 1.534 21.455c-.351 1.6 1.15 3.761 3 3 7.314-3.035 15.912-.031 19.149 7.132.186.518.381 1.034.6 1.546 1.268 3.015 6.262 1.7 4.983-1.374a26.439 26.439 0 0 1 1.491-24.133c1.023-1.771-.701-4.294-2.772-3.6zm-21.288 14.838a48.622 48.622 0 0 0 -.332-11.744 27.719 27.719 0 0 0 5.339 2.085 24.651 24.651 0 0 0 9.677 1.767 2.01 2.01 0 0 0 1.617-.913c.379-.042.758-.1 1.136-.154a30.641 30.641 0 0 0 -2.217 12.626 20.387 20.387 0 0 0 -15.219-3.667z"/><path d="m371.08 338.681c-10.378 4.66-21.636 9.189-33.046 5.689-3.207-.984-4.537 3.969-1.379 5 .074.024.149.039.224.063.685 4.872 1.448 9.6 1.208 14.569-.256 5.289-1.633 10.105-3.074 15.153-.953 3.34 3.792 4.9 5.3 2.236l.006-.014a3.138 3.138 0 0 0 .287-.679c.022-.077.049-.149.072-.225q.4-1 .746-2.033c4.245-9.668 16.227-12.8 25.878-9.746 3.063.969 4.8-3.478 2.146-5.091-8.911-5.415.225-16.231 4.719-20.918 2.115-2.199-.532-5.151-3.087-4.004zm-27.553 29.692a41.05 41.05 0 0 0 -2.182-17.878c7.828 1.227 15.572-.689 23.015-3.508-2.956 4.825-4.773 10.266-3.116 15a26.048 26.048 0 0 0 -17.717 6.387z"/><path d="m164.47 233.23c.26-6.73 1.16-14.75-2.24-20.55-2.63-4.5-7.78-7.06-12.8-5.01-12.9 5.28-14.12 25.46-13.87 37.02.35 16.11 3.55 32.94 11.11 47.3 2.28 4.34 7.39 8.75 12.24 5.03 1.83-1.41 2.57-3.56 3.23-5.67a104.756 104.756 0 0 0 3.16-14.57 2.562 2.562 0 0 0 -2.27-4.39 25.779 25.779 0 0 1 -7.57.65q.72-5.25 1.01-10.54a2.722 2.722 0 0 0 -.05-.65 78.055 78.055 0 0 0 10.98.48c4.4.05 8.8-.09 13.2-.39a111.273 111.273 0 0 1 -6.38 26.62c-3.45 9.08-9.02 19.25-19.31 21.61-9.98 2.3-18.84-5.71-24.81-12.71a71.875 71.875 0 0 1 -13.28-24.24c-5.6-17.05-6.6-36.58-.49-53.64 6.04-16.89 21.28-31.41 39.95-31.99 22.58-.69 39.02 20.73 34.31 42.31q-13.02 2.025-26.12 3.33z"/><path d="m229.08 208.72a2.227 2.227 0 0 1 -1.87-.21c-18.57.41-21.53 23.62-21.31 37.84.13 8.59 1.45 17.38 5.16 25.2 3.27 6.91 9.26 15.01 17.79 14.78 9.53-.25 15.41-9.38 18.92-17.14a68.977 68.977 0 0 0 6-25.79c.49-13.81-4.92-40.34-24.69-34.68zm1.54 63.55c-9.41 1.95-12.42-10.62-13.29-17.29-1.03-7.84 1.23-19.06 11.43-18.16a2.408 2.408 0 0 1 .79.2c7.23-.44 12.48 6 12.83 13.28.34 6.89-3.82 20.33-11.76 21.97z"/><path d="m322.29 216.5c-4.42-12.54-18.65-18.82-31.05-14.72a2.182 2.182 0 0 1 -1.81-.12c-15.75 6.63-18.81 28-18.26 43.09.5 13.54 4.24 33.27 16.64 41.15 16.09 10.23 28.45-12.02 32.04-24.67a131.413 131.413 0 0 0 3.95-23.57c.65-7.04.88-14.4-1.51-21.16zm-20.5 56.23c-14.55 12.05-27.94-30.85-8.06-34.46a2.622 2.622 0 0 1 1.29.08c6.03-1.96 14.06 1.07 15.97 7.38 2.52 8.32-2.67 21.58-9.2 27z"/><path d="m385.22 191.95c-11.98-10.59-32.14-10.18-47.31-6.43q1.575 29.61 3.14 59.22c1.06 19.97 2.18 39.96 5.39 59.73a73.607 73.607 0 0 0 35.18-21.86c11.54-12.91 16.68-28.79 17.67-45.87.93-15.93-1.45-33.63-14.07-44.79zm-5.3 46.53c-.47 15.35-8.09 30.45-18.29 41.61-2.18 2.38-5.71-1.17-3.54-3.54.18-.19.35-.39.52-.59q-1.59-23.52-3.18-47.05c-1.82-.33-3.2-2.6-1.44-4.14 4.82-4.22 11.32-5.71 17.24-2.79 6.35 3.15 8.9 9.71 8.69 16.5z"/></g></svg>