<svg id="Layer_1" height="512" viewBox="0 0 512 512" width="512" xmlns="http://www.w3.org/2000/svg" data-name="Layer 1"><path d="m424.083 224.654c-3.5-15.084-15.527-27.5-27.571-36.771a31.042 31.042 0 0 0 -14.706-7.8 26.046 26.046 0 0 0 -24.069 7c-2.224-1.251-16.15-5.71-20.709-6.768-4.625-1.073-9.606 2.186-9.494 7.232.062 2.777.786 6.821-.259 9.262-7.33-7.307-20.2-13.829-27.778-13.922-11.152-.137-22.512 5.282-31.4 13.1-4.035-3.576-9.783-11.445-16.6-11.445-.192 0-.715-4.392-1.2-6.582-.92-4.132-5.231-7.214-8.366-9.646-2.767-2.146-7.36-7.031-10.818-7.652a57.32 57.32 0 0 0 -16.734-.593c-3.985.443-11.748-10.012-14.56-12.679-13.97-13.252-38.92-15.847-57.153-11.9-14.672 3.173-29.084 11.436-37.274 24.292-7.7 12.085-7.667 27.2-.822 39.623 4.209 7.642 10.468 13.843 16.963 19.555 3.25 2.858 15.09 14.864 17.714 14.526-11 1.414-21.721 7.392-26.617 17.681-5.054 10.62-1.79 23.616 5.331 32.475 16.256 20.225 42.818 34.98 68.983 26.649 13.535-4.31 25.839-15.463 30.319-28.917 5.034 6.528 12.1 11.654 18.434 16.863a31.363 31.363 0 0 0 21.233 7.6c10.764-.322 20.114-6.14 26.867-14.192 2.952 3.479 14.807 10 23.7 11a30.267 30.267 0 0 0 20.575-4.668 83.752 83.752 0 0 0 12.5 12.06 36.455 36.455 0 0 0 14.364 7.106c5.775 1.563 11.6 2.99 17.3 4.818 5.97 1.915 10.057-3.968 9.226-9.226-.723-4.576-1.177-9.157-1.447-13.749a28.791 28.791 0 0 0 7.8 1.882c10.345.988 19.067-4.338 25.089-12.441 13.216-17.783 16.076-42.641 11.179-63.773zm-260.389 31.846a9.311 9.311 0 0 0 .149-6.949c.633.422 1.259.85 1.885 1.278a16.211 16.211 0 0 1 2.91 12.022c-.635 4.517-2.931 8.282-6.833 9.721a26.725 26.725 0 0 1 1.889-16.072zm3.108-48.319a59.222 59.222 0 0 1 -6.413-7.629c-4.169-5.992-6.68-12.938-2.792-19.748 3.272-5.732 9.528-9.681 17.543-9.681.944 6.107-6.433 18.4-6.6 18.943-.019.046-.042.09-.06.136-2.615 6.41 2.21 11.9 6.732 15.86 4.226 3.7 10.352 10.017 15.9 11.206 4.861 1.042 9.926-.213 14.329-2.4.052 2.41.359 21 .793 27.95-.134-2.218-31.606-26.662-39.434-34.634z" fill="#fa5d53"/><path d="m414.84 156.252c-1.927-2.748-3.937-5.5-6-8.228a20.516 20.516 0 0 0 2.193-22.2c-4.576-9.342-15.324-15.119-25.157-13.613a11.163 11.163 0 0 0 -5.241 1.567 19.107 19.107 0 0 0 -3.118 1.829 10.2 10.2 0 0 0 -7.4-3.037h-.064l-17.118.095a10.556 10.556 0 0 0 -5.008 1.257 11.078 11.078 0 0 0 -8.738-1.44 10.111 10.111 0 0 0 -7.181 7.265l-1.167 4.309q-.475-1.729-.956-3.506a10.18 10.18 0 0 0 -12.822-7.226 11.406 11.406 0 0 0 -2.44.981 10.559 10.559 0 0 0 -5.907-1.734h-.066l-17.026.094a10.545 10.545 0 0 0 -5.048 1.281 10.244 10.244 0 0 0 -1.217-.8 11.084 11.084 0 0 0 -10.911.16 10.02 10.02 0 0 0 -4.835 8.451l-1.6-2.713a10.535 10.535 0 0 0 -19.551 5.236c-.187 12.872.277 25.9 1.376 38.709a10.69 10.69 0 0 0 10.813 9.8c.333 0 .669-.014 1.008-.043a9.753 9.753 0 0 0 9-7.935l1.087 1.839a10.623 10.623 0 0 0 18.113.007 9.552 9.552 0 0 0 9.448 4.754c5.926-.7 11.767-1.546 17.36-2.506a9.83 9.83 0 0 0 6.579-4.15 9.97 9.97 0 0 0 8.707 4.966c.348 0 .7-.017 1.054-.052a10.652 10.652 0 0 0 9.3-7.642l5.293-19.527c.429 6.45 1.034 12.883 1.854 19.236.743 5.753 4.944 9.758 10 9.758a9.675 9.675 0 0 0 1.156-.069c5.87-.7 11.657-1.531 17.2-2.479a10.514 10.514 0 0 0 7.961 3.451h.14a10.16 10.16 0 0 0 9.777-6.892q.784 1.09 1.548 2.181a10.518 10.518 0 0 0 9.63 4.508 11.041 11.041 0 0 0 8.973-6.12 9.651 9.651 0 0 0 -.999-9.822z" fill="#2f2f51"/><path d="m185.575 363.162c.51-6.373 1.11-12.89 3.531-18.873a19.974 19.974 0 0 1 4.5-7.2c.573-.539 2.661-2.549 3.663-2.276a2.063 2.063 0 0 1 1.32 2.828c-2.575 5.169 5.186 9.733 7.771 4.542 5.265-10.568-6.1-20.2-15.9-14.03a22.274 22.274 0 0 0 -6.518 6.361c.013-1.2.032-2.4.066-3.6.161-5.793-8.839-5.789-9 0a211.791 211.791 0 0 0 1.564 32.254c.714 5.662 8.528 5.888 9.003-.006z" fill="#009995"/><path d="m222.785 368.452c11.685 1.043 20.511-9.845 19.373-21.06-.961-9.463-7.371-18.5-17.351-19.086a3.967 3.967 0 0 0 -4.329 4.286c-.3.037-.607.086-.9.15-5.192 1.11-9.437 6.682-11.259 11.385-4.241 10.941 2.529 23.26 14.466 24.325zm-4.433-23.976c1-1.3 4.187-4.923 5.8-1.908 1.849 3.454 6 2.494 7.648-.069 2.578 5.566 1.32 13.924-4.119 16.4a8.385 8.385 0 0 1 -11.669-6.916 10.705 10.705 0 0 1 2.34-7.507z" fill="#009995"/><path d="m254.864 367.549c4.339.509 7.231-1.722 9.241-4.97 3.733 5.212 9.684 8.106 17.261 5.212 14.552-5.558 14.854-23.1 8.113-34.765-2.9-5.013-10.677-.487-7.771 4.542 3.824 6.618 5.651 17.143-2.6 21.413-7.554 3.908-10.436-5.11-10.406-10.971.025-4.963-7.754-6.258-8.839-1.2-.479 2.233-1.5 11.213-4.078 11.9.317-.084-1.047-1.061-1.555-1.839-1.145-1.753-1.449-4.719-1.672-6.709a34.73 34.73 0 0 1 1.073-12.682c1.457-5.61-7.221-8-8.679-2.393-2.406 9.254-3.726 30.864 9.912 32.462z" fill="#009995"/><path d="m305.4 364.912q-.337-14.981-.673-29.961c-.13-5.782-9.13-5.8-9 0q.337 14.98.673 29.961c.13 5.782 9.131 5.803 9 0z" fill="#009995"/><path d="m318.871 365.968c2.172-8.543 4.488-18.469 11.466-24.49 2.13-1.838 4.721-3.254 6.816-.868 1.54 1.755 2.313 4.749 2.843 6.965 1.325 5.543.534 11.039-1.276 16.371-1.866 5.5 6.824 7.856 8.678 2.393 2.56-7.541 3.165-15.853.617-23.495-2.153-6.457-6.3-13.617-14.105-12.855-6.936.677-11.9 5.431-15.524 11.506.028-1.162.041-2.323.087-3.486.233-5.792-8.768-5.781-9 0a218.993 218.993 0 0 0 .559 26.764c.396 4.812 7.516 6.399 8.839 1.195z" fill="#009995"/><path d="m399.107 332.375c-.548-5.5-8.886-5.74-9-.608a21.187 21.187 0 0 0 -5.893-3.664c-11.965-5.047-25.5 2.269-30.318 13.686-2.466 5.838-3.354 12.723.071 18.394 3.415 5.653 10.24 8.522 16.541 9.245a26.975 26.975 0 0 0 21.432-7.013c.006.285.02.57.025.855.165 9.056.853 18.766-5.357 26.112a25.405 25.405 0 0 1 -21.1 8.9c-4.449-.208-9.143-1.1-12.69-3.96-4.941-3.986-2.408-7.954 1.763-11.209a3.522 3.522 0 0 0 .95-4.922 4.91 4.91 0 0 0 -7.314-1.442c-19.621 15.967-48.319 18.786-72.575 17.317-24.718-1.5-49.2-6.679-73.225-12.491-10.548-2.552-20.933-5.527-31.452-7.758.172-3.849.03-7.733-.049-11.513q-.15-7.217-.6-14.418a4.191 4.191 0 0 0 -.077-1.224q-.456-7.151-1.165-14.286c-.548-5.5-8.886-5.74-9-.608a21.186 21.186 0 0 0 -5.893-3.664c-11.966-5.047-25.5 2.269-30.318 13.686-2.466 5.838-3.354 12.723.072 18.394 3.415 5.653 10.24 8.522 16.54 9.245a26.981 26.981 0 0 0 21.55-7.123c.149 3.275.241 6.589.108 9.852a125.45 125.45 0 0 0 -16.7-1.664c-11.984-.33-28.589 1.169-33.745 14.292-5.682 14.461 12.594 21.973 23.784 22.5 13.519.631 27.066-6.862 32.615-19.467a30.457 30.457 0 0 0 1.724-5.208c37.444 9 74.939 20.091 113.75 20.779 19.2.34 39.932-2.562 57.384-11.458.942 5.018 5.09 9.185 9.408 11.586 9.9 5.507 23.561 5.079 33.37-.316a32.709 32.709 0 0 0 16.9-25.029c1.809-14.907-.034-30.926-1.516-45.798zm-252.636 28.07c-7.9 1.2-17.647-2.645-15.39-12.059 1.54-6.423 6.345-11.754 13.1-12.852 3.4-.552 7.847.508 10.2 3.194 1.709 1.952 2.1 5.514-.33 7.258-4.208 3.026-.956 9.687 3.187 8.453a17.68 17.68 0 0 1 -10.767 6.006zm-10.2 37.872c-4.827-.135-17.352-2.034-16.547-9.273.721-6.474 11.052-8.958 16.126-9.431a96.651 96.651 0 0 1 25.177 1.154c-2.927 10.888-13.55 17.862-24.752 17.55zm240.229-37.872c-7.9 1.2-17.646-2.645-15.39-12.059 1.54-6.423 6.345-11.754 13.1-12.852 3.4-.552 7.848.508 10.2 3.194 1.709 1.952 2.1 5.514-.33 7.258-4.208 3.026-.956 9.687 3.187 8.453a17.68 17.68 0 0 1 -10.767 6.006z" fill="#009995"/><path d="m273.608 120.134q.194 11.117.388 22.233l-13.153-22.267c-2.286-3.871-8.321-2.18-8.385 2.271a381.291 381.291 0 0 0 1.355 38.109c.491 5.728 9.5 5.78 9 0q-.917-10.7-1.224-21.421l13.319 22.547c2.238 3.787 8.465 2.244 8.386-2.271l-.685-39.2c-.102-5.786-9.102-5.805-9.001-.001z" fill="#ffc533"/><path d="m311.256 152.323c-3.578.614-7.167 1.141-10.763 1.622q-.579-5.15-.978-10.312c2.541-.347 5.084-.674 7.633-.962 2.415-.273 4.5-1.873 4.5-4.5 0-2.221-2.069-4.774-4.5-4.5-2.738.309-5.471.658-8.2 1.026q-.222-4.536-.31-9.081l8.138-.045c5.79-.032 5.8-9.032 0-9l-17.118.095c-5.783.032-5.8 9.01-.019 9a306.62 306.62 0 0 0 2.459 33.3c.282 2.183 1.844 4.816 4.5 4.5q8.559-1.016 17.053-2.461c5.695-.981 3.279-9.655-2.395-8.682z" fill="#ffc533"/><path d="m372.566 152.323c-3.578.614-7.167 1.141-10.763 1.622q-.579-5.15-.978-10.312c2.541-.347 5.084-.674 7.633-.962 2.415-.273 4.5-1.873 4.5-4.5 0-2.221-2.069-4.774-4.5-4.5-2.738.309-5.471.658-8.2 1.026q-.222-4.536-.31-9.081l8.138-.045c5.79-.032 5.8-9.032 0-9l-17.118.095c-5.783.032-5.8 9.01-.019 9a306.62 306.62 0 0 0 2.459 33.3c.282 2.183 1.844 4.816 4.5 4.5q8.559-1.016 17.053-2.461c5.695-.981 3.279-9.655-2.395-8.682z" fill="#ffc533"/><path d="m335.8 119.317-6.574 24.266c-2.815-7.667-4.99-15.567-7.131-23.463-1.514-5.584-10.2-3.214-8.678 2.393 3.433 12.659 7.042 25.234 12.878 37.031 1.754 3.545 7.259 2.492 8.225-1.075l9.958-36.759c1.514-5.598-7.165-7.986-8.678-2.393z" fill="#ffc533"/><path d="m407.926 157.7q-4.33-6.176-9-12.1c5.515-4.544 8.485-11.447 4.719-19.133-3.527-7.2-11.927-11.571-19.221-10.263a5.072 5.072 0 0 0 -2.945.878 13.74 13.74 0 0 0 -6.2 5.354c-2.159 3.364.854 6.552 3.961 6.629-.289 10.322-.123 20.667 0 30.983.067 5.787 9.067 5.8 9 0q-.054-4.664-.108-9.336a24.934 24.934 0 0 0 2.816-.757q4.8 6 9.214 12.284c3.293 4.706 11.099.214 7.764-4.539zm-19.55-32.8c3.263.637 6.664 3.534 7.522 6.321 1.645 5.345-3.145 9.131-7.823 10.416-.001-5.585.073-11.167.301-16.737z" fill="#ffc533"/><path d="m175.717 192.2a3.471 3.471 0 0 0 .289 4.254c5.887 5.887 26.884-4.341 26.884-24.4s-18.956-30.76-44.943-30.76-51.058 16.51-51.058 38.829c0 26.293 33.937 41.58 45.249 49.835s24.153 14.981 24.153 29.656-8.866 21.1-18.039 21.1-25.58-16.51-14.981-40.052c-13.452 0-25.594 9.784-25.594 20.8 0 22.819 23.76 31.583 40.637 31.583s39.076-11.716 39.076-36.168c0-14.071-15.887-26.009-25.994-35.413-7.519-7-16.219-12.642-23.5-19.889-7.56-7.529-14.774-17.116-13.685-27.729a24.059 24.059 0 0 1 6.746-13.908c6.616-6.928 17.122-10.2 26.274-7.371s16.159 12.087 15.545 21.647c-.413 6.477-3.935 12.286-7.059 17.986z" fill="#efeae1"/><path d="m297.2 189.979c-23.456 0-34.978 23.612-34.167 47.225a99.534 99.534 0 0 0 1.036 11.557c-3.936 10.422-11.1 26.035-20.287 26.035-5.7 0-9.794-6.522-9.794-14.675v-55.847h18.344v-12.229l-17.937-.408-5.28-23.74a43.121 43.121 0 0 0 -17.188.057q.628 29.009 1.256 58.018c.278 12.843.579 25.844 4.022 38.22 1.554 5.584 3.837 11.144 7.894 15.283 6.586 6.718 17.387 8.559 26.145 5.124 8.117-3.184 15.023-11.439 18.281-18.061 5.491 10.428 14.817 16.876 29.434 16.876 18.507 0 28.115-25.436 28.389-46.209.315-23.605-5.809-47.226-30.148-47.226zm17.8 47.376s-2.107 29.9-14.529 29.9-14.943-20.291-14.943-29.967 5.374-29.831 17.148-29.831 13.198 21.801 12.324 29.898z" fill="#efeae1"/><path d="m402.9 214.587c-1.792-7.33-4.838-14.549-10.1-19.961s-13-8.774-20.428-7.466-13.958 8-13.8 15.545l-3.568-8.677a112.59 112.59 0 0 0 -19.979-6.482c.807 34.956-.6 106.95 0 107.839.522.778 18.238 4.987 25.25 7.289a160.01 160.01 0 0 1 -1.978-32.384c4.159 9.495 16.932 14.037 26.152 9.3 5.487-2.82 9.272-8.115 12.142-13.576a73.936 73.936 0 0 0 6.309-51.427zm-31.009 50.513c-6.71 0-11.553-18.82-11.553-28.407 0-13.387 4.288-33.34 12.021-33.34s9.332 20.8 9.332 30.218c0 15.949-5.471 31.529-9.8 31.529z" fill="#efeae1"/><g fill="#ffc533"><path d="m119.637 167.074c.707-1.8-1.8-2.85-3.016-1.756-6.4 5.766-7.218 17.2-3.512 24.545a1.036 1.036 0 0 0 1.885-.795c-1.318-4.358-1.9-8.733-.245-13.085 1.226-3.217 3.638-5.717 4.888-8.909z"/><path d="m123.833 158.483a1.493 1.493 0 0 0 -1.776-.908 2.33 2.33 0 0 0 -1.515 1.219 2.029 2.029 0 0 0 -.147.548 1.428 1.428 0 0 0 .32 1.379 2.194 2.194 0 0 0 .222.986 1.392 1.392 0 0 0 1.542.627 2.534 2.534 0 0 0 1.354-3.851z"/><path d="m193.243 157.012c-.745-.875-2.228.269-1.595 1.231 3.341 5.08 3.449 10.174 3.748 16.03.1 1.949 3.031 2.53 3.529.478 1.555-6.412-1.586-12.925-5.682-17.739z"/><path d="m130.813 248.343c-3.614-.576-6.4 2.53-7.782 5.607-1.582 3.516-1.522 7.62-.955 11.359.188 1.241 1.886.764 2.01-.272.353-2.946.7-5.845 2.337-8.4 1.407-2.2 3.748-2.924 5.307-4.817.877-1.068.781-3.207-.917-3.477z"/><path d="m219.857 173a1.845 1.845 0 0 0 -3.687 0c-.191 9.477.551 19.026.852 28.5a1.016 1.016 0 0 0 2.031 0c.285-9.473 1.011-19.023.804-28.5z"/><path d="m284.93 197.729c-10.584 1.812-13.975 18.1-16.062 26.472a1.017 1.017 0 0 0 1.959.54 61.242 61.242 0 0 1 6.1-14.278c2.661-4.221 6.515-6.185 9.837-9.587a1.9 1.9 0 0 0 -1.834-3.147z"/><path d="m295.021 196.054a2.31 2.31 0 0 0 -3.466-1.306 2.451 2.451 0 0 0 -.115 4.1 1.431 1.431 0 0 0 1.253.1 1.884 1.884 0 0 0 .33.052 2.182 2.182 0 0 0 1.998-2.946z"/><path d="m386.054 196.765c-5.472-7.635-16.843-6.515-21.614 1.268-.6.984.827 2.132 1.62 1.25 5.039-5.614 11.9-5.288 17.418-.53 1.312 1.132 3.733-.374 2.576-1.988z"/><path d="m389.691 200.75a2.3 2.3 0 0 0 -1.49 1.534c-.007.021-.018.04-.025.06s-.005.033-.01.049c-.012.048-.02.1-.029.146a2.588 2.588 0 0 0 .326 1.966 2.218 2.218 0 0 0 2.128.991 1.226 1.226 0 0 0 1.466-.578c.011-.022.015-.047.026-.069a2.415 2.415 0 0 0 -2.391-4.1z"/><path d="m311.851 262.778c-1.379 1.654-2.348 3.518-3.936 5.031a17.1 17.1 0 0 1 -5.935 3.712 1.024 1.024 0 0 0 .544 1.974c4.69-.957 10.466-4.319 11.8-9.28.354-1.341-1.49-2.615-2.473-1.437z"/><path d="m380.295 261.65c-1.805 2.786-2.659 6.7-6.651 7.044a1.048 1.048 0 0 0 0 2.094c4.476.325 8.041-4.14 9.107-8.1a1.35 1.35 0 0 0 -2.456-1.038z"/><path d="m202.3 122.139c-5.358-3.73-17.193-10.2-23.639-6.386a3.774 3.774 0 0 0 -1.151 5.148l.3.449c1.071 1.625 3.979 2.3 5.3.487-.042.057 7.02 2.147 8.265 2.615a56.016 56.016 0 0 1 8.971 4.423 48.2 48.2 0 0 1 15.454 14.459c.79 1.129 2.861.342 2.3-1.07a45.861 45.861 0 0 0 -15.8-20.125z"/><path d="m211.784 94.451c-3.68-3.025-9.093 2.162-5.375 5.174 8.972 7.269 10.56 20.093 16.075 29.772a1.286 1.286 0 0 0 2.357-.941c-1.853-12.402-2.568-25.384-13.057-34.005z"/><path d="m238.771 101.1c-4.609 4.26-6.394 12.235-5.447 18.261.257 1.638 2.542 1.043 2.686-.363a16.748 16.748 0 0 1 2.341-7.76c1.422-2.174 3.353-3.6 5.227-5.332 3.222-2.97-1.596-7.768-4.807-4.806z"/></g></svg>