<svg id="Layer_1" height="512" viewBox="0 0 512 512" width="512" xmlns="http://www.w3.org/2000/svg" data-name="Layer 1"><path d="m383.522 216.3c-16.435-1.393-33.093-2.929-49.684-2.682-10.874.162-24.334-2.264-34.156 3.465a17.158 17.158 0 0 0 -2.989 2.205 15.763 15.763 0 0 0 -5.485 8.844 65.724 65.724 0 0 0 -38.771-13.193h-.128c-4 0-7.768 2.044-11.552 3.1-13.231 3.7-24.652 8.6-34.158 18.938 1.044-1.135-3.36-6.693-4.131-7.46-2.923-2.911-6.837-3.914-10.291-5.95-17.2-10.137-37.91-12.136-55.654-5.32-19.129 7.342-33.842 25.009-38.4 46.108a64.749 64.749 0 0 0 15.463 57.392 66.543 66.543 0 0 0 48.4 21.457c18.393 0 33.764-9.178 45.566-22.717-1.453 1.772 12.513 10.216 14.037 11.158a60.828 60.828 0 0 0 32.2 8.912 64.387 64.387 0 0 0 34.985-10.214c13.9-9.018 23.3-23.07 27.525-38.957 1.548 10.306-.464 21.573.172 32.049a16.5 16.5 0 0 0 16.429 15.657h.357c8.721-.214 17.016-.7 25.652-1.432a16.069 16.069 0 0 0 13.139-8.773c2.628-5.176 2.1-11.283 1.635-16.872-.112-1.363-.54-40.525-.44-40.524 3.655.058 7.02.028 9.51-.019a16.136 16.136 0 0 0 13.728-7.957c5.07-8.636 1.807-20.622 2.282-30.133a16.368 16.368 0 0 0 -15.241-17.082z" fill="#2f2f51"/><path d="m305.52 174.012h-86.814c-7.869 0-15.889-.282-23.882-.324l.1-.268 21.976-60.63a3.722 3.722 0 0 0 -2.057-4.977 4.759 4.759 0 0 0 -6.622 2.584 221.938 221.938 0 0 1 -13.993 30.354c-4.219 7.583-10.229 21.948-20.588 22.082-13.787.178-5.045-20.289-2.687-26.548 4.067-10.793 9.556-21.921 11.234-33.406 1.277-8.742-.478-18.415-7.332-24.541-7.008-6.263-17.353-7.168-25.992-4.21-9.188 3.145-17.359 9.4-21.562 18.272-3.995 8.43-6.676 18.722-2.415 27.568a17.459 17.459 0 0 0 23.548 8.327c9.889-4.584 13.473-15.5 13.225-25.72-.14-5.782-9.14-5.8-9 0 .186 7.665-3.341 20.4-13.69 18.492-10.906-2.008-6.943-17.563-3.9-24.125 3.882-8.365 13.013-14.951 22.368-15.462 9.79-.535 16.162 6.513 16.185 16.023.024 9.959-5.148 19.936-8.593 29.077-3.163 8.393-7.892 17.438-8.079 26.571-.145 7.093 3.182 14.451 9.952 17.343 7.131 3.047 15.163.473 20.77-4.441.219-.191.427-.4.641-.593q-1.462 4.167-2.958 8.324c-3.763.11-7.5.321-11.2.69-10.569 1.055-26.209 4.386-28.368 16.922-2.068 12 10.076 17.553 20.219 15.758a31.267 31.267 0 0 0 17.489-10.1c3.7-4.167 6.038-9.026 7.993-14.091 1.768.015 3.536.033 5.3.042 25.519.122 51.041.008 76.56.008h32.172c5.792-.001 5.801-9.001 0-9.001zm-134.551 21.806c-3.754 2.188-10.368 4.426-14.422 1.623-3.055-2.113-2.2-6.092.286-8.294 4.607-4.089 12.232-5.219 18.1-5.742 2.29-.2 4.585-.316 6.883-.382a26.788 26.788 0 0 1 -10.847 12.795z" fill="#009995"/><path d="m224.857 165.357c10.523-.254 16.326-10.136 19.5-18.891a29.869 29.869 0 0 0 1.791-12.241 23.832 23.832 0 0 0 5.171 0c-5.224 12.053-9.133 28.56 3.924 30.72 4.588.759 8.391-1.626 11.5-4.879.018.047.03.094.048.141 1.822 4.576 6.654 6.226 11.174 4.679 4.568-1.564 7.448-5.949 9.945-9.8 3.161-4.874-4.628-9.39-7.771-4.542-1.1 1.7-2.617 4.735-4.608 5.582-1.39.591-.51.545-.452-1a21.442 21.442 0 0 1 1.31-4.991c1.319-4.448 2.546-8.872 4.049-13.216 1.171-2.781 2.277-5.591 3.358-8.4 1.815-4.719-6.1-8.1-8.225-3.468-1.352 2.944-2.537 5.921-3.612 8.936-1.065 2.494-2.2 4.958-3.452 7.367-2.348 4.508-5.177 10.176-9.221 13.379-5.752 4.557-2.7-8.357-2.062-10.688a54.588 54.588 0 0 1 7.639-16.22c3.028-4.479-3.4-8.579-7.068-5.453a13.822 13.822 0 0 1 -15.627 1.3 16.241 16.241 0 0 0 -5.151-4.134 4.437 4.437 0 0 0 -6.616 3.584 4.639 4.639 0 0 0 -3.613.1 28.026 28.026 0 0 0 -16.412 22.178c-1.117 9.439 3.613 20.22 14.481 19.957zm-4.641-22.9a19.755 19.755 0 0 1 11.122-11.457 3.663 3.663 0 0 0 2.22-2.36 21.548 21.548 0 0 0 2.427 1.9c2.155 3.6 1.4 8.59-.008 12.729-1.668 4.895-4.955 12.828-11.121 13.093-6.903.291-6.177-9.626-4.639-13.909z" fill="#009995"/><path d="m292.188 126.122c-2.946 5 4.831 9.535 7.771 4.542a13.8 13.8 0 0 0 -2.31-16.885c-4.2-3.987-10.575 2.367-6.364 6.364a4.684 4.684 0 0 1 .903 5.979z" fill="#009995"/><path d="m378.96 149.362c-2.818-2.6-7.682-.829-7.682 3.182 0 1.736-3.924 4.318-5.2 4.936a10.844 10.844 0 0 1 -8.019.662 12.16 12.16 0 0 1 -6.549-5.235c10.035-3.366 24.648-14.644 18.266-26.064-7.358-13.165-23.974 1.041-27.576 9.721a22.763 22.763 0 0 0 -1.407 4.9 26.864 26.864 0 0 1 -1.346-4.719 31.7 31.7 0 0 1 -.662-5.493c-.039-1.093.075-3.176.078-3.186 1.242-5.139-5.327-7.556-8.225-3.468-6.321 8.917-10.908 18.9-15.054 29.012a24.718 24.718 0 0 1 1.017-23.681c3.013-4.964-4.767-9.492-7.771-4.542-8.046 13.256-5.491 29.513 4.57 40.929 2.459 2.79 6.378.9 7.521-1.986a243.308 243.308 0 0 1 10.121-23c1.87 5.81 5.492 10.83 10.938 12.388a21.428 21.428 0 0 0 12.39 12.632 19.886 19.886 0 0 0 16.25-1.1 22.406 22.406 0 0 0 6.244-4.981c3.2 4.11 5 8.981.988 13.582-5.652 6.489-14.852 5.736-22.5 4.22-9.381-1.858-19.7-4.626-28.809-.208-7.161 3.473-12.365 11.492-9.612 19.462 1.88 5.442 10.577 3.1 8.679-2.393-1.679-4.861 2.875-8.647 7.2-9.835 5.73-1.576 11.907-.057 17.563 1.117 9.218 1.914 18.949 3.473 27.616-1.212 5.25-2.838 9.732-7.7 10.951-13.659 1.781-8.749-3.911-16.381-9.98-21.981zm-25-14.66c1.366-1.433 7.176-6.186 7.972-2.333.564 2.732-3.717 6.6-5.5 8.056a21.211 21.211 0 0 1 -7.009 3.747c.033-.344.075-.687.136-1.027a16.544 16.544 0 0 1 4.399-8.445z" fill="#009995"/><path d="m199.289 275.145a1.976 1.976 0 0 0 -1.9-1.446c-6.5.253-12.951.282-19.459.762s-12.963 1.432-19.459 2.032a2.438 2.438 0 0 0 -1.161.4 1.682 1.682 0 0 0 -2.081 1.582c.031 1.167.087 2.336.157 3.505-.017.174-.042.35-.052.522h.086c.234 3.608.633 7.22 1.124 10.785a1.575 1.575 0 0 0 .247.667 1.4 1.4 0 0 0 1.185 1.939 53.476 53.476 0 0 0 16.635-.52c0 6.962-8.2 9.956-10.971 10.031-4.969.134-9.474-1.651-13.64-4.235-7.879-4.887-12.5-16.909-11.72-26.454.775-9.456 7.1-19.044 16.618-21.457 8.893-2.254 18.826 1.5 25.053 7.993a3.044 3.044 0 0 0 4.286 0c4.583-5.785 7.221-12.76 8.756-19.943a2.056 2.056 0 0 0 -3.148-2.219l-1.285-1.063a1.781 1.781 0 0 0 -.507-.512c-.185-.126-.374-.246-.561-.37l-.656-.543a2.02 2.02 0 0 0 -.855-.423c-13.2-8.128-29.682-10.521-44.444-4.855-15.364 5.9-26.293 20.058-29.729 35.992a50.326 50.326 0 0 0 12.092 44.962c11.137 12.127 27.909 18.747 44.3 16.514a39.133 39.133 0 0 0 23.741-12.072 91.435 91.435 0 0 0 9.181-10.579q-.209-1.1-.417-2.19a95.968 95.968 0 0 0 -1.416-28.805z" fill="#efeae1"/><path d="m301.99 265.81c-7.23-21.24-27.089-36.87-49.66-36.87-21.33 0-38.93 15.23-45.21 34.03-6.41 19.17 1.15 41.68 17.06 53.86 16.13 12.35 40.03 12.76 56.98 1.77 16.45-10.67 27.41-33.46 20.83-52.79zm-47.88 34.24a2.228 2.228 0 0 0 -1.37.53c-10.33-1.06-19.66-9.32-19.84-20.14a20.456 20.456 0 0 1 5.6-14.24c3.81-3.94 8.73-5.27 14.1-5.2 10.26.14 18.08 7.9 20.24 17.7 2.52 11.47-7.88 20.79-18.73 21.35z" fill="#efeae1"/><path d="m384.476 253.586c.082-8.318-.1-12.592.306-20.9a2.487 2.487 0 0 0 -2.437-2.437c-6.376-.532-12.757-.561-19.141-.961-6.159-.386-12.171-2.025-18.343-2.1a136.288 136.288 0 0 0 -18.343 1.183c-.167.02-.334.032-.5.05-.714-.117-1.431-.221-2.155-.291-5.111-.494-12.522-1.593-17.129 1.058a3.114 3.114 0 0 0 -.886.756 1.816 1.816 0 0 0 -1 1.37c-1 8.864-.4 14.464.209 23.353a2.182 2.182 0 0 0 3.176 1.818c7.189.831 15.234 1.2 22.463 1.477a2.439 2.439 0 0 0 .291-.017c-.544 9.785-.3 23.706-.53 33.5-.247 10.432-.7 20.75-.009 31.151a2.539 2.539 0 0 0 2.495 2.5c4.832-.1 8.813.446 13.627.388 4.869-.058 6.374-1.36 11.21-1.77a2.2 2.2 0 0 0 1.732-3.314c-.071-19.907-.029-43.9-.563-63.8 6.649.94 16.91 1.005 23.534.88a2.27 2.27 0 0 0 1.946-3.445 2.55 2.55 0 0 0 .047-.449z" fill="#efeae1"/><path d="m348.549 383.781a15.816 15.816 0 0 0 3.81-8.933c.635-6.721-2.593-13.476-8.857-18.534q-.195-.157-.395-.311a14.6 14.6 0 0 0 -3.318-2.451 35.862 35.862 0 0 0 -15.249-3.863c-9.391-.5-39.4-2.393-71.582-1.914-35.5.529-73.038 3.469-74.725 3.636 0 0-21.288 2.1-31.572 6.452a14.084 14.084 0 0 0 -8.647 13.246 14.852 14.852 0 0 0 9.409 13.516 62.144 62.144 0 0 0 17.2 3.758c-.343 3.244-.607 6.525-.742 9.812a117.693 117.693 0 0 0 .4 16.709 24.542 24.542 0 0 0 3.048 10.122c3.815 6.533 12.524 9.376 19.544 10.845 9.626 2.014 19.625.98 29.307-.02 16.955-1.752 34.255-3.782 51.444-4.179 17.2-.4 34.185 2.316 51.169 4.975q3.141.492 6.279.993c6.922 1.1 16.227-3.026 21.568-7.247a29.727 29.727 0 0 0 11.252-20.69c.84-8.868-2.643-19.746-9.343-25.922z" fill="#fa5d53"/><g fill="#ffc533"><path d="m194.785 362.61q-7.634.85-15.278 1.617c-9.5.944-18.962 1.749-27.83 5.5-1.393.589-.72 2.457.377 2.88 8.713 3.356 18.075 3.432 27.3 3.026a204.576 204.576 0 0 0 -2.606 23.094 105.9 105.9 0 0 0 .345 14.892c.33 3.291 1.425 7.355 5.574 7.355 8.508 0 5.565-17.245 5.153-22.247a208.6 208.6 0 0 0 -3.587-23.362c3.821-.222 7.637-.489 11.449-.854 4.8-.459 10.277.021 12.86-4.742a4.66 4.66 0 0 0 -.706-5.47c-3.528-3.868-8.41-2.206-13.051-1.689z"/><path d="m261.578 365.693c-.505-1.338-2.615-1.615-3 0a145.523 145.523 0 0 0 -3.3 24.859c-.039.644-.082 1.3-.125 1.958-4.27-.4-8.546-1.05-12.836-1.223-4.038-.162-9.062-.927-13.38-.325a171.408 171.408 0 0 0 -3.44-24.806 1.588 1.588 0 0 0 -3.038 0 181.194 181.194 0 0 0 -4.326 27.442c-.76 7.942-2.852 20.043 2.044 26.993a3.7 3.7 0 0 0 6.273 0c3.56-4.806 3.709-12.306 3.294-19.1 4.055.447 8.378-.2 12.3-.74a69.946 69.946 0 0 0 12.819-3.33c-.314 6.306-.258 12.882 1.809 18.59 1.011 2.793 5.395 4.085 6.941.907 3.739-7.686 3.57-17.106 3.056-25.463a89.253 89.253 0 0 0 -5.091-25.762z"/><path d="m293.1 391.94c-.744-8.248-.915-18.262-4.987-25.658a1.494 1.494 0 0 0 -2.562 0c-3.533 7.649-3.1 17.4-3.282 25.658-.1 4.617-.2 9.22-.108 13.838.088 4.56-.146 8.946 3.108 12.43 1.544 1.653 4.905 1.866 6.409 0 3.067-3.8 2.709-7.707 2.477-12.43-.223-4.626-.636-9.226-1.055-13.838z"/><path d="m325.7 384.243a16.647 16.647 0 0 0 -2.168-.459 14.876 14.876 0 0 1 -3.217-3.581c-2.732-4.411-1.608-11.181 4.747-10.615a1.653 1.653 0 0 0 1.574-.766 22.4 22.4 0 0 1 6.49 2.617 25.661 25.661 0 0 0 1.494 3.529c1.44 2.373 4.683 1.185 4.921-1.333.265-2.808-2.077-5.645-4.125-7.3a12.749 12.749 0 0 0 -1.068-.765 1.564 1.564 0 0 0 -.682-.691c-6.806-3.681-15.617-3.061-21.25 2.547-6.706 6.676-3.807 15.8 2.52 21.313a97.686 97.686 0 0 0 10.785 8.231c3.713 2.442 7.632 5.944 7.475 10.809-.161 5-6.043 5.642-9.809 4.433-2.023-.649-4.351-1.7-5.63-3.492-1.232-1.722-1.26-3.962-2.29-5.843a4.779 4.779 0 0 0 -6.477-1.7c-11.666 7.581 3.842 20.809 11.93 22.765 10.914 2.64 23.02-3.585 24.15-15.463 1.099-11.592-9.01-21.132-19.37-24.236z"/><path d="m110.98 166.5c-5.5 10.793 6.666 19.189 16.4 14.547 10.259-4.892 11.945-18.761 5.294-27.289-7.328-9.4-21.746-10.05-30.883-3.028-9.591 7.37-12.381 20.734-8.818 31.931a41.865 41.865 0 0 0 12.127 18.252 81.942 81.942 0 0 0 12.056 8.891 42 42 0 0 0 -21.776 18.746 1.556 1.556 0 0 0 2.685 1.569c6.436-9.573 16.592-14.908 27.984-16.064a3.214 3.214 0 0 0 .85-6.28c-5.555-2.127-10.586-3.536-15.469-7.137a41.243 41.243 0 0 1 -12.069-13.656c-5.312-10.02-5.28-23.307 3.364-31.546 8.242-7.855 24.111-7.019 27.454 5.265 1.319 4.847.358 11.016-3.979 14.092-5.266 3.736-15.116.693-12.22-7.033.65-1.737-2.16-2.912-3-1.26z"/><path d="m376.337 68.2c-13.032-.527-20.427 16.639-7.771 23.3 1.57.826 3.466-1.305 1.988-2.577-5.926-5.1-.648-14.927 6.737-13.64 8.717 1.52 9.744 12.372 5.38 18.547-10.961 15.51-34.87 6.5-48.8 1.034-15.547-6.107-31.517-13.493-48.651-12.462-12.423.748-24.521 6.237-31.08 17.167-1 1.672 1.567 3.156 2.6 1.522 9.678-15.239 29.307-16.567 45.134-11.945 16.962 4.954 32.145 14.867 49.508 18.625 13.825 2.992 31.745 1.391 38.734-12.976 5.384-11.045-.431-26.053-13.779-26.595z"/><path d="m241.22 78.417c-2.885 7.364-8.467 13.54-16.152 15.938s-16.829.389-22.141-5.865c-4.764-5.609-5.417-17.256 3.621-19.2 7.377-1.585 14.508 8.752 6.142 12.845-1.85.9-.232 3.62 1.609 2.752 8.569-4.04 8.887-17.306-.427-20.635-10.32-3.689-19.586 5.258-19.217 15.494.426 11.821 12.258 19.2 23.1 19.385 12.376.216 22.849-8.322 26.39-19.911.58-1.9-2.229-2.579-2.925-.803z"/><path d="m413.29 326.764c-2.209-9.391-12.957-16.52-22-11.182-9.191 5.425-8.667 17.664.041 23.151 1.843 1.161 3.43-1.673 1.688-2.887-5.208-3.63-6.075-11.313-.936-15.411 4.373-3.486 10.169-1.742 13.651 2.123 8.344 9.263-.479 22.055-8.176 28.184-9.193 7.321-20.916 12.677-28.172 21.528a37.983 37.983 0 0 0 -11.145-22.915c-1.421-1.374-3.35.66-2.132 2.132a36.838 36.838 0 0 1 8.157 29.82 29.122 29.122 0 0 0 -1.31 5.519c-.005.016-.009.033-.014.049h.007c-.031.227-.071.446-.1.676-.342 2.968 4.163 3.28 5 .677a37.065 37.065 0 0 0 1.629-8.014c4.614-11.16 18.6-16.906 28.026-23.524 9.507-6.668 18.729-17.414 15.786-29.926z"/><path d="m145.317 398.186c-10.658-5.749-22.927 5.573-17.326 16.518.941 1.838 3.689.22 2.766-1.617-3.386-6.737 3.324-14.338 10.45-12.211 6.774 2.022 9.5 9.7 6.546 15.843-6.783 14.117-25.5 8.327-33.344-1.272-7.923-9.695-10.328-23.571-6.877-35.514 3.5-12.115 11.848-19.242 22.776-24.555 2.213-1.076 1.841-5.156-.724-5.538a38.35 38.35 0 0 1 -31.254-27.208 1.533 1.533 0 0 0 -2.953.814 44.518 44.518 0 0 0 26.178 30.125 49.154 49.154 0 0 0 -17.659 26.2 44.818 44.818 0 0 0 8.188 38.727c7.861 9.894 22.523 15.948 33.776 7.6 9.354-6.947 10.486-21.963-.543-27.912z"/><path d="m270.627 198.918a30.334 30.334 0 0 0 -19.373-2.974c-7.711 1.4-13.978 5.938-20.482 10-6.484 4.051-15.271 8.486-22.7 3.9-3.657-2.261-5.554-7.109-3.215-10.978 2.623-4.339 9.946-2.756 9.792 2.646-.061 2.12 3.113 2.075 3.266 0 .507-6.869-7.856-11.466-13.745-8.309-7.858 4.213-6.04 15.73.105 20.463 8.178 6.3 19.082 2.981 27.014-1.885 5.168-3.171 9.82-7.226 15.286-9.909 7.381-3.623 15.393-3.268 22.873-.164 1.596.655 2.705-2.008 1.179-2.79z"/><path d="m410.361 404.639c-3.855-13.553-19.945-10.016-23.224 2-.819 3 3.333 4.682 4.955 2.089 2.2-3.524 6.46-10.26 11.052-5.565 2.551 2.608 2.317 7.344 1.234 10.479-2.716 7.862-11.253 12.654-19.22 9.7-20.258-7.512-6.17-36.724 7.886-43.042 1.559-.7.445-3.391-1.174-2.785-11.518 4.318-22.052 20.273-21.405 32.584.594 11.318 11.341 20.482 22.647 19.056 11.181-1.407 20.46-13.227 17.249-24.516z"/></g></svg>